<svg height="262" viewBox="0 0 86 262" width="86" xmlns="http://www.w3.org/2000/svg" xmlns:xlink="http://www.w3.org/1999/xlink"><linearGradient id="a" gradientUnits="userSpaceOnUse" x1="71.72" x2="85.81" y1="80.71" y2="66.62"><stop offset=".48" stop-color="#f89600"/><stop offset="1" stop-color="#ffd500"/></linearGradient><linearGradient id="b" gradientUnits="userSpaceOnUse" x1="34.52" x2="34.52" y1="119.45" y2="46.12"><stop offset="0" stop-color="#da5d92"/><stop offset="1" stop-color="#e887b1"/></linearGradient><linearGradient id="c" gradientUnits="userSpaceOnUse" x1="28.55" x2="28.55" y1="54.34" y2=".47"><stop offset=".04" stop-color="#a52b6a"/><stop offset="1" stop-color="#7e2361"/></linearGradient><path d="m33.79 255.34.44-6.81 6.56.56s-1.76 4.56 1.84 5.5a54.29 54.29 0 0 1 7.15 2.51l-8.24 2z" fill="#ba7772"/><path d="m49 6.82a14.24 14.24 0 0 1 .47 4.79c-.31 1.75-5.22-4.97-.47-4.79z" fill="#7e2361"/><path d="m52.13 25.38c-.86-1.23-2.56-2.34-1.93-7.29.61-4.76-.35-7.43-.88-8.29-2.52-4.91-8.32-.06-14.24-.06-8.4 0-13.32-2.68-13.32 5.68 0 7.93-1.45 17.88 5.58 18.87.17 1.83.55 9.34-3.94 14-4.95 5.06 19.6 12.78 15.29 2.17a21.4 21.4 0 0 1 -.76-13.46c10.07 2.81 11.27-.61 11.27-.61l.26-2.18a1.3 1.3 0 0 0 1.69-1.32 1.37 1.37 0 0 0 -.36-.85 1.34 1.34 0 0 0 .79-1.26 1.32 1.32 0 0 0 -1.11-1.24l.22-1s2.84-1.16 1.44-3.16z" fill="#ba7772"/><path d="m40 21.24s5.12-7 10.28-7.68a9.55 9.55 0 0 0 -2.46-6c-2.48-2.78-7.82 13.68-7.82 13.68z" fill="#1a1e5a"/><path d="m72.68 81.61a1.35 1.35 0 0 1 -.49-1.84l10.81-13.55a1.35 1.35 0 0 1 1.84-.49 1.34 1.34 0 0 1 .49 1.83l-10.82 13.56a1.34 1.34 0 0 1 -1.83.49z" fill="url(#a)"/><path d="m38 47.37-12.65-1.24a1.65 1.65 0 0 0 -1.59.87c-1.85 3.41-7.56 15.82-3.47 32.85 5.27 21.94 9.37 39.6 9.37 39.6h16.12s.71-32.35 3.71-43.32c3.57-13.06-7.27-17.13-11.49-28.76z" fill="url(#b)"/><path d="m49 6.82s-14.06-12-33.49-3c-18.51 8.62 3.34 42.23 2.72 47.34-1.42 11.8 9.13-13 16.29-12.76a67.26 67.26 0 0 1 14.48-29.62z" fill="url(#c)"/><path d="m37.78 41.66a2.25 2.25 0 0 0 -.23-4.49c-24.93-1.67-27.31 25.83-26.15 36.5 2 18-10.92 36.16-10.92 36.16 7.81 5.27 10.57 15.11 10.57 15.11s9.64-14.4 9.64-29.12c0-15.38-5.88-32.95 2.51-43.23 5.29-6.49 12.8-2.79 13.8-2.3h.06.06a2.16 2.16 0 0 0 1.16.27 2.24 2.24 0 0 0 -.1-4.48 2.24 2.24 0 0 0 -.36-4.47" fill="#7e2361"/><path d="m38.79 95.47 25-16.53a5.68 5.68 0 0 0 1.77-1.54c1.1-1.48 2.14-3.37 3.79-3.37h10.65s2.59-.42 2.59 1.46-2.59 1.32-2.59 1.32a2.11 2.11 0 0 1 -2.13 1.94 1.87 1.87 0 0 1 -1.87 1.79 6.57 6.57 0 0 1 -4.48 1.74c-2.81 0-6.63 3-6.63 3-12.43 8.73-21 16.63-26.41 21.24 0 0-3.91 3-7.85-8.68a88.67 88.67 0 0 1 -4.63-22.35c-.23-2.8.63-9.27 5-9l6 6z" fill="#ba7772"/><path d="m33.63 249.72h7.37c3.45-16.95 5.56-82.8 4.74-130.27h-16.08s-9.94 12.21-8.89 24.75c1.37 16.27 18.28 36.27 12.86 105.52z" fill="#7e2361"/><g fill="#e887b1"><path d="m39.21 73.67h-14.21a1.83 1.83 0 0 1 -1.82-1.83v-10.84a8.94 8.94 0 0 1 8.92-8.91 9 9 0 0 1 8.9 8.91v10.84a1.83 1.83 0 0 1 -1.79 1.83z"/><path d="m33.32 254.59s-2.22 2.13-2 6.94h24.1s6.62-3.47-7-4.88c0 0-3.5 4.07-15.1-2.06z"/></g></svg>