<svg height="248" viewBox="0 0 79 248" width="79" xmlns="http://www.w3.org/2000/svg" xmlns:xlink="http://www.w3.org/1999/xlink"><linearGradient id="a" gradientTransform="matrix(.8660254 -.5 .5 .8660254 -24.14 45.96)" gradientUnits="userSpaceOnUse" x1="68.43" x2="78.95" y1="68.03" y2="68.03"><stop offset=".48" stop-color="#f89600"/><stop offset="1" stop-color="#ffd500"/></linearGradient><linearGradient id="b" gradientUnits="userSpaceOnUse" x1="23.91" x2="23.91" y1="125.1" y2="41.95"><stop offset="0" stop-color="#cae2f6"/><stop offset="1" stop-color="#e9f3ff"/></linearGradient><path d="m40.56 35.4a1.41 1.41 0 0 0 0-.18l-.41-5.51 2.16-.57c-.92-2-2.92-7-2.22-11.35a11.22 11.22 0 0 0 -2-7.84c-2.44-5.18-8.4-8.84-15.37-8.84-9.15 0-16.56 6.3-16.56 14.06a12.63 12.63 0 0 0 3.22 8.31v29.36h21.23v-11.13c9.17-.75 9.93-4.91 10-6.15z" fill="#efa39c"/><path d="m14.7 239.54h12.22v-7.04h-11.09z" fill="#cde1f1"/><rect fill="url(#a)" height="18.34" rx="1.34" transform="matrix(.8660254 .5 -.5 .8660254 43.89 -27.73)" width="2.69" x="72.35" y="58.86"/><path d="m16 42.45-7-.5s-9.59 11.47-8.91 33.53a441.74 441.74 0 0 0 4.79 49.62h42.6a233.77 233.77 0 0 0 -.15-25.26c-.93-11.63-2.53-46.72-31.33-57.39z" fill="url(#b)"/><path d="m14.85 234.33h13.15c3.46-15.51 18.55-65.48 19.5-110h-42s-3.63 18 1.5 29.16c4.56 10.02 10 64.75 7.85 80.84z" fill="#1c4984"/><path d="m76.05 69.23h-10.67a8.23 8.23 0 0 0 -6.8 3.37 5.42 5.42 0 0 1 -1.76 1.54l-31.31 17.86c.47-7.13-2.2-15-2.2-15s-14.31-22.55-14.25-1.16 9.86 31.46 9.86 31.46c2.12 2.09 4.33 3.23 6.79 1.14 1.65-1.39 3.88-2.65 5.67-4.18 5.41-4.61 15.76-17.22 27-23a22.49 22.49 0 0 0 2.46-1.47c1-.67 4.09 0 5.25 0h2a3.64 3.64 0 0 0 3.55-1.79 8.46 8.46 0 0 1 2.19-2.43 3.62 3.62 0 0 0 1.06-2.57h1.18s2.56 0 2.56-1.87-2.58-1.9-2.58-1.9z" fill="#efa39c"/><path d="m16.38 47.72a11 11 0 0 1 11 11v18a1.64 1.64 0 0 1 -1.64 1.64h-18.69a1.64 1.64 0 0 1 -1.64-1.64v-18a11 11 0 0 1 11-11z" fill="#e9f3ff"/><path d="m13.94 237a1.07 1.07 0 0 1 1.42-.78c1.68.71 4.42 1.73 8.9-.12 6.22-2.55 9.62 6.27 20 6.27s6.21 5.28-.76 5.28h-30.5a32 32 0 0 1 .94-10.65z" fill="#7b4241"/><path d="m14.68 17.72c4.22-1.12 4.51 5.28 4.32 7.89l2-.57a2.3 2.3 0 0 0 1.76-2.63c-.84-3.69 9.5-7-.44-7s-15.71-4.04-15.71-4.04a16.87 16.87 0 0 0 -.84 7.2 17.79 17.79 0 0 0 .75 3.84c.32.91 2.83 6.15 2.83 6.15l1.3-.36a3 3 0 0 0 2.35-3.88c-.75-1.79-.92-5.92 1.68-6.6z" fill="#e9f3ff"/><path d="m27.82 2.26a53.15 53.15 0 0 0 -21.68 12.74.56.56 0 0 1 -.94-.53c1.01-4.86 5.33-17.47 22.58-13.3a.57.57 0 0 1 .04 1.09z" fill="#1c4984"/></svg>