<svg height="272" viewBox="0 0 80 272" width="80" xmlns="http://www.w3.org/2000/svg" xmlns:xlink="http://www.w3.org/1999/xlink"><linearGradient id="a" gradientUnits="userSpaceOnUse" x1="29.22" x2="29.22" y1="185.22" y2="56.39"><stop offset="0" stop-color="#ffd500"/><stop offset="1" stop-color="#ffe76d"/></linearGradient><path d="m66.74 89.87a1.34 1.34 0 0 1 -.5-1.83l10.83-13.56a1.35 1.35 0 0 1 1.84-.48 1.35 1.35 0 0 1 .49 1.84l-10.83 13.54a1.34 1.34 0 0 1 -1.83.49z" fill="#003ea7"/><path d="m40.68 264.86c-2.91-.86-1.88-5.51-1.88-5.51 5.2-23.69 13.2-72.35 11.03-129.63h-32.11s-7.78 10-6.73 22.51c1.36 16.16 20.12 38.77 21.31 106.57l-.44 6.82 7.75 3.75 8.24-2s-3.6-1.46-7.17-2.51z" fill="#7b4241"/><path d="m31.38 264.86s-2.22 2.12-2 6.93h24.1s6.62-3.46-7-4.87c0 0-3.48 4.08-15.1-2.06z" fill="#ffd500"/><path d="m51.69 93.24c11.55-15.6-6-23.26-16.49-35.66l-16.79-1.19a1.67 1.67 0 0 0 -1.59.87c-1.82 3.42-9.75 12.74-4.33 32.74 6.39 23.53 7 33.15 7 33.15s-28.95 18.72-15.49 58.57a22.44 22.44 0 0 0 15.19 2.28 32.36 32.36 0 0 1 17 .59c2.44.79 15.85 1.19 20.72-.62 0 0 3.46-37.45-1.8-54.21-.55-3.17-9.76-27.97-3.42-36.52z" fill="url(#a)"/><path d="m74 82.3h-10.63c-1.65 0-2.69 1.89-3.8 3.37a5.51 5.51 0 0 1 -1.76 1.53l-24.81 13.97 1.33-28.17c0-.12 0-.25 0-.37a9.57 9.57 0 0 0 -19.14 0v.37a2.46 2.46 0 0 0 0 .26c.63 8 2.76 26.3 6.33 33.56 5.41 11 11 7.91 11 7.91 5.41-4.61 14-12.51 26.4-21.25 0 0 3.83-3 6.64-3a6.59 6.59 0 0 0 4.48-1.73 1.88 1.88 0 0 0 1.9-1.75 2.1 2.1 0 0 0 2.12-2s2.57.57 2.57-1.31-2.63-1.39-2.63-1.39z" fill="#7b4241"/><path d="m35.2 57.58a21.83 21.83 0 0 1 .29-10c5.45 2.6 6.76-1 6.76-1l.26-1.18a1.31 1.31 0 0 0 1.33-2.16 1.33 1.33 0 0 0 .78-1.26 1.31 1.31 0 0 0 -1.1-1.25l.22-1s2.95-.73 1.55-2.73c-.86-1.23-2.32-4.86-1.62-9.84a8.8 8.8 0 0 0 -2.18-7.27c-2.49-4.89-7.43.11-13.35.11-8.4 0-13.32-2.68-13.32 5.68 0 7.93-1.45 17.88 5.58 18.88.14 1.57.44 7.33-2.33 11.86a2 2 0 0 1 .34 0l9.39.84c5.64.4 10.32 7.25 10.32 7.25 7.79 8.07 12 8.06 12 8.06-4.77-6.22-12.59-11.39-14.92-14.99z" fill="#7b4241"/><path d="m43.53 24.77a3 3 0 0 0 1.3.3 3 3 0 0 0 2.69-4.35 3 3 0 0 0 .79-5.72 3 3 0 0 0 -2.73-5.34l-.08-.11a3 3 0 1 0 -4.63-3.75l-.15-.07c-.09 0-.19-.08-.28-.12a3.12 3.12 0 0 0 .2-1.06 3 3 0 0 0 -5.74-1.31 3 3 0 0 0 -5.9-.8 3 3 0 0 0 -5.84.13 3 3 0 0 0 -5.54 1.17 3 3 0 0 0 -5 2.22 2.9 2.9 0 0 0 -1-.19 3 3 0 0 0 -3 3 1.94 1.94 0 0 0 0 .24 3 3 0 0 0 -2.19 4.46 3 3 0 0 0 -1.22 5.37 3 3 0 0 0 -.61 5.81 3 3 0 0 0 -.14 5.93 3 3 0 0 0 1.17 5.76 3 3 0 0 0 -.84 2.07 3 3 0 0 0 3 3 3.07 3.07 0 0 0 1.21-.19 3 3 0 0 0 5.47 2.48l.36.12a3.25 3.25 0 0 0 -.11.77 3 3 0 0 0 6 0 2.92 2.92 0 0 0 -.1-.73 10.43 10.43 0 0 0 -1.62-3.23c-.94-1.47-2.52-3.73-2.26-6.49s3.26-3.44 5.14-1.14c2 2.47 4.18 2.21 5.7-2.14s4.1-8.71 15.95-6.09z" fill="#1a1e5a"/></svg>