<svg height="259" viewBox="0 0 64 259" width="64" xmlns="http://www.w3.org/2000/svg" xmlns:xlink="http://www.w3.org/1999/xlink"><linearGradient id="a" gradientUnits="userSpaceOnUse" x1="36.01" x2="36.01" y1="121.12" y2="47.86"><stop offset="0" stop-color="#da5d92"/><stop offset="1" stop-color="#e887b1"/></linearGradient><linearGradient id="b" gradientUnits="userSpaceOnUse" x1="36.18" x2="36.18" y1="48.73" y2=".06"><stop offset=".04" stop-color="#a52b6a"/><stop offset="1" stop-color="#7e2361"/></linearGradient><linearGradient id="c" gradientUnits="userSpaceOnUse" x1="36.58" x2="36.58" y1="47.21" y2="39.43"><stop offset=".33" stop-color="#985a58"/><stop offset="1" stop-color="#985a58"/></linearGradient><path d="m35.8 249.76c-.07-.27.3-5.23.3-5.23h-4.55s1.76 1.18-4.07 6.1c-3.67 3.08-3.95 4.36-3.95 4.36l9.71-1.43z" fill="#ba7772"/><path d="m27.48 250.68s-5 3.55-6.28 7.09c-1.4 4 12.93-3.25 14.65-4.62 1.37-1.09.6-3 .21-3.81a.35.35 0 0 0 -.49-.15c-2.04 1.11-14.57 7.68-8.09 1.49z" fill="#e887b1"/><path d="m36.12 249.76c.07-.27-.31-5.23-.31-5.23h4.55s-1.75 1.18 4.08 6.1c3.66 3.08 3.94 4.36 3.94 4.36l-9.7-1.43z" fill="#ba7772"/><path d="m44.44 250.68s5 3.55 6.27 7.09c1.4 4-12.92-3.25-14.65-4.62-1.36-1.09-.59-3-.21-3.81a.35.35 0 0 1 .49-.15c2.05 1.11 14.59 7.68 8.1 1.49z" fill="#e887b1"/><path d="m20.38 86.17s-3.38 23.37-20.28 30.5c0 0 10.17 9 11.35 18.48 0 0 13-25.77 11.91-41.58s-2.98-7.4-2.98-7.4z" fill="#7e2361"/><path d="m47.33 116.63c-8.87-14.76-10.58-5.19-11.32-1.32-.73-3.87-1.92-13.11-11.31 1.32-15 23.1 6.87 45.24 6.87 129.08h8.89c0-83.84 22.44-103.17 6.87-129.08z" fill="#7e2361"/><path d="m9.11 75.51c-2.2 20.2 6.56 50.68 8 60.82a10.41 10.41 0 0 0 -1.35 6.75c.45 4.36 2.92 7.6 5.51 7.25s4.32-4.16 3.87-8.52c-.33-3.17-1.73-5.73-3.47-6.77 0 0-5.75-36.39-4-57.22z" fill="#ba7772"/><path d="m62.93 75.51c2.2 20.2-6.56 50.68-8 60.82a10.47 10.47 0 0 1 1.36 6.75c-.46 4.36-2.93 7.6-5.52 7.25s-4.32-4.16-3.87-8.52c.33-3.17 1.73-5.73 3.47-6.77 0 0 5.76-36.39 4-57.22z" fill="#ba7772"/><path d="m37 47.91h-.11-.11l-.78.09-.69-.05h-.11-.11c-32.09 6.63-26.61 29.3-26.61 29.3s5.12 1.87 9 1.57c0 0-.75 3.12 3.07 8.44 4.29 6 3.56 29.06 3.56 29.06s1.13 4.68 10.89 4.79h.41.64.65.41c9.72-.11 10.84-4.79 10.84-4.79s-.73-23.09 3.56-29.06c3.82-5.32 3.07-8.44 3.07-8.44 3.88.3 9-1.57 9-1.57s5.42-22.67-26.58-29.34z" fill="url(#a)"/><path d="m54.32 20c0 11-5.52 28.73-18.14 28.73-11.01 0-18.13-17.73-18.13-28.73s8.12-19.94 18.13-19.94 18.14 8.94 18.14 19.94z" fill="url(#b)"/><path d="m30.94 39.43h11.28v7.78h-11.28z" fill="url(#c)"/><path d="m47.46 8.94a14.41 14.41 0 0 0 -10.88-5.31 14.45 14.45 0 0 0 -10.89 5.31s-12.55 13.57 3.85 29.61a10.75 10.75 0 0 0 7 3.21h.05a10.75 10.75 0 0 0 7-3.21c16.41-16.04 3.87-29.61 3.87-29.61z" fill="#ba7772"/><path d="m47.46 8.94a14.41 14.41 0 0 0 -10.88-5.31 14.45 14.45 0 0 0 -10.89 5.31 18.84 18.84 0 0 0 -3.13 5.22c14.28-11.87 28 0 28 0a19 19 0 0 0 -3.1-5.22z" fill="#1a1e5a"/><path d="m29.58 34.84s7.25 5.5 14 0z" fill="#fff"/><path d="m49.8 49.85a1.82 1.82 0 0 0 -1.39-1.77 1.8 1.8 0 0 0 -.38-2.9 1.8 1.8 0 0 0 .97-1.59 1.82 1.82 0 0 0 -1.83-1.82h-.33c-.39.08-7.14 1.37-20.78 0a1.81 1.81 0 0 0 -.88 3.41 1.82 1.82 0 0 0 -.95 1.59 1.79 1.79 0 0 0 .57 1.31 1.82 1.82 0 0 0 -.26 3.45 41.6 41.6 0 0 0 12.09 1.71 41.52 41.52 0 0 0 12.09-1.71 1.84 1.84 0 0 0 1.08-1.68z" fill="#7e2361"/></svg>