<svg height="272" viewBox="0 0 71 272" width="71" xmlns="http://www.w3.org/2000/svg" xmlns:xlink="http://www.w3.org/1999/xlink"><linearGradient id="a" gradientUnits="userSpaceOnUse" x1="35.5" x2="35.5" y1="191.34" y2="52.75"><stop offset="0" stop-color="#ffd500"/><stop offset="1" stop-color="#ffe76d"/></linearGradient><linearGradient id="b" gradientUnits="userSpaceOnUse" x1="35.65" x2="35.65" y1="56.64" y2="48.86"><stop offset="0" stop-color="#7b4241"/><stop offset="1" stop-color="#5e2a2a"/></linearGradient><path d="m23 261.28c.41-.25 1.24-.82 1.66-1.09 1.71-1.07 1.84-2.59 1.34-4.54-13.19-51-13.19-77.86-13.19-77.86l23.75 2c-3.56 12.09-4.64 80.21-4.64 80.21s.07.15.07.15-7 6.37-10.72 7.13-2.81-1.6-1.2-3.24z" fill="#7b4241"/><path d="m23 261.28s-6.33 4.47-7.92 8.94c-1.76 5 14.64-3.32 16.82-5.06s0-5.21 0-5.21-17.9 9.9-8.9 1.33z" fill="#ffd500"/><path d="m48.32 261.28c-.41-.25-1.24-.82-1.66-1.09-1.71-1.07-1.84-2.59-1.34-4.54 13.19-51 13.19-77.86 13.19-77.86l-23.76 2c3.52 12 4.63 80.12 4.63 80.12a.17.17 0 0 1 -.08.15s7 6.37 10.73 7.13 2.81-1.6 1.19-3.24l-2.9-2.71" fill="#7b4241"/><path d="m48.32 261.28s6.33 4.47 7.92 8.94c1.76 5-14.64-3.32-16.82-5.06s0-5.21 0-5.21 17.89 9.9 8.9 1.33z" fill="#ffd500"/><path d="m64.34 71.86c-4.27-14.82-20.91-18-20.91-18s13.85 37 15.74 78c.19 4.25.26 8.53.17 12.83-2 1.39-3.43 4.57-3.54 8.37-.15 5.23 2.25 9.62 5.37 9.81s5.83-3.87 5.93-9.13a12.49 12.49 0 0 0 -2.21-7.92c.77-12.21 6.11-51.02-.55-73.96z" fill="#7b4241"/><path d="m5.92 71.86c4.27-14.86 22.08-17.97 22.08-17.97s-15.77 37.11-16.91 77.97c-.11 4.25-.26 8.53-.17 12.83 2 1.39 3.43 4.57 3.54 8.37.15 5.23-2.25 9.62-5.37 9.81s-5.78-3.9-5.93-9.13a12.49 12.49 0 0 1 2.21-7.92c-.77-12.21-6.06-51.02.55-73.96z" fill="#7b4241"/><path d="m56.79 123.14-1.66-13.66a29.68 29.68 0 0 1 2-14.79l.1-.26a34.3 34.3 0 0 0 2.11-19.12c-1.82-10-7.37-22.56-23.75-22.56-16.55 0-22.05 13.8-23.86 24a34.48 34.48 0 0 0 1.36 17.15l.67 2a29.66 29.66 0 0 1 1.47 12.19l-1.13 12.72a31.09 31.09 0 0 1 -3.58 11.88c-3.52 6.55-8.08 19.78-10.52 45.96 0 0 6.64 7.46 16.88 7.09s11.44 5.6 18.59 5.6 8.35-6 18.59-5.6 16.94-7.09 16.94-7.09c-2.58-24.41-7.7-38.43-11.29-45.65a30.15 30.15 0 0 1 -2.92-9.86z" fill="url(#a)"/><path d="m11.11 131.48c-.12 4.25-.28 8.91-.19 13.21 2 1.39 3.43 4.57 3.54 8.37.15 5.23-2.25 9.62-5.37 9.81s-5.78-3.9-5.93-9.13a12.49 12.49 0 0 1 2.21-7.92s4-18.06 5.73-14.28" fill="#7b4241"/><path d="m64.89 145.82a12.49 12.49 0 0 1 2.21 7.92c-.15 5.23-2.81 9.32-5.93 9.13s-5.52-4.58-5.37-9.81c.11-3.8 1.56-7 3.54-8.37.09-4.3 0-8.58-.17-12.83 0 0 5.14 7.23 5.72 13.96z" fill="#7b4241"/><path d="m35.44 52.73h.11" fill="#7e2361"/><path d="m48.1 61.3c0 4.72 0 16.21-12.66 16.21-12.37 0-12.37-11.51-12.37-16.21s7.26-8.55 12.52-8.55 12.51 3.83 12.51 8.55z" fill="#7b4241"/><path d="m30.01 48.86h11.28v7.78h-11.28z" fill="url(#b)"/><path d="m60.06 25.67a1.8 1.8 0 0 0 -.22-.06 2.69 2.69 0 0 0 -.2-5.2 2.67 2.67 0 0 0 1-2.46 2.7 2.7 0 0 0 -2.53-2.36 2.69 2.69 0 0 0 -2.55-4.27 2.69 2.69 0 0 0 -3.43-3.58 2.69 2.69 0 0 0 -4.13-2.74 2.68 2.68 0 0 0 -4.73-1.84 2.68 2.68 0 0 0 -5.09-.89 2.73 2.73 0 0 0 -5.27 0 2.68 2.68 0 0 0 -5.09.89 2.68 2.68 0 0 0 -4.71 1.84 2.69 2.69 0 0 0 -4.11 2.74 2.69 2.69 0 0 0 -3.43 3.58 2.7 2.7 0 0 0 -2.57 4.27 2.68 2.68 0 0 0 -1.47 4.82 2.69 2.69 0 0 0 -.2 5.2l-.23.06a2.69 2.69 0 0 0 .14 5 2.68 2.68 0 0 0 2.38 4.53 2.92 2.92 0 0 0 -.21.28 2.69 2.69 0 0 0 1 3.69 2.63 2.63 0 0 0 2.16.25 2.32 2.32 0 0 0 -.16.36 2.69 2.69 0 0 0 3.75 3.23 2.7 2.7 0 0 0 2.27 3.07 2.64 2.64 0 0 0 1.57-.27 2.69 2.69 0 0 0 5.29.35h12.51a2.69 2.69 0 0 0 5.29-.35 2.67 2.67 0 0 0 1.7.32 2.71 2.71 0 0 0 2.27-3.07 2.69 2.69 0 0 0 3.75-3.23 3.88 3.88 0 0 0 -.15-.36 2.63 2.63 0 0 0 2.16-.25 2.7 2.7 0 0 0 .95-3.69 2.92 2.92 0 0 0 -.21-.28 2.69 2.69 0 0 0 2.38-4.53 2.69 2.69 0 0 0 .13-5z" fill="#1a1e5a"/><path d="m46.4 21.64a15.14 15.14 0 0 0 -10.89-4.71 15.16 15.16 0 0 0 -10.9 4.71s-12.61 12.03 3.86 26.26a11.36 11.36 0 0 0 7 2.85h.05a11.38 11.38 0 0 0 7-2.85c16.48-14.23 3.88-26.26 3.88-26.26z" fill="#7b4241"/><path d="m29.32 44.05s6.21 6.7 12.42 0z" fill="#fff"/><path d="m41.74 11.33-19.74 5.6 1.91 3.95a2.69 2.69 0 0 0 -.65 1.74v.24a2.63 2.63 0 0 0 -1.26-.34 2.7 2.7 0 1 0 2.7 2.7 1.79 1.79 0 0 0 0-.23 2.62 2.62 0 0 0 1.28.33 2.7 2.7 0 0 0 2.7-2.7s0-.08 0-.12a2.69 2.69 0 0 0 4.74-.34 2.67 2.67 0 0 0 4.26 0 2.69 2.69 0 0 0 4.74.34.5.5 0 0 0 0 .12 2.7 2.7 0 0 0 2.7 2.7 2.62 2.62 0 0 0 1.22-.32v.23a2.7 2.7 0 0 0 5.4 0 1.94 1.94 0 0 0 0-.24c2.06-.55-10-13.66-10-13.66z" fill="#1a1e5a"/></svg>