<svg height="274" viewBox="0 0 70 274" width="70" xmlns="http://www.w3.org/2000/svg" xmlns:xlink="http://www.w3.org/1999/xlink"><linearGradient id="a" gradientUnits="userSpaceOnUse" x1="35" x2="35" y1="150.13" y2="51.02"><stop offset="0" stop-color="#1c4984"/><stop offset="1" stop-color="#1a1e5a"/></linearGradient><path d="m22.64 256.17s-3.32 6-11.24 11.66.16 8.23 9.76 2.9 13.92-4 11.81-13.93l-.45-.49s-5.33 1.9-9.88-.14z" fill="#7b4241"/><path d="m48.31 256.17s3.32 6 11.24 11.66-.16 8.23-9.76 2.9-13.93-4-11.82-13.93l.46-.49s5.33 1.9 9.88-.14z" fill="#7b4241"/><path d="m17.6 123s-6.22 56.4 4.68 134.18h10.19l2.53-97.18 3.29 97.19h10.2c10.86-77.77 4.65-134.19 4.65-134.19z" fill="#1a1e5a"/><path d="m69.28 73.66a79.6 79.6 0 0 0 -.94-8.93 7 7 0 0 0 -3.74-5.16c-16.23-8.3-28.6-8.57-29.6-8.57h-.07c-1 0-13.49.25-29.77 8.61a6.84 6.84 0 0 0 -3.6 5 83 83 0 0 0 -1 14.2c-.64 28.48 6.22 54.75 7.9 66.94l7.54-2.08c-.19 2-.35 3.17-.35 3.17a78.38 78.38 0 0 0 20.24 3.3s10.6 0 19.23-3.3c0 0-.1-1.08-.23-3l6.8 1.88c1.68-12.9 9.53-41.63 7.59-72.06zm-53.28 69.26a297.57 297.57 0 0 1 -2.9-49.76 147.85 147.85 0 0 1 2.9 49.76zm38.57-4c-.42-10.28-.47-29 3.17-46.46.12 18.16-2.08 37.68-3.21 46.43z" fill="url(#a)"/><path d="m27.32 58.07.06-8.67h16.76l.04 8.28z" fill="#ffccc2"/><path d="m51.87 22.2h-.67a1.86 1.86 0 0 0 -.33 0 39.24 39.24 0 0 0 -.45-6.84c-1-4.54-3.78-5.3-3.78-5.3s-23.87-2.55-25.49 2.43c-.59 1.79-.67 5.62-.53 9.77a1.59 1.59 0 0 0 -.38-.06h-.68a1.55 1.55 0 0 0 -1.56 1.55v7.25a1.54 1.54 0 0 0 1.54 1.55h.68a1.56 1.56 0 0 0 1-.37c.28 3.36.54 5.77.54 5.77l19.57 9.29 9.07-10s.12-2 .23-4.75a1.68 1.68 0 0 0 .55.1h.67a1.54 1.54 0 0 0 1.57-1.59v-7.25a1.55 1.55 0 0 0 -1.55-1.55z" fill="#ffccc2"/><path d="m27.56 55.14s9.24 5.4 16.32 0l-.12 17.06-8 31.19-5.88-20.86z" fill="#e9f3ff"/><path d="m41.83 57.54h-11.37l5.16 5.72-4.76 24.29 4.93 15.84 4.84-15.86-3.46-24.25z" fill="#94bdd4"/><path d="m45 54 1.37 2.66-4.29 5.6-5.63-4.74zm-17.59-.16-.87 2.82 4.29 5.6 5.62-4.74z" fill="#cde1f1"/><path d="m44.14 52s-1.24 28.85-8.35 51.4c0 0 11-20.23 14.11-41.11l-3.51-1.9 4.25-2.31a14.1 14.1 0 0 0 -6.5-6.08z" fill="#1c4984"/><path d="m27.36 52s1.32 28.85 8.43 51.4c0 0-12-23.46-14.19-41.11l3.52-1.9-4.25-2.31a14 14 0 0 1 6.49-6.08z" fill="#1c4984"/><path d="m15.49 145.72c2.22 1.32 4 4.59 4.43 8.64.58 5.56-1.64 10.43-5 10.87s-6.45-3.7-7-9.25a13.34 13.34 0 0 1 1.72-8.62z" fill="#ffccc2"/><path d="m9.47 147.66-.48-2.13 6.31-1.71.44 1.9z" fill="#e9f3ff"/><path d="m54.46 145.72c-2.21 1.32-4 4.59-4.42 8.64-.58 5.56 1.63 10.43 4.94 10.87s6.45-3.7 7-9.25a13.34 13.34 0 0 0 -1.72-8.62z" fill="#ffccc2"/><path d="m60.48 147.66.48-2.13-6.3-1.71-.45 1.9z" fill="#e9f3ff"/><path d="m49.87 11.48a6.88 6.88 0 0 0 -5.44-11.12h-7.17c-18.47 0-17.26 14.64-17.26 14.64h.09a7.74 7.74 0 0 0 -.1 1.19v20.13a15.68 15.68 0 0 0 15.71 15.68 15.68 15.68 0 0 0 15.67-15.68v-20.08a7.38 7.38 0 0 0 -1.62-4.61zm-.27 20.22a7.71 7.71 0 0 1 -7.15 7.69v-.74a3.1 3.1 0 0 0 -3.09-3.09h-7.36a3.1 3.1 0 0 0 -3.09 3.09v.74a7.72 7.72 0 0 1 -7.15-7.69v-15.9l.26-.19c14.75 4.06 22.63 1.24 26.84-3a7.65 7.65 0 0 1 .71 3.21z" fill="#ff761a"/><path d="m31.76 40s3.93 4.83 7.86 0z" fill="#ffccc2"/></svg>