<svg height="192" viewBox="0 0 61 192" width="61" xmlns="http://www.w3.org/2000/svg" xmlns:xlink="http://www.w3.org/1999/xlink"><linearGradient id="a" gradientUnits="userSpaceOnUse" x1="30.45" x2="30.45" y1="129.59" y2="100.67"><stop offset="0" stop-color="#7e2361"/><stop offset="1" stop-color="#571b59"/></linearGradient><linearGradient id="b" gradientUnits="userSpaceOnUse" x1="30.53" x2="30.53" y1="44.46" y2="36.69"><stop offset="0" stop-color="#ba7772"/><stop offset="1" stop-color="#985a58"/></linearGradient><path d="m21.6 184.15c-1.62 1.64-4.1 4.2-.38 3.44s6.78-4.44 6.78-4.44a.17.17 0 0 1 0-.15s-1.51-46.29 2-58.33l-12.3-5s.47 36.25 5.42 62c0 0 .3 1.27-1.53 2.42" fill="#ba7772"/><path d="m21.89 184s-4.75 3.12-5.66 6.39c-1.18 4.22 10.66-1.55 12.21-2.79s-.34-4.6-.34-4.6-12.52 8.54-6.21 1z" fill="#7e2361"/><path d="m37.09 184.15c1.62 1.64 4.1 4.2.38 3.44s-6.82-4.44-6.82-4.44a.17.17 0 0 0 .08-.15s1.47-46.29-2.05-58.33l12.3-5s-.47 36.25-5.42 62c0 0-.3 1.27 1.53 2.42" fill="#ba7772"/><path d="m36.8 184s4.75 3.12 5.66 6.39c1.18 4.22-10.66-1.55-12.21-2.79s.34-4.55.34-4.55 12.52 8.49 6.21.95z" fill="#7e2361"/><path d="m42.35 100.67h-23.81s-3.09 14.92-8.95 23.25a15.72 15.72 0 0 0 9.93 3.17c6-.17 6.72 2.5 10.93 2.5s4.9-2.67 10.92-2.5a15.69 15.69 0 0 0 9.93-3.17c-5.86-8.33-8.95-23.25-8.95-23.25z" fill="url(#a)"/><path d="m52.6 60.54c-.31-9.63-7.49-.8-7.49-.8s2.89 16.95-1.24 40.78a5.56 5.56 0 0 0 -2.71 4.13c-.49 2.72.57 5.2 2.38 5.52s3.68-1.61 4.17-4.34a6 6 0 0 0 -.68-4.31c1.4-6.33 5.97-28.32 5.57-40.98z" fill="#ba7772"/><path d="m8.4 61.24c.31-9.63 7.49-.81 7.49-.81s-2.86 17 1.24 40.79a5.56 5.56 0 0 1 2.71 4.12c.49 2.73-.57 5.2-2.38 5.53s-3.68-1.61-4.17-4.34a6 6 0 0 1 .68-4.31c-1.4-6.33-5.97-28.32-5.57-40.98z" fill="#ba7772"/><path d="m30.53 40.57h-.07a29 29 0 0 0 -22.86 19.27 13.37 13.37 0 0 0 8.5 1l2.5 39.87a26.14 26.14 0 0 0 11.86 3.13h.07a26.14 26.14 0 0 0 11.86-3.13l2.5-39.87a13.37 13.37 0 0 0 8.5-1 29 29 0 0 0 -22.86-19.27z" fill="#7e2361"/><ellipse cx="30.46" cy="49.12" fill="#ba7772" rx="9.51" ry="8.55"/><path d="m24.89 36.69h11.28v7.78h-11.28z" fill="url(#b)"/><path d="m14.17 19.3s-11.82-1.11-13.91 12.16c0 0 13.12 3.1 13.91-12.16z" fill="#5e2a2a"/><path d="m46.83 19.5s11.82-1.1 13.91 12.17c0 0-13.12 3.09-13.91-12.17z" fill="#5e2a2a"/><path d="m42.75 5.45a17.16 17.16 0 0 0 -12.28-5.31 17.16 17.16 0 0 0 -12.29 5.31s-14.18 13.55 4.35 29.6a12.8 12.8 0 0 0 7.9 3.21h.06a12.8 12.8 0 0 0 7.91-3.21c18.51-16.05 4.35-29.6 4.35-29.6z" fill="#ba7772"/><path d="m23.49 30.71s7.25 5.5 14 0z" fill="#fff"/><path d="m18.05 5.45a18 18 0 0 0 -5 13.82c9.21-2.25 12.05-8 12.05-8 8.35 9.42 21.71 8.13 22.78 8.17a18.21 18.21 0 0 0 -5-14.14 17.33 17.33 0 0 0 -24.83.15z" fill="#5e2a2a"/></svg>