<svg height="274" viewBox="0 0 77 274" width="77" xmlns="http://www.w3.org/2000/svg" xmlns:xlink="http://www.w3.org/1999/xlink"><linearGradient id="a" gradientUnits="userSpaceOnUse" x1="38.5" x2="38.5" y1="138.67" y2="52.57"><stop offset="0" stop-color="#3a967a"/><stop offset="1" stop-color="#4aba98"/></linearGradient><path d="m26.19 254.21h8.66v4.58h-8.66z" fill="#5e2a2a"/><path d="m41.66 254.21h8.66v4.58h-8.66z" fill="#5e2a2a"/><path d="m25.52 256.32s-3.32 6-11.24 11.66.16 8.23 9.76 2.9 13.96-4.03 11.81-13.88l-.45-.49s-5.33 1.84-9.88-.19z" fill="#7e2361"/><path d="m51.19 256.32s3.32 6 11.24 11.66-.16 8.23-9.77 2.9-13.92-4-11.81-13.93l.46-.49s5.32 1.89 9.88-.14z" fill="#7e2361"/><path d="m20.48 123.17s-6.22 54.21 4.68 132h10.19l2.5-95 3.29 95h10.2c10.89-77.78 4.67-132 4.67-132z" fill="#1a1e5a"/><path d="m1.59 77.69c-2.81 25.77 8.84 49.49 10.62 62.44a13.3 13.3 0 0 0 -1.72 8.61c.57 5.56 3.72 9.7 7 9.26s5.52-5.32 4.94-10.88c-.42-4-2.21-7.31-4.42-8.64 0 0-4.4-34.11-2.21-60.68z" fill="#5e2a2a"/><path d="m75.5 77.69c2.8 25.77-8.84 49.49-10.63 62.44a13.36 13.36 0 0 1 1.73 8.61c-.58 5.56-3.73 9.7-7 9.26s-5.52-5.32-4.94-10.88c.42-4 2.21-7.31 4.43-8.64 0 0 4.39-34.11 2.21-60.68z" fill="#5e2a2a"/><path d="m.49 80.73c0-13.84 12.51-28.16 27.83-28.16h19.37c17.34 0 28.57 16.56 28.82 27.82l-15.09.12-4.42 47.82a5.59 5.59 0 0 1 -.14 1.23c-1.1 5.12-8.88 9.1-18.33 9.1-10.2 0-18.47-4.63-18.47-10.34 0 0 0-.05 0-.07l-4.35-47.65z" fill="url(#a)"/><path d="m53.62 23.59h-.62a1.12 1.12 0 0 0 -.32 0 38.41 38.41 0 0 0 -.48-6.59c-1-4.42-3.67-5.15-3.67-5.15s-23.23-2.56-24.81 2.29c-.57 1.74-.65 5.46-.51 9.5a1.58 1.58 0 0 0 -.38-.05h-.65a1.52 1.52 0 0 0 -1.51 1.51v7.07a1.52 1.52 0 0 0 1.51 1.51h.65a1.46 1.46 0 0 0 1-.37c.28 3.28.54 5.63.54 5.63l19 9 8.83-9.74s.12-1.92.23-4.62a1.51 1.51 0 0 0 .53.1h.66a1.51 1.51 0 0 0 1.5-1.51v-7.07a1.51 1.51 0 0 0 -1.5-1.51z" fill="#7b4241"/><path d="m29.34 49.73h17.11a0 0 0 0 1 0 0v3a8.26 8.26 0 0 1 -8.26 8.26h-.6a8.26 8.26 0 0 1 -8.26-8.26v-3a0 0 0 0 1 .01 0z" fill="#5e2a2a"/><path d="m53.82 5.33a2.68 2.68 0 0 0 -3.47-.33 2.68 2.68 0 0 0 -4.73-1.84 2.68 2.68 0 0 0 -5.09-.89 2.72 2.72 0 0 0 -5.27 0 2.69 2.69 0 0 0 -3.48-1.33 2.66 2.66 0 0 0 -1.6 2.2 2.68 2.68 0 0 0 -4.73 1.86 2.68 2.68 0 0 0 -4.16 2.77l1.32 18 13.31 20.39h4l13.26-20.46 1.32-17.95a2.68 2.68 0 0 0 -.68-2.42z" fill="#1a1e5a"/><path d="m53.62 23.59h-.62a1.12 1.12 0 0 0 -.32 0 38.41 38.41 0 0 0 -.48-6.59c-1-4.42-3.67-5.15-3.67-5.15s-23.23-2.56-24.81 2.29c-.57 1.74-.65 5.46-.51 9.5a1.58 1.58 0 0 0 -.38-.05h-.65a1.52 1.52 0 0 0 -1.51 1.51v7.07a1.52 1.52 0 0 0 1.51 1.51h.65a1.46 1.46 0 0 0 1-.37c.28 3.28.54 5.63.54 5.63l19 9 8.83-9.74s.12-1.92.23-4.62a1.51 1.51 0 0 0 .53.1h.66a1.51 1.51 0 0 0 1.5-1.51v-7.07a1.51 1.51 0 0 0 -1.5-1.51z" fill="#5e2a2a"/><path d="m53.19 16.51s.15-14.3-15.29-14.3c-15.44 0-15.29 14.3-15.29 14.3v20.77c0 14.26 6.84 14.29 15.29 14.29 8.45 0 15.29 0 15.29-14.29zm-1.73 15.37a2.81 2.81 0 0 1 -.61 1.52 45.93 45.93 0 0 1 -4.63 6.09c-.5-1.14-1.64-3-2.95-3h-10.74c-1.31 0-2.45 1.81-3 3a32.22 32.22 0 0 1 -4.53-6.09 3.06 3.06 0 0 1 -.62-1.52v-14.33l.07-.06a2.9 2.9 0 0 0 1.18 1.78 2.93 2.93 0 0 0 3.9-.51 2.92 2.92 0 0 0 5.54 1 3 3 0 0 0 5.74 0 2.92 2.92 0 0 0 5.54-1 2.93 2.93 0 0 0 3.9.51 2.9 2.9 0 0 0 1.18-1.78l.07.06z" fill="#1a1e5a"/><path d="m32.13 41.67s5.77 6.23 11.54 0z" fill="#5e2a2a"/></svg>