<svg height="249" viewBox="0 0 143 249" width="143" xmlns="http://www.w3.org/2000/svg" xmlns:xlink="http://www.w3.org/1999/xlink"><linearGradient id="a" gradientUnits="userSpaceOnUse" x1="70.12" x2="70.12" y1="77.77" y2="67.79"><stop offset="0" stop-color="#ffccc2"/><stop offset="1" stop-color="#efa39c"/></linearGradient><path d="m53.17 246.6v-27.88c-21.17-1.05-41.6-6.72-53.17-12.72l9.7-41.47c13.56 6.59 32.16 13.19 52.84 13.19 15.22 0 25.87-4.35 25.87-13.94 0-9.3-8.78-15-31.11-21.82-32.76-10.34-55.85-25.86-55.85-56.06 0-27.29 18.89-48.8 53.07-55.7v-27.8h34.11v25.33c20.69.75 34.78 4.95 45.5 9.52l-9.67 40c-8.18-3.38-22.72-10.35-45.35-10.35-17.69 0-23 6.3-23 13 0 7.35 10.19 13.19 35.38 22 37.85 12.52 51.49 29.53 51.49 57 0 27.89-19.71 50.67-55.69 57v30.7z" fill="#efefef" fill-opacity=".5"/><path d="m41.83 83.69s2.76 66.31-12.08 122.2c0 0 4.9 10.09 16.45 7.43s14.53-.94 19.43 1.14a24.42 24.42 0 0 0 18.76-.08c5.41-2.38 9.11-3 15.21-.54 0 0 7.37 1.26 13.65-6.29 0 0-16-44.42-15.56-123.86z" fill="#143f8c"/><g fill="#1e1e1e"><path d="m83.93 85.72h14.67v33.94a4.71 4.71 0 0 1 -9.41 0z" fill-rule="evenodd"/><path d="m57.82 84.57-16.67 2.33-4.68-33.62a4.71 4.71 0 0 1 9.32-1.28z" fill-rule="evenodd"/><path d="m40.33 56.79a4.66 4.66 0 0 1 -3.84-5.28.5.5 0 0 0 0-.12l7.81-38.25 5.25.91-3.83 38.95a4.64 4.64 0 0 1 -5 3.87z" fill-rule="evenodd"/><path d="m98.6 85.72s.92 8.25-9 21.14c0 0-5.14 5.86-8.3 24.82h-11.41v-58.9s28.71-1.14 28.71 12.94z"/></g><path d="m81.3 131.68s1.5 4.49 3 10.33 2.81 18.14 1.09 35.64l-.21 1.89a7.1 7.1 0 0 1 -7.06 6.33 7.11 7.11 0 0 1 -7.09-6.7c-.37-6.68-1.09-17.37-1.09-27.46v-20z" fill="#2e2e2e" fill-rule="evenodd"/><path d="m58.48 131.68a39.25 39.25 0 0 0 -3 4.07c-1.45 2.3-3.62 4.9-1.89 11.79l1 3c.41 1.46 3.49 2.46 7.11 2.46 3.77 0 8-1.05 8.18-2.53.37-2.63 0-7 0-10.92v-7.89z" fill="#2e2e2e" fill-rule="evenodd"/><path d="m41.15 86.9s.77 7.14 8.39 15.33c0 0 2.82 1.33 8.94 29.45h11.41v-58.9s-28.74.03-28.74 14.12z" fill="#1e1e1e"/><path d="m78.15 173.11c3.83 0 6.93 2.44 6.93 5.46v.37l-4.18 48.61h-8.2l-1.7-48.55c-.11-3.14 3-5.75 7-5.84z" fill="#1460a5" fill-rule="evenodd"/><path d="m59.57 136.12c3.82 0 6.92 2.45 6.92 5.47v.37l-4.19 48.61h-8.19l-1.75-48.57c-.11-3.14 3-5.75 7-5.84z" fill="#1460a5" fill-rule="evenodd"/><path d="m62.56 73.1v-5.31h15.1v5.22a5 5 0 0 1 -5.13 4.66l-4.63.09c-2.9.06-5.36-2.05-5.34-4.66z" fill="url(#a)"/><path d="m83 49.33c-.27 0-.8 0-.8 0v-6.48c-.25-5.6-5.53-10.08-12-10.08-6.5 0-11.78 4.48-12 10.08v6.51s-.53 0-.8 0a1.24 1.24 0 0 0 -1.4 1.2v5.79a1.23 1.23 0 0 0 1.23 1.23 8.8 8.8 0 0 0 1-.08 24.89 24.89 0 0 0 .83 6.88 4.26 4.26 0 0 0 1.2 1.93c.78.74 3.69 3 4.81 3.85a3.09 3.09 0 0 0 1.07.54 15.08 15.08 0 0 0 4 .49 15.08 15.08 0 0 0 4-.49 3.09 3.09 0 0 0 1.07-.54c1.12-.86 4-3.11 4.81-3.85a4.37 4.37 0 0 0 1.2-1.93 24.58 24.58 0 0 0 .78-6.88 9 9 0 0 0 1 .08 1.24 1.24 0 0 0 1.24-1.23v-5.79a1.24 1.24 0 0 0 -1.24-1.23z" fill="#f4c5c0"/><path d="m59.21 55.91v-11.27c11.53 3.17 17.89 1 21.18-2.31a6 6 0 0 1 .55 2.51v11.33a.69.69 0 0 0 .69.69.69.69 0 0 0 .7-.69v-11a13 13 0 0 0 -.85-4.17c2.82-3.49-.1-8.25-4.58-8.25h-5.6c-14.1 0-13.47 11.46-13.47 11.46v11.7a.69.69 0 0 0 .69.69.69.69 0 0 0 .69-.69z" fill="#1e1e1e"/><circle cx="64.13" cy="52.62" fill="#fff" r="3.59"/><circle cx="75.25" cy="52.62" fill="#fff" r="3.59"/><path d="m81.92 49.78a2.74 2.74 0 0 0 -3.68-2.15 21.76 21.76 0 0 1 -16.72 0 2.73 2.73 0 0 0 -3.68 2.16 6.67 6.67 0 0 0 .16 2.34 6.71 6.71 0 0 0 10.43 4 2.6 2.6 0 0 1 3 0 6.72 6.72 0 0 0 10.44-4 7 7 0 0 0 .05-2.35zm-18.07 4.44a2.69 2.69 0 0 1 -1.85-3.29l5.19 1.39a2.68 2.68 0 0 1 -3.34 1.9zm12.05 0a2.68 2.68 0 0 1 -3.29-1.9l5.19-1.39a2.67 2.67 0 0 1 -1.9 3.29z" fill="#143f8c"/><path d="m56.07 71.6h4.93a1.68 1.68 0 0 1 1.68 1.68v2.47a1.68 1.68 0 0 1 -1.68 1.69h-3a3.59 3.59 0 0 1 -3.59-3.59v-.56a1.68 1.68 0 0 1 1.68-1.68z" fill="#143f8c" transform="matrix(.9961947 -.08715574 .08715574 .9961947 -6.27 5.38)"/><path d="m81.18 71.6h3a1.68 1.68 0 0 1 1.68 1.68v2.47a1.68 1.68 0 0 1 -1.68 1.68h-4.92a1.68 1.68 0 0 1 -1.68-1.68v-.56a3.59 3.59 0 0 1 3.59-3.59z" fill="#143f8c" transform="matrix(-.9961947 -.08715574 .08715574 -.9961947 156.63 155.87)"/><path d="m93.86 127.21a4.66 4.66 0 0 1 -5.21-3.93s0-.08 0-.12l-3.73-38.86 5.57-1.78 8.11 39.3a3.78 3.78 0 0 1 -3 4.8c-.08.02-1.6.58-1.74.59z" fill="#2e2e2e" fill-rule="evenodd"/><path d="m45.71 1.45-.42 1.81-1.29 5.44-.37 1.57a4.19 4.19 0 1 0 8.15 1.91l.37-1.57.32-1.36.53-2.25a1.87 1.87 0 0 0 -1.38-2.24l-.46-.1a1.86 1.86 0 0 0 -1.38-2.24l-.46-.11a1.86 1.86 0 0 0 -3.62-.85z" fill="#ffccc2"/><path d="m81.15 223.22s1.74 10.44 2.39 20.35-6.62 5.18-8.6-5.87-5.8-13.64 3.42-18.36h.68s-2.45 1.58 2.11 3.88z" fill="#1460a5"/><path d="m54.45 188.24s-3 10.15-4.89 19.9 5.93 6 9.26-4.76 7.44-12.82-1.13-18.64h-.68s2.24 1.79-2.56 3.5z" fill="#1460a5"/><path d="m89.11 71.11.43 1.81 1.27 5.43.37 1.57a4.19 4.19 0 0 1 -8.18 1.92l-.37-1.57-.32-1.36-.53-2.27a1.86 1.86 0 0 1 1.39-2.23l.45-.11a1.87 1.87 0 0 1 1.38-2.24l.45-.1a1.86 1.86 0 1 1 3.62-.85z" fill="#ffccc2"/><path d="m70.21 86.9h8.43a2.81 2.81 0 0 1 2.43 4.22l-4.21 7.29-4.21 7.3a2.82 2.82 0 0 1 -4.88 0l-4.21-7.3-4.22-7.29a2.82 2.82 0 0 1 2.44-4.22z" fill="#143f8c"/><path d="m70.21 89.21h7.7a.92.92 0 0 1 .79 1.38l-3.85 6.66-3.85 6.67a.93.93 0 0 1 -1.6 0l-3.85-6.67-3.84-6.66a.91.91 0 0 1 .79-1.38z" fill="#1460a5"/></svg>