<svg height="270" viewBox="0 0 74 270" width="74" xmlns="http://www.w3.org/2000/svg" xmlns:xlink="http://www.w3.org/1999/xlink"><linearGradient id="a" gradientTransform="matrix(.8660254 -.5 .5 .8660254 -32.32 45.32)" gradientUnits="userSpaceOnUse" x1="63.15" x2="73.66" y1="82.97" y2="82.97"><stop offset=".48" stop-color="#f89600"/><stop offset="1" stop-color="#ffd500"/></linearGradient><linearGradient id="b" gradientUnits="userSpaceOnUse" x1="21.12" x2="21.12" y1="136.04" y2="52.64"><stop offset="0" stop-color="#3a967a"/><stop offset="1" stop-color="#4aba98"/></linearGradient><path d="m41.73 32.49c.17-3.31-4-7-2.19-13 1.48-4.81-2.09-9.11-2.09-9.11l-19.06 2.3 2.22 7.32h-9.55l-2.26 39.78h21.27l-1.67-19.28 11.6-.57-.43-5.72s2.09-.4 2.16-1.72z" fill="#5e2a2a"/><path d="m16.42 261.52h12.22v-7.04h-11.09z" fill="#5e2a2a"/><rect fill="url(#a)" height="18.34" rx="1.34" transform="matrix(.8660254 .5 -.5 .8660254 50.65 -23.09)" width="2.69" x="67.06" y="73.8"/><path d="m18.74 53.39-10.5-.75s-13.24 13.14-5.43 33.78c8.56 22.58 4.78 49.58 4.78 49.58h29.07s2.1-27.75 4.22-39.22 3.31-38.39-22.14-43.39z" fill="url(#b)"/><path d="m16.56 256.3h13.14c3.46-16.94 7.37-72.79 6.55-120.26h-29.06a28.55 28.55 0 0 0 -.06 22.48c4.6 10.96 11.54 80.19 9.43 97.78z" fill="#1a1e5a"/><path d="m28.43 111.38a5.62 5.62 0 0 1 -7.91.21s-11.26-8.93-11.28-30.33 19.33.68 19.33.68a48.16 48.16 0 0 1 1.14 13.44l22.53-12.23a8.32 8.32 0 0 1 7.39-4.26h10.67s2.59 0 2.59 1.9-2.57 1.87-2.57 1.87h-1.18s0 3.09-2.8 3.09c0 0 .15 2.7-4 2.7l-4-.06s-8.48 2.02-29.91 22.99z" fill="#5e2a2a"/><path d="m19.1 59.66a11 11 0 0 1 11 11v11.59a0 0 0 0 1 0 0h-21.97a0 0 0 0 1 0 0v-11.62a11 11 0 0 1 10.97-10.97z" fill="#4aba98"/><path d="m16.05 257.8c1.57.46 4.6 2.58 10.44.29 6.52-2.56 10.1 6.27 21 6.27s6.52 5.28-.8 5.28h-32.07a29.61 29.61 0 0 1 1.43-11.84z" fill="#7e2361"/><path d="m22.63 19.82a77.18 77.18 0 0 0 14.2-.56 3.17 3.17 0 0 0 5 1.06c1.95-2.51.17-5.32-2.19-5.32a2.77 2.77 0 0 0 -.3 0 3 3 0 0 0 2.18-3.32 2.86 2.86 0 0 0 -3.52-2.51 3.21 3.21 0 0 0 -.4-3.84 3.23 3.23 0 0 0 -3.86-.33 1.75 1.75 0 0 0 0-.32 3 3 0 0 0 -5.74-1.32 3 3 0 0 0 -6.07 0h-.05a3.11 3.11 0 0 0 -5.14-2 3.29 3.29 0 0 0 -.68 3.46h-.06a3.08 3.08 0 0 0 -4.48-1.82c-1.6 1.44-1.63 2.61-1.29 3.61a3.2 3.2 0 0 0 -3.76.6 3.19 3.19 0 0 0 .1 4.14 2.09 2.09 0 0 0 -.35 0 3 3 0 0 0 -1 5.89 3 3 0 0 0 .59 6h.1v.08a3 3 0 0 0 .36 5.73s0 0 0 0a23.62 23.62 0 0 0 7.73 2.16s-4.62-8 .18-9.48c0 0 5.83-2.35 5 18.79-.3 7.32 8.93 7.58 14.31 7.19 6.23-.45 8.93-1.41 6.26-13.45l-4.35.32a2.81 2.81 0 0 0 -1.7 3.1l-8.8-4.62a1.84 1.84 0 0 1 -1.15-1.56z" fill="#1a1e5a"/></svg>