<svg height="268" viewBox="0 0 82 268" width="82" xmlns="http://www.w3.org/2000/svg" xmlns:xlink="http://www.w3.org/1999/xlink"><linearGradient id="a" gradientUnits="userSpaceOnUse" x1="23.28" x2="23.28" y1="45.95" y2="12.15"><stop offset=".35" stop-color="#ff761a"/><stop offset="1" stop-color="#ef5425"/></linearGradient><linearGradient id="b" gradientUnits="userSpaceOnUse" x1="20.86" x2="20.86" y1="145.19" y2="50.75"><stop offset="0" stop-color="#1c4984"/><stop offset="1" stop-color="#1a1e5a"/></linearGradient><path d="m39.61 31.32 2.15-.65c-.92-2.34-2.92-8-2.22-13a14.24 14.24 0 0 0 -2.09-9.1l-19.06 2.3 2.22 7.29h-11.81v39.74h21.27v-19.36l10-.49z" fill="#ffccc2"/><path d="m19.1 38.64c-.3 7.32 9 6.56 14.31 7.18 7.31.85 8.94-2.4 6.28-14.45l-4.37 1.32s-2.4.53-1.52 3.42c0 0-5 2.06-7.11-4.83l-5-16.35-15.04-2.78a14.76 14.76 0 0 0 -.18 10.09c.32 1.05 2.34 7.76 2.34 7.76l2.19-.71a2.62 2.62 0 0 0 1.61-3.51c-.87-2.17-1.39-5.06 1.49-5.94.04 0 5.9-2.34 5 18.8z" fill="url(#a)"/><path d="m17.42 259.63h12.22v-7.03h-11.09z" fill="#b1cfe2"/><rect fill="#003ea7" height="18.34" rx="1.34" transform="matrix(.8660254 .5 -.5 .8660254 48.78 -27.88)" width="2.69" x="75.06" y="67.91"/><path d="m8.8 47.07-.56 3.68 21.86 6.54 2.13-3.62s-4.97-3.19-23.43-6.6z" fill="#e9f3ff"/><path d="m19 52.18-10.76-1.43s-13.24 13.15-5.43 33.78c8.56 22.58 4.78 49.62 4.78 49.62h29.07s2.1-27.74 4.22-39.21 3.54-37.76-21.88-42.76z" fill="#e9f3ff"/><path d="m31.45 57.55v8.11l9.44 23.42.31-.08c.85-9.78.25-23.58-9.75-31.45z" fill="#94bdd4"/><path d="m31.94 54.23s1.88 1.87 1.62 6.12l-3.75-2.49z" fill="#94bdd4"/><path d="m16.73 257.1a1.14 1.14 0 0 1 1.51-.77c1.79.7 4.72 1.72 9.49-.12 6.62-2.56 10.25 6.26 21.33 6.26s6.61 5.28-.81 5.28h-32.56a30 30 0 0 1 1.04-10.65z" fill="#7b4241"/><path d="m16.59 257.59 14.8-.49c3.46-16.94 6.68-75.48 5.86-123h-29.06a28.55 28.55 0 0 0 -.06 22.48c4.6 11.01 10.56 83.42 8.46 101.01z" fill="#1a1e5a"/><path d="m16.08 52-7.84-1.25s-13.24 13.15-5.43 33.78c6 15.79 5.94 33.76 5.37 43.14-.24 4-3.95 16.75-3.95 16.75l34.5.77s1.84-38.59 2.15-50.25c.32-12 3.77-20.5-13.32-37.2a21.24 21.24 0 0 0 -11.48-5.74z" fill="url(#b)"/><path d="m78.77 76.68h-10.67a8.21 8.21 0 0 0 -6.8 3.37 5.35 5.35 0 0 1 -1.77 1.54l-30.53 17.35a86.6 86.6 0 0 0 -.47-14.49s-19.31-22.07-19.29-.68 11.89 29.84 11.89 29.84l.86-.67c2.12 2.08 2.78 2.14 5.24 0 1.64-1.39 3.84-1.11 5.63-2.64 5.4-4.61 19-14.86 30.19-20.66a22.49 22.49 0 0 0 2.46-1.47 5.47 5.47 0 0 1 3.25-1h2a3.65 3.65 0 0 0 3.57-1.84 8.46 8.46 0 0 1 2.22-2.33 3.64 3.64 0 0 0 1.06-2.51h1.18s2.56 0 2.56-1.87-2.58-1.94-2.58-1.94z" fill="#ffccc2"/><path d="m29.71 96.81 27.66-14.59 4.16 7.68.53 1s-27.61 22-36.06 24.1h-.23a5.53 5.53 0 0 1 -5.25-1.14 44.62 44.62 0 0 1 -12.31-28.43.12.12 0 0 1 -.08-.1v-19.69c0-4.88 4.26-8.86 9.46-8.86h2c5.2 0 9.45 4 9.45 8.86.01 0 .35 19.06.67 31.17z" fill="#1a1e5a"/><path d="m41.88 5.68c-2.15-.68-14.03-5.42-17.15-5.39s-11.54-1.17-16.27 7.71a28.44 28.44 0 0 0 -2 4.76l15.65 4.68a48.63 48.63 0 0 0 17.56-2.58c4.22-1.53 4.33-8.5 2.21-9.18z" fill="#ff761a"/></svg>