<svg height="187" viewBox="0 0 147 187" width="147" xmlns="http://www.w3.org/2000/svg" xmlns:xlink="http://www.w3.org/1999/xlink"><linearGradient id="a" gradientUnits="userSpaceOnUse" x1="31.44" x2="31.44" y1="73.47" y2="31.37"><stop offset=".35" stop-color="#ffd500"/><stop offset="1" stop-color="#ffa60d"/></linearGradient><linearGradient id="b" gradientUnits="userSpaceOnUse" x1="48.92" x2="48.92" y1="117.43" y2="44.1"><stop offset="0" stop-color="#2b735c"/><stop offset="1" stop-color="#3a967a"/></linearGradient><linearGradient id="c" gradientUnits="userSpaceOnUse" x1="41.36" x2="41.36" y1="182.36" y2="108.4"><stop offset="0" stop-color="#cde1f1"/><stop offset="1" stop-color="#e9f3ff"/></linearGradient><path d="m34.53 73.47 8.92-42.1-22.14 8.82-1.88 17.37s9.34 13.78 15.1 15.91z" fill="url(#a)"/><path d="m53.09 48.44c4.29 10.61-20.24 2.88-15.3-2.21 5.14-5.29 3.89-14.37 3.89-14.37l11.4.82a21.52 21.52 0 0 0 .01 15.76z" fill="#efa39c"/><path d="m87.07 79.58a1.34 1.34 0 0 1 -.49-1.83l10.82-13.56a1.35 1.35 0 0 1 1.84-.49 1.34 1.34 0 0 1 .49 1.83l-10.83 13.56a1.34 1.34 0 0 1 -1.83.49z" fill="#003ea7"/><path d="m52.38 45.35-12.64-1.25a1.66 1.66 0 0 0 -1.59.87c-1.85 3.41-7.55 15.83-3.47 32.85 5.27 22 9.37 39.61 9.37 39.61h16.12s.71-32.36 3.71-43.32c3.57-13.06-7.27-17.11-11.5-28.76z" fill="url(#b)"/><path d="m53.18 93.44 25-16.53a5.56 5.56 0 0 0 1.77-1.54c1.05-1.48 2.1-3.37 3.76-3.37h10.66s2.63-.42 2.63 1.47-2.56 1.31-2.56 1.31a2.11 2.11 0 0 1 -2.13 2 1.86 1.86 0 0 1 -1.87 1.78 6.58 6.58 0 0 1 -4.49 1.74c-2.81 0-6.63 3-6.63 3-12.43 8.74-21 16.64-26.4 21.25 0 0-3.92 2.94-7.86-8.69a88.5 88.5 0 0 1 -4.6-22.3c-.22-2.81.63-9.27 5-9l6 6z" fill="#efa39c"/><path d="m53.6 71.64h-14.19a1.83 1.83 0 0 1 -1.82-1.82v-10.82a8.94 8.94 0 0 1 8.92-8.92 9 9 0 0 1 8.92 8.92v10.82a1.83 1.83 0 0 1 -1.83 1.82z" fill="#3a967a"/><path d="m42.93 32.36c-8.4 0-6.78-10.61-6.78-19s4.92-5.68 13.32-5.68c5.92 0 10.84-5 13.36-.07a8.81 8.81 0 0 1 2.17 7.3c-.7 5 .94 10.27 1.85 12.61l-1.79 1.08-1.47 5.76s-1.19 3.52-11.6.52z" fill="#efa39c"/><path d="m65.12 14a11.24 11.24 0 0 1 -8.76-1.75s-3.83 14.21-22.1 26.45c-17.73 11.87-5.47 31.93.27 34.77l-.54 1s-34.77-6.13-29.47-28.53 28.15-7.46 29.74-30.21c1.33-18.95 29.2-21.51 30.86-1.73z" fill="#ffd500"/><path d="m123.33 172.85-2-6.52 6.32-1.83s0 4.9 3.69 4.48a54 54 0 0 1 7.58-.23l-7 4.82z" fill="#efa39c"/><path d="m75.68 106.08a2 2 0 0 0 -2 2v14.44a2 2 0 0 0 2 2h18.76a8.55 8.55 0 0 1 7.4 4.27c13 22.7 19.32 38.87 19.32 38.87l6.92-2.66c-5.88-16.48-19.27-59-28.83-59z" fill="#1a1e5a"/><path d="m122.63 172.32s-1.31 2.78.65 7.18l22.46-8.63s4.94-5.62-8.28-2c0-.04-1.82 5.01-14.83 3.45z" fill="#3a967a"/><path d="m44.25 105.7h32.82a1.82 1.82 0 0 1 1.82 1.82v13.79a6.23 6.23 0 0 1 -6.23 6.23h-28.41a6.23 6.23 0 0 1 -6.25-6.23v-9.37a6.23 6.23 0 0 1 6.25-6.24z" fill="#1c4984"/><g fill="none" stroke-miterlimit="10"><path d="m17.55 72.2 12.08-1s6-1.46 6.64 5.57 5.09 62.91 5.09 62.91m60.12 32.16v-57s.67-6.58-6.58-6.58h-15.42m0 37.17h21m-59.12-5.75v-36.91s-.47-5.3 5.31-5.3h28.09s4.72 0 4.72 4.71v43.2" stroke="#cde1f1" stroke-linecap="round" stroke-width="4"/><path d="m11.07 162.86 60.58-35m-30.29 52.46v-69.92m30.29 52.47-60.58-35m0 35a35 35 0 1 0 12.8-47.77 35 35 0 0 0 -12.8 47.76z" stroke="url(#c)" stroke-width="4"/><circle cx="41.36" cy="145.38" r="39" stroke="#1a1e5a" stroke-width="4"/></g><circle cx="41.36" cy="145.38" fill="#cde1f1" r="8"/><circle cx="41.36" cy="145.38" fill="#1a1e5a" r="4"/><path d="m91.39 176.54 20.22-11.68m-10.11 17.5v-23.36m10.11 17.52-20.23-11.66m0 11.68a11.68 11.68 0 1 0 4.27-15.95 11.67 11.67 0 0 0 -4.26 15.95z" fill="none" stroke="#b1cfe2" stroke-miterlimit="10" stroke-width="3"/><circle cx="101.5" cy="170.7" fill="none" r="14.5" stroke="#1a1e5a" stroke-miterlimit="10" stroke-width="3"/></svg>