<svg height="188" viewBox="0 0 66 188" width="66" xmlns="http://www.w3.org/2000/svg" xmlns:xlink="http://www.w3.org/1999/xlink"><linearGradient id="a" gradientUnits="userSpaceOnUse" x1="20.44" x2="20.44" y1="60" y2="45.53"><stop offset="0" stop-color="#7e2361"/><stop offset=".97" stop-color="#a52b6a"/></linearGradient><linearGradient id="b" gradientUnits="userSpaceOnUse" x1="2.77" x2="15.7" y1="37.18" y2="24.29"><stop offset=".35" stop-color="#5e2a2a"/><stop offset="1" stop-color="#7b4241"/></linearGradient><linearGradient id="c" gradientUnits="userSpaceOnUse" x1="21.1" x2="21.1" y1="131.62" y2="99.99"><stop offset="0" stop-color="#7e2361"/><stop offset="1" stop-color="#571b59"/></linearGradient><path d="m28.16 46.24c4.16 10.27-19.6 2.76-14.81-2.14 4.98-5.1 1.35-14.1 1.35-14.1l15.37 1.11s-5.18 7.05-1.91 15.13z" fill="#ba7772"/><path d="m32 54.41c1.26 4.25 1.61 8.54 1 15.91-.91 11-2.71 31.06-2.71 31.06l-16.44.41s1.62-5.85-3.48-27.1c-4-16.48 1.57-28.5 3.36-31.81a1.62 1.62 0 0 1 1.51-.88l11.76 1.34s4.43 10.57 5 11.07" fill="#7e2361"/><path d="m53.13 68.83a1.35 1.35 0 0 1 -.49-1.83l10.83-13.56a1.34 1.34 0 0 1 1.83-.5 1.35 1.35 0 0 1 .49 1.84l-10.79 13.55a1.36 1.36 0 0 1 -1.87.5z" fill="#003ea7"/><path d="m26.58 74 19.42-7.45a5.44 5.44 0 0 0 1.71-1.49c1.07-1.44 2.08-3.27 3.68-3.27h10.3s2.5-.4 2.5 1.42-2.48 1.28-2.48 1.28a2 2 0 0 1 -2.06 1.88 1.81 1.81 0 0 1 -1.81 1.73 6.38 6.38 0 0 1 -4.34 1.68 54.91 54.91 0 0 0 -6.4.53c-12 8.46-14.16 9.44-20.86 12.49 0 0-3.92 1.77-7.29-7.4-2.59-7.06-2.12-7.1-2.73-14.84-.22-2.71-.38-9.12 3.88-8.84l4.5 5.65z" fill="#ba7772"/><path d="m26.23 60h-11.58a1.64 1.64 0 0 1 -1.49-1.77v-4.06c0-4.75 3.27-8.64 7.28-8.64 4 0 7.28 3.89 7.28 8.64v4.06a1.65 1.65 0 0 1 -1.49 1.77z" fill="url(#a)"/><path d="m17.13 34.16c-9.57 0-7.85-5.74-7.85-15.26s5.72-12.8 15.3-12.8c6.73 0 12.34-5.67 15.2-.1.6 1 3.17 3.31 2.47 8.28-.79 5.72 1.07 11.72 2.11 14.38l-2 1.22-1 3.8a5.47 5.47 0 0 1 -4.1 4 18.79 18.79 0 0 1 -9.82-.68z" fill="#ba7772"/><path d="m7.61 19.77c0-9.13 4.21-17.7 17.31-19.34 9.79-1.23 23.16 5.86 16.16 14.46-7.64 9.39-16.62 10.89-25.76 10.89s-7.71 3.13-7.71-6.01z" fill="#5e2a2a"/><path d="m18.29 21.87s-15.53-1.45-18.29 15.98c0 0 17.25 4.07 18.29-15.98z" fill="url(#b)"/><path d="m29.1 183.77s-7.61.21-5.81-8.37c5.75-27.43 6.86-60 6.86-60l-15.45 2.6c4.9 8.93 3.92 29.77 4.1 37.59.19 8.31-2.5 27.29-2.5 27.29 14 6.61 17.73 1.64 12.8.94" fill="#ba7772"/><path d="m13.93 100.27a100.14 100.14 0 0 0 -7.36 29.48 14.59 14.59 0 0 1 14.28 0 15.74 15.74 0 0 0 14.79 0s-1.64-20.02-5.22-29.75c0 0-5.01 1.6-16.49.27z" fill="url(#c)"/><path d="m16.25 182s-1.84 1.76-1.63 5.74h19.93s5.49-2.87-5.8-4c0-.07-2.9 3.26-12.5-1.74z" fill="#7e2361"/><path d="m20.68 42.58s6-1.59 6.56.33 4.76 11.5 4.76 11.5-1 0-2.39-3.37c-.03-.04-3.75-7.7-8.93-8.46z" fill="#ba7772"/></svg>