<svg height="254" viewBox="0 0 73 254" width="73" xmlns="http://www.w3.org/2000/svg" xmlns:xlink="http://www.w3.org/1999/xlink"><linearGradient id="a" gradientUnits="userSpaceOnUse" x1="36.5" x2="36.5" y1="131.83" y2="43.83"><stop offset="0" stop-color="#cae2f6"/><stop offset="1" stop-color="#e9f3ff"/></linearGradient><linearGradient id="b" gradientUnits="userSpaceOnUse" x1="35.87" x2="35.87" y1="53.81" y2="41.42"><stop offset="0" stop-color="#efa39c"/><stop offset="1" stop-color="#ba7772"/></linearGradient><path d="m23.39 234.43h8.66v4.58h-8.66z" fill="#cde1f1"/><path d="m40.64 234.43h8.66v4.58h-8.66z" fill="#cde1f1"/><path d="m22.71 236.53s-3.31 6-11.23 11.67.15 8.22 9.76 2.89 13.92-4 11.81-13.93l-.45-.49s-5.33 1.9-9.89-.14z" fill="#7b4241"/><path d="m50.17 236.53s3.32 6 11.24 11.67-.16 8.22-9.76 2.89-13.92-4-11.81-13.93l.45-.49s5.33 1.9 9.88-.14z" fill="#7b4241"/><path d="m60.54 123.28-2.79 3.89-41.2-2-.24 3.69-4-5.57s-4 45.95 10.79 111.89h9.4l3.93-73.73 3.93 73.73h9.4c14.78-65.95 10.78-111.9 10.78-111.9z" fill="#1c4984"/><path d="m2 77.49c-2.65 24.13 4.77 46.34 6.44 58.51a12.52 12.52 0 0 0 -1.62 8c.55 5.21 3.5 9.09 6.59 8.67s5.17-5 4.63-10.18c-.39-3.79-2.07-6.85-4.15-8.09 0 0-4.11-31.94-2.06-56.83z" fill="#efa39c"/><path d="m71.12 77.49c2.63 24.13-4.79 46.34-6.46 58.46a12.46 12.46 0 0 1 1.62 8.05c-.54 5.21-3.49 9.09-6.59 8.67s-5.17-5-4.63-10.18c.4-3.79 2.07-6.85 4.15-8.09 0 0 4.12-31.94 2.07-56.83z" fill="#efa39c"/><path d="m72.54 79.15c0-19.45-13.29-28.26-20.87-31.7a25.68 25.68 0 0 0 -13.21-3.62h-3.73a25.72 25.72 0 0 0 -12.65 3.29c-7.41 3.18-21.62 11.88-21.62 32.03h11.44l.42 44.05s0 0 0 .08c0 6.93 13.08 8.55 24.28 8.55 10.37 0 22.91-.82 24.11-7a7.49 7.49 0 0 0 .16-1.5l.43-44.13z" fill="url(#a)"/><path d="m26.47 41.42h18.8a0 0 0 0 1 0 0v4.13a8.26 8.26 0 0 1 -8.27 8.26h-2.28a8.26 8.26 0 0 1 -8.26-8.26v-4.13a0 0 0 0 1 .01 0z" fill="url(#b)"/><path d="m52.9 17.79h-.71a1.34 1.34 0 0 0 -.35 0h-.06a14.13 14.13 0 0 0 .08-1.46 16 16 0 0 0 -31.9 0 14.52 14.52 0 0 0 .04 1.52 1.4 1.4 0 0 0 -.41-.06h-.71a1.64 1.64 0 0 0 -1.63 1.63v7.67a1.64 1.64 0 0 0 1.63 1.63h.71a1.59 1.59 0 0 0 1-.39v1.51a15.56 15.56 0 0 0 15.5 15.51 15.56 15.56 0 0 0 15.51-15.51v-1.09c0-.05 0-.09 0-.14a1.62 1.62 0 0 0 .58.11h.71a1.63 1.63 0 0 0 1.63-1.63v-7.67a1.63 1.63 0 0 0 -1.62-1.63z" fill="#efa39c"/><path d="m28.84 35.49s7 7.58 14.05 0z" fill="#fff"/><path d="m50.21 9c0 2.49-2.27-5.67-14.39-5.67-11.42.02-14.39 8.18-14.39 5.67s6.44-9 14.39-9 14.39 6.54 14.39 9z" fill="#1c4984"/><g fill="#e9f3ff"><path d="m21 26.8s2.42.23 2.42-3c0-2.8 7.26-6.74 1.26-8.33-1.45-.38-2.22-2-3-3.33-.08-.15-.18-.31-.27-.47-1.66-2.76-2.53 4-2.64 6.16.06-.04 2.89-.83 2.23 8.97z"/><path d="m50.62 26.8s-2.42.23-2.42-3c0-2.8-7.26-6.74-1.26-8.33 1.46-.38 2.22-2 3-3.33l.28-.47c1.65-2.76 2.52 4 2.63 6.16-.02-.04-2.85-.83-2.23 8.97z"/></g></svg>