<svg height="196" viewBox="0 0 184 196" width="184" xmlns="http://www.w3.org/2000/svg" xmlns:xlink="http://www.w3.org/1999/xlink"><linearGradient id="a" gradientUnits="userSpaceOnUse" x1="92" x2="92" y1="196"><stop offset="0" stop-color="#aad8e5"/><stop offset="1" stop-color="#c8e9f2"/></linearGradient><circle cx="92" cy="98" fill="#eef9ff" r="92"/><rect fill="url(#a)" height="196" rx="10" width="98" x="43"/><path d="m13.54 54.29h156.74v88.17h-156.74z" fill="#eef9ff" transform="matrix(0 -1 1 0 -6.46 190.29)"/><path d="m120.22 60.84 1.06-3 .6 3z" fill="#eaf1fb"/><rect fill="#c8e9f2" height="48.06" rx="3" width="78" x="52.98" y="25"/><g fill="#eef9ff"><rect height="8.17" rx="2" width="11.84" x="57.92" y="35"/><path d="m108.2 66.67h2.03l1.27-8h-2.03z"/><path d="m106.5 58.67-1.93 5.5-.24-1.17-.67-3.63a.88.88 0 0 0 -1-.68h-3.16v.13h.3l.17.06h.12l.3.12.11.05.34.15.17.08.29.16.19.11.12.07 1.76 6.94h2.11l3.23-8z"/><path d="m114.41 60.89c0-.91 2-.79 2.84-.3l.29-1.71a5.66 5.66 0 0 0 -1.82-.36c-1 0-3.4.45-3.4 2.64s2.83 2.1 2.83 3.18-2.5.89-3.33.21l-.3 1.8a5.64 5.64 0 0 0 2.29.45c1.38 0 3.47-.73 3.47-2.74s-2.87-2.27-2.87-3.17z"/><path d="m122.64 58.68h-1.59a.92.92 0 0 0 -.93.6l-3 7.4h2.11l.43-1.19h2.58l.24 1.19h1.85zm-2.42 5.16 1.06-3 .6 3z"/></g><rect fill="#c8e9f2" height="16.87" rx="8.44" width="33.68" x="96.79" y="77.98"/><circle cx="105.5" cy="86.42" fill="#eef9ff" r="6"/></svg>