<svg height="140" viewBox="0 0 175 140" width="175" xmlns="http://www.w3.org/2000/svg" xmlns:xlink="http://www.w3.org/1999/xlink"><linearGradient id="a" gradientUnits="userSpaceOnUse" x1="82.45" x2="82.45" y1="128.77" y2="16.77"><stop offset=".05" stop-color="#d4d4d4"/><stop offset="1" stop-color="#efefef"/></linearGradient><linearGradient id="b" gradientUnits="userSpaceOnUse" x1="51.28" x2="51.28" y1="32.04" y2=".14"><stop offset=".03" stop-color="#a0a0a0"/><stop offset="1" stop-color="#bababa"/></linearGradient><linearGradient id="c" x1="113.65" x2="113.65" xlink:href="#b" y1="32.04" y2=".14"/><linearGradient id="d" gradientUnits="userSpaceOnUse" x1="85.13" x2="85.13" y1="111.18" y2="43.48"><stop offset="0" stop-color="#a0a0a0"/><stop offset="1" stop-color="#bababa"/></linearGradient><linearGradient id="e" gradientTransform="matrix(.70710678 -.70710678 .70710678 .70710678 572.29 425.13)" gradientUnits="userSpaceOnUse" x1="-102.4" x2="-56.66" y1="-505.83" y2="-551.57"><stop offset="0" stop-color="#ffd500"/><stop offset="1" stop-color="#f89600"/></linearGradient><rect fill="url(#a)" height="112" rx="10" width="164" x=".45" y="16.77"/><path d="m51.28 5.14v21.9" fill="none" stroke="url(#b)" stroke-linecap="round" stroke-miterlimit="10" stroke-width="10"/><path d="m113.65 5.14v21.9" fill="none" stroke="url(#c)" stroke-linecap="round" stroke-miterlimit="10" stroke-width="10"/><path d="m103.46 61.81a18.33 18.33 0 1 1 -18.33-18.33 18.33 18.33 0 0 1 18.33 18.33zm-4.23 0a14.1 14.1 0 1 0 -14.1 14.11 14.1 14.1 0 0 0 14.1-14.11zm-10.57 18.34h-7.06a26.09 26.09 0 0 0 -26.09 26.09.7.7 0 0 0 .71.7h57.78a.7.7 0 0 0 .71-.7 26.09 26.09 0 0 0 -26.05-26.09zm0-4.23a30.32 30.32 0 0 1 30.34 30.32 4.94 4.94 0 0 1 -4.94 4.94h-57.84a4.94 4.94 0 0 1 -4.94-4.94 30.32 30.32 0 0 1 30.32-30.32z" fill="url(#d)"/><circle cx="142.21" cy="107.52" fill="url(#e)" r="32.34"/><path d="m138.6 118.58-8.55-8.58m25.52-8.43-17 17" fill="none" stroke="#fff5cc" stroke-linecap="round" stroke-linejoin="round" stroke-width="6"/></svg>