<svg height="233" viewBox="0 0 235 233" width="235" xmlns="http://www.w3.org/2000/svg" xmlns:xlink="http://www.w3.org/1999/xlink"><linearGradient id="a" gradientUnits="userSpaceOnUse" x1="117.5" x2="117.5" y1="199.26" y2="33.74"><stop offset="0" stop-color="#1c4984"/><stop offset="1" stop-color="#1f75ae"/></linearGradient><path d="m.35 90.72c.88-49.64 41.65-89.98 91.33-90.33a91.84 91.84 0 0 1 72.72 34.81 158.9 158.9 0 0 0 31.73 30.54 91.86 91.86 0 0 1 38.52 76.54c-.88 49.64-41.69 90-91.33 90.33a91.87 91.87 0 0 1 -73.17-35.38 145 145 0 0 0 -30.69-29.54 91.92 91.92 0 0 1 -39.11-76.97z" fill="#fff8d9"/><path d="m175.57 61a94.94 94.94 0 0 1 -52.69-25.76 5.17 5.17 0 0 0 -3.66-1.52h-3.44a5.17 5.17 0 0 0 -3.66 1.52 94.94 94.94 0 0 1 -52.69 25.76 12.09 12.09 0 0 0 -10.9 12v57.27a69 69 0 0 0 137.94 0v-57.27a12.09 12.09 0 0 0 -10.9-12z" fill="url(#a)"/><path d="m178.17 163.12a69 69 0 0 1 -60.67 36.14v-80.43h60.67zm-65.06-128.62a5.12 5.12 0 0 0 -1 .76 94.94 94.94 0 0 1 -52.68 25.74 11.8 11.8 0 0 0 -2.6.56v57.25h60.67v-84.31z" fill="#ffd500"/><path d="m117.5 43.93a104.23 104.23 0 0 0 56.67 27h.2.2a2.09 2.09 0 0 1 1.9 2v57.27a59 59 0 0 1 -117.94 0v-57.15a2.1 2.1 0 0 1 1.9-2.05h.2.2a104.23 104.23 0 0 0 56.67-27m1.72-10.19h-3.44a5.17 5.17 0 0 0 -3.66 1.52 94.94 94.94 0 0 1 -52.69 25.67 12.09 12.09 0 0 0 -10.9 12v57.27a69 69 0 0 0 137.94 0v-57.27a12.09 12.09 0 0 0 -10.9-12 94.94 94.94 0 0 1 -52.69-25.76 5.17 5.17 0 0 0 -3.66-1.52z" fill="#1a1e5a"/></svg>