<svg height="194" viewBox="0 0 210 194" width="210" xmlns="http://www.w3.org/2000/svg" xmlns:xlink="http://www.w3.org/1999/xlink"><linearGradient id="a" gradientUnits="userSpaceOnUse" x1="105" x2="105" y1="175" y2="19"><stop offset="0" stop-color="#1f437c"/><stop offset="1" stop-color="#24689e"/></linearGradient><linearGradient id="b" gradientUnits="userSpaceOnUse" x1="105" x2="105" y1="61.37" y2="136.63"><stop offset="0" stop-color="#1f75ae"/><stop offset="1" stop-color="#1f437c"/></linearGradient><linearGradient id="c" gradientUnits="userSpaceOnUse" x1="160.42" x2="160.42" y1="188.12" y2="123.44"><stop offset="0" stop-color="#ffd500"/><stop offset="1" stop-color="#ffa60d"/></linearGradient><path d="m195.53 94.16a64.5 64.5 0 0 0 10.91-18.79 50.33 50.33 0 0 0 .07-35.65c-16.43-43.31-66.91-50.72-95.08-22.46-1 1-1.9 2-2.79 3a50.31 50.31 0 0 1 -40.19 17.34c-27.88-1.1-56.32 15.85-66.32 50.83a49 49 0 0 0 .09 27.13c9.72 33.29 36.12 50.08 62.71 50.48a48.36 48.36 0 0 1 32.17 13.27 55.48 55.48 0 0 0 12.12 8.54 49.93 49.93 0 0 0 46.76-.26c21.11-11.41 30.3-32.86 27.61-53a51.9 51.9 0 0 1 11.94-40.43z" fill="#e9f3ff"/><circle cx="105" cy="97" fill="#1a1e5a" r="79.88"/><path d="m105 19a1 1 0 0 1 1 1v4a1 1 0 0 1 -1 1 1 1 0 0 1 -1-1v-4a1 1 0 0 1 1-1zm8.46 5.48.4-4a1 1 0 0 0 -.89-1.1 1 1 0 0 0 -1.1.9l-.4 4a1 1 0 0 0 .9 1.09 1 1 0 0 0 1.09-.89zm7.23 1.2.8-3.92a1 1 0 0 0 -.77-1.18 1 1 0 0 0 -1.18.78l-.8 3.92a1 1 0 0 0 .78 1.18 1 1 0 0 0 1.17-.78zm7 1.9 1.19-3.82a1 1 0 0 0 -.66-1.25 1 1 0 0 0 -1.25.66l-1.22 3.83a1 1 0 0 0 .66 1.25 1 1 0 0 0 1.25-.67zm6.68 2.55 1.55-3.69a1 1 0 0 0 -.53-1.31 1 1 0 0 0 -1.31.53l-1.56 3.69a1 1 0 0 0 .54 1.31 1 1 0 0 0 1.28-.53zm6.33 3.16 1.91-3.52a1 1 0 0 0 -.4-1.35 1 1 0 0 0 -1.36.4l-1.9 3.51a1 1 0 0 0 .4 1.36 1 1 0 0 0 1.32-.4zm6 3.74 2.24-3.32a1 1 0 0 0 -.27-1.39 1 1 0 0 0 -1.39.27l-2.28 3.32a1 1 0 0 0 .26 1.39 1 1 0 0 0 1.38-.3zm5.57 4.28 2.54-3.09a1 1 0 0 0 -.13-1.41 1 1 0 0 0 -1.41.14l-2.61 3.05a1 1 0 0 0 .14 1.41 1 1 0 0 0 1.41-.1zm5.12 4.78 2.82-2.83a1 1 0 0 0 0-1.42 1 1 0 0 0 -1.41 0l-2.83 2.83a1 1 0 0 0 0 1.41 1 1 0 0 0 1.36.01zm4.61 5.25 3.08-2.55a1 1 0 0 0 .14-1.41 1 1 0 0 0 -1.41-.13l-3.09 2.55a1 1 0 0 0 -.13 1.4 1 1 0 0 0 1.41.14zm4.09 5.66 3.32-2.25a1 1 0 0 0 .27-1.38 1 1 0 0 0 -1.39-.27l-3.29 2.26a1 1 0 0 0 -.26 1.39 1 1 0 0 0 1.35.25zm3.58 6.06 3.51-1.91a1 1 0 0 0 .4-1.35 1 1 0 0 0 -1.35-.4l-3.52 1.91a1 1 0 0 0 -.4 1.35 1 1 0 0 0 1.36.42zm3 6.43 3.67-1.49a1 1 0 0 0 .53-1.31 1 1 0 0 0 -1.31-.53l-3.69 1.56a1 1 0 0 0 -.53 1.31 1 1 0 0 0 1.31.48zm2.33 6.76 3.82-1.19a1 1 0 0 0 .65-1.25 1 1 0 0 0 -1.25-.66l-3.82 1.19a1 1 0 0 0 -.66 1.25 1 1 0 0 0 1.26.66zm1.7 7 3.92-.81a1 1 0 0 0 .78-1.18 1 1 0 0 0 -1.19-.78l-3.91.81a1 1 0 0 0 -.78 1.18 1 1 0 0 0 1.2.8zm1 7.26 4-.41a1 1 0 0 0 .9-1.09 1 1 0 0 0 -1.1-.9l-4 .41a1 1 0 0 0 -.89 1.1 1 1 0 0 0 1.11.91zm.3 7.49h4a1 1 0 0 0 1-1 1 1 0 0 0 -1-1h-4a1 1 0 0 0 -1 1 1 1 0 0 0 1 1zm-150 0h4a1 1 0 0 0 1-1 1 1 0 0 0 -1-1h-4a1 1 0 0 0 -1 1 1 1 0 0 0 1 1zm4.48-9.46-4-.4a1 1 0 0 0 -1.1.89 1 1 0 0 0 .9 1.1l4 .4a1 1 0 0 0 1.09-.9 1 1 0 0 0 -.89-1.09zm1.2-7.23-3.92-.8a1 1 0 0 0 -1.18.77 1 1 0 0 0 .78 1.18l3.92.8a1 1 0 0 0 1.18-.78 1 1 0 0 0 -.78-1.17zm1.9-7-3.82-1.19a1 1 0 0 0 -1.25.66 1 1 0 0 0 .66 1.25l3.83 1.22a1 1 0 0 0 1.25-.66 1 1 0 0 0 -.67-1.25zm2.55-6.68-3.69-1.55a1 1 0 0 0 -1.31.53 1 1 0 0 0 .53 1.39l3.69 1.56a1 1 0 0 0 1.31-.56 1 1 0 0 0 -.53-1.34zm3.16-6.33-3.52-1.91a1 1 0 0 0 -1.35.4 1 1 0 0 0 .4 1.36l3.51 1.9a1 1 0 0 0 1.36-.4 1 1 0 0 0 -.4-1.32zm3.74-6-3.32-2.24a1 1 0 0 0 -1.39.27 1 1 0 0 0 .27 1.39l3.32 2.28a1 1 0 0 0 1.39-.26 1 1 0 0 0 -.3-1.38zm4.28-5.57-3.09-2.54a1 1 0 0 0 -1.41.13 1 1 0 0 0 .19 1.47l3 2.55a1 1 0 0 0 1.41-.14 1 1 0 0 0 -.1-1.41zm4.78-5.12-2.83-2.82a1 1 0 0 0 -1.42 0 1 1 0 0 0 0 1.41l2.83 2.83a1 1 0 0 0 1.41 0 1 1 0 0 0 .01-1.36zm5.25-4.61-2.55-3a1 1 0 0 0 -1.41-.14 1 1 0 0 0 -.13 1.41l2.55 3.09a1 1 0 0 0 1.4.13 1 1 0 0 0 .14-1.49zm5.66-4.09-2.25-3.32a1 1 0 0 0 -1.38-.27 1 1 0 0 0 -.27 1.39l2.26 3.29a1 1 0 0 0 1.39.26 1 1 0 0 0 .25-1.35zm6.06-3.58-1.91-3.51a1 1 0 0 0 -1.35-.4 1 1 0 0 0 -.4 1.35l1.91 3.52a1 1 0 0 0 1.35.4 1 1 0 0 0 .42-1.36zm6.43-3-1.49-3.67a1 1 0 0 0 -1.31-.53 1 1 0 0 0 -.53 1.31l1.56 3.69a1 1 0 0 0 1.31.53 1 1 0 0 0 .48-1.31zm6.76-2.33-1.19-3.82a1 1 0 0 0 -1.25-.65 1 1 0 0 0 -.66 1.25l1.19 3.82a1 1 0 0 0 1.25.66 1 1 0 0 0 .66-1.26zm7-1.7-.81-3.92a1 1 0 0 0 -1.18-.78 1 1 0 0 0 -.78 1.19l.81 3.91a1 1 0 0 0 1.18.78 1 1 0 0 0 .8-1.2zm7.26-1-.41-4a1 1 0 0 0 -1.1-.9 1 1 0 0 0 -.9 1.1l.41 4a1 1 0 0 0 1.1.89 1 1 0 0 0 .92-1.11zm7.49 149.7v-4a1 1 0 0 0 -1-1 1 1 0 0 0 -1 1v4a1 1 0 0 0 1 1 1 1 0 0 0 1-1zm-9.46-4.48-.4 4a1 1 0 0 0 .89 1.1 1 1 0 0 0 1.1-.9l.4-4a1 1 0 0 0 -.9-1.09 1 1 0 0 0 -1.09.89zm-7.23-1.2-.8 3.92a1 1 0 0 0 .77 1.18 1 1 0 0 0 1.18-.78l.8-3.92a1 1 0 0 0 -.78-1.18 1 1 0 0 0 -1.17.78zm-7-1.9-1.19 3.82a1 1 0 0 0 .66 1.25 1 1 0 0 0 1.25-.66l1.22-3.83a1 1 0 0 0 -.66-1.25 1 1 0 0 0 -1.25.67zm-6.68-2.55-1.55 3.69a1 1 0 0 0 .53 1.31 1 1 0 0 0 1.31-.53l1.56-3.69a1 1 0 0 0 -.54-1.31 1 1 0 0 0 -1.28.53zm-6.33-3.16-1.91 3.52a1 1 0 0 0 .4 1.35 1 1 0 0 0 1.36-.4l1.9-3.51a1 1 0 0 0 -.4-1.36 1 1 0 0 0 -1.32.4zm-6-3.74-2.24 3.32a1 1 0 0 0 .27 1.39 1 1 0 0 0 1.39-.27l2.28-3.32a1 1 0 0 0 -.26-1.39 1 1 0 0 0 -1.38.3zm-5.57-4.28-2.54 3.09a1 1 0 0 0 .13 1.41 1 1 0 0 0 1.41-.14l2.61-3.05a1 1 0 0 0 -.14-1.41 1 1 0 0 0 -1.41.1zm-5.12-4.78-2.82 2.83a1 1 0 0 0 0 1.42 1 1 0 0 0 1.41 0l2.83-2.83a1 1 0 0 0 0-1.41 1 1 0 0 0 -1.36-.01zm-4.61-5.25-3 2.55a1 1 0 0 0 -.14 1.41 1 1 0 0 0 1.41.13l3.09-2.55a1 1 0 0 0 .13-1.4 1 1 0 0 0 -1.49-.14zm-4.09-5.66-3.32 2.25a1 1 0 0 0 -.27 1.38 1 1 0 0 0 1.39.27l3.29-2.26a1 1 0 0 0 .26-1.39 1 1 0 0 0 -1.35-.25zm-3.58-6.06-3.51 1.91a1 1 0 0 0 -.4 1.35 1 1 0 0 0 1.35.4l3.52-1.91a1 1 0 0 0 .4-1.35 1 1 0 0 0 -1.36-.42zm-3-6.43-3.69 1.56a1 1 0 0 0 -.53 1.31 1 1 0 0 0 1.31.53l3.69-1.56a1 1 0 0 0 .53-1.31 1 1 0 0 0 -1.29-.55zm-2.33-6.76-3.82 1.19a1 1 0 0 0 -.65 1.25 1 1 0 0 0 1.25.66l3.82-1.19a1 1 0 0 0 .66-1.25 1 1 0 0 0 -1.26-.66zm-1.7-7-3.92.81a1 1 0 0 0 -.78 1.18 1 1 0 0 0 1.19.78l3.91-.81a1 1 0 0 0 .78-1.18 1 1 0 0 0 -1.2-.8zm-1-7.26-4 .41a1 1 0 0 0 -.9 1.09 1 1 0 0 0 1.1.9l4-.41a1 1 0 0 0 .89-1.1 1 1 0 0 0 -1.11-.91zm-.3-7.49h-4a1 1 0 0 0 -1 1 1 1 0 0 0 1 1h4a1 1 0 0 0 1-1 1 1 0 0 0 -1-1zm150 0h-4a1 1 0 0 0 -1 1 1 1 0 0 0 1 1h4a1 1 0 0 0 1-1 1 1 0 0 0 -1-1zm-4.48 9.46 4 .4a1 1 0 0 0 1.1-.89 1 1 0 0 0 -.9-1.1l-4-.4a1 1 0 0 0 -1.09.9 1 1 0 0 0 .89 1.09zm-1.2 7.23 3.92.8a1 1 0 0 0 1.18-.77 1 1 0 0 0 -.78-1.18l-3.92-.8a1 1 0 0 0 -1.18.78 1 1 0 0 0 .78 1.17zm-1.9 7 3.82 1.19a1 1 0 0 0 1.25-.66 1 1 0 0 0 -.66-1.25l-3.83-1.22a1 1 0 0 0 -1.25.66 1 1 0 0 0 .67 1.25zm-2.55 6.68 3.69 1.55a1 1 0 0 0 1.31-.53 1 1 0 0 0 -.53-1.31l-3.69-1.56a1 1 0 0 0 -1.31.54 1 1 0 0 0 .53 1.28zm-3.16 6.33 3.52 1.91a1 1 0 0 0 1.35-.4 1 1 0 0 0 -.4-1.36l-3.51-1.9a1 1 0 0 0 -1.36.4 1 1 0 0 0 .4 1.32zm-3.74 6 3.32 2.24a1 1 0 0 0 1.39-.27 1 1 0 0 0 -.27-1.39l-3.32-2.28a1 1 0 0 0 -1.39.26 1 1 0 0 0 .3 1.38zm-4.28 5.57 3.09 2.54a1 1 0 0 0 1.41-.13 1 1 0 0 0 -.14-1.41l-3.05-2.61a1 1 0 0 0 -1.41.14 1 1 0 0 0 .1 1.41zm-4.78 5.12 2.83 2.82a1 1 0 0 0 1.42 0 1 1 0 0 0 0-1.41l-2.83-2.83a1 1 0 0 0 -1.41 0 1 1 0 0 0 -.01 1.36zm-5.25 4.61 2.55 3.08a1 1 0 0 0 1.41.14 1 1 0 0 0 .13-1.41l-2.55-3.09a1 1 0 0 0 -1.4-.13 1 1 0 0 0 -.14 1.41zm-5.66 4.09 2.25 3.32a1 1 0 0 0 1.38.27 1 1 0 0 0 .27-1.39l-2.26-3.29a1 1 0 0 0 -1.39-.26 1 1 0 0 0 -.25 1.35zm-6.06 3.58 1.91 3.51a1 1 0 0 0 1.35.4 1 1 0 0 0 .4-1.35l-1.91-3.52a1 1 0 0 0 -1.35-.4 1 1 0 0 0 -.42 1.36zm-6.43 3 1.56 3.69a1 1 0 0 0 1.31.53 1 1 0 0 0 .53-1.31l-1.56-3.69a1 1 0 0 0 -1.31-.53 1 1 0 0 0 -.55 1.29zm-6.76 2.33 1.19 3.82a1 1 0 0 0 1.25.65 1 1 0 0 0 .66-1.25l-1.19-3.82a1 1 0 0 0 -1.25-.66 1 1 0 0 0 -.66 1.26zm-7 1.7.81 3.92a1 1 0 0 0 1.18.78 1 1 0 0 0 .78-1.19l-.81-3.91a1 1 0 0 0 -1.18-.78 1 1 0 0 0 -.8 1.2zm-7.26 1 .41 4a1 1 0 0 0 1.09.9 1 1 0 0 0 .9-1.1l-.41-4a1 1 0 0 0 -1.1-.89 1 1 0 0 0 -.91 1.11zm-7.49.3v4a1 1 0 0 0 1 1 1 1 0 0 0 1-1v-4a1 1 0 0 0 -1-1 1 1 0 0 0 -1 1z" fill="url(#a)"/><path d="m124.36 76.53h-27.1a11.61 11.61 0 0 0 -11.62 11.61 11.45 11.45 0 0 0 11.62 11.42h15.48a11.62 11.62 0 1 1 0 23.23h-27.1m19.36-58.42v69.26" fill="none" stroke="url(#b)" stroke-linecap="round" stroke-miterlimit="10" stroke-width="6"/><circle cx="160.42" cy="155.78" fill="url(#c)" r="32.34"/><path d="m147.66 158.58 8.54 8.55 16.98-16.98" fill="none" stroke="#fff5cc" stroke-linecap="round" stroke-linejoin="round" stroke-width="6"/></svg>