<svg height="196" viewBox="0 0 184 196" width="184" xmlns="http://www.w3.org/2000/svg"><circle cx="92" cy="98" fill="#efefef" fill-opacity=".5" r="92"/><rect fill="#2e2e2e" height="196" rx="10" width="98" x="43"/><path d="m47.92 19.63h88.17v156.74h-88.17z" fill="#efefef"/><g fill="#ffd535"><path d="m92 69.37a28.63 28.63 0 1 0 28.63 28.63 28.63 28.63 0 0 0 -28.63-28.63zm0 52.49a23.86 23.86 0 1 1 23.86-23.86 23.86 23.86 0 0 1 -23.86 23.86z"/><path d="m90.24 113.09v-3.09a13.33 13.33 0 0 1 -5.6-1.41l1-3.86a11.56 11.56 0 0 0 5.46 1.45c1.88 0 3.17-.72 3.17-2s-1.06-2-3.5-2.87c-3.52-1.18-5.92-2.83-5.92-6 0-2.9 2-5.17 5.56-5.86v-3.23h3.23v2.9a11.6 11.6 0 0 1 4.76 1.08l-1 3.72a11 11 0 0 0 -4.74-1.12c-2.14 0-2.83.93-2.83 1.85 0 1.08 1.15 1.78 4 2.83 3.92 1.38 5.5 3.19 5.5 6.16s-2.08 5.43-5.86 6.09v3.36z"/></g></svg>