<svg height="184" viewBox="0 0 184 184" width="184" xmlns="http://www.w3.org/2000/svg" xmlns:xlink="http://www.w3.org/1999/xlink"><linearGradient id="a" gradientUnits="userSpaceOnUse" x1="92" x2="92" y1="175.31" y2="22.69"><stop offset="0" stop-color="#1a1e5a"/><stop offset="1" stop-color="#1c4984"/></linearGradient><circle cx="92" cy="92" fill="#e9f3ff" r="92"/><path d="m159.83 22.69h-50.83a21.54 21.54 0 0 0 -17 8.14 22.63 22.63 0 0 0 -17-8.14h-50.83a12 12 0 0 0 -11.87 11.87v111.92a12 12 0 0 0 11.87 11.87h50.83a12 12 0 0 1 11.87 11.87 5.09 5.09 0 0 0 10.18 0 12 12 0 0 1 11.95-11.87h50.87a12 12 0 0 0 11.87-11.87v-111.92a12 12 0 0 0 -11.91-11.87z" fill="url(#a)"/><path d="m92 30.83a22.63 22.63 0 0 0 -17-8.14h-50.83a12 12 0 0 0 -11.87 11.87v111.92a12 12 0 0 0 11.87 11.87h50.83a12 12 0 0 1 11.87 11.87 5.22 5.22 0 0 0 5.13 5.09z" fill="#1a1e5a"/><g fill="none" stroke="#e9f3ff" stroke-linecap="round" stroke-miterlimit="10" stroke-width="3"><path d="m35.92 70.17h37.46"/><path d="m35.92 90.52h37.46"/><path d="m35.92 110.87h37.46"/><path d="m111.95 70.17h37.46"/><path d="m111.95 90.52h37.46"/><path d="m111.95 110.87h37.46"/></g></svg>