<svg height="415" viewBox="0 0 1280 415" width="1280" xmlns="http://www.w3.org/2000/svg" xmlns:xlink="http://www.w3.org/1999/xlink"><linearGradient id="a" gradientTransform="matrix(1.29 -.29 -.29 1.29 -120.78 120.78)" gradientUnits="userSpaceOnUse" x1="705.1" x2="1194.1" y1="12.73" y2="501.73"><stop offset="0" stop-color="#e9f3ff" stop-opacity="0"/><stop offset="1" stop-color="#e9f3ff"/></linearGradient><linearGradient id="b" gradientTransform="matrix(.85 .14 .14 .85 -199.49 145.73)" x1="259.35" x2="697.72" xlink:href="#a" y1="-205.34" y2="233.02"/><linearGradient id="c" gradientTransform="matrix(.59 .41 .41 .59 -157.73 103.97)" x1="994.54" x2="1428.83" xlink:href="#a" y1="-878.74" y2="-444.45"/><linearGradient id="d" gradientTransform="matrix(.59 .41 .41 .59 -157.73 103.97)" x1="2909.56" x2="3343.01" xlink:href="#a" y1="-2200.7" y2="-1767.25"/><linearGradient id="e" gradientUnits="userSpaceOnUse" x1="925.6" x2="934.1" y1="83.37" y2="115.13"><stop offset="0" stop-color="#e9f3ff"/><stop offset="1" stop-color="#b1cfe2"/></linearGradient><linearGradient id="f"><stop offset="0" stop-color="#e9f3ff"/><stop offset="1" stop-color="#cde1f1"/></linearGradient><linearGradient id="g" gradientUnits="userSpaceOnUse" x1="640" x2="640" xlink:href="#f" y1="415.83" y2="384.66"/><linearGradient id="h" gradientTransform="matrix(-1 0 0 1 -955.15 0)" gradientUnits="userSpaceOnUse" x1="-1935.34" x2="-1927.26" y1="248.39" y2="220.04"><stop offset=".01" stop-color="#ffe76d"/><stop offset="1" stop-color="#ffa60d"/></linearGradient><linearGradient id="i" gradientTransform="matrix(-1 0 0 1 -955.15 0)" gradientUnits="userSpaceOnUse" x1="-1915.28" x2="-1915.28" y1="227.14" y2="211.65"><stop offset=".08" stop-color="#efa39c"/><stop offset="1" stop-color="#ce8b85"/></linearGradient><linearGradient id="j" gradientTransform="matrix(-1 0 0 1 -955.15 0)" gradientUnits="userSpaceOnUse" x1="-1911.66" x2="-1911.66" y1="224.9" y2="283.68"><stop offset="0" stop-color="#1c4984"/><stop offset="1" stop-color="#1a1e5a"/></linearGradient><linearGradient id="k" gradientUnits="userSpaceOnUse" x1="964.33" x2="964.33" y1="257.96" y2="177.84"><stop offset="0" stop-color="#ffe76d"/><stop offset="1" stop-color="#ffd500"/></linearGradient><linearGradient id="l" gradientTransform="matrix(1 0 0 -1 2862.06 743.59)" gradientUnits="userSpaceOnUse" x1="-1908.6" x2="-1908.6" y1="358.94" y2="384.66"><stop offset="0" stop-color="#cde1f1"/><stop offset="1" stop-color="#b1cfe2"/></linearGradient><linearGradient id="m" gradientTransform="matrix(-1 0 0 1 1029.06 0)" gradientUnits="userSpaceOnUse" x1="-108.68" x2="-108.68" xlink:href="#f" y1="242.8" y2="169.47"/><linearGradient id="n"><stop offset="0" stop-color="#78abc5"/><stop offset="1" stop-color="#94bdd4"/></linearGradient><linearGradient id="o" gradientUnits="userSpaceOnUse" x1="1044.26" x2="1044.26" xlink:href="#n" y1="375.31" y2="256.53"/><linearGradient id="p" gradientTransform="matrix(-1 0 0 1 119.84 0)" gradientUnits="userSpaceOnUse" x1="-936.29" x2="-936.29" xlink:href="#n" y1="262.1" y2="167.66"/><path d="m0 0h1280v384.66h-1280z" fill="#fff"/><path d="m1280 415.83h-145.06l-415.17-417.77 251.38.75 308.85 308.85z" fill="url(#a)"/><path d="m456.94 415.83-114.07-.83-342.87-342.87v-72.13h41.11z" fill="url(#b)"/><path d="m510.33 415.83h-29.1l-417.77-417.77 14.55-14.55z" fill="url(#c)"/><path d="m1099.88 415h-29.11l-416.94-416.94 14.55-14.55z" fill="url(#d)"/><path d="m894.32 122.52s6.06 1.42 21.86-2.77l13.88-3.68 53.44-14.18s6.9-2.23 9.51-6.17c2.42-3.64 1.77-3.6-1.45-6-3.38-2.52-6.86-5-19.61-1.67l-78.65 20.95-19.85-11.6-4.45 1.13 9.75 14.28-11 2.9.52 1.93z" fill="url(#e)"/><path d="m901.72 85.22 7.5-2.76 56.67 24.09-33.94 9.01z" fill="#b1cfe2"/><path d="m982.55 89.14a5.79 5.79 0 0 1 3.08.44.5.5 0 0 1 -.08.93l-2.41.63a.5.5 0 0 1 -.58-.3l-.41-1a.49.49 0 0 1 .4-.7z" fill="#e9f3ff"/><g fill="#fff"><path d="m0 166.02h1277.97v6.64h-1277.97z" opacity=".75"/><path d="m1039.43 0h7v384.66h-7z"/><path d="m818.8 0h7v384.66h-7z"/><path d="m600.47 0h7v384.66h-7z"/><path d="m379.85 0h7v384.66h-7z"/><path d="m158.61 0h7v384.66h-7z"/></g><path d="m0 384.66h1280v31.17h-1280z" fill="url(#g)"/><path d="m905.05 274.58a.51.51 0 0 1 .5.5v5.2a.51.51 0 0 1 -.5.5h-2.33a.51.51 0 0 1 -.5-.5v-5.2a.51.51 0 0 1 .5-.5zm0-1.5h-2.33a2 2 0 0 0 -2 2v5.2a2 2 0 0 0 2 2h2.33a2 2 0 0 0 2-2v-5.2a2 2 0 0 0 -2-2z" fill="#1a1e5a"/><path d="m907.11 271.95h5.13a3 3 0 0 1 3 3v10.7a.41.41 0 0 1 -.41.41h-10.28a.41.41 0 0 1 -.41-.41v-10.7a3 3 0 0 1 3-3z" fill="#1a1e5a" transform="matrix(-1 0 0 -1 1819.36 557.99)"/><path d="m971.92 256.86-9.71-45.81 20.31 13.85 5.83 14.66s-10.17 14.99-16.43 17.3z" fill="url(#h)"/><path d="m951.73 229.62c-4.68 11.55 22 3.14 16.64-2.4-5.6-5.76-4-20.89-4-20.89l-12.6 6.15a23.41 23.41 0 0 1 -.04 17.14z" fill="url(#i)"/><path d="m952.5 226.26 13.75-1.35a1.8 1.8 0 0 1 1.73.94c2 3.71 8.22 17.22 3.77 35.75-5.73 23.88-10.19 43.1-10.19 43.1h-17.56s2.4-35.88-2.78-47.84c-5.84-13.52 6.67-17.97 11.28-30.6z" fill="url(#j)"/><path d="m952.55 274.44c-.92 1-29.14 5.83-29.14 5.83a3.77 3.77 0 0 1 -1.62-1.17c-1.2-1.62-2.33-3.67-4.13-3.67h-11.61s-2.81-.46-2.81 1.59 2.78 1.43 2.78 1.43a2.29 2.29 0 0 0 2.31 2.12 2 2 0 0 0 2 1.94 7.14 7.14 0 0 0 4.88 1.89h5.32c22.41.43 23.94.81 32.92.31 0 0 5.38 1.34 9.19-10.56 2.58-8.05 2.14-8.62 2.82-17.31.24-3.05-.68-10.09-5.48-9.77l-6.51 6.48s-.01 19.88-.92 20.89z" fill="#efa39c"/><path d="m951.16 254.87h15.44a2 2 0 0 0 2-2v-11.79a9.74 9.74 0 0 0 -9.71-9.7 9.73 9.73 0 0 0 -9.7 9.7v11.81a2 2 0 0 0 1.97 1.98z" fill="#1c4984"/><path d="m957.76 209.26s12.4-8.68 12.4-17.77-5.36-6.19-14.5-6.19c-6.44 0-11.8-5.42-14.53-.07-.58.93-3 3.16-2.37 7.91.76 5.42-1 11.17-2 13.72l1.94 1.17s2.55 7.68 4.54 8.55 5.95-.49 13.7-6.14z" fill="#efa39c"/><path d="m938.63 195.19s2.72.71 11.88-.65c0 0-3.59 12.69 19.78 29 12.75 8.87 7.88 30.29 1.63 33.37l.58 1.1s24.21-6.07 15.85-29.69c-6.1-17.22-14.4-9.48-16.14-34.24-1.44-20.67-35.46-22.97-33.58 1.11z" fill="url(#k)"/><path d="m902.48 377.87-.49-7.42-6.4.57s1.19 5-2.72 6.05a59.1 59.1 0 0 0 -7.79 2.75l9 2.15z" fill="#efa39c"/><path d="m919.11 305.4s4.25-4.45-13.17-.35c-7.53 1.78-9.11 49.67-11.22 68.59l8 1.09s2.4-34.55 16.39-69.33z" fill="#1a1e5a"/><path d="m903 377.05s2.42 2.3 2.16 7.54l-26.18.07s-7.22-3.76 7.6-5.33c-.01 0 3.81 4.42 16.42-2.28z" fill="#1a1e5a"/><path d="m915.52 381.17 24.71-30.78-19.36-24.12a2.15 2.15 0 1 1 3.35-2.69l18.78 23.42 18.77-23.37a2.15 2.15 0 0 1 3.35 2.69l-19.37 24.12 24.72 30.78a2.15 2.15 0 0 1 -3.36 2.69l-24.11-30-24.12 30a2.15 2.15 0 1 1 -3.35-2.69z" fill="#b1cfe2"/><path d="m984.43 254.17s.18-6.18-4.36-6.85-7.3-.65-9.78 9.73-6.55 27.69-6.55 27.69l-49.24.26a5.09 5.09 0 0 0 -5.08 5.09c0 8.48.73 25.64 6.06 36h55.23s6.46-34.67 13.72-71.92z" fill="#cde1f1"/><path d="m982.62 296.21h1.92v7.4h-1.92z" fill="#94bdd4" transform="matrix(-1 0 0 -1 1967.17 599.82)"/><path d="m968.04 296.21h1.92v7.4h-1.92z" fill="#94bdd4" transform="matrix(-1 0 0 -1 1937.99 599.82)"/><rect fill="#b1cfe2" height="3.08" rx="1.42" transform="matrix(-1 0 0 -1 1952.58 590.94)" width="20.86" x="965.86" y="293.93"/><rect fill="#b1cfe2" height="81.45" rx="5" transform="matrix(-1 0 0 -1 1952.58 687.86)" width="54.22" x="949.18" y="303.21"/><rect fill="none" height="9.94" rx="2" stroke="#94bdd4" stroke-miterlimit="10" stroke-width="2" transform="matrix(-1 0 0 -1 1907.92 720.62)" width="15.98" x="945.97" y="355.34"/><rect fill="url(#l)" height="25.72" rx="3" transform="matrix(-1 0 0 -1 1906.91 743.59)" width="37.18" x="934.86" y="358.94"/><path d="m938.13 358.94h30.65a3.26 3.26 0 0 1 3.22 3.26v3.08l-18.59 6.52-18.59-6.52v-3.08a3.27 3.27 0 0 1 3.31-3.26z" fill="#cde1f1"/><path d="m1138.47 378.69-.43-6.82-6.57.57s1.77 4.56-1.83 5.5a53.84 53.84 0 0 0 -7.16 2.5l8.24 2z" fill="#b1cfe2"/><path d="m1121.66 140.28a8.78 8.78 0 0 1 2.17-7.27c2.52-4.91 7.43.07 13.35.07 8.4 0 13.33-2.68 13.33 5.68 0 7.93 1.45 17.88-5.58 18.88-.17 1.83-.56 9.34 3.94 14 4.94 5.09-19.59 12.82-15.3 2.21a21.52 21.52 0 0 0 .77-13.47c-10.09 2.82-11.28-.61-11.28-.61l-1.49-6.86s-2.93-.75-1.53-2.75c.86-1.27 2.32-4.9 1.62-9.88z" fill="#b1cfe2"/><path d="m1099.59 205a1.34 1.34 0 0 0 .49-1.83l-10.83-13.56a1.34 1.34 0 0 0 -1.83-.49 1.35 1.35 0 0 0 -.49 1.84l10.82 13.55a1.35 1.35 0 0 0 1.84.49z" fill="#8abad5"/><path d="m1134.28 170.72 12.63-1.25a1.7 1.7 0 0 1 1.6.87c1.85 3.42 7.55 15.83 3.46 32.85-5.27 21.95-9.37 39.61-9.37 39.61h-16.11s-.71-32.36-3.71-43.32c-3.58-13.06 7.22-17.16 11.5-28.76z" fill="url(#m)"/><path d="m1133.47 218.81-25-16.53a5.44 5.44 0 0 1 -1.77-1.53c-1.11-1.48-2.15-3.37-3.8-3.37h-10.67s-2.58-.43-2.58 1.46 2.56 1.31 2.56 1.31a2.11 2.11 0 0 0 2.12 1.95 1.88 1.88 0 0 0 1.88 1.79 6.59 6.59 0 0 0 4.48 1.73c2.82 0 6.64 3 6.64 3 12.43 8.74 21 16.64 26.4 21.25 0 0 3.92 2.94 7.86-8.69a88.94 88.94 0 0 0 4.6-22.3c.22-2.8-.63-9.27-5-9l-6 5.95z" fill="#b1cfe2"/><path d="m1138.64 373.07h-7.41c-3.45-16.95-5.56-82.8-4.74-130.27h16.11s10 12.21 8.89 24.75c-1.36 16.26-18.27 36.26-12.85 105.52z" fill="#cde1f1"/><path d="m1133.05 197h14.19a1.82 1.82 0 0 0 1.83-1.82v-10.84a9 9 0 0 0 -8.92-8.92 8.94 8.94 0 0 0 -8.92 8.92v10.85a1.82 1.82 0 0 0 1.82 1.81z" fill="#cde1f1"/><path d="m1138.94 377.94s2.22 2.12 2 6.93h-24.06s-6.63-3.46 7-4.87c-.03 0 3.47 4.06 15.06-2.06z" fill="#cde1f1"/><path d="m1121.8 137.85a3 3 0 0 1 -4-4 3 3 0 0 1 -.8-5.75 3 3 0 0 1 2.74-5.34l.07-.11a3 3 0 1 1 4.63-3.75.71.71 0 0 0 .15-.08l.29-.11a2.89 2.89 0 0 1 -.2-1.06 3 3 0 0 1 5.73-1.28 9.34 9.34 0 0 0 8.78-3 3 3 0 0 0 5.5.92 3 3 0 0 1 3 2.61 3 3 0 0 1 5 2.22 2.94 2.94 0 0 1 1-.19 3 3 0 0 1 3 3 2 2 0 0 1 0 .24 3 3 0 0 1 2.2 4.46 3 3 0 0 1 1.22 5.37 3 3 0 0 1 .61 5.81 3 3 0 0 1 .13 5.93 3 3 0 0 1 -1.16 5.76 3 3 0 0 1 -2.18 5.08 3.07 3.07 0 0 1 -1.1-.21 3 3 0 0 1 -5.48 2.48l-.36.12a3.25 3.25 0 0 1 .11.77 3 3 0 0 1 -6 0 2.92 2.92 0 0 1 .1-.73 10.68 10.68 0 0 1 1.58-3.23c.94-1.47 2.52-3.73 2.26-6.49s-3.24-3.44-5.1-1.13c-2 2.47-4.18 2.21-5.71-2.14s-4.17-8.79-16.01-6.17z" fill="#94bdd4"/><circle cx="1122.03" cy="155.17" fill="#b5d8e5" r="1.34"/><circle cx="1122.45" cy="157.28" fill="#b5d8e5" r="1.34"/><path d="m1037.37 148.23-2.15-.66c.91-2.34 2.92-8 2.22-13a14.26 14.26 0 0 1 2.09-9.11l19.06 2.3-2.22 7.29h11.8v39.75h-21.26v-19.36l-10-.49z" fill="#b1cfe2"/><path d="m1057.88 155.54c.3 7.32-9 6.57-14.31 7.19-7.31.84-8.94-2.41-6.28-14.46l4.37 1.33s2.4.52 1.52 3.42c0 0 5 2.06 7.11-4.83l5-16.35 15.07-2.78a14.74 14.74 0 0 1 .18 10.08c-.32 1.05-2.34 7.76-2.34 7.76l-2.23-.7a2.62 2.62 0 0 1 -1.61-3.51c.87-2.17 1.39-5.07-1.49-5.94-.03 0-5.87-2.35-4.99 18.79z" fill="#94bdd4"/><rect fill="#003ea7" height="18.34" rx="1.34" transform="matrix(-.8660254 .5 -.5 -.8660254 1964.08 -138.3)" width="2.69" x="999.23" y="184.82"/><path d="m1068.17 164 .57 3.69-21.86 6.53-2.13-3.62s4.97-3.22 23.42-6.6z" fill="#e9f3ff"/><path d="m1058 169.08 10.74-1.42s13.26 13.14 5.43 33.78c-8.56 22.58-4.78 49.62-4.78 49.62h-29.07s-2.1-27.75-4.22-39.22-3.54-37.76 21.9-42.76z" fill="#e9f3ff"/><path d="m1045.53 174.45v8.12l-9.44 23.43-.31-.11c-.85-9.76-.26-23.57 9.75-31.44z" fill="#b1cfe2"/><path d="m1045 171.13s-1.88 1.87-1.62 6.12l3.75-2.49z" fill="#b1cfe2"/><path d="m1082.39 374a1.15 1.15 0 0 0 -1.51-.78c-1.79.71-4.72 1.72-9.49-.12-6.62-2.56-10.25 6.26-21.33 6.26s-6.61 5.29.81 5.29h32.56a30 30 0 0 0 -1.04-10.65z" fill="#94bdd4"/><path d="m1081.39 374.44h-13.22c-5.7-16.33-23.07-71.8-28.65-118.95l28.8-3.91a28.55 28.55 0 0 1 3.08 22.27c-3.07 11.48-.09 55.69 9.99 100.59z" fill="#78abc5"/><path d="m1029.72 374.1a1.15 1.15 0 0 0 -1.16-1.24c-1.92.07-5 0-8.89-3.3-5.38-4.64-11.76 2.45-22.19-1.28s-8 2.75-1 5.25l30.66 11a29.92 29.92 0 0 0 2.58-10.43z" fill="#94bdd4"/><path d="m1029.72 375.31-14.23-6.09c1-17.26 12.19-67.05 25.25-112.69l31 5.07s5.69 14.88-6.7 25.12c-9.17 7.57-32.8 71.05-35.32 88.59z" fill="url(#o)"/><path d="m1060.9 168.92 7.84-1.26s13.26 13.14 5.43 33.78c-6 15.78-5.94 33.75-5.37 43.13.24 4 4 16.75 4 16.75l-34.5.78s-1.84-38.6-2.15-50.26c-.32-12-3.77-20.49 13.32-37.19a21.19 21.19 0 0 1 11.43-5.73z" fill="url(#p)"/><path d="m998.21 193.59h10.67a8.23 8.23 0 0 1 6.8 3.37 5.44 5.44 0 0 0 1.77 1.53l30.49 17.35a86.45 86.45 0 0 1 .47-14.48s19.35-22.08 19.33-.68-11.9 29.84-11.9 29.84l-.85-.68c-2.12 2.09-2.78 2.15-5.24.06-1.64-1.4-3.84-1.12-5.63-2.65-5.4-4.61-19-14.86-30.19-20.66a22.49 22.49 0 0 1 -2.46-1.47 5.48 5.48 0 0 0 -3.25-1h-2a3.63 3.63 0 0 1 -3.57-1.85 8.59 8.59 0 0 0 -2.19-2.43 3.62 3.62 0 0 1 -1.06-2.51h-1.18s-2.56 0-2.56-1.87 2.55-1.87 2.55-1.87z" fill="#b1cfe2"/><path d="m1047.27 213.71-27.66-14.58-4.16 7.68-.53 1s27.61 22 36.06 24.09a1 1 0 0 0 .23 0 5.5 5.5 0 0 0 5.25-1.14 44.62 44.62 0 0 0 12.31-28.45.11.11 0 0 0 .08-.09v-19.7c0-4.87-4.26-8.86-9.46-8.86h-2c-5.2 0-9.45 4-9.45 8.86-.01.02-.35 19.08-.67 31.19z" fill="#94bdd4"/><path d="m1035.1 122.59c2.15-.68 14-5.42 17.15-5.4s11.54-1.16 16.27 7.7a28.51 28.51 0 0 1 2 4.77l-15.65 4.68a48.52 48.52 0 0 1 -17.56-2.59c-4.22-1.51-4.31-8.49-2.21-9.16z" fill="#94bdd4"/><path d="m1038.25 262.1s13.26 5.17 34.5-.78l-10.37-5.44z" fill="#78abc5"/></svg>