<svg height="303" viewBox="0 0 296 303" width="296" xmlns="http://www.w3.org/2000/svg" xmlns:xlink="http://www.w3.org/1999/xlink"><linearGradient id="a" gradientUnits="userSpaceOnUse" x1="58.05" x2="66.56" y1="1.21" y2="32.96"><stop offset="0" stop-color="#e9f3ff"/><stop offset="1" stop-color="#b1cfe2"/></linearGradient><linearGradient id="b" gradientTransform="matrix(-1 0 0 1 809.88 0)" gradientUnits="userSpaceOnUse" x1="697.24" x2="705.32" y1="166.22" y2="137.87"><stop offset=".01" stop-color="#ffe76d"/><stop offset="1" stop-color="#ffa60d"/></linearGradient><linearGradient id="c" gradientTransform="matrix(-1 0 0 1 809.88 0)" gradientUnits="userSpaceOnUse" x1="717.3" x2="717.3" y1="144.97" y2="129.48"><stop offset=".08" stop-color="#efa39c"/><stop offset="1" stop-color="#ce8b85"/></linearGradient><linearGradient id="d" gradientTransform="matrix(-1 0 0 1 809.88 0)" gradientUnits="userSpaceOnUse" x1="720.91" x2="720.91" y1="142.73" y2="201.51"><stop offset="0" stop-color="#1c4984"/><stop offset="1" stop-color="#1a1e5a"/></linearGradient><linearGradient id="e" gradientUnits="userSpaceOnUse" x1="96.78" x2="96.78" y1="175.79" y2="95.68"><stop offset="0" stop-color="#ffe76d"/><stop offset="1" stop-color="#ffd500"/></linearGradient><linearGradient id="f" gradientTransform="matrix(1 0 0 -1 -638.07 579.26)" gradientUnits="userSpaceOnUse" x1="723.97" x2="723.97" y1="276.77" y2="302.49"><stop offset="0" stop-color="#cde1f1"/><stop offset="1" stop-color="#b1cfe2"/></linearGradient><linearGradient id="g" gradientTransform="matrix(-1 0 0 1 2794.09 0)" gradientUnits="userSpaceOnUse" x1="2523.89" x2="2523.89" y1="160.63" y2="87.3"><stop offset="0" stop-color="#e9f3ff"/><stop offset="1" stop-color="#cde1f1"/></linearGradient><linearGradient id="h"><stop offset="0" stop-color="#78abc5"/><stop offset="1" stop-color="#94bdd4"/></linearGradient><linearGradient id="i" gradientUnits="userSpaceOnUse" x1="176.72" x2="176.72" xlink:href="#h" y1="293.14" y2="174.36"/><linearGradient id="j" gradientTransform="matrix(-1 0 0 1 1884.87 0)" gradientUnits="userSpaceOnUse" x1="1696.29" x2="1696.29" xlink:href="#h" y1="179.93" y2="85.49"/><path d="m26.78 40.35s6.06 1.42 21.85-2.77l13.89-3.68 53.48-14.18s6.89-2.23 9.51-6.17c2.42-3.64 1.77-3.6-1.45-6-3.39-2.52-6.86-5-19.61-1.67l-78.7 20.91-19.84-11.6-4.41 1.17 9.74 14.28-11 2.9.56 1.93z" fill="url(#a)"/><path d="m34.18 3.05 7.5-2.76 56.67 24.09-33.95 9.01z" fill="#b1cfe2"/><path d="m115 7a5.79 5.79 0 0 1 3.08.44.5.5 0 0 1 -.09.93l-2.39.63a.5.5 0 0 1 -.59-.3l-.4-1a.49.49 0 0 1 .39-.7z" fill="#e9f3ff"/><path d="m37.5 192.41a.51.51 0 0 1 .5.5v5.2a.51.51 0 0 1 -.5.5h-2.32a.51.51 0 0 1 -.5-.5v-5.2a.51.51 0 0 1 .5-.5zm0-1.5h-2.32a2 2 0 0 0 -2 2v5.2a2 2 0 0 0 2 2h2.32a2 2 0 0 0 2-2v-5.2a2 2 0 0 0 -2-2z" fill="#1a1e5a"/><path d="m39.57 189.78h5.13a3 3 0 0 1 3 3v10.7a.41.41 0 0 1 -.41.41h-10.29a.41.41 0 0 1 -.41-.41v-10.7a3 3 0 0 1 2.98-3z" fill="#1a1e5a" transform="matrix(-1 0 0 -1 84.27 393.65)"/><path d="m104.37 174.69-9.7-45.81 20.33 13.85 5.82 14.66s-10.18 14.99-16.45 17.3z" fill="url(#b)"/><path d="m84.18 147.45c-4.67 11.55 22 3.14 16.65-2.4-5.6-5.75-4-20.89-4-20.89l-12.59 6.15a23.38 23.38 0 0 1 -.06 17.14z" fill="url(#c)"/><path d="m85 144.09 13.75-1.35a1.81 1.81 0 0 1 1.74.94c2 3.72 8.22 17.23 3.77 35.75-5.74 23.88-10.2 43.1-10.2 43.1h-17.58s2.39-35.87-2.79-47.84c-5.85-13.52 6.65-17.97 11.31-30.6z" fill="url(#d)"/><path d="m85 192.27c-.91 1-29.14 5.83-29.14 5.83a3.66 3.66 0 0 1 -1.61-1.17c-1.21-1.61-2.34-3.67-4.14-3.67h-11.6s-2.82-.46-2.82 1.59 2.79 1.43 2.79 1.43a2.29 2.29 0 0 0 2.31 2.12 2 2 0 0 0 2 1.94 7.17 7.17 0 0 0 4.88 1.89h5.32c22.42.43 23.94.81 32.92.31 0 0 5.39 1.34 9.2-10.56 2.58-8.05 2.13-8.61 2.82-17.31.24-3.05-.69-10.09-5.48-9.77l-6.45 6.5s-.08 19.87-1 20.87z" fill="#efa39c"/><path d="m83.62 172.71h15.44a2 2 0 0 0 2-2v-11.8a9.74 9.74 0 0 0 -9.71-9.71 9.74 9.74 0 0 0 -9.71 9.71v11.8a2 2 0 0 0 1.98 2z" fill="#1c4984"/><path d="m90.22 127.09s12.4-8.68 12.4-17.77-5.36-6.19-14.51-6.19c-6.44 0-11.79-5.41-14.53-.07-.57.93-3 3.16-2.36 7.91.76 5.42-1 11.18-2 13.72l2 1.17s2.55 7.68 4.54 8.55 5.94-.49 13.69-6.14z" fill="#efa39c"/><path d="m71.08 113s2.73.71 11.89-.65c0 0-3.59 12.69 19.78 28.95 12.75 8.87 7.87 30.29 1.62 33.37l.59 1.1s24.21-6.07 15.84-29.69c-6.09-17.22-14.4-9.48-16.13-34.23-1.45-20.61-35.47-22.91-33.59 1.15z" fill="url(#e)"/><path d="m34.94 295.7-.5-7.42-6.39.57s1.19 5-2.73 6a59.29 59.29 0 0 0 -7.78 2.75l9 2.15z" fill="#efa39c"/><path d="m51.57 223.23s4.25-4.45-13.17-.35c-7.53 1.78-9.11 49.67-11.22 68.6l8 1.08s2.4-34.56 16.39-69.33z" fill="#1a1e5a"/><path d="m35.45 294.88s2.42 2.3 2.16 7.54l-26.19.07s-7.22-3.76 7.58-5.33c0 0 3.85 4.42 16.45-2.28z" fill="#1a1e5a"/><path d="m48 299 24.71-30.78-19.38-24.12a2.15 2.15 0 0 1 3.35-2.69l18.77 23.38 18.76-23.38a2.15 2.15 0 1 1 3.35 2.69l-19.36 24.12 24.71 30.78a2.15 2.15 0 0 1 -3.35 2.69l-24.11-30-24.12 30a2.15 2.15 0 1 1 -3.33-2.69z" fill="#b1cfe2"/><path d="m116.88 172s.18-6.18-4.35-6.85-7.3-.65-9.78 9.73-6.56 27.69-6.56 27.69l-49.19.25a5.09 5.09 0 0 0 -5.07 5.09c0 8.48.73 25.64 6 36h55.23s6.47-34.66 13.72-71.91z" fill="#cde1f1"/><path d="m115.08 214.04h1.92v7.4h-1.92z" fill="#94bdd4" transform="matrix(-1 0 0 -1 232.08 435.48)"/><path d="m100.49 214.04h1.92v7.4h-1.92z" fill="#94bdd4" transform="matrix(-1 0 0 -1 202.91 435.48)"/><rect fill="#b1cfe2" height="3.08" rx="1.42" transform="matrix(-1 0 0 -1 217.49 426.6)" width="20.86" x="98.32" y="211.76"/><rect fill="#b1cfe2" height="81.45" rx="5" transform="matrix(-1 0 0 -1 217.49 523.53)" width="54.22" x="81.63" y="221.04"/><rect fill="none" height="9.94" rx="2" stroke="#94bdd4" stroke-miterlimit="10" stroke-width="2" transform="matrix(-1 0 0 -1 172.83 556.29)" width="15.98" x="78.43" y="273.18"/><rect fill="url(#f)" height="25.72" rx="3" transform="matrix(-1 0 0 -1 171.82 579.26)" width="37.18" x="67.32" y="276.77"/><path d="m70.58 276.77h30.66a3.27 3.27 0 0 1 3.26 3.23v3.08l-18.59 6.52-18.59-6.52v-3.08a3.27 3.27 0 0 1 3.26-3.23z" fill="#cde1f1"/><path d="m270.93 296.52-.44-6.82-6.56.57s1.77 4.56-1.83 5.5a53.84 53.84 0 0 0 -7.16 2.5l8.24 2z" fill="#b1cfe2"/><path d="m254.11 58.11a8.8 8.8 0 0 1 2.18-7.27c2.51-4.91 7.43.07 13.35.07 8.4 0 13.32-2.67 13.32 5.68 0 7.93 1.45 17.88-5.58 18.88-.16 1.83-.55 9.34 3.94 14 4.95 5.09-19.59 12.82-15.29 2.21a21.43 21.43 0 0 0 .76-13.47c-10.09 2.82-11.27-.61-11.27-.61l-1.52-6.9s-2.91-.7-1.51-2.7c.86-1.27 2.32-4.9 1.62-9.89z" fill="#b1cfe2"/><path d="m232 122.79a1.36 1.36 0 0 0 .5-1.84l-10.83-13.56a1.35 1.35 0 0 0 -1.84-.49 1.35 1.35 0 0 0 -.49 1.84l10.83 13.55a1.35 1.35 0 0 0 1.83.5z" fill="#8abad5"/><path d="m266.74 88.55 12.63-1.25a1.67 1.67 0 0 1 1.59.87c1.85 3.42 7.56 15.83 3.47 32.85-5.27 22-9.37 39.61-9.37 39.61h-16.06s-.72-32.35-3.72-43.32c-3.62-13.06 7.22-17.16 11.46-28.76z" fill="url(#g)"/><path d="m265.93 136.64-25-16.53a5.51 5.51 0 0 1 -1.76-1.53c-1.11-1.48-2.15-3.37-3.8-3.37h-10.63s-2.59-.43-2.59 1.46 2.57 1.32 2.57 1.32a2.09 2.09 0 0 0 2.12 1.94 1.88 1.88 0 0 0 1.88 1.79 6.59 6.59 0 0 0 4.48 1.73c2.81 0 6.64 3 6.64 3 12.42 8.74 21 16.64 26.4 21.25 0 0 3.92 3 7.86-8.68a89.56 89.56 0 0 0 4.6-22.31c.22-2.8-.64-9.27-5-9l-6 6z" fill="#b1cfe2"/><g fill="#cde1f1"><path d="m271.09 290.9h-7.41c-3.45-16.95-5.55-82.8-4.73-130.27h16.11s9.94 12.21 8.94 24.75c-1.42 16.26-18.32 36.26-12.91 105.52z"/><path d="m265.51 114.84h14.19a1.81 1.81 0 0 0 1.82-1.82v-10.85a9 9 0 0 0 -8.92-8.92 9 9 0 0 0 -8.92 8.92v10.83a1.82 1.82 0 0 0 1.83 1.84z"/><path d="m271.4 295.77s2.22 2.12 2 6.93h-24.1s-6.62-3.46 7-4.87c0 0 3.51 4.06 15.1-2.06z"/></g><path d="m254.25 55.68a3 3 0 0 1 -1.3.3 3 3 0 0 1 -2.69-4.35 3 3 0 0 1 -.79-5.74 3 3 0 0 1 1.41-5.67 3 3 0 0 1 1.32.32l.08-.11a3 3 0 1 1 4.63-3.75l.15-.07c.09 0 .19-.08.28-.12a3.12 3.12 0 0 1 -.2-1.06 3 3 0 0 1 5.74-1.28 3 3 0 0 1 5.87-.8 3 3 0 0 1 5.84.13 3 3 0 0 1 5.54 1.17 3 3 0 0 1 5 2.22 2.94 2.94 0 0 1 1-.19 3 3 0 0 1 3 3 1.79 1.79 0 0 1 0 .24 3 3 0 0 1 2.19 4.46 3 3 0 0 1 1.22 5.37 3 3 0 0 1 .61 5.82 3 3 0 0 1 .14 5.92 3 3 0 0 1 -1.17 5.76 3 3 0 0 1 .84 2.07 3 3 0 0 1 -3 3 3.07 3.07 0 0 1 -1.1-.21 3 3 0 0 1 -5.47 2.48l-.36.13a3.1 3.1 0 0 1 .11.76 3 3 0 0 1 -6 0 2.92 2.92 0 0 1 .1-.73 10.43 10.43 0 0 1 1.58-3.23c.94-1.47 2.52-3.73 2.26-6.48s-3.25-3.45-5.11-1.14c-2 2.47-4.17 2.21-5.7-2.14s-4.17-8.7-16.02-6.08z" fill="#94bdd4"/><circle cx="254.48" cy="73" fill="#b5d8e5" r="1.34"/><circle cx="254.91" cy="75.11" fill="#b5d8e5" r="1.34"/><path d="m169.83 66.06-2.15-.66c.91-2.34 2.91-8.05 2.21-13a14.3 14.3 0 0 1 2.1-9.11l19.06 2.3-2.22 7.29h11.8v39.75h-21.27v-19.36l-10-.49z" fill="#b1cfe2"/><path d="m190.33 73.37c.3 7.32-8.94 6.57-14.31 7.19-7.31.84-8.94-2.41-6.27-14.46l4.37 1.33s2.39.53 1.51 3.42c0 0 5 2.06 7.11-4.83l5-16.35 15.08-2.78a14.9 14.9 0 0 1 .18 10.11c-.32 1-2.35 7.75-2.35 7.75l-2.25-.75a2.63 2.63 0 0 1 -1.62-3.51c.88-2.17 1.39-5.07-1.49-5.94 0 .03-5.82-2.32-4.96 18.82z" fill="#94bdd4"/><rect fill="#003ea7" height="18.34" rx="1.34" transform="matrix(-.8660254 .5 -.5 -.8660254 304.14 142.14)" width="2.69" x="131.68" y="102.65"/><path d="m200.63 81.81.57 3.68-21.87 6.51-2.12-3.63s4.97-3.16 23.42-6.56z" fill="#e9f3ff"/><path d="m190.46 86.92 10.74-1.43s13.25 13.14 5.43 33.78c-8.56 22.58-4.79 49.62-4.79 49.62h-29.07s-2.09-27.75-4.22-39.22-3.55-37.76 21.91-42.75z" fill="#e9f3ff"/><path d="m178 92.28v8.12l-9.44 23.41-.31-.11c-.86-9.7-.25-23.55 9.75-31.42z" fill="#b1cfe2"/><path d="m177.5 89s-1.88 1.86-1.63 6.12l3.76-2.5z" fill="#b1cfe2"/><path d="m214.85 291.84a1.15 1.15 0 0 0 -1.52-.78c-1.78.71-4.71 1.73-9.49-.12-6.61-2.56-10.24 6.27-21.32 6.27s-6.62 5.28.81 5.28h32.56a30 30 0 0 0 -1.04-10.65z" fill="#94bdd4"/><path d="m213.85 292.27h-13.22c-5.7-16.33-23.08-71.8-28.65-118.95l28.8-3.91a28.62 28.62 0 0 1 3.08 22.27c-3.08 11.48-.1 55.69 9.99 100.59z" fill="#78abc5"/><path d="m162.18 291.93a1.15 1.15 0 0 0 -1.16-1.24c-1.92.07-5 0-8.9-3.3-5.37-4.64-11.75 2.45-22.19-1.28s-8 2.75-1 5.25l30.66 11a30 30 0 0 0 2.59-10.43z" fill="#94bdd4"/><path d="m162.18 293.14-14.24-6.09c1.06-17.26 12.2-67.05 25.26-112.69l31 5.07s5.69 14.88-6.71 25.12c-9.16 7.57-32.79 71.05-35.31 88.59z" fill="url(#i)"/><path d="m193.35 86.75 7.85-1.26s13.25 13.14 5.43 33.78c-6 15.78-5.94 33.75-5.37 43.13.24 4 4 16.75 4 16.75l-34.5.78s-1.85-38.59-2.16-50.26c-.31-11.95-3.76-20.49 13.33-37.19a21.23 21.23 0 0 1 11.42-5.73z" fill="url(#j)"/><path d="m130.67 111.42h10.66a8.2 8.2 0 0 1 6.8 3.37 5.65 5.65 0 0 0 1.77 1.53l30.5 17.35a87 87 0 0 1 .46-14.48s19.36-22.08 19.34-.68-11.9 29.84-11.9 29.84l-.85-.68c-2.13 2.09-2.78 2.15-5.24.06-1.64-1.4-3.84-1.12-5.63-2.65-5.41-4.61-19-14.86-30.19-20.66a21.58 21.58 0 0 1 -2.46-1.47 5.5 5.5 0 0 0 -3.25-1h-2a3.65 3.65 0 0 1 -3.57-1.85 8.69 8.69 0 0 0 -2.18-2.43 3.6 3.6 0 0 1 -1.06-2.5h-1.19s-2.56 0-2.56-1.88 2.55-1.87 2.55-1.87z" fill="#b1cfe2"/><path d="m179.73 131.54-27.66-14.54-4.16 7.68-.53 1s27.61 22 36.05 24.09h.24a5.51 5.51 0 0 0 5.25-1.14 44.67 44.67 0 0 0 12.31-28.45.1.1 0 0 0 .07-.09v-19.7c0-4.87-4.25-8.86-9.45-8.86h-2c-5.2 0-9.46 4-9.46 8.86-.01-.02-.39 19.04-.66 31.15z" fill="#94bdd4"/><path d="m167.56 40.42c2.14-.68 14-5.42 17.14-5.4s11.54-1.16 16.27 7.7a26.93 26.93 0 0 1 2 4.77l-15.65 4.68a48.56 48.56 0 0 1 -17.57-2.59c-4.21-1.51-4.34-8.49-2.19-9.16z" fill="#94bdd4"/><path d="m170.71 179.93s13.25 5.17 34.5-.78l-10.38-5.44z" fill="#78abc5"/></svg>