<svg id="Layer_1" data-name="Layer 1" xmlns="http://www.w3.org/2000/svg" viewBox="0 0 54 40"><defs><style>.cls-1{fill:#fff;fill-rule:evenodd;}</style></defs><title>vds_issuer_fdnb-white</title><path id="FDNB" class="cls-1" d="M.39,31.33,1.87,31v-10L.39,20.79V19.11h11v3.81H9.31l-.13-1.66H4.65v3.82H9.52v2.15H4.65V31l1.49.29V33H.39ZM18.7,19.11a5.71,5.71,0,0,1,4.2,1.63,5.59,5.59,0,0,1,1.65,4.17v2.3a5.59,5.59,0,0,1-1.65,4.17A5.75,5.75,0,0,1,18.7,33H12.46V31.33L13.93,31v-10l-1.47-.28V19.11Zm-2,2.15v9.6h1.84a2.92,2.92,0,0,0,2.35-1,4,4,0,0,0,.84-2.64V24.89a3.94,3.94,0,0,0-.84-2.62,2.89,2.89,0,0,0-2.35-1Zm23.39-2.15v1.68l-1.49.28V33H35.84l-5.61-9.35h-.05V31l1.48.29V33H25.91V31.33L27.39,31v-10l-1.48-.28V19.11h4.27l5.61,9.35h.05V21.07l-1.49-.28V19.11Zm7.06,0a6.69,6.69,0,0,1,3.83.95,3.27,3.27,0,0,1,1.37,2.86,3,3,0,0,1-.51,1.72,3.13,3.13,0,0,1-1.48,1.14,2.91,2.91,0,0,1,1.87,1.14,3.4,3.4,0,0,1,.63,2,3.59,3.59,0,0,1-1.32,3,6,6,0,0,1-3.73,1H41V31.33L42.48,31v-10L41,20.79V19.11Zm-1.9,7.74v4h2.56a2.6,2.6,0,0,0,1.69-.48A1.74,1.74,0,0,0,50.1,29a2.23,2.23,0,0,0-.49-1.56A2,2,0,0,0,48,26.85Zm0-1.92V21.26h1.9a3,3,0,0,1,1.81.45,1.69,1.69,0,0,1,.61,1.42,1.59,1.59,0,0,1-.6,1.34,2.77,2.77,0,0,1-1.72.46Zm8.16,12.41v2a.69.69,0,0,1-.68.68H.68A.69.69,0,0,1,0,39.32v-2a.69.69,0,0,1,.68-.68H52.75A.69.69,0,0,1,53.43,37.34ZM27.34.1,52.8,10.38a1.09,1.09,0,0,1,.63.94v4a.68.68,0,0,1-.68.68H.68A.67.67,0,0,1,0,15.34v-4a1.09,1.09,0,0,1,.63-.94L26.09.1A2.05,2.05,0,0,1,27.34.1Z"/></svg>