<svg id="VISA_Logo" data-name="VISA Logo" xmlns="http://www.w3.org/2000/svg" viewBox="0 0 216 69.76"><defs><style>.cls-1{fill:#fff;}</style></defs><title>Artboard 1</title><path class="cls-1" d="M82,1.23,53.73,68.7H35.28L21.37,14.86c-.85-3.32-1.58-4.53-4.15-5.93C13,6.66,6.1,4.52,0,3.19l.42-2h29.7a8.13,8.13,0,0,1,8,6.88l7.35,39L63.68,1.23Zm72.29,45.44c.07-17.81-24.63-18.79-24.46-26.74.05-2.42,2.36-5,7.4-5.65a32.94,32.94,0,0,1,17.21,3L157.52,3A46.86,46.86,0,0,0,141.2,0c-17.25,0-29.39,9.17-29.5,22.31C111.59,32,120.37,37.44,127,40.67c6.8,3.31,9.08,5.43,9.05,8.38,0,4.53-5.42,6.52-10.44,6.6-8.78.14-13.87-2.37-17.93-4.26L104.5,66.17c4.08,1.87,11.6,3.5,19.41,3.58,18.33,0,30.33-9.06,30.39-23.08m45.55,22H216L201.91,1.23H187a8,8,0,0,0-7.43,5L153.4,68.7h18.33l3.64-10.08h22.39ZM180.38,44.8l9.19-25.34,5.29,25.34ZM107,1.23,92.52,68.7H75.06L89.5,1.23Z"/></svg>