<svg height="300" viewBox="0 0 400 300" width="400" xmlns="http://www.w3.org/2000/svg" xmlns:xlink="http://www.w3.org/1999/xlink"><linearGradient id="a" gradientUnits="userSpaceOnUse" x1="148" x2="303.64" y1="108.6" y2="264.24"><stop offset="0" stop-color="#fff" stop-opacity=".5"/><stop offset="1" stop-color="#fff" stop-opacity="0"/></linearGradient><linearGradient id="b" gradientUnits="userSpaceOnUse" x1="169.43" x2="169.43" y1="217.84" y2="139.77"><stop offset=".01" stop-color="#b1cfe2"/><stop offset=".48" stop-color="#cde1f1"/></linearGradient><linearGradient id="c" gradientUnits="userSpaceOnUse" x1="188.98" x2="188.98" y1="201.97" y2="124.96"><stop offset=".55" stop-color="#a8d0e5"/><stop offset="1" stop-color="#8abad5"/></linearGradient><linearGradient id="d" gradientUnits="userSpaceOnUse" x1="188.98" x2="188.98" y1="201.97" y2="124.96"><stop offset=".55" stop-color="#7b4241"/><stop offset="1" stop-color="#5e2a2a"/></linearGradient><linearGradient id="e" gradientUnits="userSpaceOnUse" x1="181.04" x2="172.73" y1="171.44" y2="148.18"><stop offset="0" stop-color="#3a967a"/><stop offset="1" stop-color="#4aba98"/></linearGradient><path d="m0-.18h400v300h-400z" fill="#e9f3ff"/><path d="m107.06 142.4h81.93v7.27h-81.93z" fill="#cde1f1"/><path d="m113.19 74.35h69.18v69.18h-69.18z" fill="#fff"/><path d="m179.87 76.85v64.15h-64.18v-64.15zm5-5h-74.18v74.15h74.18z" fill="#cde1f1"/><path d="m114.94 141.66 65.85-65.62 155.46 154.69-53.72 54.63-6.82 6.82-5.85 4z" fill="url(#a)"/><path d="m184.13 109.09h-34.53v-34.53h-3.64v34.53h-34.53v3.64h34.53v34.53h3.64v-34.53h34.53z" fill="#cde1f1"/><path d="m248.77 264.13.49-7.56 6.18.53s.87 5.15 4.86 6.2a18.29 18.29 0 0 1 6.22 2.78l-9.15 2.21z" fill="#a8d0e5"/><path d="m216.38 133.48c-.32-1.88 0-6.88 3.5-12.25 3.08-4.7 1.59-8.3 1.45-9.58-.23-7-8.62-4-15.46-7.2-9.7-4.58-13.93-10.35-18.49-.7-4.32 9.16-11.42 19.86-3.84 24.84-.8 2.2-4.46 11.09-12.17 14-8.48 3.18 15.64 25.48 16.47 10.88a27.44 27.44 0 0 1 6.45-16c10.12 8.75 13.36 5.44 13.36 5.44l.94-1.22a1.75 1.75 0 0 0 .42.29 1.68 1.68 0 0 0 2.29-2.07 1.7 1.7 0 0 0 1.6-1 1.67 1.67 0 0 0 -.6-2l.81-1.06s3.8.71 3.27-2.37z" fill="#a8d0e5"/><path d="m146.41 192.29c-.39 9.29 4.49 25.29 4.49 25.29l17.54.26s2.3-30.22 14.36-39.27c16.78-12.59 6.18-17.94 8.31-34.48l-15-4.32s-27.79 6.71-29.7 52.52z" fill="url(#b)"/><path d="m248.52 261 8.23-3.82c-8.81-14.5-29.82-42-49.37-55.82-7.68-5.42-29.82 13.34-37.65 16.38l-18.52-.27s-16.2 19.93 4.64 24.54c12.08 2.67 22.9-5.93 43.21-17.87 10.94-6.36 40.61 18.69 49.46 36.86z" fill="#cde1f1"/><path d="m248.25 263.3s-2.46 2.35-2.18 7.7h26.7s7.74-4.1-7.38-5.66c0 0-4.27 4.75-17.14-2.04z" fill="#eaf1fb"/><path d="m221 118.35a3.92 3.92 0 0 0 1.34 1.06 3.86 3.86 0 0 0 5.12-1.84 3.74 3.74 0 0 0 .35-1.72 3.84 3.84 0 0 0 4.05-6.21 3.83 3.83 0 0 0 -.24-7.66v-.17a3.82 3.82 0 0 0 2.29-2 3.84 3.84 0 0 0 -5.58-4.81l-.13-.17-.27-.29a3.73 3.73 0 0 0 .82-1.12 3.84 3.84 0 0 0 -5.93-4.6 3.83 3.83 0 0 0 -6.35-4.12 3.84 3.84 0 0 0 -6.82-3 3.83 3.83 0 0 0 -7-1.67 3.82 3.82 0 0 0 -6.94-.13 3.72 3.72 0 0 0 -1.11-.9 3.86 3.86 0 0 0 -5.13 1.84c0 .09-.06.19-.1.29a3.8 3.8 0 0 0 -5 4 3.84 3.84 0 0 0 -4.34 5.53 3.83 3.83 0 0 0 -3.83 6.34 3.84 3.84 0 0 0 -3.4 6.77 3.84 3.84 0 0 0 -1.79 7.28 3.84 3.84 0 0 0 1.14 7.42 3.93 3.93 0 0 0 -.87 1.17 3.84 3.84 0 0 0 5.84 4.67c.11.12.23.23.35.35a4.2 4.2 0 0 0 -.55.82 3.85 3.85 0 1 0 7 3.29 4.25 4.25 0 0 0 .28-.9 13.64 13.64 0 0 0 -.06-4.59c-.29-2.21-.88-5.68.92-8.72s5.62-2.21 6.51 1.47c1 3.93 3.62 4.84 7.76.64s9.46-7.81 21.67 1.68z" fill="#78abc5"/><path d="m200.81 125c-1.67-.63-2.68 2.41-3.93 5.21-1 2.29-1.1 2.54-2 4.85a9 9 0 0 0 .33 7.48c1.56 3 1.21 4.59 1.21 4.59l-1.85 38.1c-3.84-8.69-4.66-11.05-8.73-20-3.21-1.5-6.55-3.21-9.7-4.55-5.69 1.43-3.27 9.81-2.35 12.6 2.62 7.95 11.44 20.9 15.11 24.41 4.82 4.61 9.56 6.69 12.45-.16 4.19-9.89 2.09-40.39.66-48.64.39-7.38 2-5.29 2.69-9.34-.03.03 3.49-11.74-3.89-14.55z" fill="url(#c)"/><path d="m188.34 170.12-13.84 4.88a2.14 2.14 0 0 1 -2.56-1.57l-4.62-13.06c-2.09-5.9.12-12.12 4.9-13.81 4.79-1.7 10.41 1.75 12.5 7.66l4.62 13.06a2.14 2.14 0 0 1 -1 2.84z" fill="#eaf1fb"/><path d="m240.29 63.88 5.24-4.74a6.35 6.35 0 1 0 .44-9" fill="none" stroke="#cae2f6" stroke-linecap="round" stroke-miterlimit="10" stroke-width="3"/><path d="m236.91 65.81a1.19 1.19 0 0 0 -.77.29 1.16 1.16 0 0 0 -.08 1.62 1.16 1.16 0 0 0 1.62.08 1.16 1.16 0 0 0 .08-1.62 1.18 1.18 0 0 0 -.85-.37z" fill="#cae2f6"/><path d="m201.26 59.33v-5.64a5.07 5.07 0 1 0 -5.1-5" fill="none" stroke="#cae2f6" stroke-linecap="round" stroke-miterlimit="10" stroke-width="3"/><path d="m201.28 62.06a.91.91 0 0 0 0 1.82.91.91 0 0 0 0-1.82z" fill="#cae2f6"/><path d="m255.14 111.11 1.57-2.58a2.71 2.71 0 1 0 -.93-3.73" fill="none" stroke="#cae2f6" stroke-linecap="round" stroke-miterlimit="10" stroke-width="2"/><path d="m254.14 112.3a.47.47 0 0 0 -.42.24.49.49 0 0 0 .16.67.59.59 0 0 0 .25.07.49.49 0 0 0 .26-.91.47.47 0 0 0 -.25-.07z" fill="#cae2f6"/><path d="m269.94 80.69 2.44-.48a2.24 2.24 0 1 0 1.76-2.63" fill="none" stroke="#a8d0e5" stroke-linecap="round" stroke-miterlimit="10"/><path d="m268.36 80.6h-.08a.4.4 0 0 0 -.32.47.42.42 0 0 0 .4.33h.08a.4.4 0 0 0 .31-.47.4.4 0 0 0 -.39-.33z" fill="#a8d0e5"/><path d="m224.59 34.76-.09-2a1.84 1.84 0 1 0 -1.93-1.76" fill="none" stroke="#a8d0e5" stroke-linecap="round" stroke-miterlimit="10" stroke-width=".75"/><path d="m224.65 35.76a.33.33 0 0 0 0 .66.33.33 0 0 0 0-.66z" fill="#a8d0e5"/><path d="m248.77 264.13.49-7.56 6.18.53s.87 5.15 4.86 6.2a18.29 18.29 0 0 1 6.22 2.78l-9.15 2.21z" fill="#7b4241"/><path d="m207.38 201.4c-4.78-3.38-15.17 2.63-24.22 8.37l15 15 .93-.55c10.9-6.4 40.61 18.65 49.46 36.86l8.23-3.82c-8.84-14.54-29.85-42.04-49.4-55.86z" fill="#1a1e5a"/><path d="m221.69 116.71-10.89-10.82a18.35 18.35 0 0 1 -4.93-1.44c-9.7-4.58-13.93-10.35-18.49-.7-4.32 9.16-11.42 19.86-3.84 24.84-.8 2.2-4.46 11.09-12.17 14-8.48 3.18 15.64 25.48 16.47 10.88a27.44 27.44 0 0 1 6.45-16c10.12 8.75 13.36 5.44 13.36 5.44l.94-1.22a1.75 1.75 0 0 0 .42.29 1.68 1.68 0 0 0 2.29-2.07 1.7 1.7 0 0 0 1.6-1 1.67 1.67 0 0 0 -.6-2l.81-1.06s3.8.75 3.27-2.33c-.32-1.88 0-6.88 3.5-12.25a11.35 11.35 0 0 0 1.81-4.56z" fill="#7b4241"/><path d="m248.25 263.3s-2.46 2.35-2.18 7.7h26.7s7.74-4.1-7.38-5.66c0 0-4.27 4.75-17.14-2.04z" fill="#1a1e5a"/><path d="m191.11 144.09-15-4.32s-20.56 5-27.56 35.44l23.3 23.29c2.16-7.82 5.58-15.94 10.9-19.93 16.83-12.57 6.25-17.94 8.36-34.48z" fill="#4aba98"/><path d="m200.81 125c-1.67-.63-2.68 2.41-3.93 5.21-1 2.29-1.1 2.54-2 4.85a9 9 0 0 0 .33 7.48c1.56 3 1.21 4.59 1.21 4.59l-1.85 38.1c-3.84-8.69-4.66-11.05-8.73-20-3.21-1.5-6.55-3.21-9.7-4.55-5.69 1.43-3.27 9.81-2.35 12.6 2.62 7.95 11.44 20.9 15.11 24.41 4.82 4.61 9.56 6.69 12.45-.16 4.19-9.89 2.09-40.39.66-48.64.39-7.38 2-5.29 2.69-9.34-.03.03 3.49-11.74-3.89-14.55z" fill="url(#d)"/><path d="m188.34 170.12-13.84 4.88a2.14 2.14 0 0 1 -2.56-1.57l-4.62-13.06c-2.09-5.9.12-12.12 4.9-13.81 4.79-1.7 10.41 1.75 12.5 7.66l4.62 13.06a2.14 2.14 0 0 1 -1 2.84z" fill="url(#e)"/><path d="m186.28 81.52a3.71 3.71 0 0 0 -1.53 1.65 3.8 3.8 0 0 0 -.34 1.94 3.84 3.84 0 0 0 -4.34 5.53 3.83 3.83 0 0 0 -3.87 6.36 3.84 3.84 0 0 0 -3.4 6.77 3.84 3.84 0 0 0 -1.79 7.28 3.84 3.84 0 0 0 1.14 7.42 3.93 3.93 0 0 0 -.87 1.17 3.84 3.84 0 0 0 5.84 4.67c.11.12.23.23.35.35a4.2 4.2 0 0 0 -.55.82 3.85 3.85 0 1 0 7 3.29 4.25 4.25 0 0 0 .28-.9 13.64 13.64 0 0 0 -.06-4.59c-.29-2.21-.88-5.68.92-8.72s5.62-2.21 6.51 1.47c1 3.93 3.62 4.84 7.76.64s9.49-7.84 21.74 1.65a3.79 3.79 0 0 0 3.66 1.36z" fill="#1a1e5a"/></svg>