<svg height="317" viewBox="0 0 300 317" width="300" xmlns="http://www.w3.org/2000/svg" xmlns:xlink="http://www.w3.org/1999/xlink"><linearGradient id="a" gradientUnits="userSpaceOnUse" x1="83.61" x2="262.52" y1="101.06" y2="279.97"><stop offset="0" stop-color="#fff" stop-opacity=".5"/><stop offset="1" stop-color="#fff" stop-opacity="0"/></linearGradient><linearGradient id="b" gradientUnits="userSpaceOnUse" x1="108.24" x2="108.24" y1="226.62" y2="136.88"><stop offset=".01" stop-color="#b1cfe2"/><stop offset=".48" stop-color="#cde1f1"/></linearGradient><linearGradient id="c" gradientUnits="userSpaceOnUse" x1="130.72" x2="130.72" y1="208.38" y2="119.85"><stop offset=".55" stop-color="#a8d0e5"/><stop offset="1" stop-color="#8abad5"/></linearGradient><linearGradient id="d" gradientUnits="userSpaceOnUse" x1="130.72" x2="130.72" y1="208.38" y2="119.85"><stop offset=".55" stop-color="#7b4241"/><stop offset="1" stop-color="#5e2a2a"/></linearGradient><linearGradient id="e" gradientUnits="userSpaceOnUse" x1="121.59" x2="112.04" y1="173.29" y2="146.55"><stop offset="0" stop-color="#3a967a"/><stop offset="1" stop-color="#4aba98"/></linearGradient><path d="m0 .32h300v300h-300z" fill="#f4f4f4"/><path d="m36.54 139.91h94.18v8.36h-94.18z" fill="#cde1f1"/><path d="m43.22 61.31h80.27v80.27h-80.27z" fill="#fff"/><path d="m121 63.81v75.27h-75.28v-75.27zm5-5h-85.28v85.27h85.28z" fill="#cde1f1"/><path d="m45.61 139.06 75.69-75.43 178.7 177.81-61.75 62.8-7.84 7.84-6.72 4.6z" fill="url(#a)"/><path d="m125.13 101.62h-39.69v-39.69h-4.18v39.69h-39.69v4.18h39.69v39.69h4.18v-39.69h39.69z" fill="#cde1f1"/><path d="m199.44 279.84.56-8.7 7.11.61s1 5.93 5.59 7.13a21 21 0 0 1 7.15 3.2l-10.52 2.54z" fill="#a8d0e5"/><path d="m162.21 129.66c-.37-2.18 0-7.91 4-14.09 3.55-5.4 1.83-9.54 1.67-11-.26-8.09-9.91-4.57-17.77-8.28-11.15-5.26-16-11.9-21.25-.81-5 10.53-13.13 22.83-4.43 28.56-.92 2.53-5.11 12.75-14 16.07-9.76 3.66 18 29.29 18.92 12.51a31.45 31.45 0 0 1 7.42-18.35c11.63 10.06 15.35 6.25 15.35 6.25l1.08-1.4a2.14 2.14 0 0 0 .49.34 1.94 1.94 0 0 0 2.63-2.38 2 2 0 0 0 1.84-1.18 1.94 1.94 0 0 0 -.69-2.35l.93-1.21s4.42.85 3.81-2.68z" fill="#a8d0e5"/><path d="m81.77 197.26c-.44 10.67 5.16 29.07 5.16 29.07l20.17.29s2.64-34.73 16.51-45.14c19.28-14.47 7.11-20.62 9.55-39.64l-17.19-5s-31.97 7.75-34.2 60.42z" fill="url(#b)"/><path d="m199.15 276.28 9.46-4.39c-10.12-16.66-34.27-48.27-56.75-64.16-8.82-6.24-34.27 15.33-43.27 18.82l-21.29-.3s-18.62 22.91 5.33 28.2c13.89 3.07 26.33-6.81 49.67-20.54 12.53-7.36 46.7 21.45 56.85 42.37z" fill="#cde1f1"/><path d="m198.85 278.88s-2.83 2.71-2.52 8.85h30.67s8.89-4.7-8.49-6.5c.04 0-4.87 5.46-19.66-2.35z" fill="#eaf1fb"/><path d="m167.57 112.25a4.29 4.29 0 0 0 1.53 1.22 4.4 4.4 0 0 0 6.3-4.08 4.41 4.41 0 0 0 4.65-7.14 4.41 4.41 0 0 0 -.27-8.81c0-.06 0-.13 0-.19a4.37 4.37 0 0 0 2.63-2.31 4.41 4.41 0 0 0 -6.43-5.57c-.05-.07-.09-.13-.15-.2s-.2-.21-.3-.33a4.3 4.3 0 0 0 .93-1.28 4.42 4.42 0 0 0 -6.81-5.29 4.41 4.41 0 0 0 -7.3-4.74 4.41 4.41 0 0 0 -7.87-3.53 4.4 4.4 0 0 0 -8.08-1.92 4.4 4.4 0 0 0 -8-.16 4.54 4.54 0 0 0 -1.25-.9 4.43 4.43 0 0 0 -5.89 2.11c-.05.11-.08.22-.12.33a4.42 4.42 0 0 0 -5.31 2.32 4.37 4.37 0 0 0 -.39 2.23 4.41 4.41 0 0 0 -5 6.36 4.4 4.4 0 0 0 -4.44 7.38 4.41 4.41 0 0 0 -3.9 7.78 4.42 4.42 0 0 0 -2.06 8.38 4.41 4.41 0 0 0 1.3 8.52 4.42 4.42 0 0 0 5.72 6.72l.4.4a4.43 4.43 0 1 0 7.7 3.69 15.34 15.34 0 0 0 -.07-5.28c-.33-2.54-1-6.53 1.06-10s6.47-2.53 7.49 1.7c1.09 4.52 4.16 5.56 8.91.74s10.94-9.05 25.02 1.85z" fill="#78abc5"/><path d="m144.31 120c-1.92-.72-3.08 2.77-4.52 6-1.18 2.64-1.26 2.92-2.33 5.58a10.35 10.35 0 0 0 .38 8.59c1.79 3.49 1.39 5.28 1.39 5.28l-2.13 43.79c-4.41-10-5.36-12.7-10-23-3.7-1.74-7.53-3.69-11.15-5.24-6.54 1.65-3.76 11.28-2.7 14.48 3 9.14 13.15 24 17.37 28.07 5.54 5.3 11 7.69 14.31-.18 4.81-11.38 2.4-46.43.76-55.92.45-8.49 2.25-6.08 3.09-10.74-.03-.05 4.02-13.57-4.47-16.71z" fill="url(#c)"/><path d="m130 171.77-15.91 5.63a2.46 2.46 0 0 1 -2.94-1.8l-5.31-15c-2.4-6.79.14-13.94 5.64-15.88 5.5-2 12 2 14.37 8.8l5.31 15a2.46 2.46 0 0 1 -1.16 3.25z" fill="#eaf1fb"/><path d="m189.7 49.65 6-5.46a7.3 7.3 0 1 0 .51-10.31" fill="none" stroke="#cae2f6" stroke-linecap="round" stroke-miterlimit="10" stroke-width="3"/><path d="m185.81 51.86a1.32 1.32 0 0 0 0 2.63 1.35 1.35 0 0 0 .88-.34 1.32 1.32 0 0 0 -.88-2.29z" fill="#cae2f6"/><path d="m144.82 44.41v-6.48a5.83 5.83 0 1 0 -5.86-5.79" fill="none" stroke="#cae2f6" stroke-linecap="round" stroke-miterlimit="10" stroke-width="3"/><path d="m144.85 47.55a1.05 1.05 0 0 0 0 2.1 1.05 1.05 0 0 0 0-2.1z" fill="#cae2f6"/><path d="m206.77 103.94 1.8-3a3.12 3.12 0 1 0 -1.06-4.29" fill="none" stroke="#cae2f6" stroke-linecap="round" stroke-miterlimit="10" stroke-width="2"/><path d="m205.61 105.3a.56.56 0 0 0 -.48.27.56.56 0 0 0 .19.77.52.52 0 0 0 .29.09.57.57 0 0 0 .29-1.05.6.6 0 0 0 -.29-.08z" fill="#cae2f6"/><path d="m223.77 69 2.81-.56a2.57 2.57 0 1 0 2-3" fill="none" stroke="#a8d0e5" stroke-linecap="round" stroke-miterlimit="10"/><path d="m222 68.87h-.09a.47.47 0 0 0 -.36.55.45.45 0 0 0 .45.37h.09a.46.46 0 0 0 .36-.54.45.45 0 0 0 -.45-.37z" fill="#a8d0e5"/><path d="m171.65 16.17-.11-2.35a2.12 2.12 0 1 0 -2.21-2" fill="none" stroke="#a8d0e5" stroke-linecap="round" stroke-miterlimit="10" stroke-width=".75"/><path d="m171.71 17.32a.38.38 0 0 0 -.37.39.38.38 0 0 0 .38.37.38.38 0 0 0 .36-.4.38.38 0 0 0 -.38-.36z" fill="#a8d0e5"/><path d="m199.44 279.84.56-8.7 7.11.61s1 5.93 5.59 7.13a21 21 0 0 1 7.15 3.2l-10.52 2.54z" fill="#7b4241"/><path d="m151.86 207.73c-5.49-3.88-17.43 3-27.84 9.62l17.21 17.2 1.07-.64c12.53-7.36 46.68 21.45 56.85 42.37l9.46-4.39c-10.12-16.66-34.27-48.27-56.75-64.16z" fill="#1a1e5a"/><path d="m168.31 110.38-12.51-12.44a21.57 21.57 0 0 1 -5.67-1.66c-11.15-5.26-16-11.9-21.25-.81-5 10.53-13.13 22.83-4.43 28.56-.92 2.53-5.11 12.75-14 16.07-9.76 3.66 18 29.29 18.92 12.51a31.45 31.45 0 0 1 7.42-18.35c11.63 10.06 15.35 6.25 15.35 6.25l1.08-1.4a2.14 2.14 0 0 0 .49.34 1.94 1.94 0 0 0 2.63-2.38 2 2 0 0 0 1.84-1.18 1.94 1.94 0 0 0 -.69-2.35l.93-1.21s4.37.86 3.76-2.67c-.37-2.18 0-7.91 4-14.09a13 13 0 0 0 2.13-5.19z" fill="#7b4241"/><path d="m198.85 278.88s-2.83 2.71-2.52 8.85h30.67s8.89-4.7-8.49-6.5c.04 0-4.87 5.46-19.66-2.35z" fill="#1a1e5a"/><path d="m133.16 141.84-17.19-5s-23.63 5.7-31.67 40.74l26.77 26.78c2.49-9 6.42-18.33 12.54-22.92 19.28-14.44 7.11-20.58 9.55-39.6z" fill="#4aba98"/><path d="m144.31 120c-1.92-.72-3.08 2.77-4.52 6-1.18 2.64-1.26 2.92-2.33 5.58a10.35 10.35 0 0 0 .38 8.59c1.79 3.49 1.39 5.28 1.39 5.28l-2.13 43.79c-4.41-10-5.36-12.7-10-23-3.7-1.74-7.53-3.69-11.15-5.24-6.54 1.65-3.76 11.28-2.7 14.48 3 9.14 13.15 24 17.37 28.07 5.54 5.3 11 7.69 14.31-.18 4.81-11.38 2.4-46.43.76-55.92.45-8.49 2.25-6.08 3.09-10.74-.03-.05 4.02-13.57-4.47-16.71z" fill="url(#d)"/><path d="m130 171.77-15.91 5.63a2.46 2.46 0 0 1 -2.94-1.8l-5.31-15c-2.4-6.79.14-13.94 5.64-15.88 5.5-2 12 2 14.37 8.8l5.31 15a2.46 2.46 0 0 1 -1.16 3.25z" fill="url(#e)"/><path d="m127.61 69.92a4.33 4.33 0 0 0 -1.76 1.9 4.37 4.37 0 0 0 -.39 2.23 4.41 4.41 0 0 0 -5 6.36 4.4 4.4 0 0 0 -4.46 7.34 4.41 4.41 0 0 0 -3.9 7.78 4.42 4.42 0 0 0 -2.06 8.38 4.41 4.41 0 0 0 1.3 8.52 4.42 4.42 0 0 0 5.72 6.72l.4.4a4.43 4.43 0 1 0 7.7 3.69 15.34 15.34 0 0 0 -.07-5.28c-.33-2.54-1-6.53 1.06-10s6.47-2.53 7.49 1.7c1.09 4.52 4.16 5.56 8.91.74s10.92-9 25 1.88a4.29 4.29 0 0 0 1.53 1.22 4.38 4.38 0 0 0 2.67.35z" fill="#1a1e5a"/></svg>