<svg height="277" viewBox="0 0 215 277" width="215" xmlns="http://www.w3.org/2000/svg" xmlns:xlink="http://www.w3.org/1999/xlink"><radialGradient id="a" cx="107.5" cy="173.97" gradientUnits="userSpaceOnUse" r="103.64"><stop offset="0" stop-color="#eaf1fb" stop-opacity="0"/><stop offset="1" stop-color="#eaf1fb"/></radialGradient><linearGradient id="b" gradientUnits="userSpaceOnUse" x1="53.42" x2="81.24" y1="209.66" y2="130.83"><stop offset=".01" stop-color="#cde1f1"/><stop offset=".98" stop-color="#e9f3ff"/></linearGradient><linearGradient id="c" gradientUnits="userSpaceOnUse" x1="92.46" x2="92.46" y1="195.86" y2="107.33"><stop offset=".55" stop-color="#b1cfe2"/><stop offset="1" stop-color="#94bdd4"/></linearGradient><path d="m2 207.66c2.7 10.15 8.63 19.42 17.13 25.25a44.52 44.52 0 0 0 20.27 7.6c1.44.16 2.89.25 4.33.27 12.47.17 24.12 5.77 33 14.5a65.69 65.69 0 0 0 8.74 7.19 67.71 67.71 0 0 0 8.55 5 65.08 65.08 0 0 0 42.1 5.11 66 66 0 0 0 42.88-30.43 65.29 65.29 0 0 0 9.14-29.15 55.74 55.74 0 0 1 6.54-22.56 58.21 58.21 0 0 1 8.32-11.62 44.72 44.72 0 0 0 7.37-10.93 44.66 44.66 0 0 0 -14.64-55.6 55.48 55.48 0 0 0 -13.2-6.38c-13.12-4.76-25.21-11.93-36.62-20a67.06 67.06 0 0 0 -7.91-4.76 65.84 65.84 0 0 0 -84.86 22.31 68.33 68.33 0 0 0 -4.87 8.83 65.73 65.73 0 0 0 -4.18 12.26 56.78 56.78 0 0 1 -23.73 34.27 45.72 45.72 0 0 0 -15.7 17.45c-4.79 9.5-5.43 20.91-2.66 31.39z" fill="url(#a)" opacity=".5"/><path d="m138 269.09 1.74-8.13h5.41s1.51 5.94 6.11 7.13a21.18 21.18 0 0 1 7.15 3.2l-10.52 2.55z" fill="#b1cfe2"/><path d="m124 117.13c-.37-2.17 0-7.91 4-14.08 3.55-5.41 1.83-9.55 1.67-11-.26-8.09-9.91-4.56-17.77-8.27-11.15-5.27-16-11.91-21.25-.81-5 10.53-13.13 22.83-4.42 28.56-.92 2.53-5.12 12.75-14 16.07-9.75 3.65 18 29.28 18.93 12.51a31.48 31.48 0 0 1 7.42-18.36c11.62 10.07 15.34 6.26 15.34 6.26l1.09-1.41a1.72 1.72 0 0 0 .49.34 1.94 1.94 0 0 0 2.63-2.38 1.93 1.93 0 0 0 1.15-3.52l.93-1.21s4.35.83 3.79-2.7z" fill="#b1cfe2"/><path d="m43.52 184.73c-.45 10.68 5.16 29.08 5.16 29.08l20.16.29s2.65-34.74 16.52-45.1c19.28-14.46 7.1-20.62 9.54-39.63l-17.18-5s-32 7.7-34.2 60.36z" fill="url(#b)"/><path d="m138.47 266 7.55-3.51c-5.1-18.38-14.32-48.35-32.41-67.24-7.48-7.81-34.28 15.33-43.28 18.82l-21.33-.35s-18.62 22.91 5.34 28.21c13.88 3.07 26.32-6.82 49.67-20.54 12.57-7.39 24.29 23.61 34.46 44.61z" fill="#e9f3ff"/><path d="m137.41 268.13s-2.83 2.72-2.51 8.86h30.71s8.89-4.71-8.49-6.5c0 0-4.92 5.51-19.71-2.36z" fill="#e9f3ff"/><path d="m129.31 99.73a4.53 4.53 0 0 0 1.54 1.22 4.43 4.43 0 0 0 5.89-2.12 4.27 4.27 0 0 0 .4-2 4.41 4.41 0 0 0 4.66-7.13 4.41 4.41 0 0 0 1.68-8.41 4.23 4.23 0 0 0 -2-.4v-.19a4.42 4.42 0 1 0 -3.8-7.89l-.15-.19c-.1-.12-.21-.22-.31-.33a4.38 4.38 0 0 0 .94-1.29 4.42 4.42 0 0 0 -6.82-5.29 4.41 4.41 0 0 0 -7.3-4.74 4.41 4.41 0 0 0 -7.83-3.49 4.4 4.4 0 0 0 -8.08-1.92 4.4 4.4 0 0 0 -8-.15 4.37 4.37 0 0 0 -1.24-.91 4.44 4.44 0 0 0 -5.89 2.15c0 .11-.07.22-.11.33a4.41 4.41 0 0 0 -5.32 2.32 4.33 4.33 0 0 0 -.39 2.22 4.41 4.41 0 0 0 -5 6.37 4.4 4.4 0 0 0 -4.46 7.34 4.41 4.41 0 0 0 -3.86 7.77 4.41 4.41 0 0 0 -2.06 8.37 4.42 4.42 0 0 0 -.28 8.12 4.29 4.29 0 0 0 1.59.4 4.41 4.41 0 0 0 5.71 6.72l.4.4a4.43 4.43 0 1 0 7.71 3.69 15.88 15.88 0 0 0 -.07-5.28c-.34-2.53-1-6.53 1-10s6.47-2.54 7.49 1.69c1.1 4.52 4.16 5.56 8.92.74s10.96-9.02 25.04 1.88z" fill="#94bdd4"/><path d="m106.05 107.42c-1.92-.72-3.07 2.78-4.51 6-1.18 2.63-1.27 2.92-2.33 5.57a10.39 10.39 0 0 0 .37 8.59c1.8 3.5 1.39 5.28 1.39 5.28l-2.13 43.8c-4.4-10-5.35-12.7-10-23-3.7-1.73-7.54-3.69-11.16-5.23-6.54 1.65-3.75 11.27-2.7 14.48 3 9.14 13.15 24 17.37 28.06 5.55 5.31 11 7.69 14.32-.18 4.81-11.38 2.4-46.43.76-55.92.44-8.48 2.25-6.08 3.08-10.74-.02 0 4.03-13.52-4.46-16.71z" fill="url(#c)"/><path d="m91.72 159.25-15.91 5.63a2.47 2.47 0 0 1 -2.94-1.8l-5.31-15c-2.4-6.79.13-13.93 5.63-15.88 5.5-2 12 2 14.37 8.81l5.31 15a2.47 2.47 0 0 1 -1.15 3.24z" fill="#e9f3ff"/><path d="m123.23 29.44 3.2-7.47a7.3 7.3 0 1 0 -3.82-9.59" fill="none" stroke="#cae2f6" stroke-linecap="round" stroke-miterlimit="10" stroke-width="3"/><path d="m121.16 33a1.31 1.31 0 0 0 -.52 2.51 1.17 1.17 0 0 0 .51.11 1.31 1.31 0 1 0 0-2.62z" fill="#cae2f6"/><path d="m80.24 43.33-2.74-5.88a5.83 5.83 0 1 0 -7.73-2.83" fill="none" stroke="#cae2f6" stroke-linecap="round" stroke-miterlimit="10" stroke-width="3"/><path d="m82 46.08a1 1 0 0 0 -.44.1 1 1 0 0 0 .44 2 1.12 1.12 0 0 0 .44-.09 1 1 0 0 0 .56-1.4 1 1 0 0 0 -1-.61z" fill="#cae2f6"/><path d="m161.32 71.72.4-3.45a3.12 3.12 0 1 0 -2.72-3.46" fill="none" stroke="#cae2f6" stroke-linecap="round" stroke-miterlimit="10" stroke-width="2"/><path d="m161.07 73.39a.56.56 0 0 0 -.07 1.12h.07a.55.55 0 0 0 .55-.49.56.56 0 0 0 -.49-.63z" fill="#cae2f6"/><path d="m162.25 32.84 2.32-1.67a2.57 2.57 0 1 0 .59-3.59" fill="none" stroke="#a8d0e5" stroke-linecap="round" stroke-miterlimit="10"/><path d="m160.75 33.46a.47.47 0 0 0 -.38.73.47.47 0 0 0 .38.2.47.47 0 0 0 .37-.74.47.47 0 0 0 -.37-.19z" fill="#a8d0e5"/><path d="m92.89 6.5-1.07-2.11a2.12 2.12 0 1 0 -2.82-.92" fill="none" stroke="#a8d0e5" stroke-linecap="round" stroke-miterlimit="10" stroke-width=".75"/><path d="m93.59 7.47a.58.58 0 0 0 -.18 0 .39.39 0 0 0 -.16.52.37.37 0 0 0 .34.2.35.35 0 0 0 .17 0 .38.38 0 0 0 .17-.51.4.4 0 0 0 -.34-.21z" fill="#a8d0e5"/></svg>