<svg height="241" viewBox="0 0 184 241" width="184" xmlns="http://www.w3.org/2000/svg" xmlns:xlink="http://www.w3.org/1999/xlink"><radialGradient id="a" cx="92" cy="120.13" gradientUnits="userSpaceOnUse" r="92"><stop offset="0" stop-color="#eaf1fb" stop-opacity="0"/><stop offset="1" stop-color="#eaf1fb"/></radialGradient><linearGradient id="b" gradientUnits="userSpaceOnUse" x1="86.22" x2="86.22" y1="149.71" y2="71.44"><stop offset=".5" stop-color="#cde1f1"/><stop offset=".53" stop-color="#d4e6f5"/><stop offset=".61" stop-color="#e0edfb"/><stop offset=".72" stop-color="#e7f2fe"/><stop offset="1" stop-color="#e9f3ff"/></linearGradient><linearGradient id="c" gradientUnits="userSpaceOnUse" x1="86.72" x2="86.72" y1="76.64" y2="66.25"><stop offset="0" stop-color="#b1cfe2"/><stop offset="1" stop-color="#94bdd4"/></linearGradient><linearGradient id="d" gradientUnits="userSpaceOnUse" x1="123.31" x2="123.31" y1=".27" y2="13.16"><stop offset="0" stop-color="#003ea7"/><stop offset="1" stop-color="#1a1e5a"/></linearGradient><linearGradient id="e" gradientTransform="matrix(.9517552 .30685832 -.30685832 .9517552 -126.41 177.43)" gradientUnits="userSpaceOnUse" x1="167.38" x2="167.38" y1="-107.73" y2="-162.82"><stop offset=".55" stop-color="#b1cfe2"/><stop offset="1" stop-color="#94bdd4"/></linearGradient><circle cx="92" cy="120.13" fill="url(#a)" opacity=".5" r="92"/><path d="m97.58 145.41c-7.76-11.34-10.58-3.83-11.31-1-.73-2.86-3.55-10.37-11.32 1-11.95 17.39 6.87 33.41 6.87 95.32h8.9c0-61.91 18.77-77.93 6.86-95.32z" fill="#eaf1fb"/><path d="m108.2 75.92s13.25-12.92 19.7-24.23c0 0 .39-24.22-1.57-43.17h4.67s4.88 30.08 5.08 44.34c0 0 0 4.49-5.67 11.13s-16.24 20.35-20.14 23.07-2.07-11.14-2.07-11.14z" fill="#b1cfe2"/><path d="m110 74s-3.71-1.23-23.35-2.45h-.11-.11c-32 6.67-26.52 29.33-26.52 29.33s.89 2 4.77 1.69c0 0-.91 3.23 3.07 8.43 8.87 11.57 7.8 34 7.8 34s1.12 4.68 10.84 4.79h.41c9.71-.11 10.84-4.79 10.84-4.79s.73-22.38 6.69-34.33c3.24-6.51 6.27-22.18 6.27-22.18 5.83-3.87-.6-14.49-.6-14.49z" fill="url(#b)"/><ellipse cx="86.63" cy="82.87" fill="#b1cfe2" rx="12.72" ry="11.43"/><path d="m79.17 66.25h15.08v10.4h-15.08z" fill="url(#c)"/><path d="m103.05 24.48a22.9 22.9 0 0 0 -16.42-7.1 22.9 22.9 0 0 0 -16.42 7.1s-18.94 18.14 5.79 39.58a17.15 17.15 0 0 0 10.57 4.29h.08a17.13 17.13 0 0 0 10.57-4.29c24.78-21.44 5.83-39.58 5.83-39.58z" fill="#b1cfe2"/><path d="m77.31 58.26s9.36 10.09 18.72 0z" fill="#e9f3ff"/><rect fill="url(#d)" height="12.89" rx="2" width="20.61" x="113" y=".27"/><path d="m92.63 7.43a5.06 5.06 0 0 0 .27-1.56 5.12 5.12 0 0 0 -10.13-1 5.11 5.11 0 0 0 -9.72 2.13 5.06 5.06 0 0 0 .27 1.56 5.12 5.12 0 0 0 -8.8 3.56 5.05 5.05 0 0 0 1.68 3.76 5.1 5.1 0 1 0 -4.62 9.12 5.12 5.12 0 0 0 .09 10.23 3.29 3.29 0 0 0 .44 0v.09c-.14 0-.28 0-.43 0a5.12 5.12 0 0 0 0 10.24 4.82 4.82 0 0 0 1.2-.16c1.54.38 4.18.36 5.57-3.58 2-5.75 4.38-13.38 18-13.47 13.68.09 16 7.72 18.05 13.47a10.76 10.76 0 0 0 1.13 2.35c1.16 1.74 4.36.87 4.31-1.23-.53-27.51-10.42-34.1-17.31-35.51z" fill="#94bdd4"/><path d="m92 76.86c-1.12-.9-2.65 1.19-4.31 3-1.36 1.51-1.48 1.69-2.76 3.23a7.33 7.33 0 0 0 -1.6 5.91c.45 2.73-.2 3.83-.2 3.83l-8.33 21.39c-.79-7.63-1.66-5.33-2.57-13.23-1.28-2.83-6.4-4-8-4-4.74-.31-3.55 3.45-3.54 5.82 0 6.77 5.42 18.21 7.37 21.82 2.57 4.74 4.76 4.35 8.69-.2 5.67-6.58 9.31-22.21 10.26-28.91 2.13-5.58 2.82-3.58 4.38-6.52-.01 0 5.61-8.17.61-12.14z" fill="url(#e)"/></svg>