<svg height="300" viewBox="0 0 286 300" width="286" xmlns="http://www.w3.org/2000/svg" xmlns:xlink="http://www.w3.org/1999/xlink"><linearGradient id="a" gradientUnits="userSpaceOnUse" x1="142.18" x2="142.18" y1="151.59" y2="109.85"><stop offset="0" stop-color="#7b4241"/><stop offset=".58" stop-color="#794040"/><stop offset=".78" stop-color="#723b3a"/><stop offset=".93" stop-color="#673131"/><stop offset="1" stop-color="#5e2a2a"/></linearGradient><linearGradient id="b" gradientUnits="userSpaceOnUse" x1="98.51" x2="108.21" y1="292.87" y2="239.04"><stop offset="0" stop-color="#7b4241"/><stop offset=".35" stop-color="#794040"/><stop offset=".47" stop-color="#723b3a"/><stop offset=".56" stop-color="#673131"/><stop offset=".6" stop-color="#5e2a2a"/></linearGradient><linearGradient id="c" gradientTransform="matrix(1.01 .03 -.02 1.03 -2.54 -3.65)" gradientUnits="userSpaceOnUse" x1="132.59" x2="131.61" y1="261.06" y2="211.02"><stop offset="0" stop-color="#1a1e5a"/><stop offset=".72" stop-color="#1c4984"/></linearGradient><path d="m.42 178.52c0 13 4.12 26.07 12.43 35.8a55.35 55.35 0 0 0 21.88 15.62c1.68.66 3.39 1.23 5.11 1.72 14.91 4.21 27.08 14.68 35 28a81.47 81.47 0 0 0 147.14-14.89 69.28 69.28 0 0 1 15.1-25 71.8 71.8 0 0 1 13.68-11.31 55.94 55.94 0 0 0 12.34-10.74 55.43 55.43 0 0 0 .31-71.4c-4-4.75-8.72-8.37-13.78-11.9-14.21-9.93-26.4-22.41-37.5-35.75a81.69 81.69 0 0 0 -116.89-8.67 83.58 83.58 0 0 0 -8.68 9 81 81 0 0 0 -9 13.38 70.49 70.49 0 0 1 -39.48 33.47 56.85 56.85 0 0 0 -24.44 15.89c-8.77 9.83-13.2 23.31-13.22 36.78z" fill="#e9f3ff"/><path d="m51.69 9.82 2.96-9.41 5.66 8.08 9.86-.09-5.92 7.88 3.13 9.35-9.33-3.21-7.92 5.87.16-9.86-8.03-5.72z" fill="#eaf1fb"/><g fill="#cedeec"><path d="m166.01 16.79 4.46-2.72-.56 5.19 3.97 3.4-5.11 1.08-2.01 4.82-2.6-4.53-5.21-.42 3.5-3.88-1.2-5.08z"/><path d="m274.93 97.34 4.99-4.1.22 6.45 5.44 3.47-6.07 2.21-1.62 6.24-3.97-5.08-6.44.38 3.61-5.35-2.36-6z"/><path d="m7.55 114.11 1.86-6.18 3.78 5.23 6.45-.15-3.81 5.21 2.13 6.09-6.13-2.01-5.13 3.91.02-6.45-5.31-3.68z"/></g><path d="m245.57 22.36 1.85-6.18 3.78 5.23 6.45-.14-3.81 5.21 2.13 6.09-6.13-2.02-5.13 3.92.02-6.46-5.31-3.67z" fill="#eaf1fb"/><path d="m142.3 117.58h-.12c-51.43 5.5-45.47 38.32-45.47 38.32a26.58 26.58 0 0 0 16.9 2s14.7 34.1-2.61 64.51c-15 26.43 13.77 21.08 26.73 21.08l-5.17.08 9.78-.15c13 0 6.44-.26 11.22-5 16.28-16.13 17.34-80.54 17.34-80.54a26.6 26.6 0 0 0 16.91-2s-8.74-31.61-45.51-38.3z" fill="#1a1e5a"/><path d="m153.52 121v-11.15h-22.44v11a16.49 16.49 0 0 0 -7.83 13.75c0 9.4 8.47 17 18.93 17s18.92-7.61 18.92-17a16.46 16.46 0 0 0 -7.58-13.6z" fill="url(#a)"/><path d="m109.76 75.26s-23.51-2.19-27.65 24.2c0 0 26.08 6.16 27.65-24.2z" fill="#1a1e5a"/><path d="m174.74 75.66s23.51-2.19 27.65 24.2c0 0-26.08 6.14-27.65-24.2z" fill="#1a1e5a"/><path d="m166.61 47.71a34.1 34.1 0 0 0 -24.43-10.56 34.1 34.1 0 0 0 -24.43 10.56s-28.17 27 8.65 58.88a25.44 25.44 0 0 0 15.72 6.41h.12a25.44 25.44 0 0 0 15.76-6.41c36.79-31.89 8.61-58.88 8.61-58.88z" fill="#7b4241"/><path d="m128.31 98s13.93 15 27.84 0z" fill="#fff"/><path d="m68.91 258.51s-1.55-5-9.46-10.42l-20.18 27.38s0 11.64 13.67-2.21c0 0-3.56-8.78 15.97-14.75z" fill="#1a1e5a"/><path d="m117.49 47.71a35.85 35.85 0 0 0 -10 27.5c18.32-4.49 24-15.91 24-15.91 16.6 18.7 43.18 16.16 45.3 16.24a36.08 36.08 0 0 0 -9.93-28.12 34.46 34.46 0 0 0 -49.37.29z" fill="#1a1e5a"/><path d="m153.52 254.76-17.66-15.71s-12.37 6.11-8.28 29.24c0 0-29-12.11-61-9.68-.17-.35-.28-.55-.28-.55s-14.16 4.07-13.51 14.8c0 0 6.38-5.84 13.51-3.67 0 0 56.68 17.52 73.57 19.2 14.04 1.4 13.65-33.63 13.65-33.63z" fill="url(#b)"/><path d="m110.47 231.05c-10.16 11.12-17.47 26.51-18.61 41.55-8.25-7.78-19.47-13-30-16.63-1.88-.64-17.55-5.57-17.93-4.27l.1-1.34-14.53 2.27a1.84 1.84 0 0 0 -1 .3c-.65.57-1.07 2.36-1.41 3.13l-2.9 6.42c3.84-1.33 8.2-4.2 12.39-3.28a22.92 22.92 0 0 1 7.42 3.33c5.64 3.69 11.27 8.38 17 12 7.59 4.83 14.37 9 22.26 13.31 3.37 1.85 6.79 3.64 10.3 5.2 2.24 1 4.82 2.38 7.34 2.37 4.61 0 8.45-4.2 11.14-7.48a92.4 92.4 0 0 0 10.44-16.84 202.92 202.92 0 0 0 12.47-29.47c.29-.92.41-.62-.25-1.09-1.72-1.21-4.52-1.77-6.47-2.53l-16.58-6.51z" fill="#7b4241"/><path d="m45 251.34s-.37-5.25-6.87-12.29l-25.87 22.13s-2.62 11.34 13.82.93c0 0-1.49-9.36 18.92-10.77z" fill="#1a1e5a"/><path d="m170.31 157.64c7 28.89 18.2 35.55 22.13 32.28s9.95-38.33 9.95-38.33l-7.48 3.41s-4.33 23.84-6.75 19.52-5.16-21.81-5.16-21.81z" fill="#7b4241"/><path d="m161.53 223.4c-3.31 3.23-8.1 5.63-22.89 4.15-13.4-1.33-21.46-5.37-25.29-10.26-4.45 9.78-17.15 19.17-29.45 25.63 0 0 10.07 14.14 22.07 15.92s13.67 8.21 22 9.69 14.4-2.55 26.3-.1 14.76-1.8 14.76-1.8c-6.36-13.63-6.66-33.1-7.5-43.23z" fill="url(#c)"/><rect fill="#1a1e5a" height="30.51" rx="2.32" transform="matrix(.984319 .1763976 -.1763976 .984319 27.92 -32.57)" width="14.29" x="189.98" y="125.47"/><path d="m205.26 146.83a26.83 26.83 0 0 0 -12.64-1 6.76 6.76 0 0 1 .93-1.51 2 2 0 0 0 -2.22-3.31 11.08 11.08 0 0 0 -3.21 5.83 24.82 24.82 0 0 0 -4.5 1.77s-26.24 14.42-42.71 24.84a6.56 6.56 0 0 1 -7.21-.12c-5.27-3.58-14.89-10.66-20-17.58-.26-.36-.52-.68-.78-1-5.4-6.28-17-3.22-14.24 2 3.87 7.17 18.07 22.72 32.36 31.69 0 0 3.66 2.73 11.06-2.49 6.52-4.6 23.11-16.66 36.31-26.37a6.35 6.35 0 0 1 2.75-1.17c4.2-.71 11.13-1.34 17 .62a2 2 0 0 0 2.52-1.25 1.93 1.93 0 0 0 -.05-1.34 1.93 1.93 0 0 0 2.11-1.3 2 2 0 0 0 -.14-1.58 1.94 1.94 0 0 0 1.51-1.29 2 2 0 0 0 -.28-1.75s2.27.16 2.68-1.2a2 2 0 0 0 -1.25-2.49z" fill="#7b4241"/></svg>