<svg height="214" viewBox="0 0 194 214" width="194" xmlns="http://www.w3.org/2000/svg" xmlns:xlink="http://www.w3.org/1999/xlink"><clipPath id="a"><path d="m95.53 214.11h-11.75a7.35 7.35 0 0 1 -7.35-7.35v-11.76a7.35 7.35 0 0 1 7.35-7.35h11.75a7.35 7.35 0 0 1 7.35 7.35v11.75a7.35 7.35 0 0 1 -7.35 7.36zm-1.47-8.82v-8.81h-8.81v8.81zm16.16-8.81h-11.75a7.35 7.35 0 0 1 -7.35-7.35v-11.75a7.35 7.35 0 0 1 7.35-7.38h11.75a7.35 7.35 0 0 1 7.35 7.35v11.75a7.35 7.35 0 0 1 -7.35 7.38zm-1.47-8.82v-8.81h-8.81v8.81zm1.47-23.5h-11.75a7.35 7.35 0 0 1 -7.35-7.35v-11.75a7.35 7.35 0 0 1 7.35-7.35h11.75a7.35 7.35 0 0 1 7.35 7.35v11.75a7.35 7.35 0 0 1 -7.35 7.35zm-1.47-8.82v-8.81h-8.81v8.81zm32.33-17.63v-7.35a7.34 7.34 0 0 1 7.34-7.34h11.75a7.35 7.35 0 0 1 7.35 7.34v26.45a7.35 7.35 0 0 1 -7.35 7.35h-29.38a7.34 7.34 0 0 1 -7.34-7.35v-11.75a7.34 7.34 0 0 1 7.34-7.35zm-8.82 17.63h26.45v-23.51h-8.82v7.35a7.35 7.35 0 0 1 -7.35 7.35h-10.28zm-64.64-17.63h10.28a7.35 7.35 0 0 1 7.35 7.35v11.75a7.35 7.35 0 0 1 -7.35 7.35h-44.07a7.35 7.35 0 0 1 -7.35-7.35v-11.75a7.35 7.35 0 0 1 7.35-7.35h10.28v-7.35a7.35 7.35 0 0 1 7.35-7.36h8.81a7.35 7.35 0 0 1 7.35 7.34zm-32.33 17.63h41.14v-8.81h-10.28a7.35 7.35 0 0 1 -7.35-7.35v-7.35h-5.88v7.35a7.35 7.35 0 0 1 -7.34 7.35h-10.29zm67.59-41.14v10.29a7.35 7.35 0 0 1 -7.35 7.34h-11.75a7.35 7.35 0 0 1 -7.35-7.34v-44.08a7.35 7.35 0 0 1 7.35-7.34h11.75a7.35 7.35 0 0 1 7.35 7.34v10.29h7.34a7.35 7.35 0 0 1 7.35 7.3v8.82a7.35 7.35 0 0 1 -7.35 7.34zm-17.63-32.32v41.12h8.81v-10.27a7.35 7.35 0 0 1 7.35-7.34h7.34v-5.88h-7.34a7.35 7.35 0 0 1 -7.35-7.34v-10.29zm47 123.41h26.45v-26.44h-26.44zm-1.47 8.82a7.34 7.34 0 0 1 -7.34-7.35v-29.38a7.34 7.34 0 0 1 7.34-7.35h29.38a7.35 7.35 0 0 1 7.35 7.35v29.38a7.35 7.35 0 0 1 -7.35 7.35zm16.22-20.57v-2.94h-3v2.94zm-3 5.88a5.88 5.88 0 0 1 -5.87-5.88v-2.94a5.88 5.88 0 0 1 5.87-5.88h3a5.88 5.88 0 0 1 5.88 5.88v2.94a5.88 5.88 0 0 1 -5.88 5.88zm-108.71 5.87h26.45v-26.44h-26.45zm-1.46 8.82a7.35 7.35 0 0 1 -7.35-7.35v-29.38a7.35 7.35 0 0 1 7.35-7.38h29.38a7.34 7.34 0 0 1 7.34 7.35v29.38a7.34 7.34 0 0 1 -7.34 7.35zm98.43-105.78h26.45v-26.45h-26.45zm-1.47 8.81a7.34 7.34 0 0 1 -7.34-7.34v-29.39a7.34 7.34 0 0 1 7.34-7.34h29.38a7.35 7.35 0 0 1 7.35 7.34v29.39a7.35 7.35 0 0 1 -7.35 7.34zm-80.79 76.4v-2.94h-2.95v2.94zm-2.94 5.88a5.88 5.88 0 0 1 -5.88-5.88v-2.94a5.88 5.88 0 0 1 5.88-5.88h2.94a5.88 5.88 0 0 1 5.87 5.88v2.94a5.88 5.88 0 0 1 -5.87 5.88zm99.94-102.85v-2.93h-3v2.93zm-3 5.88a5.87 5.87 0 0 1 -5.87-5.88v-2.93a5.87 5.87 0 0 1 5.87-5.88h3a5.88 5.88 0 0 1 5.88 5.88v2.93a5.88 5.88 0 0 1 -5.88 5.88zm-94-5.88v-2.93h-2.95v2.93zm-2.94 5.88a5.88 5.88 0 0 1 -5.88-5.88v-2.93a5.88 5.88 0 0 1 5.88-5.88h2.94a5.87 5.87 0 0 1 5.87 5.88v2.93a5.87 5.87 0 0 1 -5.87 5.88zm-11.76 5.88h26.44v-26.45h-26.45zm-1.46 8.81a7.35 7.35 0 0 1 -7.35-7.34v-29.39a7.35 7.35 0 0 1 7.35-7.34h29.37a7.34 7.34 0 0 1 7.34 7.34v29.39a7.34 7.34 0 0 1 -7.34 7.34z"/></clipPath><clipPath id="b"><path d="m11.79 58.37h170.43v170.43h-170.43z"/></clipPath><clipPath id="c"><path d="m26.48 73.07h141.04v141.04h-141.04z"/></clipPath><linearGradient id="d" gradientUnits="userSpaceOnUse" x1="93.22" x2="93.22" y1="213.85" y2="107.42"><stop offset=".5" stop-color="#ffa60d"/><stop offset=".52" stop-color="#ffaf0b"/><stop offset=".58" stop-color="#ffc006"/><stop offset=".65" stop-color="#ffcc02"/><stop offset=".75" stop-color="#ffd301"/><stop offset="1" stop-color="#ffd500"/></linearGradient><linearGradient id="e" gradientUnits="userSpaceOnUse" x1="93.9" x2="93.9" y1="114.49" y2="100.35"><stop offset="0" stop-color="#7b4241"/><stop offset="1" stop-color="#5e2a2a"/></linearGradient><linearGradient id="f" gradientUnits="userSpaceOnUse" x1="81.1" x2="81.1" y1="184.36" y2="114.49"><stop offset=".44" stop-color="#7b4241"/><stop offset=".82" stop-color="#5e2a2a"/></linearGradient><linearGradient id="g" gradientUnits="userSpaceOnUse" x1="143.66" x2="143.66" y1="28.15" y2="10.62"><stop offset="0" stop-color="#ffa60d"/><stop offset="1" stop-color="#ffd500"/></linearGradient><path d="m95.53 214.11h-11.75a7.35 7.35 0 0 1 -7.35-7.35v-11.76a7.35 7.35 0 0 1 7.35-7.35h11.75a7.35 7.35 0 0 1 7.35 7.35v11.75a7.35 7.35 0 0 1 -7.35 7.36zm-1.47-8.82v-8.81h-8.81v8.81zm16.16-8.81h-11.75a7.35 7.35 0 0 1 -7.35-7.35v-11.75a7.35 7.35 0 0 1 7.35-7.38h11.75a7.35 7.35 0 0 1 7.35 7.35v11.75a7.35 7.35 0 0 1 -7.35 7.38zm-1.47-8.82v-8.81h-8.81v8.81zm1.47-23.5h-11.75a7.35 7.35 0 0 1 -7.35-7.35v-11.75a7.35 7.35 0 0 1 7.35-7.35h11.75a7.35 7.35 0 0 1 7.35 7.35v11.75a7.35 7.35 0 0 1 -7.35 7.35zm-1.47-8.82v-8.81h-8.81v8.81zm32.33-17.63v-7.35a7.34 7.34 0 0 1 7.34-7.34h11.75a7.35 7.35 0 0 1 7.35 7.34v26.45a7.35 7.35 0 0 1 -7.35 7.35h-29.38a7.34 7.34 0 0 1 -7.34-7.35v-11.75a7.34 7.34 0 0 1 7.34-7.35zm-8.82 17.63h26.45v-23.51h-8.82v7.35a7.35 7.35 0 0 1 -7.35 7.35h-10.28zm-64.64-17.63h10.28a7.35 7.35 0 0 1 7.35 7.35v11.75a7.35 7.35 0 0 1 -7.35 7.35h-44.07a7.35 7.35 0 0 1 -7.35-7.35v-11.75a7.35 7.35 0 0 1 7.35-7.35h10.28v-7.35a7.35 7.35 0 0 1 7.35-7.36h8.81a7.35 7.35 0 0 1 7.35 7.34zm-32.33 17.63h41.14v-8.81h-10.28a7.35 7.35 0 0 1 -7.35-7.35v-7.35h-5.88v7.35a7.35 7.35 0 0 1 -7.34 7.35h-10.29zm67.59-41.14v10.29a7.35 7.35 0 0 1 -7.35 7.34h-11.75a7.35 7.35 0 0 1 -7.35-7.34v-44.08a7.35 7.35 0 0 1 7.35-7.34h11.75a7.35 7.35 0 0 1 7.35 7.34v10.29h7.34a7.35 7.35 0 0 1 7.35 7.3v8.82a7.35 7.35 0 0 1 -7.35 7.34zm-17.63-32.32v41.12h8.81v-10.27a7.35 7.35 0 0 1 7.35-7.34h7.34v-5.88h-7.34a7.35 7.35 0 0 1 -7.35-7.34v-10.29zm47 123.41h26.45v-26.44h-26.44zm-1.47 8.82a7.34 7.34 0 0 1 -7.34-7.35v-29.38a7.34 7.34 0 0 1 7.34-7.35h29.38a7.35 7.35 0 0 1 7.35 7.35v29.38a7.35 7.35 0 0 1 -7.35 7.35zm16.22-20.57v-2.94h-3v2.94zm-3 5.88a5.88 5.88 0 0 1 -5.87-5.88v-2.94a5.88 5.88 0 0 1 5.87-5.88h3a5.88 5.88 0 0 1 5.88 5.88v2.94a5.88 5.88 0 0 1 -5.88 5.88zm-108.71 5.87h26.45v-26.44h-26.45zm-1.46 8.82a7.35 7.35 0 0 1 -7.35-7.35v-29.38a7.35 7.35 0 0 1 7.35-7.38h29.38a7.34 7.34 0 0 1 7.34 7.35v29.38a7.34 7.34 0 0 1 -7.34 7.35zm98.43-105.78h26.45v-26.45h-26.45zm-1.47 8.81a7.34 7.34 0 0 1 -7.34-7.34v-29.39a7.34 7.34 0 0 1 7.34-7.34h29.38a7.35 7.35 0 0 1 7.35 7.34v29.39a7.35 7.35 0 0 1 -7.35 7.34zm-80.79 76.4v-2.94h-2.95v2.94zm-2.94 5.88a5.88 5.88 0 0 1 -5.88-5.88v-2.94a5.88 5.88 0 0 1 5.88-5.88h2.94a5.88 5.88 0 0 1 5.87 5.88v2.94a5.88 5.88 0 0 1 -5.87 5.88zm99.94-102.85v-2.93h-3v2.93zm-3 5.88a5.87 5.87 0 0 1 -5.87-5.88v-2.93a5.87 5.87 0 0 1 5.87-5.88h3a5.88 5.88 0 0 1 5.88 5.88v2.93a5.88 5.88 0 0 1 -5.88 5.88zm-94-5.88v-2.93h-2.95v2.93zm-2.94 5.88a5.88 5.88 0 0 1 -5.88-5.88v-2.93a5.88 5.88 0 0 1 5.88-5.88h2.94a5.87 5.87 0 0 1 5.87 5.88v2.93a5.87 5.87 0 0 1 -5.87 5.88zm-11.76 5.88h26.44v-26.45h-26.45zm-1.46 8.81a7.35 7.35 0 0 1 -7.35-7.34v-29.39a7.35 7.35 0 0 1 7.35-7.34h29.37a7.34 7.34 0 0 1 7.34 7.34v29.39a7.34 7.34 0 0 1 -7.34 7.34z" fill="#e9f3ff"/><g clip-path="url(#a)"><path d="m11.79 58.37h170.43v170.43h-170.43z" fill="#e9f3ff"/><g clip-path="url(#b)"><path d="m26.48 73.07h141.04v141.04h-141.04z" fill="#e9f3ff"/><g clip-path="url(#c)"><path d="m11.79 58.37h170.43v170.43h-170.43z" fill="#e9f3ff"/></g><path d="m26.48 73.07h141.04v141.04h-141.04z" fill="#e9f3ff"/><g clip-path="url(#c)"><path d="m26.48 73.07h141.04v141.04h-141.04z" fill="#e9f3ff"/><g clip-path="url(#c)"><path d="m11.79 58.37h170.43v170.43h-170.43z" fill="#e9f3ff"/></g></g></g></g><path d="m123.11 113.5s18-17.54 26.79-32.95c0 0 .53-32.94-2.12-58.7h6.37s6.64 40.9 6.91 60.29c0 0 0 6.11-7.7 15.14s-22.1 27.72-27.36 31.38-2.89-15.16-2.89-15.16z" fill="#7b4241"/><path d="m125.54 110.83s-5-1.67-31.76-3.33v-.07h-.06-.15-.15-.07v.07c-43.49 9.06-36.07 39.89-36.07 39.89s1.21 2.69 6.49 2.29c0 0-1.24 4.4 4.17 11.47 12.06 15.73 10.61 46.19 10.61 46.19s1.53 6.36 14.74 6.5h.56c13.21-.14 14.74-6.5 14.74-6.5s1-30.44 9.1-46.7c4.41-8.85 8.52-30.16 8.52-30.16 8.1-5.14-.67-19.65-.67-19.65z" fill="url(#d)"/><ellipse cx="93.78" cy="122.96" fill="#7b4241" rx="17.3" ry="15.54"/><path d="m83.64 100.35h20.51v14.14h-20.51z" fill="url(#e)"/><path d="m116.12 43.54a31.18 31.18 0 0 0 -22.33-9.65 31.16 31.16 0 0 0 -22.33 9.65s-25.76 24.68 7.9 53.83a23.24 23.24 0 0 0 14.38 5.84h.11a23.19 23.19 0 0 0 14.37-5.84c33.66-29.15 7.9-53.83 7.9-53.83z" fill="#7b4241"/><path d="m81.1 89.49s12.74 13.72 25.46 0z" fill="#e9f3ff"/><path d="m101.94 20.35a6.73 6.73 0 0 0 .37-2.11 7 7 0 0 0 -13.78-1.43 7 7 0 0 0 -13.22 3 7.1 7.1 0 0 0 .36 2.19 6.95 6.95 0 1 0 -9.67 10 6.94 6.94 0 1 0 -6.29 12.37 7 7 0 0 0 .12 13.91 6 6 0 0 0 .61-.06.49.49 0 0 0 0 .12 5.8 5.8 0 0 0 -.6-.06 7 7 0 0 0 0 13.93 7.36 7.36 0 0 0 1.64-.21c2.09.51 5.69.48 7.57-4.88 2.75-7.82 5.95-18.2 24.55-18.31 18.6.11 21.81 10.49 24.55 18.31a14.1 14.1 0 0 0 1.53 3.2c1.59 2.37 5.93 1.18 5.87-1.67-.79-37.41-14.24-46.37-23.61-48.3z" fill="#1a1e5a"/><path d="m101.1 114.78c-1.53-1.22-3.61 1.62-5.87 4.13-1.84 2-2 2.29-3.75 4.39a9.94 9.94 0 0 0 -2.18 7.93c.61 3.71-.28 5.21-.28 5.21l-11.32 29.15c-1.08-10.37-2.27-7.24-3.5-18-1.75-3.86-8.71-5.46-10.9-5.46-6.44-.41-4.83 4.7-4.81 7.93 0 9.2 7.37 24.76 10 29.67 3.49 6.45 6.47 5.91 11.81-.27 7.72-8.94 12.67-30.2 14-39.32 2.9-7.59 3.83-4.87 6-8.87-.06.02 7.59-11.09.8-16.49z" fill="url(#f)"/><rect fill="url(#g)" height="17.53" rx="2" width="28.04" x="129.65" y="10.62"/><path d="m10.66 4.05h18.85v18.85h-18.85z" fill="#e9f3ff" transform="matrix(.70710678 -.70710678 .70710678 .70710678 -3.64 18.15)"/><path d="m172.42 21.39h12.8v12.8h-12.8z" fill="#e9f3ff" transform="matrix(.70710678 -.70710678 .70710678 .70710678 32.72 134.58)"/><g fill="#cedeec"><path d="m6.32 38.1h9.42v9.42h-9.42z" transform="matrix(.70710678 -.70710678 .70710678 .70710678 -27.04 20.34)"/><path d="m182.86 43.95h6.4v6.4h-6.4z" transform="matrix(.70710678 -.70710678 .70710678 .70710678 21.16 145.37)"/></g></svg>