<?xml version="1.0" standalone="no"?>
<!DOCTYPE svg PUBLIC "-//W3C//DTD SVG 20010904//EN"
 "http://www.w3.org/TR/2001/REC-SVG-20010904/DTD/svg10.dtd">
<svg version="1.0" xmlns="http://www.w3.org/2000/svg"
 width="190.000000pt" height="190.000000pt" viewBox="0 0 190.000000 190.000000"
 preserveAspectRatio="xMidYMid meet">
<metadata>
Created by potrace 1.11, written by Peter Selinger 2001-2013
</metadata>
<g transform="translate(0.000000,190.000000) scale(0.100000,-0.100000)"
fill="#000000" stroke="none">
<path d="M7 1723 c-4 -3 -7 -14 -7 -22 0 -12 20 -22 73 -35 149 -38 330 -108
360 -138 21 -21 47 -64 51 -84 2 -11 9 -39 16 -64 7 -25 13 -49 15 -55 1 -5 5
-23 10 -40 10 -40 170 -659 234 -907 28 -108 51 -199 51 -201 0 -3 96 -5 214
-5 l213 -1 13 27 c6 15 111 263 232 552 121 289 261 622 310 740 50 118 93
221 95 228 4 9 -42 12 -208 12 l-214 0 -109 -278 c-60 -152 -152 -386 -205
-519 -88 -224 -107 -265 -108 -230 0 6 -10 66 -23 132 -12 66 -24 131 -26 145
-2 14 -7 36 -10 50 -3 14 -7 32 -9 40 -1 8 -6 33 -10 55 -4 22 -9 49 -11 60
-3 20 -29 160 -38 205 -3 14 -11 54 -17 90 -26 147 -54 200 -123 231 -37 17
-72 19 -402 19 -198 0 -364 -3 -367 -7z"/>
</g>
</svg>
