<svg viewBox="0 0 1536 967" xmlns="http://www.w3.org/2000/svg" xmlns:xlink="http://www.w3.org/1999/xlink"><linearGradient id="a" gradientUnits="userSpaceOnUse" x1="14.56" x2="1513.9" y1="947.15" y2="24.48"><stop offset="0" stop-color="#173b82"/><stop offset="1" stop-color="#1f58a6"/></linearGradient><linearGradient id="b" gradientUnits="userSpaceOnUse" x1="-.66" x2="1097.16" y1="656.07" y2="277.21"><stop offset="0" stop-color="#1e4e9f"/><stop offset="1" stop-color="#006bbc"/></linearGradient><linearGradient id="c" gradientUnits="userSpaceOnUse" x1="593.26" x2="1531.77" y1="465.3" y2="83.53"><stop offset="0" stop-color="#145cb1"/><stop offset="1" stop-color="#0a69ba"/></linearGradient><path d="m0 0h1536v967h-1536z" fill="url(#a)"/><path d="m0 272h1106v386h-1106z" fill="url(#b)"/><path d="m596 80h940v386h-940z" fill="url(#c)"/><path d="m596 272h510v194h-510z" fill="#0e70bb"/><path d="m1256.15 789-43.78 104.45h-28.57l-21.54-83.36c-1.31-5.13-2.45-7-6.43-9.17-6.48-3.53-17.21-6.83-26.65-8.89l.64-3h46c5.86 0 11.13 3.9 12.46 10.65l11.38 60.45 28.12-71.1zm111.92 70.35c.12-27.57-38.13-29.09-37.86-41.4.08-3.75 3.65-7.74 11.46-8.76a51.1 51.1 0 0 1 26.65 4.68l4.74-22.15a72.67 72.67 0 0 0 -25.28-4.63c-26.71 0-45.51 14.2-45.67 34.53-.16 15 13.42 23.43 23.66 28.43 10.53 5.12 14.07 8.4 14 13-.07 7-8.4 10.11-16.17 10.23-13.58.21-21.47-3.67-27.75-6.6l-4.9 22.89c6.31 2.9 18 5.42 30 5.55 28.39 0 47-14 47-35.74m70.52 34.1h25l-21.69-104.48h-23.08a12.32 12.32 0 0 0 -11.5 7.66l-40.54 96.79h28.34l5.63-15.59h34.67zm-30.15-37 14.23-39.23 8.19 39.23zm-113.56-67.48-22.35 104.45h-27l22.33-104.45z" fill="#fff"/></svg>