<svg height="500" viewBox="0 0 512 256" width="1000" xmlns="http://www.w3.org/2000/svg"><path d="m0 0h512v256h-512z" fill="#fff"/><path d="m0 171.5h512v84.5h-512z" fill="#da000c"/><path d="m235.78125 227.5625v8.03125h5.03125v-4.03125h6.84375v4.03125h5.40625v-8.03125zm0 11.0625v8.0625h17.28125v-8.0625h-5.40625v4.03125h-6.84375v-4.03125z" fill="#f8d80e" stroke="#000"/><path d="m196.57106 116.30338h118.85789v43.992859h-118.85789z"/><path d="m229.81889 153.86465h-39.06889l-8.66011 5.69979v6.03967h47.729" fill="#da000c" stroke="#000" stroke-linecap="square"/><path d="m282.18111 153.86465h39.06889l8.66011 5.69979v6.03967h-47.729" fill="#da000c" stroke="#000" stroke-linecap="square"/><path d="m182.08989 159.56444h147.82022" stroke="#000" stroke-linecap="square"/><path d="m228.5625 156.8125-9.78125 4.71875v7.03125h37.21875 37.21875v-7.03125l-9.78125-4.71875h-27.4375z" fill="#da000c" fill-rule="evenodd" stroke="#000"/><g stroke="#000" stroke-linecap="round"><path d="m273.29688 150.03125c-1.34177.39513-3.03997 1.25309-5.125 2.40625-2.08504 1.15316-4.46995 2.60401-6.71875 4.09375-1.6672 1.10445-3.0598 2.2073-4.4375 3.28125-.48062.37465-1.14314.76616-1.5625 1.125-.49019.41944-.82607.81979-1.21875 1.21875-.25679.2609-.59888.52432-.8125.78125-.5403.64982-1.0625 1.21528-1.0625 2.40625 0 .21619.00613.43298.03125.65625.77484-.92888 1.88738-1.57486 3.125-1.71875.00595.00015.02745.00017.03125 0 .03147.00009.09339-.00062.125 0 .00381-.00007.02529-.00009.03125 0 .12206-.00958.21933 0 .34375 0 .12441 0 .22168-.00958.34375 0 .18759.01472.35356.05908.53125.09375.06833-.06295.12149-.12616.1875-.1875.22719-.21114.34986-.35832.625-.59375.54971-.47037 1.45603-1.06566 2.15625-1.59375 1.13281-.85434 2.15926-1.67431 3.5-2.5625 2.16948-1.4372 4.48036-2.83779 6.46875-3.9375 1.98838-1.09971 3.75337-1.89229 4.4375-2.09375z" fill="#f8d80e" fill-rule="evenodd" stroke-width=".768"/><path d="m260.40041 157.3913v3.9119"/><path d="m262.81691 155.68544v3.88277"/><path d="m265.23339 154.17984v3.85813"/><path d="m267.64986 152.69367v3.98131"/></g><path d="m218.771 161.51923h74.458" stroke="#000"/><path d="m213.46875 128.59375c5.62482 0 10.21875 4.68928 10.21875 10.46875v14.78125h7.34375v-56h-40.28125v56h12.5v-14.78125c-.00001-5.55372 4.51491-10.46875 10.21875-10.46875z" fill="#da000c" stroke="#000" stroke-linecap="square"/><path d="m204.5282 59.961655h18.523308v33.9594h-18.523308z"/><path d="m223 88.65625h-16.20892v-5.75h-11.88483v5.75h-8.0625v-5.75h-4.8125v10.4375h40.96875m-36.15625-.037712h34.97039v4.537714h-34.97039z" fill="#da000c" fill-rule="evenodd" stroke="#000"/><path d="m200.71875 47.625v35.28125h6.07233v-9.6875c0-3.629302 2.56206-6.599364 6.14642-6.78125.11562-.005867.22668 0 .34375 0 3.74638-.000003 6.78125 3.034874 6.78125 6.78125v9.6875h5.78125v-35.28125z" fill="#da000c" fill-rule="evenodd" stroke="#000"/><path d="m240.80301 38.351128h29.328571v53.254513h-29.328571z"/><g stroke="#000"><path d="m238.75 38.375v44.5625h9.3125v-13.21875c0-3.048928 1.95251-7.28125 7.9375-7.28125s7.9375 4.232322 7.9375 7.28125v13.21875h9.3125v-44.5625h-17.25zm15.8125 5h1.4375 1.4375v15.25h-1.4375-1.4375zm-8.25 3h2.90625v11.15625h-2.90625zm16.46875 0h2.90625v11.15625h-2.90625z" fill="#da000c" fill-rule="evenodd"/><path d="m235.59375 31.96875v6.34375h20.40625 20.40625v-6.34375h-20.40625z" fill="#da000c" stroke-linecap="square"/><path d="m231.75 24.59375v7.375h24.25 24.25v-7.375h-6.09375v4.0625h-6.875v-4.0625h-7.84375v4.0625h-3.4375-3.4375v-4.0625h-7.84375v4.0625h-6.875v-4.0625z" fill="#da000c" stroke-linecap="square"/><path d="m198.53125 42.84375v4.78125h29.25v-4.78125z" fill="#da000c" stroke-linecap="square"/><path d="m194.78125 33.6875v9.15625h35.09375v-9.15625h-5.40625v4.65625h-6.53125v-4.65625h-9.96875v4.65625h-6.53125v-4.65625z" fill="#da000c" stroke-linecap="square"/><path d="m253.05186 193.65144h4.990227v58.115017h-4.990227z" fill="#f8d80e"/><path d="m255.54688 179.40625 10.625 6.1875-10.625 6.15625-10.625-6.15625zm-14.21875 3.96875h-2.78125v4.4375h2.78125l14.21875 8.25 14.21875-8.25h2.78125v-4.4375h-2.78125l-14.21875-8.25z" fill="#f8d80e" stroke-width="1.024"/><path d="m238.89063 150.15625-1.1875 3.3125c3.84059 1.38796 9.28994 4.08623 13.65625 6.71875 2.18315 1.31626 4.0937 2.61029 5.40625 3.6875.65627.53861 1.16027 1.03845 1.4375 1.375.03413.04145.07416.09175.09375.125.00348.00635-.00309.0252 0 .03125.02197.04614.04874.09464.0625.125-.02533.22369-.06536.46484-.125.625-.00516.01283-.02571.05079-.03125.0625-.00287.00556.00297.026 0 .03125-.00309.00493-.02806.02665-.03125.03125-.02069.02668-.04055.06763-.0625.09375-.00458.00517-.02646.02615-.03125.03125-.00509.00503-.02587.02631-.03125.03125-.01151.00969-.04929.02201-.0625.03125-.02132.01347-.06719.05039-.09375.0625-.14286.05797-.37638.09375-.75.09375-.22157 0-.40077-.03272-.53125-.0625-.05023-.01255-.11654-.01528-.15625-.03125-.01272-.00549-.05076-.02544-.0625-.03125-.03386-.01786-.06691-.04239-.09375-.0625-.00828-.00829-.0268-.02738-.03125-.03125-.00275-.00343-.02859-.02726-.03125-.03125-.00767-.01344-.02369-.0517-.03125-.0625-.00217.0001-.02875-.00004-.03125 0-.00277.00019-.02797-.00074-.03125 0-.00698-.00023-.02335.00004-.03125 0-.01643.00012-.04841 0-.0625 0-.09694 0-.18682-.00954-.28125 0-1.14744.11588-2.11966.93411-2.4375 2.0625.00031.00274-.00009.02861 0 .03125.0038.00423.02737.02743.03125.03125.01567.01427.04669.0458.0625.0625.80273.96876 2.18 1.625 3.71875 1.625 1.61838 0 3.02965-.67766 3.8125-1.6875.78284-1.00984.96875-2.15809.96875-3.09375 0-1.09112-.48992-1.72453-1-2.34375-.51009-.61922-1.17229-1.21574-1.9375-1.84375-1.53042-1.25603-3.53496-2.59558-5.8125-3.96875-4.55511-2.74634-10.08076-5.51323-14.28125-7.03125z" fill="#f8d80e" fill-rule="evenodd" stroke-width=".768"/><g stroke-linecap="round"><path d="m254.04985 158.03521-.31238 3.33948"/><path d="m256.8319 159.73914-.86199 3.26968"/><path d="m259.80442 162.01152-1.8089 2.53732"/><path d="m260.71528 168.18078-2.61016-1.40046"/><path d="m261.52792 165.42898-2.99541.28045"/><path d="m257.66497 169.7646-.2051-2.63232"/><path d="m256.56809 166.75559-2.473 1.8222"/><path d="m244.67669 152.9368v3.11504"/><path d="m250.96338 156.24386v3.53419"/><path d="m247.82004 154.59318v3.31892"/></g><path d="m255.34375 164.28125c-2.31969.35626-4.09375 2.46714-4.09375 4.9375v11.03125c0 2.7174 2.15846 4.96876 4.8125 4.96875.06912 0 .11905.00297.1875 0 .06845.00297.11838 0 .1875 0 1.88686.00001 3.52413-1.14695 4.3125-2.78125l-1.71875-1.03125c-.4275 1.05953-1.43051 1.78127-2.59375 1.78125-.04496 0-.08827-.00026-.125 0-.01145-.00019-.04602.00013-.0625 0-.01764.00133-.04723-.00025-.0625 0-.03673-.00026-.08004 0-.125 0-1.55099.00002-2.8125-1.27813-2.8125-2.9375v-11.03125c0-1.65936 1.2615-2.90625 2.8125-2.90625.04402 0 .08788.00028.125 0 .01531.00027.04526-.00144.0625 0 .01641-.00014.05102.0002.0625 0 .03712.00028.08098 0 .125 0 .43622 0 .84996.10255 1.21875.28125.00255.00009.0291-.00029.03125 0 .08168-.01478.16518-.04076.21875-.0625.02511-.01612.07776-.0524.09375-.0625.00523-.00552.02613-.02571.03125-.03125.00292.00003.02757-.00016.03125 0 .00538-.00494.02616-.02622.03125-.03125.00664-.00653.02896-.02866.03125-.03125.01879-.0257.0444-.0704.0625-.09375-.00006-.00287.0004-.02773 0-.03125 0 0 .03125-.03125.03125-.03125.00415-.00878.02304-.04586.03125-.0625.05964-.16016.09967-.40131.125-.625-.01376-.03036-.04052-.07886-.0625-.125.0002-.00156.00006-.02417 0-.03125-.02125-.03247-.06389-.08873-.09375-.125-.20307-.24652-.55161-.56469-.96875-.9375-.00319.00064-.0285-.00016-.03125 0-.02985-.00682-.095-.02492-.125-.03125-.00416-.00025-.02745-.00005-.03125 0-.01613.00024-.05309.00037-.0625 0-.00615.0001-.02729.00009-.03125 0-.01772.00022-.05044-.00038-.0625 0-.0324.00141-.09592.00229-.125 0-.12206-.00958-.21934 0-.34375 0-.07776 0-.11827.00047-.1875 0-.06923.00047-.10974 0-.1875 0-.12441 0-.22169-.00958-.34375 0-.02908.00229-.0926.00141-.125 0-.01205-.00038-.04478.00022-.0625 0-.00792.00018-.02585-.00063-.03125 0-.01254.00049-.05193.0009-.0625 0-.0038-.00005-.02709-.00025-.03125 0-.01833.00259-.04423-.00281-.0625 0zm5.78125 3.90625c-.05069.07539-.10115.17474-.15625.25-.41589.53648-1.01132.98407-1.71875 1.28125v7.5625l2 1.15625v-9.21875c0-.35013-.02571-.69981-.09375-1.03125-.00323-.00101-.02848.00025-.03125 0z" fill="#f8d80e" stroke-width="1.024"/><path d="m298.53125 128.59375c-5.62482 0-10.21875 4.68928-10.21875 10.46875v14.78125h-7.34375v-56h40.28125v56h-12.5v-14.78125c.00001-5.55372-4.51491-10.46875-10.21875-10.46875z" fill="#da000c" stroke-linecap="square"/><path d="m222.75 97.84375v4.59375h33.25 33.25v-4.59375h-33.25z" fill="#da000c" stroke-linecap="round"/></g><path d="m-307.4718 59.961655h18.523308v33.9594h-18.523308z" transform="scale(-1 1)"/><path d="m289 88.65625h16.20892v-5.75h11.88483v5.75h8.0625v-5.75h4.8125v10.4375h-40.96875m36.15625-.037712h-34.97039v4.537714h34.97039z" fill="#da000c" fill-rule="evenodd" stroke="#000"/><path d="m311.28125 47.625v35.28125h-6.07233v-9.6875c0-3.629302-2.56206-6.599364-6.14642-6.78125-.11562-.005867-.22668 0-.34375 0-3.74638-.000003-6.78125 3.034874-6.78125 6.78125v9.6875h-5.78125v-35.28125z" fill="#da000c" fill-rule="evenodd" stroke="#000"/><path d="m220.03125 82.90625v14.9375h35.96875 35.96875v-14.9375h-6.8125v5.75h-9.0625v-5.75h-12.15625v5.75h-7.9375-7.9375v-5.75h-12.15625v5.75h-9.0625v-5.75z" fill="#da000c" fill-rule="evenodd" stroke="#000"/><path d="m313.46875 42.84375v4.78125h-29.25v-4.78125z" fill="#da000c" stroke="#000" stroke-linecap="square"/><path d="m317.21875 33.6875v9.15625h-35.09375v-9.15625h5.40625v4.65625h6.53125v-4.65625h9.96875v4.65625h6.53125v-4.65625z" fill="#da000c" stroke="#000" stroke-linecap="square"/><path d="m253.05186 198.6788h4.990227v50.060368h-4.990227z" fill="#f8d80e" stroke="#000"/><path d="m228.6875 102.4375v54.34375h12.84375s0-11.24873 0-20.34375c0-9.58273 6.3963-14.09375 14.46875-14.09375 7.75894 0 14.46875 4.51102 14.46875 14.09375v20.34375h12.84375v-54.34375h-27.3125z" fill="#da000c" fill-rule="evenodd" stroke="#000" stroke-linejoin="round"/></svg>