<svg height="249.97" viewBox="0 0 500.04 249.97" width="500.04" xmlns="http://www.w3.org/2000/svg"><path d="m0 0h500v250h-500z" fill="#00247d"/><path d="m320.59 61.42h107.06l-.12 76.12c.84 30.57-18.25 49.67-53.29 58.13-24.89-6.17-53.65-19-53.77-57.28z" fill="#fff" fill-rule="evenodd"/><path d="m323 63.71h102.35l-.12 73c.85 29.36-17.4 47.49-51 55.7-23.81-5.92-51.36-18.24-51.36-54.86z" fill="#00a2bd" fill-rule="evenodd" stroke="#000"/><path d="m424.51 145.4c-3.75 28-25.26 40.24-50.27 46.76-22.11-5.92-45.92-15.35-50.51-46.64z" fill="#a53d08" fill-rule="evenodd"/><path d="m350.16 77.31 19.95.1-.1-9.17 7.26.1.1 9.17h19.86l.1 7.16-20 .1-.2 84.06h-7.06l-.07-84.16-19.85.1z" fill-rule="evenodd"/><path d="m354.09 148.87 18.24 18.85c6.25-6.95 1.92-32.76-6.35-37.6-1 3-2.72 6.76-4.43 8-3.93 2.72-13.61 5.84-10.38 7.86.7-1 2.62-2 3.52.3 1.11 3.53-4 3.83-4 3.83a4.62 4.62 0 0 1 -3.83-3.73c-.6-3.32 4.84-6.25 5.24-6.55s7.46-2 8.67-8.26c1.51-6.15 3-5.25 3.33-5.35 9.17.91 15.22 17.34 15.52 28.93s-4.74 19.25-5.65 19.76-21.9-24.91-21.9-24.91z" fill="#ff9a08" fill-rule="evenodd" stroke="#000" stroke-width=".8"/><path d="m367.29 131.23.1 34.07" fill="none" stroke="#000" stroke-width=".8"/><path d="m365.28 131.94c0 .1.1 30.94.1 30.94" fill="none" stroke="#000" stroke-width=".8"/><path d="m363.06 136.37.1 24.6" fill="none" stroke="#000" stroke-width=".8"/><path d="m361.24 138.19.11 20.36" fill="none" stroke="#000" stroke-width=".8"/><path d="m359.33 139.1v17.13" fill="none" stroke="#000" stroke-width=".8"/><path d="m357.21 140.41v13.59" fill="none" stroke="#000" stroke-width=".8"/><path d="m355.4 141.51v10.49" fill="none" stroke="#000" stroke-width=".8"/><path d="m353.79 151 18.74 21.47" fill="none" stroke="#ffdf00" stroke-linecap="round" stroke-width=".8"/><path d="m373.44 137.48s8.47 18.65.61 34" fill="none" stroke="#ffdf00" stroke-linecap="round" stroke-width="1.5"/><path d="m351.57 147.06s.6-1.61 1.41-1" fill="none" stroke="#ffdf00" stroke-linecap="round" stroke-width="1.5"/><path d="m350.06 142.32s-3.43 3-1.52 4.94" fill="none" stroke="#ffdf00" stroke-linecap="round" stroke-width="1.5"/><path d="m0 0v14.17l221.67 110.83h28.33v-14.17l-221.67-110.83z" fill="#fff"/><path d="m250 0v14.17l-221.67 110.83h-28.33v-14.17l221.67-110.83z" fill="#fff"/><path d="m104.17 0v125h41.66v-125zm-104.17 41.67v41.66h250v-41.66z" fill="#fff"/><path d="m0 50v25h250v-25zm112.5-50v125h25v-125z" fill="#cf142b"/><path d="m0 125 83.33-41.67h18.34l-83.34 41.67zm0-125 83.33 41.67h-18.33l-65-32.5zm148.33 41.67 83.34-41.67h18.33l-83.33 41.67zm101.67 83.33-83.33-41.67h18.33l65 32.5z" fill="#cf142b"/><g stroke="#000"><path d="m377.23 94.87a4.86 4.86 0 0 1 2.64-1.58h2.64c.53 0 4.75-.53 6.33 0 .53 0 1.05.53 2.11 1 1.05 1.06 2.63 2.64 2.11 6.86a64.48 64.48 0 0 0 -.53 9c-.53 4.22-1.58 7.91-3.16 7.91 2.63 4.22 2.63 7.91 4.21 10.55s2.64 9 2.11 15.29-2.11 20.57 2.64 30.07c-1.05.52-2.64 0-4.75-2.11-1.58-2.11-2.63-2.11-4.21-.53-4.75 3.69-9 7.91-15.3 3.69-1.58-1-2.11-2.11-1.06-5.27a77.18 77.18 0 0 0 3.7-22.16v-52.72z" fill="#008021" stroke-width=".06"/><path d="m382 90.65a4.44 4.44 0 0 1 0 3.69 5.75 5.75 0 0 0 0 4.22c1.58-2.11 3.69-1.58 4.75-2.64s1.58-2.1 2.11-2.63a3.79 3.79 0 0 1 -2.11-3.69c.53-2.11 3.69-4.22.53-7.39a4.21 4.21 0 0 0 -5.81-.53c-.52.53-1.05 1.06-1.05 1.59a1.94 1.94 0 0 1 -.53 1.58l-1.05 1.05c-.53 0-.53.53 0 1.06h.52a.51.51 0 0 1 -.52.53v2.11c0 .52-.53 1.05.52 1.58.53-1.06 1.59-.53 2.64-.53z" fill="#ffe1cf" stroke-width=".06"/><path d="m369.85 102.25c-1.58.53-4.22-.52-6.33 0-1 0-1.58-.52-1.58-1v-3.74c-.53-2.11.53-4.75 2.11-7.91s2.11-4.75 2.11-6.33c0-1.06 0-2.11 1-2.64l1.06-1.06c.53-.52 1.05-1 1.05-.52s0 .52-.52 1a7.2 7.2 0 0 1 1.58-1s1.05-1.06 1.58 0h1.09v.52c.53 0 .53.53 0 1.06.53 0 .53.53 0 1.05s-1.05 1.06-1.58 1.06c0 .53-1.58 1.58-2.11 1.58s-.52.53-.52 1.58c0 9.5-1.06 8.44-1.06 10.55 0 .53 0 1.06.53 1.06s1.58-.53 2.11-.53v5.27z" fill="#ffe1cf" stroke-width=".06"/><path d="m370.38 122.3a15.76 15.76 0 0 1 7.38-2.11c1.58-.53 4.22-1.59 5.28-2.11s2.11-1.59 3.16-1.59a2.81 2.81 0 0 0 2.11-1.58c2.11-4.74 3.69-8.44 3.69-11.6 0-2.11-.52-4.22-2.63-2.64a14.77 14.77 0 0 0 -4.75 6.86c-1.06 3.16-1.58 4.22-1.58 4.75s-1.06.52-1.59 1c-3.69.53-4.22 1.58-6.85 3.16a42.31 42.31 0 0 1 -7.39 4.75c-2.11 1.06-2.11 1.06-2.63 2.11s-1.06 1.58-1.06 2.11a1.94 1.94 0 0 0 -.52 1.59v2.64c0 .53 0 .53.53.53 0 0 .53 0 .53-1.06 0 .53 1.05.53 1.05 0 0 .53 1.06.53 1.06-.52 0 .52 1 0 1 0 0-.53.53-1.06.53-1.59.53-.52.53-1.58 1.58-2.11.04-1.01-.48-1.54 1.1-2.59z" fill="#ffe1cf" stroke-width=".06"/><path d="m389.89 171.88c0 .52.53 1.58.53 2.11v1c-.53 1.58-1.05 3.69-1.58 4.75 0 .52-.53 1.05-.53 1.58s0 .53.53 1c0 0 1.05 0 1.05-.52.53.52 1.06 0 1.06-.53.53.53.53 0 1.05-.53.53 0 .53 0 1.06-.53.52 0 1.05 0 1.05-1.05v-1.58a1.92 1.92 0 0 1 .53-1.58c.53-.53.53-1.06.53-2.11 0-.53-.53-.53-.53-1.59-.53-.52-1.58-1.58-2.64-1.58a2.75 2.75 0 0 0 -2.11 1.06z" fill="#ffe1cf" stroke-width=".06"/><path d="m373 176.62c1.06 1.06 2.64 1.06 4.22-.52a4 4 0 0 1 -2.11-1.06c-1.05.53-1.58 1.58-2.11 1.58z" fill="#ffe1cf" stroke-width=".06"/><path d="m381.45 81.16c.53-2.11 1.59-2.11 2.64-2.11h2.11c1.58-.53 3.17 0 3.17 2.11a2.74 2.74 0 0 1 1.05 2.11c0 .52 0 1 .53 1s2.11 1.06 1.05 2.11c1.06.53 1.58 2.11 1.06 2.64a1.5 1.5 0 0 1 -2.64 0c-.53.53-1.58.53-2.64-.53-.52.53-1.58.53-1.58 0s-.53-.53-1.05-1.05c-.53 0-.53-1.59 0-1.59v-1a1.64 1.64 0 0 0 -.53-1.06 3.15 3.15 0 0 1 -.53-2.11 5.54 5.54 0 0 1 -2.64-1.05c.53 0 0 0 0 .53z" fill="#870f00" stroke-width=".06"/><path d="m382 90.65c1.06 0 1.58-1.05 2.64-1.05" fill="none" stroke-width=".06"/><path d="m379.34 87.49c.53.52.53.52 1.06.52" fill="none" stroke-width=".06"/><path d="m382.51 81.16c-.53-.53 1.05-2.11 3.16 0a2 2 0 0 0 1.59.52" fill="none" stroke-width=".06"/><path d="m385.15 82.21c1.05 0 2.11 0 2.63 1.06s1.06.52 1.59 1.58 1.63 2.64 2.63 1.58" fill="none" stroke-width=".06"/><path d="m388.31 89.07a1 1 0 0 1 0-1.58c-.53-.53 0-1.06 0-1.59" fill="none" stroke-width=".06"/><path d="m385.67 86.43a1.14 1.14 0 0 0 1.06 1.06" fill="none" stroke-width=".06"/><path d="m390.42 89.6a2 2 0 0 1 -.53-1.59" fill="none" stroke-width=".06"/><path d="m386.2 83.27c0 .52.53 1 1.06 1.58 0 .53.52 1.05 2.11 1.05" fill="none" stroke-width=".06"/><path d="m389.37 81.16a4 4 0 0 0 -2.64-1.06" fill="none" stroke-width=".06"/><path d="m382 98.56a6.92 6.92 0 0 0 -1.05 5.8c.52 2.64 1.05 6.86-.53 8.44" fill="none" stroke-width=".06"/><path d="m389.89 118.08c-1.58-.53-3.16-.53-4.22.52s-2.63 1.06-4.22 0" fill="none" stroke-width=".06"/><path d="m386.73 118.08c-1.06 0-1.58 1-1.58 3.16s-.53 5.28 0 8.44" fill="none" stroke-width=".06"/><path d="m384.62 119.13c-.53 0-1.58 0-1.58 2.11" fill="none" stroke-width=".06"/><path d="m380.4 121.24c0-1 .53-2.64 1.58-2.11" fill="none" stroke-width=".06"/><path d="m389.37 121.77c0-2.64-.53-3.69-1.59-3.69 1.06 0 2.11 0 2.64 4.74a24.86 24.86 0 0 0 2.11 7.39c2.11 6.85 1.05 17.93 2.11 21.62" fill="none" stroke-width=".06"/><path d="m387.78 122.3c2.11 6.85 3.7 13.71 0 25.84 2.64 6.86 5.28 12.13 5.28 14.77" fill="none" stroke-width=".06"/><path d="m380.4 138.12c.53-1.58-1.06-1.58 0-6.86a16.88 16.88 0 0 0 .53-4.22" fill="none" stroke-width=".06"/><path d="m380.93 129.68c-.53 2.11 1.58 6.86.52 10" fill="none" stroke-width=".06"/><path d="m378.82 140.23c0 2.11.52 4.75.52 6.86a7.32 7.32 0 0 0 1.59 4.74c3.69 6.86 5.8 12.13 5.27 18.46 0 1.06.53 3.7-1.05 4.22" fill="none" stroke-width=".06"/><path d="m378.82 176.62c.52 0 .52 0 1.05-1.05s2.11-7.39 1.06-12.13" fill="none" stroke-width=".06"/><path d="m382 168.71a27.76 27.76 0 0 1 -.53 6.33" fill="none" stroke-width=".06"/><path d="m384.09 164.49c.53 3.17.53 5.8 0 7.39" fill="none" stroke-width=".06"/><path d="m383 171.88c0 1.05.52 4.22-.53 4.22" fill="none" stroke-width=".06"/><path d="m387.78 158.16c2.11 3.69 4.22 12.13 5.8 13.72" fill="none" stroke-width=".06"/><path d="m389.37 170.29c0-1 0-2.11-.53-2.63" fill="none" stroke-width=".06"/><path d="m365.63 128.1a4 4 0 0 1 .53-2.11" fill="none" stroke-width=".06"/><path d="m364.58 128.63c0-2.11 0-2.64.52-3.17" fill="none" stroke-width=".06"/><path d="m363.52 128.63a5.7 5.7 0 0 1 .53-3.17" fill="none" stroke-width=".06"/><path d="m372 79.05s-1.58 1-2.64 1.58" fill="none" stroke-width=".06"/><path d="m372.49 79.57c-.53 0-1.06.53-2.64 2.11" fill="none" stroke-width=".06"/><path d="m372.49 80.63c-.53 0-1.58 1.05-2.11 1.58" fill="none" stroke-width=".06"/><path d="m368.8 80.63-1.06 1.05" fill="none" stroke-width=".06"/><path d="m389.89 181.37v-1.06" fill="none" stroke-width=".06"/><path d="m391 180.84v-1.58" fill="none" stroke-width=".06"/><path d="m392 180.84v-1.05" fill="none" stroke-width=".06"/><path d="m392.53 180.31v-1.05" fill="none" stroke-width=".06"/></g><path d="m380.93 83.27c.52.52 1.05.52 1.05 1v.53h-1.05a.52.52 0 0 1 -.53-.53v-.53c.53 0 .53 0 .53-.52z"/><path d="m380.93 82.74c.52 0 1.58.53 1.58 1.05.53.53 0 .53 0 .53a.52.52 0 0 1 -.53-.53 1.14 1.14 0 0 0 -1.05-1.05z"/></svg>