<svg height="475" viewBox="0 0 900 475" width="900" xmlns="http://www.w3.org/2000/svg" xmlns:xlink="http://www.w3.org/1999/xlink"><clipPath id="a"><path d="m0 0v475l420-195h480v-85h-480z"/></clipPath><path d="m0 0h900v475h-900z" fill="#009543"/><path d="m0 0h900v237.5h-900z" fill="#d21034"/><g clip-path="url(#a)"><path d="m0 0 420 195h480v85h-480l-420 195" stroke="#fdce12" stroke-width="110"/><path d="m0 0 420 195h480m0 85h-480l-420 195" fill="none" stroke="#000" stroke-width="60"/></g><g fill="#fdce12"><path d="m106.868 282.937v27.0634c23.5442 0 69.7503-18.0417 69.7503-76.1299 0-58.0883-49.2867-68.8699-64.0295-68.8699-14.7417 0-60.2883 10.5616-60.2883 58.0883s44.6667 51.9275 53.4675 51.9275c8.80086 0 41.8058-7.92164 38.0658-43.5667 0 10.1217-11.4417 31.465-35.4258 31.465-23.9833 0-38.945-17.8233-38.945-35.425 0-17.6034 14.5216-41.1467 39.825-41.1467 25.3033 0 43.7858 22.4425 43.7858 45.1067 0 22.6633-17.8216 51.4875-46.2058 51.4875z"/><g id="b"><path d="m86.2402 247.704 1.4025.9075s11.1392-25.4134 41.0908-43.4833c-3.79583 2.06251-23.8458 12.0467-42.4933 42.5758z" stroke="#fdce12" stroke-width=".833333"/><path d="m89.1278 243.331s-3.465-7.09585-.412497-10.2308c3.05333-3.13583 1.65083 8.33331 1.65083 8.33331l1.32-1.8975s-2.06333-8.66419.247504-10.4792c2.31-1.815 1.155 8.33331 1.155 8.33331l1.4025-1.815s-1.485-8.41585.742504-9.98419c2.22833-1.5675.825833 7.92164.825833 7.92164l1.65-1.89834s-1.2375-8.0033 1.485-9.90082c2.72333-1.89833.33 7.59082.33 7.59082l1.815-1.98s-.825-7.34419 1.48583-8.99419c2.31-1.65.33 6.93083.33 6.93083l1.65-1.73251s-.495-6.84833 1.7325-8.41585c2.22833-1.56833.165 6.51834.165 6.51834l1.73333-1.65084s-.4125-6.84833 2.3925-8.16833-.495 6.43585-.495 6.43585l1.8975-1.65s.5775-8.00331 2.97084-8.74668c2.3925-.7425-1.0725 7.09668-1.0725 7.09668l1.7325-1.40333s.9075-6.84834 3.5475-7.67331c2.64083-.825-1.65 6.27083-1.65 6.27083l1.7325-1.32s1.89833-6.84834 4.37333-7.59082c2.47583-.7425-2.5575 6.43585-2.5575 6.43585l1.65-1.155s2.7225-6.18916 4.95083-6.60164c2.2275-.4125-2.47583 5.11583-2.47583 5.11583l2.06333-1.2375s3.5475-6.43585 4.78584-4.45583c1.23749 1.98083-4.95084 4.86833-4.95084 4.86833l-2.06333 1.155s7.50916-3.5475 8.41668-1.7325c.9075 1.815-10.3142 2.97083-10.3142 2.97083l-1.815 1.2375s7.50833-2.06333 6.60082-.165c-.90751 1.8975-8.33331 1.485-8.33331 1.485l-1.73333 1.2375s7.50833-1.815 6.51833-.0825-8.3333 1.5675-8.3333 1.5675l-1.815 1.48584s7.34337-1.89834 6.27083.33c-1.07333 2.22749-9.40667 2.145-9.40667 2.145l-2.0625 1.89749s7.75585-2.64 7.09585-.57749c-.66 2.06333-9.48916 3.13583-9.48916 3.13583l-1.98 1.98s8.33331-2.805 5.85834-.2475c-2.475 2.55833-8.49834 3.21833-8.49834 3.21833l-2.39333 2.8875s8.25165-4.95083 7.09586-2.145c-1.155 2.805-9.24082 4.70334-9.24082 4.70334l-1.65 1.98s7.42585-4.29084 6.6833-1.8975c-.7425 2.3925-8.66419 4.95-8.66419 4.95l-1.32 1.81583s8.74585-5.19833 8.00331-2.55833c-.7425 2.64083-9.07586 4.53833-9.07586 4.53833l-1.0725 1.65s8.08585-4.62 8.16834-2.3925c.0825 2.2275-9.48916 4.45583-9.48916 4.45583l-.165-1.89833z"/></g><use transform="matrix(-1 0 0 1 220 0)" xlink:href="#b"/></g></svg>