<svg enable-background="new 0 0 1000 500" height="500" viewBox="0 0 1000 500" width="1000" xmlns="http://www.w3.org/2000/svg"><path d="m0 0h1000v500h-1000z" fill="#cf142b"/><path d="m0 0h500v250h-500z" fill="#00247d"/><g transform="scale(8.333333)"><path d="m0 0v3.354l53.292 26.646h6.708v-3.354l-53.292-26.646zm60 0v3.354l-53.292 26.646h-6.708v-3.354l53.292-26.646z" fill="#fff"/><path d="m25 0v30h10v-30zm-25 10v10h60v-10z" fill="#fff"/><g fill="#cf142b"><path d="m0 12v6h60v-6zm27-12v30h6v-30z"/><path d="m0 30 20-10h4.472l-20 10zm0-30 20 10h-4.472l-15.528-7.764zm35.528 10 20-10h4.472l-20 10zm24.472 20-20-10h4.472l15.528 7.764z"/></g></g><path d="m639.433 120.962v211.366c2.502 30.263 65.572 49.315 109.545 81.457 57.677-38.685 113.617-46.51 115.866-89.882l.702-202.941z" fill="#fff"/><path d="m639.41 329.298 2.362 12.071 7.872 9.448 56.95 36.738 41.727 25.983 81.355-44.352 28.081-21.521 5.512-28.08-3.413-6.56.788 6.823-2.101 5.511-2.36-1.576-1.574-10.234-.264 7.609-3.936 4.464-.787-5.514 1.05-3.935-1.575-4.461-.525 8.922-2.099 3.938-1.838-2.626.788-3.938-.262-3.672-1.313-1.839-.264 3.938-.786 1.311.263 2.361-1.575 1.576-1.05-3.148.526-2.889-.526-2.622-1.05-2.889.264 4.725-2.625 5.773-2.1 1.312-1.312-1.575.264-5.511-1.838-3.148.524 6.823-2.623 6.037-1.574-1.839-.79-1.836v-2.889l2.889-7.347-2.889 2.625-2.36 6.297-1.05 1.836-1.312-3.148 1.838-7.086-1.051-1.31-2.361 8.659-2.101 1.312-1.574-.526-1.049.526-127.021 7.086-3.412-4.987-.786 4.987-2.101 1.836-2.098-9.186-1.575 9.712-2.101-4.724 1.051-10.762-1.051-.786-1.573 5.773v8.136l-.788 5.511-1.575-1.05-2.099-4.986-.262-8.137.786-5.773-2.099 6.823v8.399l-.262 4.197-2.626-5.773-1.312-4.725-2.624-5.51 1.575 7.086v3.675l-4.462-3.938-2.361-11.021-.525 8.136 1.05 3.935-1.312 1.576-2.624-4.725-1.574-6.297-1.837-6.037v9.709l1.312 5.25-1.05 1.313-2.099-1.05-.788-5.776-.526-8.396-2.098 5.773-.526 6.034-.787 4.725-1.312 3.151z" fill="#2f8f22" stroke="#000" stroke-width=".3804"/><path d="m754.467 125.535-5.256 4.191-5.521-.067-.931 1.862-.066 2.595-.665.799-.133 1.396h-3.061l-2.062-1.264-.598.797-2.062 5.787-1.196.799h-1.397l-1.862 1.663h-1.862v1.663l1.795 2.262 1.397 1.064.532 2.395 1.331 2.062-1.863 1.797-1.463 1.528-.732 1.132h-.599l-.398-1.331-.666-1.531-1.662.932-1.529 1.064.065 1.663 2.461 3.126 2.328.133-2.062 3.925h-.331l-.134-2.329-1.063-.864-.665.134-1.53.997-1.063 1.596-.268.998-.532.932-.665 1.529.2 1.397 1.13 1.53 1.198.998 2.461.798.864.2h4.324l-1.265 2.794-1.129 3.059-1.397 2.594-.865.333-.399-.532v-1.397l1.663-3.792-.134-1.264-.997.399h-1.265l-.599-.399-2.594 2.128-1.73 2.528-.398 1.862.533 2.594 1.529 2.728 1.265.931.931.399.333.465-.466.931.998 1.065 1.795.797-.532.798-1.396 1.397-.865 1.265-.665 1.795.731 2.395-.731 1.263-1.664.6-2.527.531-1.662.799-.4 1.729-.932 1.597-3.325 1.198-2.661.333-2.859.332h-1.596l-.865-1.331v-2.128l-1.464-2.46-1.529-1.796-2.594-.997-1.797-.2-1.729.533-1.396 1.663h-1.198l-1.796-2.196-1.463-1.064-.864-.132-1.597.465-3.061 3.192-1.596-.133-1.93-1.263-1.929 1.131-.931.332-1.663 1.597-.067 2.195.999 2.594.931.997 1.063.266.399 2.195.598.999 2.463 2.395-1.796 2.461-.333 1.596-.066 2.795.399 1.396 3.458 4.59-.198.997-3.26 2.396-2.993 2.86-.931 2.328.064 1.662.133.398-2.992 2.195-.267 2.528.601 4.259 1.329 1.861 2.062 1.331 1.796.599 2.328-.199 1.861-1.132 1.198-1.063.332-3.06 2.195 1.529 2.595 3.26 1.928 2.993.067.798-2.928-.066-1.13-.332-2.993.133-1.729.666-1.53-.068-.798-.332-1.996.999-3.791 1.862-2.994 1.729-1.196.133-1.729 1.397-1.33.266-2.129 2.595-.531 1.729.199 3.192.997 2.129.199 3.659.466.729-.267 2.396-1.196 1.662-.199 1.197-.666 1.598-.997 1.396-.134 3.592-.598 3.459.199 4.657.199 4.59-1.397 2.859-1.13 1.464-.268 1.73-.398 1.196h1.729l.866-.731-.267 1.463 3.392-3.459.267 1.531 1.53-1.198.133-2.661-.068-1.331.866 2.129.532.532 1.131-1.063.266-1.198.599 2.195.665.732 1.597-1.796.201-4.258-.999-2.794.267-.266 1.595 3.792.665 1.33 1.464 2.195.666 2.527 2.261-.399 1.064-6.585 1.73 5.587 2.195 8.447 1.397 4.857 1.729 2.925 1.063 3.259 1.531 2.462 2.394 3.193 2.527 1.93 3.261.998 4.389.065.068 1.663-1.664 1.53-.666 1.397-1.795 2.993-1.198 1.132-4.456-.068-2.595-1.196-1.397-.334-2.926.534-2.261 1.729-1.065-.067-2.262 1.063-1.13 1.466-.531 1.929-1.464 2.328-.667 1.397.6 1.927-.799 1.465-.199 5.454 1.265 3.191 2.062 2.13 1.396.931.799-.398-.2-3.525.732-1.864 1.464.866 2.195-1.063 1.795 1.397-.665 2.461.267 2.993 1.33 3.259 2.327 2.993 1.796 1.396.134-.797-.134-6.852 1.531-1.333 1.862-.064 2.194-1.664 1.131-.266 1.063-.798.135-1.196.931.331.599 2.195-.133 2.461-.399.334.466.729.199.668h1.729l4.191-3.859.997-2.328.332-3.66.866-.665.064-.931-.798-1.462 1.065-.267.133.464h1.397l2.194-1.395 1.196-1.465.932-.266 4.856-4.923 3.458 1.265 5.322 2.062 3.725.931.865.467 1.664.064 1.595.866 1.863 2.393.531.934-.598.331-1.996-.995-.798.33-2.262 1.93-.066 3.726 2.129 2.659 4.723.334 2.062-.999 1.795.999 2.395-.999 2.195-.732 3.061 1.132 1.596.398 1.529-.266 1.397-1.063 2.195.334 2.062-.068 1.33-.999 1.133-1.796.597-1.395-.266-1.864-1.13-1.33-1.396-.531h-1.464l.198-.798 1.997-1.196 7.05-3.661 1.331-.198 1.929-1.396 1.861-.134 2.994-2.328 1.131.598 1.197.998 2.328 2.195 1.598 2.263 1.13.863 1.329 2.396 1.73 1.861 1.265.797 1.462.201-.931 1.463-.398 1.53.465 2.263-.798 2.728v3.19l1.064 2.795 1.331-.931 4.721-4.458 1.664-.198 1.663-1.199.864-2.526.533-1.596.731 1.064 1.063 2.658 2.129 2.131 1.464.597.133 3.193.066 3.393.731.266 2.461-1.729 2.062-2.526 1.331-3.129.398-3.058-.6-2.662-.199-1.796.664-1.861 2.131 2.26 1.729.866.732 5.188 1.662-.865 1.995-2.261 1.797-2.727.465-3.061-.332-4.523-.665-4.391-2.594-3.59-1.065-.266-1.196-1.466-.199-.931-3.394-2.662-2.66-.531-2.328.865-1.197 1.994h-.799l-2.728-2.26-.133-1.664-1.329-1.329-.068-.532 1.53-1.199 1.73-.198 2.859-1.462 2.396-1.797 2.062-2.662 1.797-2.727.598-3.191 1.264-3.592 1.929-6.188 1.331-5.454 1.662-.798 2.062-.866 1.729-1.662.997-.2.798-1.463.999-.066.266-1.996.599-.931 1.198-.465s.332 3.06 0 3.392c-.333.332-2.396 4.391-2.396 4.391l-.666 2.66-.131.798 1.862.334 2.127-.865h1.065l2.328-2.661 2.062-3.925.731-3.99.864 1.263.199 2.129-.731 3.259-.599 2.795-.664.931.598 1.198 1.73-1.132 1.729-.398 4.855-5.388 1.996-6.984v-6.785l-.665-.731 1.063-1.197-.133-2.396-.731-2.127-1.196-1.265-2.129 1.596-1.331-.199-1.463-2.728-.2-4.058-.532-.665.199-1.529 1.198-2.328.065-3.459-1.328-3.325-1.997-2.463-1.529-.53-1.93-.2-1.597-1.131-.931-.333-1.464.134-1.396-1.73-2.128.066-1.198-.798-1.13.533s-2.195-.6-2.595-.666c-.398-.066-1.597-.066-1.597-.066l-1.93-1.663-.598.398-2.328-.133-3.526-1.13.334-.999 2.727-2.395 1.797-.731 2.594 2.261 2.061 1.531 2.729.73 3.259-.997 2.062-2.195-.532-2.063-.6-4.921-2.395-3.125-1.13-5.655-2.527-3.591-.798-1.53-.268-1.796.467-2.062 3.791-1.995 1.397-2.261-.599-3.261-.865-2.86-2.528-3.858 1.93-2.26 1.13-2.861.267-1.529-.267-1.863-.864-1.197.532-.533-.532-1.131-2.993-.931-2.261-.864-1.065.533-2.927-.333-1.464.732-2.794 1.196-2.991 1.464-2.329.266-4.256 2.728-2.862 1.263-5.188-.199-2.195-.399-4.125-4.058-.864-.267-.332-1.596-1.132-.466-1.861.931.399-2.062-.533-2.527-1.994-3.26-1.664-.931-2.859-.865-.798 2.129.265 3.059-1.197.732-.531-.067.066-2.129.133-3.658-.866-2.395-1.795-3.593.399-.333 1.663 3.393 1.663.533 2.128.864 2.396.532 2.793-.732 1.197-1.263 1.664-2.395.133-2.461-1.863-2.395v-1.131l.8-1.264-1.132-1.263-2.594.133-1.598 1.664-.664 1.995v.865l-1.065-.333-.731-1.796-.864-3.858-.865-1.131-.798-1.996-1.663-2.661 2.527 3.393 1.265 1.463 2.727 1.33 1.597.533 2.262-.533 2.128-.599.865-1.93.931-2.128v-1.463l.399-.399-.931-1.131-.864-4.922s-1.531.332-1.93.665c-.398.333-1.397 1.995-1.397 1.995l-.599 1.265-1.397-.599-1.329-1.928-1.132-1.131-.531-.134-.267-.532h.798s.467.266 1.663-.665c1.197-.931 2.195-1.33 2.195-1.33s.599-.4.933-.666c.331-.266 1.462-3.858 1.462-3.858l-.133-1.664-1.663.932-2.127 1.53-2.131-.2-2.859-2.661.267-.797 1.995-1.332 1.198-2.792 1.33-4.657s-.333-.266-1.064-.398c-.731-.134-1.396-1.464-1.396-1.464l-1.397-.864-1.796-1.597v-6.718l-2.195-.466-4.855.533-1.198-2.727-.665-1.131-.398-1.863-2.195.666-2.993 1.064-1.065-.067-1.396-1.13-1.198-.399-1.662-1.198z" stroke="#000" stroke-width=".3804"/><path d="m639.433 120.962v211.366c2.502 30.263 65.572 49.315 109.545 81.457 57.677-38.685 113.617-46.51 115.866-89.882l.702-202.941z" fill="none" stroke="#000" stroke-width="6.8466"/><path d="m753.422 162.115c-.259 5.733-5.183 4.529-6.59 2.961-1.353-5.242 6.501-6.679 6.59-2.961z" fill="#d40000" stroke="#000" stroke-width=".3804"/><path d="m756.091 161.786c.513 4.528 5.706 5.157 6.689 3.26 1.716-4.324-4.731-7.071-6.689-3.26z" fill="#d40000" stroke="#000" stroke-width=".3804"/><path d="m752.901 157.417v.992l-.546.1-.198-.248-.148-1.539-.298-.148v-.695l.694-.049v-.646h-.843l-.299.646-.15.893.35.745-.35.596-.644.347-.894.845-.597.297-1.39.149-1.141-.547-1.144-1.092s-.496-.794-.546-.993c-.049-.198-.348-.893-.348-.893l-.299-.745-.546-.596-.844-.1-.248 1.043-.297.397-.696.099-.743-.645-.497-.844-.547-1.093-.447-.745-.645-.942-.299-.546-.297-1.292-.746-.943-.496-.794-.793-.645-.845-.646h-.993l-.646-.496-.941-.894-.696-.943-.445-.546.099-.497.347-.448.745-.446.744-.05.845-.198.844-.447.149-.596.149-.993.893-1.589.397-1.142.05-.893 1.291-.199 1.242.149.893.249.943.297 1.092-.546.894-1.143.297-1.985.397-1.837.448-1.042h2.285l.792.546.646-.297.595-.298 1.441.148h.744s.596-.943.845-1.092c.247-.149 1.439-1.738 1.439-1.738l1.539-.397.794.1 1.093 1.242.893.546.795.05 1.887 1.241s.596.496.795.396c.198-.099 1.888-.844 1.888-.844l1.487-.099 1.59-.546.546 1.24s.795 1.887 1.043 2.086c.249.198 1.241 2.084 1.241 2.084s.497-.248.746-.298c.247-.049 1.389.249 1.389.249l3.277.149.447-.497.346.596-.445 2.284.198 1.738.596 2.334.744 1.092.994.049 1.291 1.093.05 1.092-.993.348-.894-.298-1.144.645-1.786 1.042-1.491 1.49-1.289 1.836-.845 1.837-.843.596-.746-.298-.745.049-.347.894-.745.893-.646 2.284-1.39 1.539-1.44.695-1.042.795h-.694l-1.192-1.143-.546-.496-.148-1.787-1.144-.895h-.845l1.242.994.05 1.34-.694.595-.349-.099-.346-.695h-.399l-.05 1.34-1.489 1.738-1.489-1.241-.05-1.589z" fill="#d40000" stroke="#000" stroke-linejoin="round" stroke-width=".3804"/><path d="m744.064 144.41v1.737l-.646 1.042h-1.142l-.694.745-.199.596 1.291 1.191 1.191.844.496.597.299.148 4.965-.05.595.596 1.093-.794 1.342-2.036 4.22.05 2.233 1.638.149 1.341.497.199 1.19-1.042.993-.049.496.645h.895l2.929-2.632.497-.695 1.092-.05-.148-.844-1.191-.298-1.042-1.042-.299-1.738-.943-.148-1.638.844-2.83 1.39-.944.695-.844.049s-.347-.297-.546-.297c-.2 0-1.092 0-1.092 0l-.895.745h-.695l-.248-.249-3.823-.298-3.177-.794-1.64-1.092-1.042-.844-.299-.297z" stroke="#000" stroke-width=".3804"/><path d="m746.449 148.977h2.184l.546.447v.595l-1.042.447-1.838.099-1.291-.198-.895-.795-.197-1.588 1.19-1.341h1.143l.1.447z" fill="#fffcfc" stroke="#000" stroke-width=".3804"/><path d="m761.045 148.878-.347.297v.596l.445.298 2.186.1 2.383-1.886.05-.746-1.438-1.241h-1.242l-.199.347.299.646.396.596-.396.794z" fill="#fffcfc" stroke="#000" stroke-width=".3804"/><path d="m728.589 144.883 2.218.071 1.146 1.719 1.002 1.073 1.001.788.86.142 1.646 2.434v.287l1.287 1.145.359 1.502.143.501-.072.644-.716.43-.859-.144-.501-.358-1.573 1.36-1.003 1.36-.644.144-1.719 1.86-.858.287-1.36 1.002-2.147-.072-1.359-1.646-.285-.645-.072-1.288 1.217-.859.572.644-.285.644.07.788.717.286.715-.072 2.577-2.219.644-.358 1.503-1.502.931-.501-.071-.93-1.074-1.646-.357-1.145-.286-1.074-.285-.788-1.003-1.144-.573-.645-.215-.644-1.001-.788-.286-.144v-.499z" fill="#d40000" stroke="#000" stroke-width=".3804"/><path d="m771.674 153.257h1.146l1.217-.573.931-.787h.858l.573.572.931-.071.572-.716.215-.859.787-1.073.215-1.074.716-1.503.215-1.074-1.789-.071-2.076 1.79-1.575.071-1.288 1.36-1.001.142-1.074 1.575-.357.931.143.931z" fill="#a00" stroke="#000" stroke-width=".3804"/><path d="m749.56 167.644-1.361 1.36-.357 1.216.572 1.216 1.289.215.931-.5.858 1.001.143 1.718 1.718 1.86.787.215.645-.716.715-.716.072-.715 1.146-.501.286-2.147.645.786 1.072-.644 1.361-.142v-1.79l-.501-1.216-1.075-.788-1.645-.716-1.789-.644-.859.072-1.577.932-1.717.571z" fill="#d40000" stroke="#000" stroke-linejoin="round" stroke-width=".3804"/><path d="m760.333 167.201 2.584-.118c1.773-1.15 2.54-5.833 3.76-8.928 1.893-2.454 4.217-3.188 7.05-1.88l1.645.47 2.114 1.644h1.526l1.059.235 1.645.118 2.938-2.35-.117 2.467-1.998 1.762-4.112 1.528-3.173-1.879-.117.47 6.815 7.518h.587l1.175 1.175.587-.47.118-1.997 2.351-2.114.234 3.054.822 1.527v2.937l-2.232 2.82-3.524.47-4.112-2.584-.117-1.175-3.761-4.347v1.88l2.233 4.582.352 1.762.823.823.588 1.411v1.762l1.056 2.467 1.88.234.472-1.174v-1.645l1.997-1.998 1.293-.117.47.705-.588.587-.235 1.293v.822l1.645 2.232.471 1.41-2.468 3.759-1.646.471-2.936-.471-1.763-1.174h-.94l-2.703-4.113-.351-1.997-3.643-5.757-.119 1.175 1.412 1.763.704 2.702.704 4.817 2.115 4.112.117 7.637.706.822h.938l1.176-.939.939-1.292-.235-4.465h1.293l2.232 1.293 1.645 2.702.587 1.175v2.467l-.821.117-1.646 1.763-2.703 1.174h-4.698l-1.057-.939h-.94l-.704-.705h-1.293l-3.644-5.169-.116-8.577.47-1.879v-2.585h-.587v2.585l-.589 1.646-.117 2.349.117 6.462 3.877 6.227 2.82 1.41.823.94h-1.293l.118.94-1.059-.235-.234.47-.587-.235-1.059-.706-1.41.236-.938.47h-2.467l-1.059-2.115-.821-1.645-2.82-2.585h-2.115l-.47-1.527.353-2.702.589-2.467v-6.58l-.472 7.52-1.291 4.229-.471.353-.118 4.816.823 2.233 3.289 3.642-2.232.235-1.645-.704-1.763.351-2.701-.587-3.056-1.057-1.997-1.997-.94-2.233-.353-2.231-.47-2.35.47-1.879.235-1.88-.939 2.114v3.172 1.88l-1.293-.352v-1.41l-1.057-1.41-.234-1.88-.353-2.819-.119-4.582.119-2.82.587-3.172-.47-.118-.354 3.996-.234 7.871-.822.236-1.879 2.584h-4.231l-1.645-1.409 3.173-3.408-.352-2.702-.354-3.171-.352-5.405-3.643 3.877-4.111 2.938h-3.525l-1.997-2.468-.354-2.819.236-1.998 2.114-2.82 1.526-.234.589-.588.352.47-.821 2.35-.823 1.762.704 1.645 1.999.235 2.584-3.994 1.997-4.7 1.527-2.35v-1.292l-1.408 1.057-1.646.353-4.816.118-2.819-1.763-.471-1.41.117-1.292.119-1.762 3.054-1.998.117 4.229 1.999-1.645v-.822l2.584-3.408 6.227-5.521h3.76l2.231 1.645.939.235 2.703 2.585.117 3.289 3.173 2.585-1.88 2.232.115 1.176 1.765 1.292 1.644-.47.705 4.347 1.997 1.175 1.057.117 3.996-4.7 1.763-.234 1.057-2.35-.472-1.88z" fill="#d40000" stroke="#000" stroke-linejoin="round" stroke-width=".3804"/><path d="m715.174 208.036v.689l1.381 1.873-.099 1.972-7 3.549-3.054.198-1.579 1.478-4.042 1.282-1.773-.395.295-.985.197-1.676-.197-.986-1.281-.69v-1.579l1.577-.492-.494-.689-.887-.1.198-2.069.394-.788.099-.494-.099-.986-.394-.887-1.085-.297-3.154 1.283-.493-.494-1.479 1.577-.789.099-.098-1.282-1.577-2.071v-.395l-2.957-.492-2.071 2.662h-1.479l-1.083-.788h-.889l-.984.59-.593-.196-.887 1.578h-.492l-.593-1.283-.788-1.281-.295-.79.395-1.576 1.281-.789 1.575-.79 1.186-.196 1.379.789.592 1.28 1.775-1.675 1.773-1.972 1.478-.591 1.874.295 2.071 2.761 1.97.196 2.367-1.676.887-.493 2.17.296 2.169 1.183 2.267 3.351.395 3.253.492.888 3.943-.297 4.14-.788z" fill="#d40000" stroke="#000" stroke-width=".3804"/><path d="m682.84 207.938 1.282 2.266-.098 4.042-.494.494-1.872-1.578-.987-1.379-.986-1.676v-1.478l.986-.789 1.281-.295z" fill="#5656a6" stroke="#000" stroke-width=".3804"/><path d="m686.784 214.442 2.858-5.914v-1.577l-1.085-1.579h-1.479l-1.576 1.479v5.225z" fill="#5656a6" stroke="#000" stroke-width=".3804"/><path d="m691.712 214.442 1.578-.689 3.845-3.648.591-1.084-.297-.887-1.083-.789-.689-.197-1.578.69-.887.887-1.775 3.154z" fill="#5656a6" stroke="#000" stroke-width=".3804"/><path d="m698.516 217.005-1.381.987-1.578-.099-2.857-1.972.098-.395 1.774-.296 1.577-.69 1.577.098.889.789.294.888z" fill="#5656a6" stroke="#000" stroke-width=".3804"/><path d="m687.966 217.697 2.661 2.464 1.973 1.281 1.577.591 1.972 1.085h4.141l3.745-.395 1.873-.69 3.647-.099 2.958-1.38 2.168-1.478 2.168-.098 1.186-1.184h1.576l3.153-2.366 4.438-1.97 4.633-1.676 5.029-.986 2.069.098.788.591.987 1.676.393.789-.492 1.676-1.872 1.085-.395-1.184 1.182-.986-.295-.591-1.874-.296h-1.282l-1.181 1.183-.198 2.662 1.577 1.379 1.676 1.085 1.479.099 1.775-1.083 2.366-2.071 1.379-2.366-.395-3.45-.788-2.17-2.366-1.774-2.957-1.184-5.126.1-3.056.788-1.184.395-3.252 2.168-1.479.099-3.253 2.168-1.283.492-1.479.591-2.267.987-4.339 1.97-2.956 1.775-1.479.198-3.449 2.168-4.93.395-.887-.494-2.268-.295-1.479-.593-1.478-.788-2.069-2.464-.593-.395h-1.873l-.591.79z" fill="#dfda4d" stroke="#000" stroke-width=".3804"/><path d="m717.541 203.599-1.085 4.831 1.281 1.38-.099 1.577.689.69 1.282-.69 1.281-.887 1.281-.494 1.479-.788.196-.888 1.577-.788 1.677-.494 2.168-.591 2.17-.296-1.577-1.085-4.535-2.956-1.874-.198-.69.591-2.66.099-1.478.394z" fill="#d40000"/><path d="m739.327 198.769-3.154-.099h-2.072l-1.675-.689-1.38-1.38-.197-1.282-.985-1.577-.986-.986h-1.479l-2.069 1.38-.888 1.774-.196 2.859 1.182 2.464 3.943 2.958 2.268.492 1.579-.688 3.547-1.578 2.268-1.478.791-1.282z" fill="#d40000" stroke="#000" stroke-width=".3804"/><path d="m731.736 194.233 1.773-1.872.099-4.24-.493-.394.493-1.676.197-1.38h-.69l-3.845 3.647-2.662.394-1.378.79-.1.985 1.085.69 1.972-.197 1.083.099z" fill="#d40000" stroke="#000" stroke-width=".3804"/><path d="m733.313 205.373 3.449-.296 2.761.198 1.38.395 2.761 1.478 1.578.79 3.056-.198-1.183-1.478-1.184-1.479-.79-1.479-.196-1.478-.688.197-.79-.197-.985-1.281-.591-1.874-.396-2.464-.787-.1-.593 1.183.593.591.59 1.183-.986 1.281-.098.987-1.281.986-1.775.789-1.676.689-1.873.69z" fill="#d40000" stroke="#000" stroke-width=".3804"/><path d="m745.34 209.416.592 4.929-1.084 3.055 2.268.099h2.66l2.366-.494 2.268-.197 2.071.099 1.676.197 2.069-.788.099-1.577-.493-1.38.985-3.057-.395-.69z" fill="#d9d24d" stroke="#000" stroke-width=".3804"/><path d="m758.55 200.838.099 4.239 1.479 1.282h1.379l1.085-.591.296-.887-.986-.591-.395-1.183-2.07-2.268h-.887z" fill="#d40000" stroke="#000" stroke-width=".3804"/><path d="m774.619 204.19 4.238 2.859 1.282.395 1.183-.395 1.971-1.577.985-2.169.1-1.576-.985-.099-1.577 1.085-2.268.197-1.774.295h-1.381l-1.381.296z" fill="#d40000" stroke="#000" stroke-width=".3804"/><path d="m786.842 200.938-.787 1.282-.789 1.971-1.775 1.874.099 1.379h-.79l.101 1.085 1.378 1.083 3.846.591 3.057-3.942v-1.085l-1.677-1.972-1.184-.295z" fill="#d40000" stroke="#000" stroke-width=".3804"/><path d="m804.783 211.979 1.973.986v.69l-.789 1.085-.492 2.069-.198 1.282-2.366.099-2.464-.887-1.381-.887h-1.281l-.69-.591-1.182-.789-1.48-.987-1.576-2.069-1.084-1.38v-.986l1.479-1.873 1.479-.492h6.605l3.055-1.085 2.464-2.07 2.958-.591.69-.789 1.972-.395 4.929-2.563 2.76.492 2.761-.098 2.365.689.888.789-.493.296-1.281-.099-1.479.789-.198 2.662 1.183 2.168-.295.592-1.479-.099-.985-.494-.494-.887v-.887l-.984-1.38-.789-.295h-1.773l-.592 3.745h-.889l-1.674-1.478-2.466-.297-1.676 1.479.591 1.972 2.466 2.366h1.281l1.183 1.379-.1 1.084-1.773-.395-1.775-.393-1.478-.692-1.184.198-1.38-.79-1.38-.59-.887-.395z" fill="#d40000" stroke="#000" stroke-width=".3804"/><path d="m768.703 214.837-.591.395-.887-.395-.494-1.379.986-.888 2.168.099 1.972 1.774v2.563l-2.662 1.283-2.759.69-3.057-.888-1.873-2.563-.493-1.774.395-3.057.493-1.972 2.662-1.972 2.858-.887 3.351-.494 3.847.986 7.786 2.958 5.225 2.366 5.816 3.057 3.451 1.577 4.535 2.168 2.761.986 3.154-.395 1.38.099 2.76-.887 1.873-.198 4.14-4.831 1.676-.986-.196 2.168-2.761 3.057-2.365 2.662-.985.099-1.282 1.083-2.464-.099-5.718.297-2.76-.887-4.338-.888-5.126-2.267-4.043-2.071-1.972-.294-3.057-1.578-1.872-.197-1.084-.789-3.353-.985-2.761-.987-2.66-.296-2.071-.295-.985.591-.986 1.38-.492 1.873.69 2.268 1.183.198 1.085-.492.393-.789z" fill="#d9d34a" stroke="#000" stroke-width=".3804"/><path d="m808.333 214.146h2.268l1.281.69h2.563v.987l-1.479 1.083-2.859.789-1.282.591-.985-.099-.69-.887v-1.38l.591-1.183z" fill="#48489c" stroke="#000" stroke-width=".3804"/><path d="m824.007 211.092s1.578-.889 1.872-1.577c.297-.69.986-2.17.986-2.17l.593-2.563-.788-2.168-1.479-.394-1.281.098-.69.689-.196 1.874.689 1.577.592.887-.099 1.676z" fill="#48489c" stroke="#000" stroke-width=".3804"/><path d="m818.092 211.879 1.578-.788.984-1.873.101-2.071-.789-1.578-1.085-1.181h-1.479l-.395 2.759 1.084 1.085v3.647z" fill="#48489c" stroke="#000" stroke-width=".3804"/><path d="m816.219 213.654.591-.69.298-1.479-.592-2.168-.889-.986-1.083-.986-1.184-.788h-1.677l-1.083.887.294 1.775 1.974 1.478 1.577.296z" fill="#48489c" stroke="#000" stroke-width=".3804"/><path d="m724.074 229.043-2.871.347-2.03.248-1.337.793-1.089-.645-.644.396-2.426-1.287-2.823 1.536-1.337 1.187h-.84l-.645-.841-1.287.893-.743-.744-.792-.445-5.347 3.862-1.931-.644-.842.743-.348.297-.196.841-.794-2.081-.692.495-1.188-.396-.842 1.189-.198 3.119.495 3.911 1.289 4.308 1.187 1.782.99.198.298-1.238.545 2.327.792.791.248 4.209 3.218 7.229.297 3.713.148 6.436-1.188 1.438-1.534 2.327.049.691-1.584 3.021.098 4.605.348.396.1 4.406 1.237.099.99 1.089 2.179-.197v-1.337l.297 1.534 1.732 2.279 1.486 1.187 1.038.05.545-.792-.05-4.951.347 5.446 1.089-.05 1.388-1.237 1.832-.248.594.05s.495.297.743.742c.247.445 1.139.843 1.139.843l.644 1.337.792.297.396-.843-.544-10.546-.545-8.614-.594-10.941-.595-13.964-.099-4.455-.693-.594.05-1.436 1.684-.495.989-.297-.446-1.336-.494-4.456v-1.683l.595-.495 1.188-.049.842.99 1.634 6.782.842.297 2.97-.05 6.734 10.646 2.376 3.565 3.268 6.089 4.259 6.09 1.337 1.782.891.101.297-6.487 1.883-1.634-1.585-11.189-1.287-.247-1.782-1.634-.99.148-.99 1.634-1.237-1.386-.15-1.585-1.139-.741h-.84l-1.091-1.485-.593-.15-.693.644-.149-5.049-1.089-2.376-.198-1.436-2.03-2.872-2.128-.495s-.94-2.13-.94-2.427-.398-1.337-.398-1.337z" fill="#e4cb5e" stroke="#000" stroke-width=".1902"/><path d="m725.856 296.773-1.435-1.831-.495-1.931-.198-4.159-.445-3.962-.793-6.139-1.287-7.575-1.039-6.139-.397-3.614-.841-4.259-.347-2.921-.347-2.426-.297-3.465.99 3.119 1.635 7.278 1.83 5.05.743 3.416v1.931l1.288 2.771.842 3.517 1.732 7.426 1.832 6.091.94 4.405.148 1.684-1.931.645-.94.444z" fill="#dcc56a" stroke="#000" stroke-width=".3804"/><path d="m735.511 295.29 1.041-5.001 1.238-3.812.544-2.575.396-2.079-.1-3.119-.841-1.832-3.861-7.773-2.328-4.703-.941-2.427-1.732-3.021-2.327-4.852-2.08-3.613-1.732-2.971-1.634-2.18-.494.447 1.484 5.545 1.237 4.752 1.189 5.248 1.98 6.882 1.139 4.754 1.139 2.921 1.089 4.109 3.02 9.804.595 2.574 1.486 2.972z" fill="#e2cc75" stroke="#000" stroke-width=".3804"/><path d="m710.47 323.493-1.259 1.256-1.978-1.256.898-2.337 3.236-.54 1.798 2.696-.72 2.695-2.517 2.515-3.056.9-3.055.358-3.594-.178-4.854-1.081-3.773-4.492-2.876-5.751-2.155-4.852-2.517-9.885-1.259-4.134-.539-3.774-2.695-5.212 1.077-.898 9.346-8.267h.54l1.978-1.798 3.413-6.47.36-.359 1.078-3.953-.18-6.829-.898-3.235-2.156-3.595s-.719-1.258 0-1.078c.718.18-1.977-3.056-1.977-3.056l-3.236-3.416v-.717l-2.335-2.337-1.618-.898h-1.258l-.54-.72-2.337-.718-1.077 1.078-.719 2.337v.899l1.616.718.539-.359-.539-.9.18-1.078 1.26-.898 1.437 1.076-.18 2.696-1.078 1.259-2.695.181-2.157-1.079-.898-1.798-.718-2.694.718-1.618 1.079-.898 1.797.359 2.875-.72.898-.359 2.337.359 1.618 1.618 1.796 1.078 4.494 5.033 1.257 1.257 2.337 3.416 2.876 6.47.718 4.492-.358 4.494-2.337 6.47-2.696 4.133-3.773 4.673-6.47 5.393-.898.179-1.438 1.798 2.517 5.391 3.953 16.535 3.235 6.829 4.673 4.852 3.594 1.978 4.674.54 4.133-1.08 1.798-1.615z" fill="#ddd457" stroke="#000" stroke-width=".3804"/><path d="m718.018 327.267-.539.897.719 1.439 1.798.359 1.257-1.618v-1.799l-1.079-1.975-1.437-.362-1.617.181-2.337 1.618-1.259 1.438-.719 3.414 1.798 5.573 2.876 3.773 7.188 4.673 7.729 2.875 4.851.718 3.596 3.596 1.797 4.312-1.617 2.698-2.157.179v-1.078l.898-.181 1.079-1.078-.539-1.078-2.156-1.259-1.797 1.438-.181 3.236 1.616 1.618 2.337.537 1.798-.719 1.796-1.978.182-2.336-.719-3.415-3.057-4.311-3.233-1.618-8.088-2.877-5.212-1.975-3.775-2.699-3.414-3.593-1.977-5.21.898-3.415 1.978-1.439 1.078.359z" fill="#dbd45d" stroke="#000" stroke-width=".3804"/><path d="m783.255 327.445 1.438.899.181 1.437-1.618.719-2.156-.359v-2.155l1.257-2.696 3.596-.181 1.617 1.978 1.079 3.773-1.079 3.955-4.134 3.414-5.751 3.955-6.29 2.695-9.345 4.492-2.696 1.975-2.337 4.314 1.439 2.518 1.797.359v-.899l-.54-.719.359-1.978 1.079-1.077 2.155 1.259.541 2.695-1.978 1.978-2.157.359-3.414-1.618-1.079-1.796-.179-2.519 1.438-2.336 2.875-2.874 4.494-2.519 6.47-2.695 9.524-4.671 6.649-7.19v-2.874l-1.438-1.797z" fill="#e5dc5e" stroke="#000" stroke-width=".3804"/><path d="m791.522 322.234v1.615h1.258l1.259-.179.539-2.155-1.078-1.437-1.438-.182-1.798.359-1.976 1.438-.18 2.877.897 1.975 1.798 2.695 3.235 1.618 3.234.899 4.854-.359 5.571-2.695 5.212-3.774 2.156-5.213 2.695-9.525 3.414-12.04 2.157-4.492 1.797-1.619-.539-.718h-1.617l-4.134-3.055-4.312-2.696-5.572-6.649-2.875-5.572-.899-7.907 1.618-7.729 3.414-5.751 5.571-4.673 5.033-3.594 5.032-.178.717 1.976-.717 1.618-1.079-.899-1.617-.18-.718 2.696 1.795.898 3.235-.359.9-2.156-.359-3.055-2.337-2.157-4.135.359-3.055.359-3.775 2.157-3.952 4.133-2.695 3.954-3.416 5.571-1.078 5.032.18 8.807 4.494 9.524 3.953 5.033 7.727 5.211 1.259.899-2.336 5.212-3.415 10.963-2.156 8.806-1.797 3.774-5.751 5.032-6.471 2.515-5.57-.178-2.696-1.978-.72-1.797-.18-2.695z" fill="#d7d643" stroke="#000" stroke-width=".3804"/><path d="m764.111 258.243-.383-.763 1.272-1.397 2.411-.506 1.905-1.525 2.413-1.524 2.54-.635 3.303 2.793-1.143.892-1.145-.128-2.158 1.396-1.65 1.017-1.397-.254-1.271-.381-.761.635h-1.145l-.89.508z" fill="#ccc" stroke="#000" stroke-width=".3804"/><path d="m823.422 208.964v1.778l-1.777.255-.127-2.413z" fill="#48489c" stroke="#000" stroke-width=".3804"/><path d="m779.606 254.686 1.269-.506h1.905l1.017 2.793v.89l1.65-.508h3.049l2.158 1.016 1.905 1.905 2.032 1.144h1.65v-.89h1.651l.382.509 1.777.253 1.271-.38.381 1.143-.254 1.523-.382 1.145.508 4.824 2.287 8.256 4.318 6.986-1.65-.763-3.684-.508-1.144.508-1.523-.127-1.778 1.651-.89.126-.761.636-1.397-1.905-5.334-7.112-1.397-1.524-3.048-6.603-4.191-9.019-.255-3.684-1.015-1.016-.508-.127v-.636z" fill="#ccc" stroke="#000" stroke-width=".3804"/><path d="m778.081 303.839 2.16 1.016-.127-1.016 1.524 1.016s1.396.255 2.158.127c.761-.127 2.413-1.777 2.413-1.777l.508-3.429 3.303-5.716 2.411-1.397.765-.127 2.284-2.541 4.318-2.285 2.032-.763 3.303.635 2.413 1.144.508 2.032.382 5.461 1.523 1.145 1.271-.637 1.143-1.396 2.793-1.018 2.033.253-.128 2.542-.888 4.699-1.397 4.953-2.286 7.873-2.158 5.59-5.335 4.065-4.191 2.665h-6.732l-2.031-1.904 2.54-.637.889-1.521.254-2.668-2.285-1.651-2.286.127-3.048 1.779-1.145 1.521-.635 1.78h-1.142l-2.542-.128-1.905 1.271-1.396 1.776-.382 2.668.637 1.906 1.396.889 2.54-.128.636-.506h.508l-2.287 2.537-2.92 3.05-3.811 2.54-2.54.761-4.191 1.525-3.048 1.397-3.43.127-3.556 3.174-2.413 1.907-1.651 2.285-.762 3.938v2.919l1.903 2.54-.253.764-1.143-.13-.636-.506h-2.793l-.763-1.144-1.397.255-2.031.634-.89.891-1.524-.764.89-2.285.127-2.158-.635-2.923-1.905-3.811-1.65-1.776-2.923-1.779-5.588-1.652-6.095-2.282-4.445-2.162-1.651-2.54-.636-3.174 1.017 1.016-.89-3.556 1.27 1.649.891.127 2.54 3.177 2.032.382.508.252h.634l.127-.252 1.905 1.016 2.16.634h3.047l-2.666-.634-3.303-1.524-3.429-1.907-1.905-2.537-.255-1.144-1.016-.127.128-.764.762-.889 1.016.128.255.761 1.016-.382 1.65 1.272 2.795.252 2.031.255-1.776-1.016-2.795-1.524-2.794-2.541-.89-.127-2.795-4.316-1.523-4.192-1.27-4.444v-5.209l1.65-4.189 2.413-3.811 1.397-1.271 1.143.381 2.921-2.158 2.032-.635 2.668.125 2.032.636 2.921.89 1.396 1.777 1.397.128.38 1.016-.761.254 1.016 1.397-.381.889.89 1.143-.127 1.65-1.65 1.906 1.142 1.904-.128.637 1.397 1.524 1.271 1.903 2.159.382 5.08.128 3.682-.382 2.16-.128-.89-1.016 1.524-.382 1.905-.382 3.429-2.664s2.668-4.574 3.176-5.209c.508-.634 1.523-2.794 1.523-2.794l4.318-4.445 1.65-.635 3.811-1.904h3.938l1.018 1.144 1.65.254 1.524 1.904.761 5.208-2.413 1.65h-2.03l-1.397-.889-.382.762z" fill="#ccc" stroke="#000" stroke-width=".3804"/><path d="m716.451 322.557s.299-.597.599-.597c.299 0 .971-.073.971-.073l.074-3.885s-.522-.297-.598-.597c-.074-.297-.074-1.717-.074-1.717l-.522-.523-.075-15.682-1.494-4.032-1.269-2.165-1.045-.822-1.644-.148-1.867 1.195-1.12.597-2.39-.521-.895-.599-1.421-.073-1.269-2.315-2.613-.822-1.194-.373-3.584-.299-1.045-.075-1.346.897-1.568 1.867-1.119 2.164-.149 3.511.821 1.12v1.642l.374.672v1.419l-1.195-1.419-1.195-2.912-.597-1.792-.523.747.149 2.39.074 1.94.673 1.794.672 2.537 1.12 3.211.896 3.437.822 3.284 1.568 2.987 1.344 1.867 3.062 3.061 1.941 1.344 2.987 1.047 3.36-.073 1.044-.75-1.344-1.268s-.223-.82-.223-1.12.447-1.793.447-1.793l1.419-1.494 4.107-.746 1.419 1.046 1.867 2.091z" fill="#ccc" stroke="#000" stroke-width=".3804"/><path d="m811.361 288.058v2.242l.523.299.15.746 2.313.374-.225-.747-1.494-1.419-.373-1.046z" fill="#fffcfc" stroke="#000" stroke-width=".3804"/><path d="m811.437 256.023-1.568 1.421-1.046 2.016-.373 2.09-.672 2.614-.299 2.016.299 4.406.15 2.389 1.418 2.242.746.223.896 1.791 1.269-3.509.599.448.373 2.613 2.091 1.792s-1.942-.97-2.39-.97-.522.521-.522.521l.522 1.12 1.194 1.195 2.092.82 3.883.075-.896.896h-2.688l-.674.522.972 1.419 1.194 1.866 2.167 1.046 2.238-.597h.747l-.373.896 1.12.82.97.896.897.971.746.149v1.12l-1.344 3.361-.3 1.567-.745 1.27-.448 1.94-1.344 2.315-.149.822h.672l.97-1.271 1.42-.597 1.718-2.24s.97.3 1.195-.15c.223-.448 1.269-3.584 1.269-3.584l1.045-.224.523-3.285.896 3.062.748 3.883-.3 3.286-1.942 3.583-.521.6.298 1.193h1.419l1.643-1.719 2.837-3.808 1.122-3.808.597-7.393 1.269 3.436 1.195 3.359.599 2.613-.897 3.435-1.12 4.034 1.494-1.047 3.137-3.51 2.463-3.657.673-2.688.598-5.153-.374-4.032.148-1.494.523-.821-.075-2.688-.522-1.12-1.791 2.389-.747.15-2.092-1.419-.521-.15-1.195-1.718-.82-2.763.073-3.136h-.447s.224-2.614.447-3.286c.225-.672.523-1.94.523-1.94l-.374-2.764-1.418-2.614-1.718-1.492-2.762-.821-3.213-.897-1.866-1.492-3.51-.373-1.792.224-3.36-1.568-2.166-.822-2.762-.073-2.614-.3z" fill="#d40000" stroke="#000" stroke-width=".3804"/><path d="m691.29 256.187-6.887-.137-1.102-.551-1.652 1.376h-3.168l-3.444 1.929-2.341 1.79-1.239-.137-4.822 4.408.689 3.58.55.965.276 3.444.137 4.957-1.101.828-1.653 4.133-.965 3.58-.826 7.025.689 5.233-.965 2.755-1.928 3.031-.413 1.515 1.652-1.103-.274-.551.826 1.239 2.064-3.719.828 1.378.825.137v-4.683l-.963-7.3 2.341 7.577.552 2.754.413-.139.275-6.198 1.514 3.444.139 3.029.688.552.415-.827v-4.545l-2.481-7.3-1.239-6.751 3.306 8.816 1.929 1.79 1.79 4.822 1.517 2.754.274 1.79 1.102-.688.415-.688-.965-.689.688-.55-.139-2.479-.825-5.783h-.826l-2.893-6.061 2.617 3.72h1.102l.138-.966-1.239-2.479-.275-2.893 2.479 3.582.825-.413-1.377-3.996-.274-4.545.826 1.928-.138 2.204 1.791 2.205 1.79.963 1.377-1.651-.965-.69-.412-1.927-1.379-1.653v-2.205l1.931 3.444 1.789 1.24 1.791.413 1.791-1.239 3.029-3.444-.411-.414-3.17.139-2.479-1.653-2.203-2.065v-1.791l.413.274.963 1.93 1.791 1.791 2.066.274 2.618.139 2.891-2.617 1.517-4.959.413-2.755-.551-3.443-1.792-3.995-1.102-1.791z" fill="#d40000" stroke="#000" stroke-width=".3804"/><path d="m792.67 332.497-7.302 7.573-.964-.274-2.617 2.204-.137 2.342 2.479 1.93.965 1.79.689-.139 2.478 3.03 2.343 3.307.965.552.687 1.514-1.238 1.79.413 1.104 1.928-.277 2.205.139 1.376.826.552 2.48v.962l1.515-.825 1.24-1.791.138-4.407-.274-1.239.411-3.307.413 4.407.965 1.378.688-.552.826 2.894 1.791 1.791.965 1.651.139-1.1-.139-2.204.965-2.48 1.102-2.892 1.102-.69.963.416 1.38 1.375-.139.552 1.24-.139-.277-3.305-1.789-2.48-2.756-1.788-1.377-1.377-1.239-2.204 1.928 1.101 2.066 1.929 1.928.965 1.378.274 2.343 4.546 1.515 2.204.275-3.03 1.102-3.445 1.103-1.514 1.377-.139 1.791.552-.414-2.067-1.377-2.617-2.755-2.478-2.893-2.204-2.478-1.104-2.206 1.93-.688.274-1.24 1.104-.963-.413-3.169-3.033-.826-.549-1.377-3.307-2.067-.965-3.168.277z" fill="#d40000" stroke="#000" stroke-width=".3804"/><path d="m809.749 357.013-1.515 2.067v3.443l.688 1.654-.688 6.473 3.444-4.82 1.238-2.481-.137-3.304-.965-1.517-1.102-.964z" fill="#4f4d9f" stroke="#000" stroke-width=".3804"/><path d="m821.182 349.853-1.102.274-1.24 2.616-.274 3.443.688 1.79v2.481l.276 1.514 1.238-1.788 1.791-3.032.274-2.204v-3.029l-.826-1.378z" fill="#4f4d9f" stroke="#000" stroke-width=".3804"/><path d="m791.153 367.757 1.791-1.239 1.378-.965 1.792-2.34-.277-1.79-1.103-.826-1.377-.552-1.239.139-1.378 1.927.139 3.858z" fill="#4f4d9f" stroke="#000" stroke-width=".3804"/><path d="m707.27 355.638 1.377.549v3.72l-2.341 2.617-2.616 1.929.136-2.48-.688-.823v-2.62l.552-.688v-1.238l2.341-1.242z" fill="#4748a5" stroke="#000" stroke-width=".3804"/><path d="m689.362 357.841 1.928-.138 2.066 1.238.826 2.343-1.239 1.103-.688 1.101-.413 1.791.275 2.894.138 2.617-2.341-2.895-1.928-3.029-.139-3.029.688-2.617z" fill="#4748a5" stroke="#000" stroke-width=".3804"/><path d="m682.75 354.398-.551 1.927-.688.413-.826 1.103v4.131l-1.378-.823-1.515-1.93-.826-2.067.276-5.233.688-2.204 1.653-.552 1.653.552 1.376 3.168z" fill="#4748a5" stroke="#000" stroke-width=".3804"/><path d="m682.89 341.038-.827 2.064-2.204 1.652c-.337-2.2.796-3.355 3.031-3.716z" fill="#4748a5" stroke="#000" stroke-width=".3804"/><path d="m709.886 330.707.965 1.651.827 2.617 1.376 1.517-.137.825 1.928 1.652 1.928 3.03 3.169 2.616-2.342 2.068-5.51 4.133-1.791.552-2.341-1.381.275 3.307.964 1.517-2.479-.552-2.894.274-1.79 1.517-.414 1.514-.688-1.101-.965-1.517-.275-.274-.55.413.413.274.137 2.755-.688.552-.139.826-3.167 2.065-.826-2.065-1.104-2.342-1.928-.965-2.065.277-2.342 1.377.688-1.929 1.378-2.204 2.616-2.203 2.617-1.652 2.066-.826.552-.277-.69-.688-3.855 1.101-2.756 1.791-2.893 2.067-2.203 3.166-1.102.826v-2.34l-1.241-3.168-.413-2.068-1.24-1.514h-1.514l-2.066.413 1.516-2.616 3.029-1.652 1.378-2.342 2.479-2.068 2.066-.413 3.031.413 1.513.829 2.895.136 1.789-.136 2.205-1.104 1.791-3.307 2.478-3.579 2.895-1.516z" fill="#d40000" stroke="#000" stroke-width=".3804"/><path d="m776.828 292.963-3.993 1.104-2.755 2.204-3.582 3.718-2.893 5.235-3.305 3.995-6.062 2.478-5.51.139-4.27-1.238-1.515-2.344-.413-3.029-.551-3.72-1.24-2.341-1.928-2.343-2.204-1.515 2.343-9.918.688-2.204v-2.893l.413-3.855 2.066-3.444 2.066-1.928 3.581-1.653 6.335-1.652 6.337-2.066 6.612-1.515 7.438-1.791 3.168-.275-.275 4.132.827 1.516-.139 10.743-.688 9.505z" fill="#784421" stroke="#000" stroke-width=".3804"/><path d="m778.345 292.826 3.856.827 3.03 1.791 1.239 1.79 1.653-1.377.688-2.343 2.893-1.651 4.409-3.857-3.721-5.648-1.929-2.755-2.617-3.029-3.168-5.785-3.581-7.852h-1.929l-.275 15.564.139 5.647z" fill="#784421" stroke="#000" stroke-width=".3804"/><path d="m741.705 222.165-1.24 3.719 4.271-.689z" fill="#76401b"/><g stroke="#000"><path d="m739.087 232.771.139 2.893 11.846-3.719v-1.102z" fill="#a05a2c" stroke-width=".3804"/><path d="m742.394 237.179-.275 2.754.826 6.061 3.03 16.666h1.516l.137-2.616z" fill="#44b3cc" stroke-width=".3804"/><path d="m750.106 261.422-5.509-24.105 4.131 24.518z" fill="#50aece" stroke-width=".3804"/><path d="m751.071 261.146 1.928-.688-7.163-23.141z" fill="#50afce" stroke-width=".3804"/><path d="m747.903 235.939 8.402 24.105-1.653.55z" fill="#50abce" stroke-width=".3804"/><path d="m757.545 259.492-8.127-24.379 10.331 24.105z" fill="#50b0ce" stroke-width=".3804"/><path d="m760.575 258.253-9.642-23.279 11.983 23.555z" fill="#50b3ce" stroke-width=".3804"/><path d="m685.076 215.639-1.3.199-1.598 1.3-.7 1.699.101 3.098 1.099 1.898 1.899 2 .899 1.499-.5 2.697-2.697 1.699-2.898 2.099-1.1 1.699-.4 1.898.101 1.999.399.499 2.199-.101 1.299-.398 1.998-.2 1.898.3 2.898 1.999 4.098 3.698 1.797 2.099-1.298-3.099-.699-3.698-.5-3.697.601-2.198.999-1.4 1.099.601.899-.5 1.2.6 1-.6 1.598.5 1.997-1 2.999-2.298h2.098l.601.499 1.198-.499.7 1 2.499-1.9 1.998-.999 1.998.799 2.599.6 1-.899 2.098-.101 2.897-.399 1.4.999 1.397 3.397 1 1.101 1.5.298.799.4 1.398 3.498 1 2.798.5 3.397-.201.899.899-.099 1.4 1.397 1.199.601.999 1.099.298 1.798.801-.099.7-.899 1.399.3 1.199 1.298 1.198.101-2.1-13.891-1.998-1.099-.1-3.197 4.697-1.7.1-1.198-.699-2-.899-1.798-1.799.199 1.398-4.496 3.498 3.597-1.599.201 1.397 5.495 5.998-.999 1.099 1.5-.4 1.298.501.899.298 1.6 1.8 2.297 4.697 10.192 4.496 9.194 1.999-2.098 2.099-.499 2.299-1.6 1.398-.5.999-1.298 2.599-.101 3.896 3.498.601-.899 3.696-.201 1.199 2.398.201 1 1.499-.6 4.097.898 2.498 2 1.897.798.501 1.001 1.099-1.3.8.101 1.3.3 4.096-.3 2.1-4.198s1.897-3.896 2.799-4.896c.898-.999 4.596-4.996 4.596-4.996l4.496-2.999 3.397-1.898 3.198-.4 2.999-.1-.1-2.698-1.199-2.598-2.999-3.896-.6-3.098v-1.9l2.599-1.699 3.098-2.498.101-2.599-.899-3.198-1.8-2.697-.6-.5-1-.199-1.398.898-2.798 3.897-3.098 3.099-3.797 2.299-4.397.499-6.994-1.099-4.896-1.5-6.097-2.298-6.396-2.998-3.497-.701-5.297-2.597-1.998-.101-.101.9 1.598 1.598-.398 2.799-1.399 1.498-2.598.101s.3.201-1.199.6c-1.5.4-2.798 0-2.798 0l-2.498-1.499-2.399-.4h-4.796l-5.296.501-5.997.499-2.997 2.599-2.599.4-2.798-.7-2.897-3.397.1-1.898 2.098-2.599-1.099-.1-6.596 2.399-4.098 2.297-2.197 1.4-1.599-.101-2.1 1.899-2.598.2-1.5 1.598-.499-.199-4.196 1.099-3.798.699s-4.797.7-5.296.7c-.501 0-5.096-.6-5.096-.6l-3.399-1.699-1.598-1.798-1.5-1-1.998-2.097.101-1.6z" fill="#64b4d1" stroke-width=".3804"/><path d="m705.438 299.461.533 2.675 1.784 3.21 3.386 2.94-2.852-2.05 2.139 2.853-3.653-2.317 3.564 2.317-3.744-5.349z" fill="none" stroke-width=".3804"/><path d="m701.071 311.314-1.337 1.426-2.318-.356.089 2.942 3.208 4.725-3.208-4.456.09-3.029 2.229.175z" fill="#fffcfc" stroke-width=".3804"/><path d="m697.238 319.516-.713-2.051v-2.316z" fill="#fffcfc" stroke-width=".3804"/><path d="m742.248 312.297.445 2.585 1.782 3.117 1.158 1.517z" fill="#666" stroke-width=".3804"/><path d="m748.398 319.604-1.695-.532-1.515-1.429-2.139-3.83 2.228 2.852z" fill="#808080" stroke-width=".3804"/><path d="m739.396 308.107-1.069 1.068-1.782.447s-1.782-.178-2.139-.447c-.356-.266-2.318-1.425-2.318-1.425l2.318 1.247h4.099z" fill="#666" stroke-width=".3804"/><path d="m733.514 309.176.268 7.576.713 2.942 1.067 2.139 1.428 2.229.356-.891 1.515 1.069.447-.447-1.517-1.514-1.515-2.051-.893-2.139-.979-3.654-.356-3.921h1.246l-.356-.713z" fill="#666" stroke-width=".1141"/><path d="m767.203 321.12 2.852-.267 2.675-2.229.445-1.517 1.247-.892-.178 2.586.623 1.338 1.693.535 1.069.979 1.873.179 2.673-1.692 1.961-2.051 1.694-1.516 1.247-.535.446-2.495h.802l.178-1.16-.356-2.226-.802-2.14-1.069-1.426-1.783-1.604-.801.357 1.96 1.871 1.604 2.05.089 3.208-.445 1.248-2.407 2.764-3.119 3.386-1.515.713-3.208-.444-1.16-1.516-.267-1.069-.357-1.069v-1.248l.446-.891-3.297 3.742-1.337.088z" fill="#808080" stroke-width=".1141"/><path d="m810.073 297.769.713-.624.802 1.16.18 3.207.088.09v2.139l-1.246 2.318-2.675 2.852-3.119 1.335-2.853.356-1.961-.443-.713-1.16-.445-1.158v-2.673l.535-1.07.178.534-.089 2.942.979 1.159 2.05.622 1.871-.622 2.229-.625 1.871-1.069.09-.624-.713-.089.178-.267h1.069l1.337-2.675.445-2.229v-1.782l-.533-.534-.269-.445v-.625z" fill="#808080" stroke-width=".1902"/><path d="m739.484 339.035-4.457 2.139-4.099 1.247-2.229-.356 4.366 1.604 1.695-1.336 2.673-1.338z" fill="#666" stroke-width=".3804"/><path d="m742.961 348.036 2.406.713 1.158.447 2.496.356-1.872 1.157 2.405.534s-2.315.269-2.672.269-1.605.801-1.605.801-.267 1.429.535 1.338c.804-.09 1.96-.269 2.406-.269s1.872.269 1.872.269l.892.713-.535.804-3.744.088.536.447h3.03l-2.94 1.96 3.563-.091 2.852 1.16v.713l-2.762.625-.624-1.072-3.565.981-.713.892-1.337-.892 1.069-2.316-.089-2.407-.535-1.873-1.247-2.761z" fill="#999" stroke-width=".1521"/><path d="m696.318 235.578-.567 4.255 1.135 2.976.143 4.113-.143-4.537-1.135-2.269z" fill="#fffcfc" stroke-width=".3804"/><path d="m700.431 238.131v5.388l.992 1.276-.282 5.672.85 1.701v9.358" fill="none" stroke-width=".3804"/><path d="m706.243 231.751-1.134 2.126.426 3.829.283 2.694-.425 4.252" fill="none" stroke-width=".3804"/><path d="m709.648 236.146-.144 6.663.426 2.127v3.688l.142 5.672v3.828l-3.262-3.972 3.403 4.255.567 4.111.852 1.561-.567 2.127.142 3.544v3.404 6.663l-3.262-7.94.284 16.448.284-9.499 1.135-1.703 1.843 4.681.283 2.127-.426-7.942" stroke-width=".3804"/><path d="m732.052 242.1-.144 6.523.709 3.544.568 3.828" fill="none" stroke-width=".3804"/><path d="m738.147 251.601 1.276 14.18" fill="#e2d67e" stroke-width=".3804"/><path d="m701.706 272.729.284 8.224.567 3.546.142 3.827" fill="#ddd690" stroke-width=".3804"/><path d="m744.387 287.901v-1.419l6.239-1.419-.993.71.142 4.254" fill="#d38d5f" stroke-width=".3804"/><path d="m761.402 284.355v-1.844l6.239-1.134-1.419.284.284 4.395" fill="#d38d5f" stroke-width=".3804"/><path d="m747.932 298.109v-1.419l5.247-.991-.143 5.246" fill="#d38d5f" stroke-width=".3804"/><path d="m760.409 296.125v-2.27l5.671-.992.284 4.961" fill="#d38d5f" stroke-width=".3804"/><path d="m742.97 307.325 21.976-4.962" fill="#fffcfc" stroke-width=".7607"/><path d="m737.58 293.571 2.271.284 37.432-8.508" fill="#c87137" stroke-width=".7607"/><path d="m739.708 283.931 5.813-.853 32.329-8.507" fill="#c87137" stroke-width=".7227"/><path d="m741.977 277.549v3.545l-1.276.284v-1.702z" fill="#d38d5f" stroke-width=".3804"/><path d="m744.955 276.981.141 3.546h-.993l-.283-3.12z" fill="#d38d5f" stroke-width=".3804"/><path d="m747.221 276.273-.991.566v2.836l1.419-.284z" fill="#d38d5f" stroke-width=".3804"/><path d="m749.917 275.281-.993.851v2.552l1.559-.142z" fill="#d38d5f" stroke-width=".3804"/><path d="m753.036 274.571-1.419.567v2.836l1.562-.283z" fill="#d38d5f" stroke-width=".3804"/><path d="m756.014 273.72-1.276.143v3.545l1.561-.284z" fill="#d38d5f" stroke-width=".3804"/><path d="m759.842 273.012-1.417.566.142 2.41 1.417-.424z" fill="#d38d5f" stroke-width=".3804"/><path d="m763.387 272.02-1.417.709v2.41h1.275z" fill="#d38d5f" stroke-width=".3804"/><path d="m766.223 271.168-1.135.567v2.694h1.419z" fill="#d38d5f" stroke-width=".3804"/><path d="m769.342 270.886-1.135.708v2.126h1.562z" fill="#d38d5f" stroke-width=".3804"/><path d="m772.746 269.75-1.277.568.143 2.126 1.276-.283z" fill="#d38d5f" stroke-width=".3804"/><path d="m776.432 268.899-1.418.709v2.269l1.703-.142z" fill="#d38d5f" stroke-width=".3804"/><path d="m744.812 265.496-.142 3.119 2.269-.565-.284-2.978z" fill="#5db7d2" stroke-width=".3804"/><path d="m747.79 264.646v2.552h.993v-2.694z" fill="#5db7d2" stroke-width=".3804"/><path d="m750.059 264.079v2.836l1.417-.426-.142-2.552z" fill="#5db7d2" stroke-width=".3804"/><path d="m753.036 263.511.143 2.127h1.274l.143-2.552z" fill="#5db7d2" stroke-width=".3804"/><path d="m755.872 262.944v2.27h1.984l-.283-2.554z" fill="#5db7d2" stroke-width=".3804"/><path d="m758.99 262.236v2.127l1.702-.426-.425-2.269z" fill="#5db7d2" stroke-width=".3804"/><path d="m761.402 261.526v2.127l1.275-.284-.282-1.843z" fill="#ccc" stroke-width=".3804"/><path d="m763.528 260.959v1.701h.852v-1.843z" fill="#ccc" stroke-width=".3804"/><path d="m765.373 260.817.141 1.559 1.418-.282-.142-1.844z" fill="#ccc" stroke-width=".3804"/><path d="m768.207 259.683v2.128h.852l.283-2.128z" fill="#ccc" stroke-width=".3804"/><path d="m770.619 259.258v1.844l1.134.142-.284-1.985h-.85z" fill="#ccc" stroke-width=".3804"/><path d="m772.888 258.691v2.126l1.134.142v-1.843z" fill="#ccc" stroke-width=".3804"/><path d="m775.156 257.981-.426 2.41h1.277l-.143-1.843z" fill="#ccc" stroke-width=".3804"/><path d="m776.857 257.981v1.986l1.844-.852-.285-2.128z" fill="#ccc" stroke-width=".3804"/><path d="m779.268 273.296 5.529-.993" fill="none" stroke-width=".989"/><path d="m779.268 284.922 12.194-3.26" fill="#fffcfc" stroke-width="1.1031"/><path d="m719.999 297.968-1.561 1.559.142.568h1.843l.569-1.277z" fill="#ddd690" stroke-width=".3804"/><path d="m718.154 295.84.284 1.702 1.276-.142.708-1.275-.141-.993-1.276.284z" fill="#ddd690" stroke-width=".3804"/><path d="m721.273 295.132.426 1.134h2.411v-.85l-.992-.426z" fill="#ddd690" stroke-width=".3804"/><path d="m720.992 293.006.14 1.275h1.703l.85-1.136-.992-.85z" fill="#ddd690" stroke-width=".3804"/><path d="m717.587 293.43-.284.852.852.425 1.845-.425v-.71z" fill="#ddd690" stroke-width=".3804"/><path d="m717.587 291.303v.993l1.844.142.568-.851-.71-.567z" fill="#ddd690" stroke-width=".3804"/><path d="m721.273 290.453-.281.85 1.7.426.85-.709-1.274-.852z" fill="#ddd690" stroke-width=".3804"/><path d="m717.73 288.184-.284 1.276 1.134.142.993-.709.142-.991-1.135-.144z" fill="#ddd690" stroke-width=".3804"/><path d="m720.849 287.617v1.275l1.844.424v-1.843l-.851-.282z" fill="#ddd690" stroke-width=".3804"/><path d="m719.147 285.489h-1.701l-.144 1.984 1.986-.85z" fill="#ddd690" stroke-width=".3804"/><path d="m720.564 284.922-.708 1.418h1.985l.851-1.842-1.135-.284z" fill="#ddd690" stroke-width=".3804"/><path d="m720.139 282.512.144 1.135 1.844-.284-.711-1.417z" fill="#ddd690" stroke-width=".3804"/><path d="m718.296 282.938-1.275-.284.143 1.561 1.843-.283z" fill="#ddd690" stroke-width=".3804"/><path d="m717.021 280.385-.142 1.419h2.269l-.426-1.419z" fill="#ddd690" stroke-width=".3804"/><path d="m719.715 279.676v1.702h2.127l-.427-1.702z" fill="#ddd690" stroke-width=".3804"/><path d="m718.58 278.4-1.417 1.7-.568-1.417.992-1.702z" fill="#ddd690" stroke-width=".3804"/><path d="m719.856 277.123-.283 1.419h1.842v-1.419l-.707-.425z" fill="#ddd690" stroke-width=".3804"/><path d="m717.587 275.423h-.992l-.142 1.135h1.701z" fill="#ddd690" stroke-width=".3804"/><path d="m719.573 274.997-.284 1.276h1.419v-1.276z" fill="#e2d67e" stroke-width=".3804"/><path d="m719.147 272.444-.283 1.275h1.984l.144-1.133z" fill="#e2d67e" stroke-width=".3804"/><path d="m716.879 273.012-.284 1.843 1.701-.707v-.993z" fill="#e2d67e" stroke-width=".3804"/><path d="m716.737 270.46-.567 1.134.851.426.71-.993-.284-.85z" fill="#e2d67e" stroke-width=".3804"/><path d="m719.078 269.504-.448.94.735 1.267 1.022-.246.043-1.431-1.147-.573z" fill="#e2d67e" stroke-width=".3804"/><path d="m716.667 268.07-.37 1.023.737.654s.612-.244.612-.451c0-.203.205-.858.205-.858l-.817-.491z" fill="#e2d67e" stroke-width=".3804"/><path d="m718.63 267.539-.246 1.146.573.368 1.022.082s.041-.778.041-1.064c0-.285-.737-.613-.737-.613z" fill="#e2d67e" stroke-width=".3804"/><path d="m716.462 265.984-.083 1.145.86.205s.45-.448.45-.612c0-.163-.41-.9-.41-.9z" fill="#e2d67e" stroke-width=".3804"/><path d="m718.384 265.657-.164.941s.328.449.737.449c.408 0 .572-.408.572-.571 0-.165-.164-.86-.164-.86z" fill="#e2d67e" stroke-width=".3804"/><path d="m716.379 264.389-.285.942.817.367.614-.818-.655-.448z" fill="#e2d67e" stroke-width=".3804"/><path d="m718.302 263.817-.122.858s.571.409.777.286c.205-.122.449-.653.449-.653l-.737-.491z" fill="#e2d67e" stroke-width=".3804"/><path d="m715.807 261.976-.204 1.063s.612.573.776.492c.165-.083 1.023-.328 1.023-.328l-.45-1.063s-.531-.123-.694-.123c-.164 0-.492 0-.451-.041z" fill="#e2d67e" stroke-width=".3804"/><path d="m717.934 261.444-.244 1.022 1.389.246s.205-1.146-.08-1.146c-.289.001-.984-.081-1.065-.122z" fill="#e2d67e" stroke-width=".3804"/><path d="m715.93 260.054-.245.614.694.531.573-.326-.369-.778z" fill="#e2d67e" stroke-width=".3804"/><path d="m718.015 259.645-.53.819.858.366.735-.571z" fill="#e2d67e" stroke-width=".3804"/><path d="m715.971 257.846-.368.614.409.653.655-.532z" fill="#e2d67e" stroke-width=".3804"/><path d="m717.443 257.437-.327.45.491.653.817-.449.082-.368-.368-.45z" fill="#e2d67e" stroke-width=".3804"/><path d="m715.766 256.168-.368.858.817.45.452-.571-.288-.655z" fill="#e2d67e" stroke-width=".3804"/><path d="m717.32 255.35-.45.574.614.613.776-.451-.53-.654z" fill="#e2d67e" stroke-width=".3804"/><path d="m715.766 254.736h-.327v.695l.94-.082-.164-.695z" fill="#e2d67e" stroke-width=".3804"/><path d="m717.034 253.918-.041.777.858-.123-.041-.694z" fill="#e2d67e" stroke-width=".3804"/><path d="m715.562 253.306-.285.408.489.655.492-.451s.163-.612 0-.612c-.164 0-.615 0-.696 0z" fill="#e2d67e" stroke-width=".3804"/><path d="m715.643 251.956-.366.327.448.449.572-.285z" fill="#e2d67e" stroke-width=".3804"/><path d="m715.766 250.934-.45.653h.778z" fill="#e2d67e" stroke-width=".3804"/><path d="m716.788 251.301.082.655h.655z" fill="#e2d67e" stroke-width=".3804"/><path d="m716.829 252.365s-.162.858 0 .858c.164 0 .614-.123.614-.123z" fill="#e2d67e" stroke-width=".3804"/><path d="m738.589 272.12-.898 1.227.081 1.269 1.187 1.104 1.104-1.555z" fill="#d3c55f" stroke-width=".3804"/><path d="m740.185 270.36-1.104 1.597 1.063 1.677 1.104-.694s.164-1.393-.041-1.639c-.205-.244-1.063-.982-1.022-.941z" fill="#d3c75f" stroke-width=".3804"/><path d="m738.139 268.111s-.49.736-.49.901c0 .163.287 1.348.287 1.348l.695.901s.775-.246.857-.492c.082-.243.369-1.186.369-1.186l-.94-1.228z" fill="#e2d67e" stroke-width=".3804"/><path d="m736.422 269.87-.205.408s-.121.983.123 1.146c.245.164.981.942.981.942s.653-.409.653-.614-.49-1.474-.49-1.474l-.571-.571z" fill="#d3c95f" stroke-width=".3804"/><path d="m734.744 267.048-.326.776.408 1.064.778.777s.858-.162.858-.328c0-.162 0-1.145 0-1.145l-.533-.899-.899-.408z" fill="#e2d67e" stroke-width=".3804"/><path d="m736.585 266.312-.204.613s.082.86.245.94c.164.082.818.41.818.41l.571-.941-.571-1.186z" fill="#e2d67e" stroke-width=".3804"/><path d="m735.687 264.35-.41.899.246.653.573.287s.653-.327.653-.491 0-.858 0-.858l-.735-.451z" fill="#e2d67e" stroke-width=".3804"/><path d="m733.804 265.003-.531.695.205.86.899.286.613-.737-.492-.981z" fill="#e2d67e" stroke-width=".3804"/><path d="m733.107 263.162-.448.409v.532l.695.533.653-.328-.163-.737-.326-.491z" fill="#e2d67e" stroke-width=".3804"/><path d="m734.908 262.631-.287.654.409.859.656-.368-.125-.737z" fill="#e2d67e" stroke-width=".3804"/><path d="m733.681 260.873-.162 1.472 1.021-.164.246-.776-.367-.574z" fill="#e2d67e" stroke-width=".3804"/><path d="m732.617 261.199c-.163.04-.735.082-.735.082l.164 1.471.653-.08.246-.532-.082-.654z" fill="#e2d67e" stroke-width=".3804"/><path d="m731.391 259.727-.49.614.49.817.45-.082.285-.612z" fill="#e2d67e" stroke-width=".3804"/><path d="m732.984 259.316-.408.451.328.491.409.041.408-.492-.367-.448z" fill="#e2d67e" stroke-width=".3804"/><path d="m730.368 258.255-.287.776.778.205.203-.491-.244-.451z" fill="#e2d67e" stroke-width=".3804"/><path d="m731.718 257.846-.081.899.858-.082-.082-.735z" fill="#e2d67e" stroke-width=".3804"/><path d="m729.387 256.823.041.776h.858s.287-.899-.082-.858c-.368.041-.735.121-.817.082z" fill="#e2d67e" stroke-width=".3804"/><path d="m731.023 256.454v.777l.899-.123-.204-.694z" fill="#e2d67e" stroke-width=".3804"/><path d="m729.836 255.637h-.899l.123.777.817-.082z" fill="#e2d67e" stroke-width=".3804"/><path d="m730.409 255.104-.123.737.942-.041v-.696z" fill="#e2d67e" stroke-width=".3804"/><path d="m729.51 253.918-.041.859s1.022.163 1.022 0c0-.164-.205-.736-.205-.736z" fill="#e2d67e" stroke-width=".3804"/><path d="m728.937 254h-.818l.083.94h.981l.122-.653z" fill="#e2d67e" stroke-width=".3804"/><path d="m727.015 251.219-.41.409 1.269 2.004h.776l-.735-1.022s.122-.49-.082-.571c-.203-.082-.367-.082-.367-.082z" fill="#e2d67e" stroke-width=".3804"/><path d="m727.177 250.442-.285.368 1.514 1.022v.858l.695.655.571.162-.203-.694-.286-.776-.574-.451-.407-.735s-.205-.041-.369-.082c-.162-.041-.326-.287-.326-.287z" fill="#e2d67e" stroke-width=".3804"/></g><path d="m730.018 393.42c-.682-12.404 10.536-24.81-19.661-37.217" fill="none" stroke="#4dcf4a" stroke-width=".7607"/><path d="m758.81 386.398c0-16.385-9.363-23.406-28.089-21.066" fill="none" stroke="#38bb26" stroke-width=".9509"/><path d="m768.64 393.42c-9.896-11.915-23.114-10.535-38.622 0" fill="none" stroke="#51c757" stroke-width=".7607"/><path d="m793.217 377.972c-3.759-7.005-17.478-2.391-32.301 3.514" fill="none" stroke="#51c757" stroke-width=".7607"/><path d="m843.074 355.502c-3.745-10.767-10.298-16.854-19.662-18.258" fill="none" stroke="#7acb73" stroke-width=".6847"/><path d="m855.715 338.647c-2.484-5.562-5.084-10.896-11.235-9.129" fill="none" stroke="#4cb135" stroke-width=".9509"/><path d="m704.738 382.888c3.271-11.23-.277-15.641-6.319-17.556" fill="none" stroke="#60c85a" stroke-width="1.065"/><path d="m651.371 341.456c6.25-2.713 11.241-7.943 20.363-4.913" fill="none" stroke="#71ce5b" stroke-width=".989"/><path d="m643.646 334.436c5.104.107 8.668 2.099 9.83 7.021" fill="none" stroke="#71ce5b" stroke-width=".989"/></svg>