<svg height="600" viewBox="0 0 45 30" width="900" xmlns="http://www.w3.org/2000/svg" xmlns:xlink="http://www.w3.org/1999/xlink"><path d="m0 0h45v30h-45z" fill="#ed0000"/><path d="m0 9h45m-45 12h45" stroke="#fff" stroke-width="6"/><path d="m0 0 25.98076 15-25.98076 15z" fill="#0050f0"/><g fill="#fff" transform="matrix(5 0 0 5 8.660254 15)"><g id="a"><path id="b" d="m0 0v1h.5z" transform="matrix(.95105652 .30901699 -.30901699 .95105652 0 -1)"/><use transform="scale(-1 1)" xlink:href="#b"/></g><use transform="matrix(.30901699 .95105652 -.95105652 .30901699 0 0)" xlink:href="#a"/><use transform="matrix(.30901699 -.95105652 .95105652 .30901699 0 0)" xlink:href="#a"/><use transform="matrix(-.80901699 .58778525 -.58778525 -.80901699 0 0)" xlink:href="#a"/><use transform="matrix(-.80901699 -.58778525 .58778525 -.80901699 0 0)" xlink:href="#a"/></g></svg>