<svg height="500" viewBox="0 0 1000 500" width="1000" xmlns="http://www.w3.org/2000/svg"><path d="m0 0h999.99994v499.99997h-999.99994z" fill="#00247d" stroke-width="1pt"/><g transform="scale(8.333333)"><path d="m0 0v3.3541l53.2918 26.6459h6.7082v-3.3541l-53.2918-26.6459zm60 0v3.35405l-53.2918 26.64595h-6.7082v-3.3542l53.2918-26.6458z" fill="#fff"/><path d="m25 0v30h10v-30zm-25 10v10h60v-10z" fill="#fff"/><g fill="#cf142b"><path d="m0 12v6h60v-6zm27-12v30h6v-30z"/><path d="m0 30 20-10h4.4721l-19.99996 10zm0-30 20 10h-4.4721l-15.5279-7.76393zm35.5279 10 20-10h4.4721l-20 10zm24.4721 20-20-10h4.4721l15.5279 7.7639z"/></g></g><g transform="matrix(1.461856 0 0 1.393699 16.13691 -118.1066)"><path d="m433.93393 176.84741c0 88.98805 6.76834 120.58715 29.98834 144.98515s32.01748 28.24098 38.49166 31.97885c7.46851-4.31195 16.07381-9.0491 37.119-31.12348 20.81503-21.83296 30.881-53.30459 30.881-147.36012-15.14 6.7992-22.68 9.0392-35.92 8.9996-9.806 1.0078-24.934-5.5834-33.98-9.8948-5.912 3.9478-14.488 8.6558-29.9 9.1844-17.8.783-23.44-2.2334-36.68-6.7696z" fill="#cc3"/><path d="m438.03393 182.46761c0 27.5307-1.55159 65.05123 3.994 86.7598 5.56941 21.8018 6.848 24.99544 11.036 32.604l97.596-.76c6.02885-10.95295 6.33314-17.73739 10.804-35.23885 4.45479-17.43855 5.58-56.31115 5.71-85.26455-9.814 5.2166-22.666 8.9136-35.14 7.2916-10-.7626-19.24-3.045-30-9.1266-9.334 5.5922-12.588 8.1448-28 8.7978-12 .5918-21.72 1.5636-36-5.0632z" fill="#fff"/><path d="m453.27393 301.22741c6.946 14.618 39.69414 42.63425 49.27124 48.434 10.92676-6.61708 39.81676-34.302 47.86876-48.434z" fill="#9cf"/><g transform="matrix(2 0 0 2 -37.58607 49.22741)"><path d="m271 87c1.543 3.6293 6.49 7.637 7.85 9.6011-1.731 1.964-2.077 1.7501-1.85 5.3989 3.01-3.1493 3.064-3.4776 5-3 4.241 4.232.759 13.321-2.746 15.297-3.504 2.108-2.868-.073-8.12 2.569 2.408 2.059 5.198-.302 7.478.329 1.239 1.47-.589 4.149.374 6.672 2.015-.194 1.773-4.262 2.242-5.737 1.472-5.404 10.322-9.173 10.772-14.13 1.866-.876 3.731-.274 6 1-1.13-4.644-4.868-4.594-5.87-6.0444-2.385-3.6446-4.499-7.8024-9.593-8.881-3.867-.8188-3.578.2463-6.056-1.444-1.543-1.2014-6.231-3.4734-5.481-1.6306z" fill="#f90"/><path d="m267.04489 122.10443c0 .44513-.36084.80597-.80597.80597-.44512 0-.80597-.36084-.80597-.80597 0-.44512.36085-.80597.80597-.80597.44513 0 .80597.36085.80597.80597z" fill="#fff" fill-rule="evenodd" transform="translate(15.07813 -30.97657)"/></g><g transform="matrix(-.934314 -1.768338 1.768338 -.934314 579.0375 814.5258)"><path d="m271 87c1.543 3.6293 6.49 7.637 7.85 9.6011-1.731 1.964-2.077 1.7501-1.85 5.3989 3.01-3.1493 3.064-3.4776 5-3 4.241 4.232.759 13.321-2.746 15.297-3.504 2.108-2.868-.073-8.12 2.569 2.408 2.059 5.198-.302 7.478.329 1.239 1.47-.589 4.149.374 6.672 2.015-.194 1.773-4.262 2.242-5.737 1.472-5.404 10.322-9.173 10.772-14.13 1.866-.876 3.731-.274 6 1-1.13-4.644-4.868-4.594-5.87-6.0444-2.385-3.6446-4.499-7.8024-9.593-8.881-3.867-.8188-3.578.2463-6.056-1.444-1.543-1.2014-6.231-3.4734-5.481-1.6306z" fill="#f90"/><path d="m267.04489 122.10443c0 .44513-.36084.80597-.80597.80597-.44512 0-.80597-.36084-.80597-.80597 0-.44512.36085-.80597.80597-.80597.44513 0 .80597.36085.80597.80597z" fill="#fff" fill-rule="evenodd" transform="translate(15.07813 -30.97657)"/></g><g transform="matrix(-1.030072 1.714332 -1.714332 -1.030072 948.4105 -116.6442)"><path d="m271 87c1.543 3.6293 6.49 7.637 7.85 9.6011-1.731 1.964-2.077 1.7501-1.85 5.3989 3.01-3.1493 3.064-3.4776 5-3 4.241 4.232.759 13.321-2.746 15.297-3.504 2.108-2.868-.073-8.12 2.569 2.408 2.059 5.198-.302 7.478.329 1.239 1.47-.589 4.149.374 6.672 2.015-.194 1.773-4.262 2.242-5.737 1.472-5.404 10.322-9.173 10.772-14.13 1.866-.876 3.731-.274 6 1-1.13-4.644-4.868-4.594-5.87-6.0444-2.385-3.6446-4.499-7.8024-9.593-8.881-3.867-.8188-3.578.2463-6.056-1.444-1.543-1.2014-6.231-3.4734-5.481-1.6306z" fill="#f90"/><path d="m267.04489 122.10443c0 .44513-.36084.80597-.80597.80597-.44512 0-.80597-.36084-.80597-.80597 0-.44512.36085-.80597.80597-.80597.44513 0 .80597.36085.80597.80597z" fill="#fff" fill-rule="evenodd" transform="translate(15.07813 -30.97657)"/></g></g></svg>