<svg height="504" viewBox="0 0 252 126" width="1008" xmlns="http://www.w3.org/2000/svg" xmlns:xlink="http://www.w3.org/1999/xlink"><path d="m0 0h252v126h-252z" fill="#319208"/><path d="m0 18h252v90h-252z" fill="#ffd200"/><path d="m0 36h252v54h-252z" fill="#de2010"/><path d="m0 54h252v18h-252z"/><path d="m4.58257569 0 84 63-84 63h-4.58257569v-126z"/><path d="m0 0 84 63-84 63" fill="#fff"/><g fill="#de2010" transform="matrix(32 0 0 32 34 63)"><path id="a" d="m0 0v1h.75z" transform="matrix(.89673608 .44256571 -.44256571 .89673608 0 -1)"/><use id="b" transform="scale(-1 1)" xlink:href="#a"/><path id="c" d="m0 0v1h.75z" transform="matrix(.94217472 .33512206 -.33512206 .94217472 0 -1)"/><use id="d" transform="scale(-1 1)" xlink:href="#c"/><use transform="matrix(.30901699 .95105652 -.95105652 .30901699 0 0)" xlink:href="#a"/><use transform="matrix(.30901699 -.95105652 .95105652 .30901699 0 0)" xlink:href="#b"/><use transform="matrix(.30901699 .95105652 -.95105652 .30901699 0 0)" xlink:href="#c"/><use transform="matrix(.30901699 -.95105652 .95105652 .30901699 0 0)" xlink:href="#d"/></g><g fill="#de2010" transform="matrix(27.5 0 0 27.5 34 63)"><g id="e"><path id="f" d="m0 0v1h.5z" transform="matrix(.91194245 .41031813 -.41031813 .91194245 0 -1)"/><use transform="scale(-1 1)" xlink:href="#f"/></g><use transform="matrix(-.80901699 .58778525 -.58778525 -.80901699 0 0)" xlink:href="#e"/><use transform="matrix(-.80901699 -.58778525 .58778525 -.80901699 0 0)" xlink:href="#e"/></g><path d="m28.63541 55.109321c1.976151 4.30526 2.470343 4.58772 7.410824 6.28162 4.940481 1.69369 18.897601 3.29951 20.273897 3.45831-.899886-.89988-16.621419-12.54545-19.850421-14.87457-3.229003-2.32911-4.128888-3.3878-4.128888-3.3878s-2.911395-5.2405-3.91715-6.7756c-1.005754-1.5351-2.858461-3.70541-5.293445-3.70541-2.434985 0-3.917047 1.42923-4.622874 3.97008-.388221.10587-2.470344 1.3765-2.39973 2.68208.599959-.07072 4.375985-1.12941 5.681667 3.1407 1.305785 4.27011 1.376295 11.25725.035255 14.71577-1.341041 3.45852-3.42306 6.06967-3.42306 9.10472 0 .42347.282248 1.27042.988075 1.27042.246993 1.34115 2.223247 10.90449 2.223247 10.90449h28.161235l4.472961-17.29197" fill="#ffc618"/><g fill="none" stroke="#000"><g stroke-width=".211738"><path d="m28.63541 55.109321c1.976151 4.30526 2.470343 4.58772 7.410824 6.28162 4.940481 1.69369 18.897601 3.29951 20.273897 3.45831-.899886-.89988-16.621419-12.54545-19.850421-14.87457-3.229003-2.32911-4.128888-3.3878-4.128888-3.3878s-2.911395-5.2405-3.91715-6.7756c-1.005754-1.5351-2.858461-3.70541-5.293445-3.70541-2.434985 0-3.917047 1.42923-4.622874 3.97008-.388221.10587-2.470344 1.3765-2.39973 2.68208.599959-.07072 4.375985-1.12941 5.681667 3.1407 1.305785 4.27011 1.376295 11.25725.035255 14.71577-1.341041 3.45852-3.42306 6.06967-3.42306 9.10472 0 .42347.282248 1.27042.988075 1.27042.246993 1.34115 2.223247 10.90449 2.223247 10.90449h28.161235l4.472961-17.29197"/><path d="m19.38956 70.989641s5.999272-.35276 7.622665-.35276c1.623185 0 16.733905.01862 25.164751 1.96788"/><path d="m21.508178 70.870751s-.601095-.72806-.212978-2.17486c.388118-1.44681 4.622977-5.18778 4.622977-10.48102"/><path d="m25.141736 70.636881s-.493986-2.36447 4.905329-4.37598c1.517522-.45883 5.857942-2.89381 5.999169-4.86996"/><path d="m29.473056 66.485261s13.243334.05789 23.724149 2.17527"/><path d="m32.792626 64.905291s4.550502.1557 5.291585-.05604c.741082-.21174 2.052866-.76217 2.574765-2.31319"/><path d="m35.490423 64.959261s2.434159-1.26547 2.910981-2.91098"/><path d="m28.141424 81.894131s-1.041113-7.21645-1.25285-11.25725l2.717439 2.59379 2.874796-2.51418 2.471583 2.63783 2.857635-2.42485 2.470963 2.77761 2.829928-2.40665 2.25178 2.61839 2.822278-2.04087 3.355133 3.18868"/><path d="m50.9508 77.345081c-10.080498-1.4437-23.570309-1.35003-23.570309-1.35003"/><path d="m22.693931 51.052191s8.199879-3.91839 9.646891-4.46531"/></g><g transform="matrix(.211738 0 0 .211738 16 36)"><path d="m52.4873047 177.0859375 13.0175781 11.8515625 11.7617188-11.7617187 11.8964843 12.2666015 12.8457032-11.3583984 11.8271484 12.4296875 13.3388672-11.0126953 10.8974609 12.727539 13.2695313-10.1445312 13.9472656 12.3193359"/><circle cx="89.425293" cy="154.58398" r="5.166504"/><circle cx="111.23682" cy="156.04688" r="5.166504"/><circle cx="30.049805" cy="16.5" r="4"/></g></g></svg>