<svg height="900" viewBox="0 0 1800 900" width="1800" xmlns="http://www.w3.org/2000/svg" xmlns:xlink="http://www.w3.org/1999/xlink"><defs><g id="a"><g id="b" transform="translate(0 -.324925)"><path d="m0 0v.5l1-.5z"/><path d="m0 0v-.5l1 .5z" transform="matrix(.80901699 -.58778525 .58778525 .80901699 .190983 .587785)"/></g><use height="600" transform="scale(-1 1)" width="1200" xlink:href="#b"/><use height="600" transform="matrix(.30901699 .95105652 -.95105652 .30901699 0 0)" width="1200" xlink:href="#b"/><use height="600" transform="matrix(.30901699 -.95105652 .95105652 .30901699 0 0)" width="1200" xlink:href="#b"/><use height="600" transform="matrix(-.30901699 .95105652 .95105652 .30901699 0 0)" width="1200" xlink:href="#b"/></g></defs><path d="m0 0h1800v900h-1800z" fill="#00247d"/><path d="m329.37609 777.2654c-17.93436-.14984 168.62343-99.43136 324.76914-226.59977 204.64368-166.66618 645.39577-433.5093 774.97087-476.87023 13.5433-4.53215-27.7761 23.07308-33.14 32.01541-138.3415 163.74043-27.925 472.72379 144.9726 628.04829 51.99 39.7632 49.3274 41.85082 145.7074 45.7463v9z" fill="#fed100"/><path d="m318.12503 795.3246s-13.16343 9.4029-13.12495 16.4061c.043 7.7725 14.76557 18.0468 14.76557 18.0468l1338.74505 14.7656 24.6093-16.4062-34.453-21.328z" fill="#fed100"/><g fill="#fff"><use height="600" transform="matrix(45 0 0 45 342.9565 112.5812)" width="1200" xlink:href="#a"/><use height="600" transform="matrix(37.5 .00000117 -.00000117 37.5 521.20459 267.53)" width="1200" xlink:href="#a"/><use height="600" transform="matrix(45 .00000149 -.00000149 45 135.00004 321.8075)" width="1200" xlink:href="#a"/><use height="600" transform="matrix(52.5 0 0 52.5 342.9565 652.5812)" width="1200" xlink:href="#a"/></g></svg>