<svg fill-rule="evenodd" height="354" viewBox="0 0 1498.6001 999.06664" width="531" xmlns="http://www.w3.org/2000/svg"><path d="m517.01311 916.64463c8.27527 0 14.986 6.71073 14.986 14.986v14.984c0 8.27527-6.71073 14.986-14.986 14.986h-14.986v-44.956zm0 59.942c16.55053 0 29.972-13.42146 29.972-29.972v-14.984c0-16.55053-13.42147-29.97199-29.972-29.97199h-29.972v74.92799zm-59.94402-74.92799h14.98601v74.92799h-14.98601zm-29.97199 0h14.98601v74.92799h-14.98601l-29.972-47.04205v47.04205h-14.98601v-74.92799h14.98601l29.972 47.04204zm-224.79002.001h44.958v14.98599h-29.972v14.985h29.972v14.986h-29.972v14.985h29.972v14.98599h-44.958zm-59.94402-.002h14.98601v59.94399h29.972v14.98599h-44.95801zm157.35702 59.94399h14.982c12.41241 0 22.47901-10.0666 22.47901-22.479s-10.25342-22.43603-22.47901-22.47899h-14.982v14.98599h14.982c4.13714 0 7.493 3.35587 7.493 7.493 0 4.13714-3.35586 7.493-7.493 7.493h-14.982zm14.982-74.92999c28.96296 0 52.451 23.48805 52.451 52.45099s-23.48804 52.45099-52.451 52.45099c-28.96294 0-52.45099-23.48805-52.45099-52.45099s23.48805-52.45099 52.45099-52.45099zm0 14.986c20.68769 0 37.46502 16.77732 37.46502 37.46499s-16.77733 37.46499-37.46502 37.46499c-20.68767 0-37.465-16.77732-37.465-37.46499s16.77733-37.46499 37.465-37.46499z" fill="#a90000"/><path d="m0-.000047h1498.6001v999.06647h-1498.6001z" fill="#28ae66"/><path d="m179.82808.000198h269.74805v999.06647h-269.74805z" fill="#ca3745"/><g transform="matrix(.99906677 0 0 .99906648 .00005 .000134)"><g fill="#fff"><path d="m744.702 110.904c44.333 19.034 75.394 63.085 75.394 114.38 0 68.707-55.718 124.425-124.424 124.425-30.759 0-58.909-11.174-80.628-29.675 13.436 5.762 28.117 9.243 43.584 9.918 68.641 2.997 126.736-50.237 129.733-118.878 1.74-39.852-15.478-76.146-43.659-100.17z"/><path d="m648.836 121.795-14.098-10.243 5.385-16.572-14.097 10.242-14.098-10.242 5.385 16.572-14.098 10.243h17.426l5.385 16.572 5.384-16.572z"/><path d="m648.836 185.794-14.098-10.242 5.385-16.573-14.097 10.242-14.098-10.242 5.385 16.573-14.098 10.242h17.426l5.385 16.573 5.384-16.573z"/><path d="m648.836 249.794-14.098-10.243 5.385-16.572-14.097 10.242-14.098-10.242 5.385 16.572-14.098 10.243h17.426l5.385 16.573 5.384-16.573z"/><path d="m585.609 216.998-14.098-10.242 5.385-16.573-14.098 10.243-14.097-10.243 5.385 16.573-14.098 10.242h17.426l5.384 16.573 5.385-16.573z"/><path d="m666.443 154.59 14.098-10.243-5.385-16.572 14.097 10.242 14.098-10.242-5.385 16.572 14.098 10.243h-17.426l-5.385 16.573-5.384-16.573z"/></g><g fill-rule="nonzero"><path d="m281.634 163.9-31.079-17.481h-16.334l-20.445-12.312v-16.875l-21.635-13.267v-31.892l21.635-13.267v-16.875l20.445-12.312h16.334l31.079-17.481h66.722l31.08 17.481h16.334l20.445 12.312v16.875l21.635 13.267-.001 31.892-21.634 13.267v16.875l-20.445 12.312h-16.334l-31.08 17.481z" fill="#383739"/><path d="m348.168 163.187 31.08-17.481h16.323l19.929-12.002v-16.87l21.635-13.267.001-31.096-21.636-13.266v-16.871l-19.929-12.002h-16.322l-31.08-17.481h-66.347l-31.08 17.481h-16.322l-19.93 12.002v16.871l-21.635 13.266v31.096l21.635 13.267v16.87l19.929 12.002h16.323l31.08 17.481z" fill="#28ae66"/><path d="m283.607 156.723-31.08-17.481h-16.215l-15.173-9.137v-16.838l-21.635-13.266.001-23.963 21.634-13.267v-16.837l15.173-9.138h16.215l31.08-17.481h62.777l31.08 17.481h16.215l15.173 9.138v16.837l21.634 13.267v23.963l-21.635 13.266v16.838l-15.172 9.137h-16.216l-31.079 17.481z" fill="#383739"/><path d="m393.48 138.529 14.657-8.827v-16.833l21.635-13.267v-11.226h-114.419v67.634h30.843l31.08-17.481z" fill="#faae29"/><path d="m221.853 46.336v16.834l-21.634 13.266v11.226h114.419v-67.634h-30.843l-31.081 17.481h-16.203z" fill="#faae29"/><path d="m221.853 129.702 14.657 8.827h16.204l31.08 17.481h30.844v-67.634h-114.419l-.001 11.226 21.635 13.267z" fill="#fff"/><path d="m408.137 63.17v-16.834l-14.657-8.827h-16.204l-31.08-17.481h-30.843v67.634h114.419v-11.226z" fill="#fff"/><path d="m366.861 63.46-4.121-4.352 12.525-11.815v-8.02l7.308 4.528 5.326-4.964 5.277 3.254-5.335 4.974 6.85 4.244h-14.948z" fill="#383739"/><path d="m387.988 39.73-4.786 4.461 4.01 2.484 4.792-4.468zm-12.009.825v7.045l-12.229 11.536 3.14 3.316 12.569-11.857h12.726z" fill="#ca3745"/><path d="m341.653 61.279-4.121-4.352 12.525-11.815v-8.02l7.308 4.528 5.326-4.964 5.276 3.254-5.334 4.974 6.85 4.244h-14.949z" fill="#383739"/><path d="m362.779 37.549-4.785 4.461 4.01 2.484 4.792-4.468zm-12.008.825v7.045l-12.229 11.536 3.139 3.316 12.57-11.856h12.726z" fill="#ca3745"/><path d="m368.71 77.719-4.121-4.352 12.524-11.815v-8.02l7.309 4.528 5.326-4.964 5.276 3.254-5.334 4.974 6.849 4.244h-14.948z" fill="#383739"/><path d="m389.836 53.989-4.786 4.461 4.011 2.484 4.792-4.468zm-12.008.825v7.045l-12.229 11.536 3.139 3.316 12.569-11.856h12.727z" fill="#ca3745"/><path d="m366.861 112.578-4.121 4.352 12.525 11.815v8.02l7.308-4.528 5.326 4.964 5.277-3.254-5.335-4.974 6.85-4.244h-14.948z" fill="#383739"/><path d="m387.988 136.308-4.786-4.461 4.01-2.484 4.792 4.468zm-12.009-.825v-7.045l-12.229-11.536 3.14-3.316 12.569 11.856h12.726z" fill="#ca3745"/><path d="m341.653 114.758-4.121 4.353 12.525 11.815v8.019l7.308-4.528 5.326 4.965 5.276-3.254-5.334-4.974 6.85-4.244h-14.949z" fill="#383739"/><path d="m362.779 138.489-4.785-4.461 4.01-2.485 4.792 4.468zm-12.008-.825v-7.045l-12.229-11.536 3.139-3.316 12.57 11.856h12.726z" fill="#ca3745"/><path d="m368.71 98.319-4.121 4.352 12.524 11.815v8.019l7.309-4.527 5.326 4.964 5.276-3.254-5.334-4.974 6.849-4.244h-14.948z" fill="#383739"/><path d="m389.836 122.049-4.786-4.461 4.011-2.485 4.792 4.469zm-12.008-.825v-7.045l-12.229-11.536 3.139-3.316 12.569 11.856h12.727z" fill="#ca3745"/><path d="m263.126 112.578 4.121 4.352-12.525 11.815v8.02l-7.308-4.528-5.326 4.964-5.276-3.254 5.334-4.974-6.849-4.244h14.948z" fill="#383739"/><path d="m242 136.308 4.785-4.461-4.01-2.484-4.792 4.468zm12.008-.825v-7.045l12.229-11.536-3.139-3.316-12.569 11.856h-12.727z" fill="#ca3745"/><path d="m288.334 114.758 4.122 4.353-12.525 11.815v8.019l-7.309-4.528-5.326 4.965-5.276-3.254 5.334-4.974-6.849-4.244h14.948z" fill="#383739"/><path d="m267.208 138.489 4.786-4.461-4.011-2.485-4.792 4.468zm12.008-.825v-7.045l12.229-11.536-3.139-3.316-12.569 11.856h-12.727z" fill="#ca3745"/><path d="m261.278 98.319 4.121 4.352-12.525 11.815v8.019l-7.309-4.527-5.325 4.964-5.277-3.254 5.335-4.974-6.85-4.244h14.948z" fill="#383739"/><path d="m240.151 122.049 4.786-4.461-4.011-2.485-4.792 4.469zm12.009-.825v-7.045l12.229-11.536-3.14-3.316-12.569 11.856h-12.726z" fill="#ca3745"/><path d="m263.126 63.46 4.121-4.352-12.525-11.815v-8.02l-7.308 4.528-5.326-4.964-5.277 3.254 5.335 4.974-6.85 4.244h14.948z" fill="#383739"/><path d="m241.999 39.73 4.786 4.461-4.01 2.484-4.793-4.468zm12.009.825v7.045l12.229 11.536-3.14 3.316-12.569-11.857h-12.726z" fill="#ca3745"/><path d="m288.334 61.279 4.121-4.352-12.525-11.815v-8.02l-7.308 4.528-5.326-4.964-5.277 3.254 5.335 4.974-6.85 4.244h14.948z" fill="#383739"/><path d="m267.207 37.549 4.786 4.461-4.01 2.484-4.792-4.468zm12.009.825v7.045l12.229 11.536-3.14 3.316-12.569-11.856h-12.726z" fill="#ca3745"/><path d="m261.277 77.719 4.121-4.352-12.525-11.815v-8.02l-7.308 4.528-5.326-4.964-5.276 3.254 5.334 4.974-6.849 4.244h14.948z" fill="#383739"/><path d="m240.151 53.989 4.785 4.461-4.01 2.484-4.792-4.468zm12.008.825v7.045l12.229 11.536-3.139 3.316-12.569-11.856h-12.727z" fill="#ca3745"/><g fill="#383739"><path d="m357.097 37.171 2.371-5.777-10.168-5.277h-13.759l-7.058-6.802h-26.977l-7.058 6.802h-13.759l-10.167 5.277 2.371 5.777 9.067-4.762h3.971l13.902 16.078 15.162-9.233 15.161 9.233 13.903-16.078h3.97z"/><path d="m357.097 138.867 2.371 5.777-10.168 5.277h-13.759l-7.058 6.802h-26.977l-7.058-6.802h-13.759l-10.167-5.277 2.371-5.777 9.067 4.762h3.971l13.902-16.078 15.162 9.233 15.161-9.233 13.903 16.078h3.97z"/><path d="m243.027 75.595h-6.969l-1.56-1.866v-4.945l3.925-2.599-6.431-2.403-.154.107-8.304 5.762v1.549l-13.3 16.819 13.3 16.819v1.55l8.458 5.868 6.431-2.403-3.925-2.599v-4.945l1.56-1.866h6.969z"/></g><path d="m224.248 106.015.001-1.425-13.105-16.571 13.105-16.572-.001-1.424 7.844-5.442 4.77 1.782-3.078 2.038v5.587l1.94 2.32h6.588v23.422h-6.588l-1.94 2.32v5.587l3.078 2.038-4.77 1.782z" fill="#ca3745"/><path d="m386.961 75.595h6.968l1.56-1.866v-4.945l-3.925-2.599 6.432-2.403.154.107 8.304 5.762-.001 1.549 13.301 16.819-13.301 16.819.001 1.55-8.458 5.868-6.432-2.403 3.925-2.599v-4.945l-1.56-1.866h-6.968z" fill="#383739"/><path d="m405.739 106.015v-1.425l13.105-16.571-13.105-16.572v-1.424l-7.844-5.442-4.77 1.782 3.079 2.038v5.587l-1.941 2.32h-6.587v23.422h6.587l1.941 2.32v5.587l-3.079 2.038 4.77 1.782z" fill="#ca3745"/><path d="m314.637 20.028v18.609l-14.659 8.927-13.72-15.868h-4.475l-8.528 4.478-1.825-4.448 9.434-4.896h13.873l7.058-6.802zm.715 2.025v16.584l14.659 8.927 13.72-15.868h4.475l8.528 4.478 1.825-4.448-9.434-4.896h-13.872l-7.058-6.802h-12.842v2.025z" fill="#ca3745"/><path d="m314.637 156.01v-18.609l-14.659-8.927-13.72 15.868h-4.475l-8.528-4.479-1.825 4.449 9.434 4.896h13.873l7.058 6.802zm.715-2.025v-16.584l14.659-8.927 13.72 15.868h4.475l8.528-4.479 1.825 4.449-9.434 4.896h-13.872l-7.058 6.802h-12.842v-2.025z" fill="#ca3745"/><path d="m247.977 91.246h-12.674l-5.547 5.631 3.754-.029-6.505 5.289-3.621-3.133v-1.51l-7.768-9.475 7.769-9.476v-1.509l3.621-3.133 6.504 5.289-3.754-.029 5.547 5.63h12.675l9.968-7.795v-20.557h24.931l28.954-17.768v-4.66l-4.428-2.951h-1.403l-4.822 3.227-.747 2.407-3.772-5.15 7.331-6.159h1.172l8.273-6.07h3.119l8.272 6.07h1.173l7.331 6.159-3.772 5.15-.747-2.407-4.822-3.227h-1.403l-4.428 2.951v4.66l28.954 17.768h24.931v20.557l9.968 7.795h12.675l5.547-5.63-3.754.029 6.504-5.289 3.621 3.133v1.509l7.769 9.476-7.769 9.475v1.51l-3.621 3.133-6.504-5.289 3.754.029-5.547-5.631h-12.675l-9.968 7.796v20.557h-24.931l-28.954 17.768v4.66l4.428 2.951h1.403l4.822-3.227.747-2.407 3.772 5.149-7.331 6.16h-1.173l-8.272 6.07h-3.119l-8.273-6.07h-1.172l-7.332-6.16 3.773-5.149.747 2.407 4.821 3.227h1.403l4.429-2.951v-4.66l-28.954-17.768h-24.931v-20.557z" fill="#383739"/><path d="m315.352 145.532 3.169 2.423-3.169 2.423zm-10.073 4.407h.117l8.273 6.071h.966v-4.736l-4.34-3.319 4.341-3.319v-8.896l-30.982-19.013h-22.903v-19.104l-11.825-9.248h-17.836l-4.483 5.069-4.483-5.069-5.293.001 7.266 8.862v1.439l2.878 2.5 4.624-3.6-2.714.021v-.9l6.048-6.165h13.29l10.437 8.162v20.191h24.419l29.465 18.082v5.44l-4.926 3.283h-1.837l-5.211-3.488-.401-1.294-2.541 3.468 6.622 5.562zm-78.668-66.267 3.53 3.99h-7.061zm88.026-58.012-3.167 2.423 3.167 2.422zm85.212 62.716 3.53 3.99 3.53-3.99zm-75.257-62.278-8.273-6.07h-.966v4.734l4.342 3.321-4.343 3.321v8.894l30.982 19.013h22.903v19.104l11.825 9.248h17.833l4.484-5.068 4.484 5.067h5.294l-7.266-8.862v-1.439l-2.878-2.5-4.624 3.6 2.714-.022v.901l-6.048 6.164h-13.29l-10.436-8.162v-20.19h-24.42l-29.465-18.082v-5.441l4.926-3.282h1.837l5.211 3.488.401 1.294 2.541-3.468-6.622-5.563z" fill="#faae29"/><path d="m314.637 150.377-3.167-2.422 3.167-2.422zm-84.496-62.001-3.53 3.99-3.53-3.99zm94.568 61.563h-.117l-8.273 6.071h-.966v-1.24-3.494l4.342-3.321-4.343-3.321v-8.894l30.982-19.013h22.903v-19.104l11.825-9.248h17.834l4.483 5.069 4.483-5.069 5.295.001-7.266 8.862v1.439l-2.878 2.5-4.624-3.6 2.714.021v-.9l-6.048-6.165h-13.29l-10.436 8.162v20.191h-24.42l-29.465 18.082v5.44l4.926 3.283h1.837l5.211-3.488.401-1.294 2.541 3.468-6.622 5.562zm78.67-66.267-3.53 3.99h7.061zm-97.981-57.574 8.273-6.07h.967v4.734l-4.343 3.321 4.343 3.321.001 8.894-30.983 19.013h-22.902v19.104l-11.826 9.248h-17.838l-4.483-5.068-4.484 5.067h-5.29l7.267-8.862v-1.439l2.878-2.5 4.623 3.6-2.714-.022v.901l6.049 6.164h13.289l10.437-8.162v-20.19h24.419l29.466-18.082v-5.441l-4.926-3.282h-1.838l-5.211 3.488-.401 1.294-2.54-3.468 6.622-5.563zm9.954 4.408 3.169-2.423-3.169-2.423z" fill="#fff"/><path d="m314.638 41.134-30.781 18.89h-22.391v18.738l-11.38 8.9h64.552z" fill="#28ae66"/><path d="m315.353 134.903 30.779-18.889h22.391v-18.738l11.38-8.9h-64.55z" fill="#28ae66"/><path d="m379.903 87.662-11.38-8.9v-18.738h-22.391l-30.779-18.889v46.527z" fill="#ca3745"/><path d="m250.085 88.376 11.381 8.9v18.738h22.39l30.782 18.89v-46.528z" fill="#ca3745"/><path d="m297.577 84.765 4.121-4.353-12.525-11.815v-8.019l-7.309 4.528-5.325-4.964-5.277 3.253 5.335 4.974-6.85 4.244h14.948z" fill="#383739"/><path d="m276.45 61.034 4.786 4.461-4.011 2.485-4.792-4.468zm12.009.826v7.044l12.229 11.536-3.14 3.317-12.569-11.857h-12.726z" fill="#ca3745"/><path d="m332.41 91.273-4.121 4.352 12.525 11.816v8.019l7.308-4.528 5.326 4.964 5.276-3.254-5.334-4.974 6.85-4.243h-14.949z" fill="#383739"/><path d="m353.536 115.003-4.785-4.461 4.01-2.484 4.792 4.468zm-12.008-.825v-7.044l-12.229-11.536 3.14-3.317 12.569 11.857h12.726z" fill="#ca3745"/><path d="m297.576 91.273 4.121 4.352-12.525 11.816v8.019l-7.308-4.528-5.326 4.964-5.276-3.254 5.334-4.974-6.849-4.243h14.948z" fill="#383739"/><path d="m276.45 115.003 4.785-4.461-4.01-2.484-4.792 4.468zm12.008-.825v-7.044l12.229-11.536-3.139-3.317-12.569 11.857h-12.727z" fill="#28ae66"/><path d="m332.41 84.765-4.121-4.353 12.525-11.815v-8.019l7.308 4.528 5.326-4.964 5.276 3.253-5.334 4.974 6.85 4.244h-14.949z" fill="#383739"/><path d="m353.536 61.034-4.785 4.461 4.01 2.485 4.792-4.468zm-12.008.826v7.044l-12.229 11.536 3.14 3.317 12.569-11.857h12.726z" fill="#28ae66"/><path d="m348.093 88.02-33.098 22.059-33.098-22.059 33.098-22.06z" fill="#383739"/><path d="m314.638 67.055-30.919 20.607h30.919zm.715 20.607h30.919l-30.919-20.607zm-31.635.714 30.92 20.607v-20.607zm31.635 20.607 30.92-20.607h-30.92z" fill="#fff"/><path d="m323.846 74.368v6.065h11.455v15.172h-11.455v6.065h-17.701v-6.065h-11.456v-15.172h11.456v-6.065z" fill="#383739" stroke="#000" stroke-width=".1"/><path d="m306.859 75.081v6.065h-11.455v6.516h19.234v-12.581zm8.494 12.581h19.234v-6.516h-11.455v-6.065h-7.779zm-19.949.714v6.516h11.455v6.065h7.779v-12.581zm19.949 12.581h7.779v-6.065h11.455v-6.516h-19.234z" fill="#ca3745"/></g><g fill-rule="nonzero"><path d="m285.178 339.35v9.717h59.637v-9.717h26.647v-9.717h26.647v-9.717h26.647v-87.802h-26.647v-9.717h-26.647v-9.717h-26.647v-9.717h-59.637v9.717h-26.647v9.717h-26.648v9.717h-26.647v87.802h26.647v9.717h26.648v9.717z" fill="#383739"/><path d="m344.1 338.636v9.716h-58.208v-9.716h-26.647v-9.717h-26.647v-9.717h-26.648v-86.374h26.648v-9.717h26.647v-9.717h26.647v-9.717h58.208v9.717h26.647v9.717h26.648v9.717h26.647v86.374h-26.647v9.717h-26.648v9.717z" fill="#ca3745"/><path d="m292.948 331.58v9.717h44.096v-9.717h26.648v-9.718h26.647v-9.716h26.647v-72.262h-26.647v-9.717h-26.647v-9.717h-26.648v-9.717h-44.096v9.717h-26.647v9.717h-26.647v9.717h-26.648v72.262h26.648v9.716h26.647v9.718z" fill="#383739"/><path d="m336.33 330.866v9.716h-42.668v-9.716h-26.647v-9.718h-26.647v-9.716h-26.648v-70.834h26.648v-9.717h26.647v-9.717h26.647v-9.716h42.668v9.716h26.648v9.717h26.646v9.717h26.648v70.834h-26.648v9.716h-26.646v9.718z" fill="#ca3745"/><path d="m286.76 228.357-.015-6.998-6.765 6.05-6.764-6.05-.015 6.998-6.902-5.217v10.018l-6.609 4.2-.017-6.271-6.339 5.694-6.339-5.694-.017 6.271-7.324-4.654v9.288l-5.919 4.285-.016-5.695-7.032 5.093-7.032-5.093-.016 5.695-6.633-4.802v28.136h-7.77v12.807h7.77v28.136l6.633-4.803.016 5.696 7.032-5.093 7.031 5.093.017-5.696 5.919 4.285v9.289l7.324-4.654.017 6.271 6.339-5.694 6.339 5.694.017-6.271 6.609 4.199v10.019l6.902-5.217.015 6.997 6.764-6.049 6.765 6.049.015-6.997 6.188 4.677v10.685l9.252-8.433v9.91l12.796-8.227 12.797 8.227v-9.91l9.252 8.433v-10.685l6.187-4.677.015 6.997 6.765-6.049 6.765 6.049.015-6.997 6.9 5.217v-10.019l6.611-4.199.016 6.271 6.34-5.694 6.339 5.694.016-6.271 7.325 4.654v-9.289l5.919-4.285.016 5.696 7.031-5.093 7.032 5.093.016-5.696 6.633 4.802v-28.135h7.77v-12.807h-7.77v-28.136l-6.633 4.802-.016-5.695-7.032 5.093-7.032-5.093-.015 5.695-5.919-4.285v-9.288l-7.325 4.654-.016-6.271-6.339 5.694-6.34-5.694-.016 6.271-6.611-4.201v-10.017l-6.9 5.216-.015-6.997-6.765 6.05-6.765-6.05-.015 6.998-6.187-4.679v-10.683l-9.252 8.433v-9.91l-12.797 8.227-12.796-8.227v9.91l-9.252-8.433v10.684z" fill="#383739"/><path d="m205.95 281.704v-11.378h7.77v-27.451l6.63 4.799.016-5.696 6.321 4.579.213-.155 6.108-4.424.016 5.696 6.63-4.799v66.28l-6.63-4.799-.016 5.696-6.321-4.579-6.321 4.579-.016-5.696-6.63 4.799v-27.451z" fill="#28ae66"/><path d="m247.689 313.373-7.321 4.652v-84.021l7.321 4.653.016-5.972 5.629 5.057 5.629-5.057.016 5.972 7.321-4.653v84.021l-7.321-4.652-.016 5.971-5.629-5.056-5.629 5.056z" fill="#faae29"/><path d="m273.912 322.239-6.898 5.215v-102.879l6.898 5.215.014-6.837 6.054 5.414 6.054-5.414.015 6.837 6.898-5.215v102.879l-6.898-5.215-.015 6.837-6.054-5.414-6.054 5.414z" fill="#28ae66"/><path d="m314.997 220.594h-.001-.001l-12.081-7.767v10.219l-9.252-8.433v122.804l9.252-8.433v10.219l12.081-7.767h.001.001l12.081 7.767v-10.219l9.252 8.433v-122.804l-9.252 8.433v-10.219z" fill="#faae29"/><path d="m424.042 281.704v-11.378h-7.77v-27.451l-6.629 4.799-.016-5.696-6.321 4.579-.214-.155-6.108-4.424-.016 5.696-6.629-4.799v66.28l6.629-4.799.016 5.696 6.322-4.579 6.321 4.579.016-5.696 6.629 4.799v-27.451z" fill="#28ae66"/><path d="m382.304 313.373 7.321 4.652v-84.021l-7.321 4.653-.016-5.972-5.629 5.057-5.63-5.057-.015 5.972-7.322-4.653v84.021l7.322-4.652.015 5.971 5.63-5.056 5.629 5.056z" fill="#faae29"/><path d="m356.081 322.239 6.898 5.215v-102.879l-6.898 5.215-.015-6.837-6.054 5.414-6.054-5.414-.015 6.837-6.897-5.215v102.879l6.897-5.215.015 6.837 6.054-5.414 6.054 5.414z" fill="#28ae66"/><path d="m323.101 239.172-2.867 2.453v-7.237l6.476-4.773-11.715-8.635-11.715 8.635 6.477 4.773v7.237l-2.867-2.453v-3.99l-6.856 5.632 7.353 6.787-2.867 3.962h20.951l-2.867-3.962 7.352-6.787-6.855-5.632z" fill="#383739"/><path d="m306.175 236.694v2.807l4.296 3.676v-9.15l-5.987-4.412 10.511-7.747 10.511 7.747-5.986 4.412v9.15l4.295-3.676v-2.807l5.054 4.152-7.215 6.66 2.419 3.343h-18.154l2.418-3.343-7.215-6.66z" fill="#ca3745"/><path d="m314.995 233.56 5.354-3.945-5.354-3.946-.212.157-5.141 3.789z" fill="#383739"/><path d="m314.995 226.557c.354.26 3.524 2.597 4.15 3.058-.626.461-3.796 2.798-4.15 3.058-.353-.26-3.524-2.597-4.149-3.058.625-.461 3.796-2.798 4.149-3.058z" fill="#28ae66"/><path d="m362.256 284.788h35.851v-4.675h11.729v-8.196h-11.729v-4.675h-35.851l-24.957-16.393h-.106-44.502l-24.956 16.393h-35.852v4.675h-11.729v8.196h11.729v4.675h35.852l24.956 16.394h44.608z" fill="#383739"/><path d="m232.598 284.073v-4.675h-11.73v-6.767h11.73v-4.675h35.35l24.956-16.393h44.182l24.956 16.393h35.35v4.675h11.73v6.767h-11.73v4.675h-35.35l-24.956 16.394h-44.182l-24.956-16.394z" fill="#ca3745"/><path d="m384.897 280.796v-9.563h-25.553v-2.269l-22.799-14.968h-.106-42.994l-22.799 14.968v2.269h-25.553v9.563h25.553v2.269l22.799 14.968h43.1l22.799-14.968v-2.269z" fill="#383739"/><path d="m245.807 271.947h25.553v-2.598l22.298-14.639h42.674l22.298 14.639v2.598h25.553v8.134h-25.553v2.599l-22.298 14.639h-42.674l-22.298-14.639v-2.599h-25.553z" fill="#ca3745"/><path d="m318.946 257.032-3.951 2.966-3.95-2.966h-7.384l7.642 5.738-13.95 10.473-7.382-5.543 2.27-1.705 2.659 1.997 3.692-2.771-6.351-4.768-9.655 7.247 11.075 8.315-11.075 8.315 9.655 7.248 6.351-4.769-3.692-2.772-2.659 1.997-2.27-1.704 7.382-5.543 13.95 10.473-7.642 5.738h7.384l3.95-2.966 3.951 2.966h7.383l-7.641-5.738 13.949-10.473 7.384 5.543-2.27 1.704-2.66-1.997-3.692 2.772 6.352 4.769 9.654-7.248-11.075-8.315 11.075-8.315-9.654-7.247-6.352 4.768 3.692 2.771 2.66-1.997 2.27 1.705-7.384 5.543-13.949-10.473 7.642-5.738zm-3.951 8.509 13.951 10.474-13.951 10.473-13.949-10.473z" fill="#383739"/><path d="m324.188 257.747-6.691 5.023 15.14 11.366 8.573-6.436-3.459-2.598-2.66 1.997-2.503-1.878 5.163-3.876 8.464 6.355-11.075 8.315 11.075 8.315-8.464 6.355-5.163-3.876 2.503-1.879 2.66 1.997 3.459-2.597-8.573-6.436-15.139 11.366 6.69 5.023h-5.004l-4.189-3.144-4.188 3.144h-5.005l6.691-5.023-15.14-11.366-8.572 6.436 3.46 2.597 2.659-1.997 2.502 1.879-5.161 3.876-8.465-6.355 11.075-8.315-11.075-8.315 8.465-6.355 5.161 3.876-2.502 1.878-2.659-1.997-3.46 2.598 8.572 6.436 15.14-11.366-6.691-5.023h5.005l4.188 3.144 4.189-3.144zm-9.407 7.062-14.925 11.206 15.139 11.366 15.141-11.366-15.141-11.367z" fill="#faae29"/><path d="m275.273 276.015 6.489 4.31 6.489-4.31-6.489-4.31z" fill="#383739"/><path d="m281.762 272.563 5.198 3.452-5.198 3.452-5.198-3.452z" fill="#28ae66"/><path d="m308.507 276.015 6.489 4.31 6.489-4.31-6.489-4.31z" fill="#383739"/><path d="m314.996 272.563 5.198 3.452-5.198 3.452-5.197-3.452z" fill="#28ae66"/><path d="m354.72 276.015-6.489 4.31-6.489-4.31 6.489-4.31z" fill="#383739"/><path d="m348.231 272.563-5.198 3.452 5.198 3.452 5.197-3.452z" fill="#28ae66"/><path d="m223.813 263.943c.809.816 1.776 1.229 2.874 1.229 1.097 0 2.064-.413 2.874-1.229 2.531-2.55 2.616-7.162 2.591-10.481 0 0-2.926 3.092-3.454 3.65-.368-.636-2.011-3.473-2.011-3.473s-1.643 2.837-2.012 3.473c-.528-.558-3.454-3.65-3.454-3.65-.025 3.319.061 7.931 2.592 10.481z" fill="#383739"/><path d="m226.687 255.065c.437.754 1.872 3.233 1.872 3.233s2.022-2.138 2.848-3.009c-.099 3.748-.922 6.709-2.353 8.15-.671.676-1.467 1.019-2.367 1.019-.901 0-1.697-.343-2.367-1.018-1.431-1.442-2.254-4.403-2.353-8.151.825.872 2.847 3.009 2.847 3.009.624-1.078 1.249-2.156 1.873-3.233z" fill="#fff"/><path d="m258.834 246.041-5.5-4.723-5.5 4.723 3.776 3.241v7.519l-2.132-2.13v-4.244l-4.896 4.538 8.752 8.752 8.752-8.752-4.896-4.538v4.244l-2.131 2.13v-7.519z" fill="#383739"/><path d="m252.324 248.954-3.393-2.913 4.403-3.781 4.404 3.781-3.393 2.913v9.572l3.56-3.56v-2.903l3.152 2.921-7.723 7.723-7.722-7.723 3.152-2.921v2.903l3.56 3.56z" fill="#ca3745"/><path d="m285.481 237.607-5.5-4.722-5.5 4.722 3.775 3.241v7.52l-2.131-2.131v-4.244l-4.896 4.538 8.752 8.752 8.752-8.752-4.896-4.538v4.244l-2.132 2.131v-7.52z" fill="#383739"/><path d="m278.97 240.52-3.393-2.913 4.404-3.781 4.403 3.781-3.393 2.913v9.572l3.56-3.559v-2.904l3.152 2.922-7.722 7.722-7.723-7.722 3.152-2.922v2.904l3.56 3.559z" fill="#fff"/><path d="m258.834 305.988-5.5 4.723-5.5-4.723 3.776-3.241v-7.519l-2.132 2.131v4.244l-4.896-4.538 8.752-8.753 8.752 8.753-4.896 4.538v-4.244l-2.131-2.131v7.519z" fill="#383739"/><path d="m252.324 303.075-3.393 2.913 4.403 3.782 4.404-3.782-3.393-2.913v-9.572l3.56 3.56v2.903l3.152-2.921-7.723-7.723-7.722 7.723 3.152 2.921v-2.903l3.56-3.56z" fill="#ca3745"/><path d="m371.159 246.041 5.499-4.723 5.5 4.723-3.775 3.241v7.519l2.131-2.13v-4.244l4.896 4.538-8.752 8.752-8.752-8.752 4.896-4.538v4.244l2.132 2.13v-7.519z" fill="#383739"/><path d="m377.669 248.954 3.393-2.913-4.404-3.781-4.403 3.781 3.393 2.913v9.572l-3.56-3.56v-2.903l-3.152 2.921 7.722 7.723 7.723-7.723-3.152-2.921v2.903l-3.56 3.56z" fill="#ca3745"/><path d="m371.159 305.988 5.499 4.723 5.5-4.723-3.775-3.241v-7.519l2.131 2.131v4.244l4.896-4.538-8.752-8.753-8.752 8.753 4.896 4.538v-4.244l2.132-2.131v7.519z" fill="#383739"/><path d="m377.669 303.075 3.393 2.913-4.404 3.782-4.403-3.782 3.393-2.913v-9.572l-3.56 3.56v2.903l-3.152-2.921 7.722-7.723 7.723 7.723-3.152 2.921v-2.903l-3.56-3.56z" fill="#ca3745"/><path d="m285.481 314.422-5.5 4.722-5.5-4.722 3.775-3.241v-7.52l-2.131 2.131v4.244l-4.896-4.538 8.752-8.752 8.752 8.752-4.896 4.538v-4.244l-2.132-2.131v7.52z" fill="#383739"/><path d="m278.97 311.509-3.393 2.913 4.404 3.781 4.403-3.781-3.393-2.913v-9.572l3.56 3.559v2.904l3.152-2.922-7.722-7.722-7.723 7.722 3.152 2.922v-2.904l3.56-3.559z" fill="#fff"/><path d="m344.512 237.607 5.5-4.722 5.5 4.722-3.775 3.241v7.52l2.131-2.131v-4.244l4.896 4.538-8.752 8.752-8.752-8.752 4.896-4.538v4.244l2.131 2.131v-7.52z" fill="#383739"/><path d="m351.022 240.52 3.393-2.913-4.403-3.781-4.404 3.781 3.393 2.913v9.572l-3.56-3.559v-2.904l-3.152 2.922 7.723 7.722 7.722-7.722-3.152-2.922v2.904l-3.56 3.559z" fill="#fff"/><path d="m344.512 314.422 5.5 4.722 5.5-4.722-3.775-3.241v-7.52l2.131 2.131v4.244l4.896-4.538-8.752-8.752-8.752 8.752 4.896 4.538v-4.244l2.131-2.131v7.52z" fill="#383739"/><path d="m351.022 311.509 3.393 2.913-4.403 3.781-4.404-3.781 3.393-2.913v-9.572l-3.56 3.559v2.904l-3.152-2.922 7.723-7.722 7.722 7.722-3.152 2.922v-2.904l-3.56-3.559z" fill="#fff"/><path d="m223.813 288.086c.809-.816 1.776-1.23 2.874-1.23 1.097 0 2.064.414 2.874 1.23 2.531 2.55 2.616 7.161 2.591 10.481 0 0-2.926-3.092-3.454-3.65-.368.636-2.011 3.473-2.011 3.473s-1.643-2.837-2.012-3.473c-.528.558-3.454 3.65-3.454 3.65-.025-3.319.061-7.932 2.592-10.481z" fill="#383739"/><path d="m226.687 296.964c.437-.755 1.872-3.233 1.872-3.233s2.022 2.137 2.848 3.008c-.099-3.748-.922-6.709-2.353-8.15-.671-.676-1.467-1.018-2.367-1.018-.901 0-1.697.342-2.367 1.018-1.431 1.441-2.254 4.402-2.353 8.15.825-.872 2.847-3.008 2.847-3.008.624 1.077 1.249 2.155 1.873 3.233z" fill="#fff"/><path d="m406.18 263.943c-.809.816-1.777 1.229-2.874 1.229-1.098 0-2.065-.413-2.874-1.229-2.531-2.55-2.617-7.162-2.592-10.481 0 0 2.926 3.092 3.454 3.65.369-.636 2.012-3.473 2.012-3.473s1.643 2.837 2.011 3.473c.529-.558 3.454-3.65 3.454-3.65.025 3.319-.06 7.931-2.591 10.481z" fill="#383739"/><path d="m403.306 255.065c-.437.754-1.873 3.233-1.873 3.233s-2.022-2.138-2.847-3.009c.099 3.748.922 6.709 2.353 8.15.67.676 1.467 1.019 2.367 1.019s1.697-.343 2.367-1.018c1.43-1.442 2.254-4.403 2.353-8.151-.825.872-2.847 3.009-2.847 3.009-.625-1.078-1.249-2.156-1.873-3.233z" fill="#fff"/><path d="m406.18 288.086c-.809-.816-1.777-1.23-2.874-1.23-1.098 0-2.065.414-2.874 1.23-2.531 2.55-2.617 7.161-2.592 10.481 0 0 2.926-3.092 3.454-3.65.369.636 2.012 3.473 2.012 3.473s1.643-2.837 2.011-3.473c.529.558 3.454 3.65 3.454 3.65.025-3.319-.06-7.932-2.591-10.481z" fill="#383739"/><path d="m403.306 296.964c-.437-.755-1.873-3.233-1.873-3.233s-2.022 2.137-2.847 3.008c.099-3.748.922-6.709 2.353-8.15.67-.676 1.467-1.018 2.367-1.018s1.697.342 2.367 1.018c1.43 1.441 2.254 4.402 2.353 8.15-.825-.872-2.847-3.008-2.847-3.008-.625 1.077-1.249 2.155-1.873 3.233z" fill="#fff"/><path d="m323.101 312.856-2.867-2.453v7.237l6.476 4.773-11.715 8.635-11.715-8.635 6.477-4.773v-7.237l-2.867 2.453v3.99l-6.856-5.632 7.353-6.787-2.867-3.962h20.951l-2.867 3.962 7.352 6.787-6.855 5.632z" fill="#383739"/><path d="m306.175 315.335v-2.807l4.296-3.677v9.15l-5.987 4.412 10.511 7.747 10.511-7.747-5.986-4.412v-9.15l4.295 3.677v2.807l5.054-4.153-7.215-6.66 2.419-3.343h-18.154l2.418 3.343-7.215 6.66z" fill="#ca3745"/><path d="m314.995 318.468 5.354 3.945-5.354 3.946-.212-.156-5.141-3.79z" fill="#383739"/><path d="m314.995 325.471c.354-.26 3.524-2.597 4.15-3.058-.626-.461-3.796-2.797-4.15-3.058-.353.261-3.524 2.597-4.149 3.058.625.461 3.796 2.798 4.149 3.058z" fill="#28ae66"/></g><g><g fill-rule="nonzero"><path d="m224.096 458.892v-6.754l-12.803 8.133-5.135-3.967-5.302.615-2.546 3.601 4.564 3.49-4.565 3.491 2.546 3.601 5.303.616 5.135-3.968 12.803 8.133v-6.754l-8.058-5.119z" fill="#383739"/><path d="m211.252 461.143 12.13-7.705v5.061l-8.677 5.512 8.677 5.511v5.061l-12.13-7.705-5.301 4.097-4.697-.545-1.964-2.779 4.76-3.64-4.76-3.64 1.965-2.779 4.696-.545z" fill="#28ae66"/><path d="m224.096 435.428v-6.754l-12.803 8.133-5.135-3.967-5.302.615-2.546 3.602 4.564 3.49-4.565 3.49 2.546 3.602 5.303.615 5.135-3.968 12.803 8.134v-6.755l-8.058-5.118z" fill="#383739"/><path d="m211.252 437.679 12.13-7.704v5.061l-8.677 5.511 8.677 5.511v5.062l-12.13-7.705-5.301 4.096-4.697-.545-1.964-2.779 4.76-3.64-4.76-3.639 1.965-2.779 4.696-.546z" fill="#28ae66"/><path d="m224.096 492.593v6.754l-12.803-8.133-5.135 3.968-5.302-.616-2.546-3.601 4.564-3.49-4.565-3.491 2.546-3.601 5.303-.615 5.135 3.967 12.803-8.133v6.754l-8.058 5.119z" fill="#383739"/><path d="m211.252 490.342 12.13 7.705v-5.061l-8.677-5.512 8.677-5.511v-5.061l-12.13 7.705-5.301-4.097-4.697.545-1.964 2.779 4.76 3.64-4.76 3.64 1.965 2.779 4.696.545z" fill="#28ae66"/><path d="m405.896 458.892v-6.754l12.804 8.133 5.135-3.967 5.302.615 2.546 3.601-4.564 3.49 4.564 3.491-2.546 3.601-5.302.616-5.135-3.968-12.804 8.133v-6.754l8.059-5.119z" fill="#383739"/><path d="m418.741 461.143-12.13-7.705v5.061l8.676 5.512-8.676 5.511v5.061l12.13-7.705 5.3 4.097 4.697-.545 1.964-2.779-4.76-3.64 4.76-3.64-1.964-2.779-4.697-.545z" fill="#28ae66"/><path d="m405.896 435.428v-6.754l12.804 8.133 5.135-3.967 5.302.615 2.546 3.602-4.564 3.49 4.564 3.49-2.546 3.602-5.302.615-5.135-3.968-12.804 8.134v-6.755l8.059-5.118z" fill="#383739"/><path d="m418.741 437.679-12.13-7.704v5.061l8.676 5.511-8.676 5.511v5.062l12.13-7.705 5.3 4.096 4.697-.545 1.964-2.779-4.76-3.64 4.76-3.639-1.964-2.779-4.697-.546z" fill="#28ae66"/><path d="m405.896 492.593v6.754l12.804-8.133 5.135 3.968 5.302-.616 2.546-3.601-4.564-3.49 4.564-3.491-2.546-3.601-5.302-.615-5.135 3.967-12.804-8.133v6.754l8.059 5.119z" fill="#383739"/><path d="m418.741 490.342-12.13 7.705v-5.061l8.676-5.512-8.676-5.511v-5.061l12.13 7.705 5.3-4.097 4.697.545 1.964 2.779-4.76 3.64 4.76 3.64-1.964 2.779-4.697.545z" fill="#28ae66"/><path d="m377.879 392.884v9.76h7.099v4.313h6.974v-7.854s-5.585 0-6.22 0c0-.635 0-6.219 0-6.219z" fill="#383739"/><path d="m385.018 393.598v6.22h6.219v6.425h-5.544v-4.313h-7.1v-8.332z" fill="#28ae66"/><path d="m398.804 408.275v9.759h7.092v4.314h6.981v-7.854s-5.584 0-6.219 0c0-.635 0-6.219 0-6.219z" fill="#383739"/><path d="m405.944 408.989v6.219h6.219v6.426h-5.545v-4.313h-7.099v-8.332z" fill="#28ae66"/><path d="m252.115 392.884v9.76h-7.101v4.313h-6.972v-7.854h6.219c0-.635 0-6.219 0-6.219z" fill="#383739"/><path d="m244.975 393.598v6.22s-5.584 0-6.219 0v6.425h5.545v-4.313h7.099v-8.332c-.611 0-5.814 0-6.425 0z" fill="#28ae66"/><path d="m377.879 535.138v-9.76h7.099v-4.313h6.974v7.853s-5.585 0-6.22 0v6.22z" fill="#383739"/><path d="m385.018 534.423c0-.634 0-6.219 0-6.219h6.219c0-.611 0-5.814 0-6.425h-5.544v4.313h-7.1v8.331z" fill="#28ae66"/><path d="m252.115 535.138v-9.76h-7.101v-4.313h-6.972v7.853h6.219v6.22z" fill="#383739"/><path d="m244.976 534.423c0-.634 0-6.219 0-6.219s-5.585 0-6.22 0c0-.611 0-5.814 0-6.425h5.545v4.313h7.1v8.331c-.611 0-5.814 0-6.425 0z" fill="#28ae66"/><path d="m398.804 519.747v-9.759h7.092v-4.314h6.981v7.853s-5.584 0-6.219 0v6.22z" fill="#383739"/><path d="m405.944 519.032c0-.634 0-6.219 0-6.219h6.219c0-.611 0-5.814 0-6.425h-5.545v4.313h-7.099v8.331z" fill="#28ae66"/><path d="m231.19 408.275v9.759h-7.094v4.314h-6.979v-7.854h6.219c0-.635 0-6.219 0-6.219z" fill="#383739"/><path d="m224.05 408.989v6.219s-5.584 0-6.219 0v6.426h5.545v-4.313h7.099v-8.332c-.611 0-5.814 0-6.425 0z" fill="#28ae66"/><path d="m231.19 519.747v-9.759h-7.094v-4.314h-6.979v7.853h6.219v6.22z" fill="#383739"/><path d="m224.051 519.032c0-.634 0-6.219 0-6.219s-5.585 0-6.22 0c0-.611 0-5.814 0-6.425h5.545v4.313h7.1v8.331c-.611 0-5.814 0-6.425 0z" fill="#28ae66"/><path d="m341.255 392.657c-.453-.44-5.418-5.26-5.418-5.26l-5.322 4.931s4.17 4.047 4.639 4.503l-5.988 5.813h8.89l3.199-3.106 3.199 3.106h8.889l-5.988-5.813c.469-.456 4.638-4.503 4.638-4.503l-5.321-4.931c-1.808 1.751-3.612 3.506-5.417 5.26z" fill="#383739"/><path d="m335.826 388.382c.443.43 5.429 5.27 5.429 5.27s4.985-4.84 5.428-5.27c.42.388 3.809 3.528 4.273 3.958-.48.465-4.627 4.491-4.627 4.491l5.252 5.099h-6.837l-3.489-3.388-3.49 3.388h-6.837l5.252-5.099s-4.147-4.026-4.627-4.491c.464-.43 3.853-3.57 4.273-3.958z" fill="#28ae66"/><path d="m314.997 392.657c-.452-.44-5.417-5.26-5.417-5.26l-5.322 4.931s4.169 4.047 4.639 4.503l-5.988 5.813h8.889l3.199-3.106 3.199 3.106h8.889l-5.987-5.813c.469-.456 4.638-4.503 4.638-4.503l-5.321-4.931c-1.808 1.751-3.612 3.506-5.418 5.26z" fill="#383739"/><path d="m309.569 388.382c.443.43 5.428 5.27 5.428 5.27s4.985-4.84 5.429-5.27c.42.388 3.808 3.528 4.272 3.958-.479.465-4.626 4.491-4.626 4.491l5.252 5.099h-6.838l-3.489-3.388-3.489 3.388h-6.838l5.252-5.099s-4.147-4.026-4.626-4.491c.464-.43 3.853-3.57 4.273-3.958z" fill="#28ae66"/><path d="m288.74 392.657c.453-.44 5.418-5.26 5.418-5.26l5.322 4.931s-4.17 4.047-4.639 4.503l5.988 5.813h-8.89l-3.199-3.106-3.199 3.106h-8.889l5.988-5.813c-.469-.456-4.639-4.503-4.639-4.503l5.322-4.931c1.808 1.751 3.612 3.506 5.417 5.26z" fill="#383739"/><path d="m294.169 388.382c-.444.43-5.429 5.27-5.429 5.27s-4.985-4.84-5.428-5.27c-.42.388-3.809 3.528-4.273 3.958.48.465 4.627 4.491 4.627 4.491l-5.252 5.099h6.837l3.489-3.388 3.49 3.388h6.837l-5.252-5.099s4.147-4.026 4.627-4.491c-.464-.43-3.853-3.57-4.273-3.958z" fill="#28ae66"/><path d="m341.255 535.365c-.453.439-5.418 5.259-5.418 5.259l-5.322-4.931s4.17-4.046 4.639-4.502l-5.988-5.813h8.89l3.199 3.106 3.199-3.106h8.889l-5.988 5.813c.469.456 4.638 4.502 4.638 4.502l-5.321 4.931c-1.808-1.751-3.612-3.506-5.417-5.259z" fill="#383739"/><path d="m335.826 539.64c.443-.431 5.429-5.271 5.429-5.271s4.985 4.84 5.428 5.271c.42-.389 3.809-3.529 4.273-3.958-.48-.466-4.627-4.491-4.627-4.491l5.252-5.099h-6.837l-3.489 3.387-3.49-3.387h-6.837l5.252 5.099s-4.147 4.025-4.627 4.491c.464.429 3.853 3.569 4.273 3.958z" fill="#28ae66"/><path d="m314.997 535.365c-.452.439-5.417 5.259-5.417 5.259l-5.322-4.931s4.169-4.046 4.639-4.502l-5.988-5.813h8.889l3.199 3.106 3.199-3.106h8.889l-5.987 5.813c.469.456 4.638 4.502 4.638 4.502l-5.321 4.931c-1.808-1.751-3.612-3.506-5.418-5.259z" fill="#383739"/><path d="m309.569 539.64c.443-.431 5.428-5.271 5.428-5.271s4.985 4.84 5.429 5.271c.42-.389 3.808-3.529 4.272-3.958-.479-.466-4.626-4.491-4.626-4.491l5.252-5.099h-6.838l-3.489 3.387-3.489-3.387h-6.838l5.252 5.099s-4.147 4.025-4.626 4.491c.464.429 3.853 3.569 4.273 3.958z" fill="#28ae66"/><path d="m288.74 535.365c.453.439 5.418 5.259 5.418 5.259l5.322-4.931s-4.17-4.046-4.639-4.502l5.988-5.813h-8.89l-3.199 3.106-3.199-3.106h-8.889l5.988 5.813c-.469.456-4.639 4.502-4.639 4.502l5.322 4.931c1.808-1.751 3.612-3.506 5.417-5.259z" fill="#383739"/><path d="m294.169 539.64c-.444-.431-5.429-5.271-5.429-5.271s-4.985 4.84-5.428 5.271c-.42-.389-3.809-3.529-4.273-3.958.48-.466 4.627-4.491 4.627-4.491l-5.252-5.099h6.837l3.489 3.387 3.49-3.387h6.837l-5.252 5.099s4.147 4.025 4.627 4.491c-.464.429-3.853 3.569-4.273 3.958z" fill="#28ae66"/><path d="m244.3 401.93v15.39h-20.918v93.382h20.918v15.39h141.393v-15.39h20.918v-93.382h-20.918v-15.39z" fill="#383739"/><path d="m384.978 402.644v15.39h20.918v91.954h-20.918v15.39h-139.964v-15.39h-20.918v-91.954h20.918v-15.39z" fill="#ca3745"/><path d="m375.928 408.551h-.357-121.507v18.533h-24.06v73.854h24.06v18.532h121.864v-18.532h24.061v-73.854h-24.061z" fill="#383739"/><path d="m375.214 409.266v18.532h24.061v72.426h-24.061v18.532h-120.436v-18.532h-24.06v-72.426h24.06v-18.532z" fill="#ca3745"/><path d="m230.004 486.88 44.124 32.59h81.737l44.125-32.59v-45.738l-44.125-32.591h-.118-81.619l-44.124 32.591z" fill="#383739"/><path d="m355.629 409.266c.188.138 43.359 32.024 43.646 32.236v45.017c-.287.213-43.458 32.098-43.646 32.237-.234 0-81.031 0-81.266 0-.187-.139-43.358-32.024-43.645-32.237 0-.356 0-44.66 0-45.017.287-.212 43.458-32.098 43.645-32.236z" fill="#28ae66"/><path d="m364.385 418.484h-99.134v7.873c-.674 0-12.669 0-12.669 0v75.308h12.669v7.872h99.491s0-7.221 0-7.872h12.669v-75.308s-11.995 0-12.669 0c0-.651 0-7.873 0-7.873z" fill="#383739"/><path d="m364.028 419.198v7.873h12.669v73.88h-12.669v7.872h-98.062v-7.872h-12.669v-73.88h12.669v-7.873z" fill="#ca3745"/><path d="m255.675 491.423 21.565 18.114h75.513l21.564-18.114v-54.824l-21.564-18.115h-.13-75.383l-21.565 18.115z" fill="#383739"/><path d="m352.492 419.198c.197.165 20.86 17.523 21.111 17.733v54.159c-.251.21-20.914 17.568-21.111 17.733-.258 0-74.733 0-74.992 0-.196-.165-20.859-17.522-21.11-17.733 0-.33 0-53.829 0-54.159.251-.21 20.914-17.568 21.11-17.733z" fill="#28ae66"/><path d="m259.444 489.667 19.169 16.102h72.767l19.168-16.102v-51.312l-19.168-16.102h-.13-72.637l-19.169 16.102z" fill="#383739"/><path d="m351.12 422.967c.196.164 18.463 15.511 18.714 15.721v50.646c-.251.21-18.518 15.556-18.714 15.721-.259 0-71.988 0-72.247 0-.196-.165-18.465-15.511-18.715-15.721 0-.33 0-50.317 0-50.646.25-.21 18.519-15.557 18.715-15.721z" fill="#ca3745"/><path d="m287.305 419.198h55.383v-2.89l-5.824-5.018-5.468 4.711-5.466-4.711-5.467 4.711-5.467-4.711-5.467 4.711-5.467-4.711-5.466 4.711-5.467-4.711-5.824 5.018z" fill="#383739"/><path d="m341.973 418.484h-10.219v-1.848l5.11-4.403 5.109 4.403z" fill="#ca3745"/><path d="m331.039 418.484h-10.219v-1.848l5.11-4.403 5.109 4.403z" fill="#faae29"/><path d="m320.106 418.484h-10.22v-1.848l5.11-4.403 5.11 4.403z" fill="#ca3745"/><path d="m309.172 418.484h-10.219v-1.848l5.109-4.403 5.11 4.403z" fill="#faae29"/><path d="m298.239 418.484h-10.22v-1.848l5.11-4.403 5.11 4.403z" fill="#ca3745"/><path d="m236.094 474.944 4.711 5.467-4.711 5.467 5.018 5.824h12.185v-55.382h-12.185l-5.018 5.823 4.71 5.467-4.71 5.467 4.711 5.467-4.711 5.467 4.711 5.467z" fill="#383739"/><path d="m241.439 490.988-4.402-5.11 4.402-5.11h11.143v10.22z" fill="#faae29"/><path d="m241.44 480.054-4.403-5.11 4.403-5.11h11.142v10.22z" fill="#ca3745"/><path d="m241.44 469.12-4.403-5.109 4.403-5.11h11.142v10.219z" fill="#faae29"/><path d="m241.44 458.187-4.403-5.11 4.403-5.11h11.142v10.22z" fill="#ca3745"/><path d="m241.439 447.253-4.402-5.11 4.402-5.109h11.143v10.219z" fill="#faae29"/><path d="m287.305 508.823h55.383v2.89l-5.824 5.019-5.468-4.711-5.466 4.71-5.467-4.711-5.467 4.711-5.467-4.711-5.467 4.711-5.466-4.71-5.467 4.711-5.824-5.019z" fill="#383739"/><path d="m341.973 509.537h-10.219v1.849l5.11 4.402 5.109-4.402z" fill="#ca3745"/><path d="m331.039 509.537h-10.219v1.849l5.11 4.402 5.109-4.402z" fill="#faae29"/><path d="m320.106 509.537h-10.22v1.849l5.11 4.402 5.11-4.402z" fill="#ca3745"/><path d="m309.172 509.537h-10.219v1.849l5.109 4.402 5.11-4.402z" fill="#faae29"/><path d="m298.239 509.537h-10.22v1.849l5.11 4.402 5.11-4.402z" fill="#ca3745"/><path d="m393.899 474.944-4.711 5.467 4.711 5.467-5.018 5.824h-12.185v-55.382h12.185l5.018 5.823-4.711 5.467 4.711 5.467-4.711 5.467 4.711 5.467-4.711 5.467z" fill="#383739"/><path d="m388.554 490.988 4.402-5.11-4.402-5.11h-11.143v10.22z" fill="#faae29"/><path d="m388.553 480.054 4.403-5.11-4.403-5.11h-11.142v10.22z" fill="#ca3745"/><path d="m388.553 469.12 4.403-5.109-4.403-5.11h-11.142v10.219z" fill="#faae29"/><path d="m388.553 458.187 4.403-5.11-4.403-5.11h-11.142v10.22z" fill="#ca3745"/><path d="m388.554 447.253 4.402-5.11-4.402-5.109h-11.143v10.219z" fill="#faae29"/></g><path d="m289.654 505.055 4.097-3.943 4.096 3.943z" fill="#fff"/><path d="m293.751 492.859-4.005-3.203-4.011 1.734-.721 4.579 3.812 3.354-6.277 6.069h7.786l3.416-3.288 3.416 3.288h7.786l-6.278-6.069 3.813-3.355-.722-4.578-4.011-1.734z" fill="#383739" fill-rule="nonzero"/><path d="m286.38 491.889 3.255-1.407 4.116 3.291.223-.178 3.892-3.113 3.256 1.407.599 3.803-4.099 3.606 5.954 5.757h-5.729l-4.096-3.943-4.097 3.943h-5.729l5.955-5.757-4.1-3.606z" fill="#28ae66" fill-rule="nonzero"/><path d="m310.901 505.055 4.096-3.943 4.097 3.943z" fill="#fff"/><path d="m314.997 492.859-4.004-3.203-4.011 1.734-.722 4.579 3.813 3.354-6.278 6.069h7.786l3.416-3.288 3.416 3.288h7.786l-6.277-6.069 3.813-3.355-.722-4.578-4.011-1.734z" fill="#383739" fill-rule="nonzero"/><path d="m307.627 491.889 3.255-1.407 4.115 3.291.223-.178 3.893-3.113 3.255 1.407.6 3.803-4.099 3.606 5.954 5.757h-5.729l-4.097-3.943-4.096 3.943h-5.73l5.955-5.757-4.099-3.606z" fill="#28ae66" fill-rule="nonzero"/><path d="m340.341 505.055-4.096-3.943-4.097 3.943z" fill="#fff"/><path d="m336.245 492.859 4.004-3.203 4.011 1.734.722 4.579-3.813 3.354 6.278 6.069h-7.786l-3.416-3.288-3.416 3.288h-7.786l6.277-6.069-3.813-3.355.722-4.578 4.011-1.734z" fill="#383739" fill-rule="nonzero"/><path d="m343.615 491.889-3.255-1.407-4.115 3.291-.224-.178-3.892-3.113-3.255 1.407-.6 3.803 4.099 3.606-5.954 5.757h5.729l4.097-3.943 4.096 3.943h5.729l-5.954-5.757 4.099-3.606z" fill="#28ae66" fill-rule="nonzero"/><path d="m289.654 422.967 4.097 3.942 4.096-3.942z" fill="#fff"/><path d="m293.751 435.163-4.005 3.202-4.011-1.734-.721-4.578 3.812-3.354-6.413-6.2h7.786l3.552 3.418 3.552-3.418h7.785l-6.413 6.2 3.813 3.355-.722 4.578-4.011 1.733z" fill="#383739" fill-rule="nonzero"/><path d="m286.38 436.132 3.255 1.407 4.116-3.29.223.178 3.892 3.112 3.256-1.407.599-3.802-4.099-3.606 5.954-5.757h-5.729l-4.096 3.942-4.097-3.942h-5.729l5.955 5.757-4.1 3.605z" fill="#28ae66" fill-rule="nonzero"/><path d="m310.901 422.967 4.096 3.942 4.097-3.942z" fill="#fff"/><path d="m314.997 435.163-4.004 3.202-4.011-1.734-.722-4.578 3.813-3.354-6.413-6.2h7.785l3.552 3.418 3.552-3.418h7.785l-6.412 6.2 3.813 3.355-.722 4.578-4.011 1.733z" fill="#383739" fill-rule="nonzero"/><path d="m307.627 436.132 3.255 1.407 4.115-3.29.223.178 3.893 3.112 3.255-1.407.6-3.802-4.099-3.606 5.954-5.757h-5.729l-4.097 3.942-4.096-3.942h-5.73l5.955 5.757-4.099 3.605z" fill="#28ae66" fill-rule="nonzero"/><path d="m340.341 422.967-4.096 3.942-4.097-3.942z" fill="#fff"/><path d="m336.245 435.163 4.004 3.202 4.011-1.734.722-4.578-3.813-3.354 6.413-6.2h-7.785l-3.552 3.418-3.552-3.418h-7.786l6.413 6.2-3.813 3.355.722 4.578 4.011 1.733z" fill="#383739" fill-rule="nonzero"/><path d="m343.615 436.132-3.255 1.407-4.115-3.29-.224.178-3.892 3.112-3.255-1.407-.6-3.802 4.099-3.606-5.954-5.757h5.729l4.097 3.942 4.096-3.942h5.729l-5.954 5.757 4.099 3.605z" fill="#28ae66" fill-rule="nonzero"/><path d="m369.834 443.612v5.376h-.007l-3.243-2.685z" fill="#fff" fill-rule="nonzero"/><path d="m364.859 442.325c-.4-.361-3.374-3.055-3.374-3.055l-4.535.57-1.785 3.291s2.75 2.742 3.181 3.172c-.431.429-3.181 3.171-3.181 3.171l1.785 3.291 4.535.57s2.974-2.694 3.374-3.056l5.338 4.4v-6.313l-2.492-2.063 2.492-2.065v-5.645l-.402-.337c-1.645 1.357-3.29 2.713-4.936 4.069z" fill="#383739" fill-rule="nonzero"/><path d="m369.834 443.612-3.25 2.691 3.25 2.69v4.461l-4.998-4.119s-3.361 3.045-3.587 3.25c-.288-.036-3.526-.443-3.846-.483-.143-.263-1.154-2.127-1.355-2.5.335-.334 3.31-3.299 3.31-3.299s-2.975-2.966-3.31-3.3c.201-.373 1.212-2.238 1.355-2.5.32-.04 3.558-.448 3.846-.484.226.205 3.587 3.251 3.587 3.251l4.998-4.118z" fill="#28ae66" fill-rule="nonzero"/><path d="m369.834 461.321v5.376h-.007l-3.243-2.685z" fill="#fff" fill-rule="nonzero"/><path d="m364.859 460.034c-.4-.361-3.374-3.055-3.374-3.055l-4.535.57-1.785 3.291s2.75 2.742 3.181 3.172c-.431.429-3.181 3.17-3.181 3.17l1.785 3.292 4.535.569s2.974-2.693 3.374-3.055l5.409 4.459v-6.314l-2.563-2.121 2.563-2.123v-6.315c-1.804 1.488-3.605 2.974-5.409 4.46z" fill="#383739" fill-rule="nonzero"/><path d="m369.834 461.321-3.25 2.691 3.25 2.689v4.462l-4.998-4.119s-3.361 3.045-3.587 3.25c-.288-.036-3.526-.444-3.846-.483-.143-.263-1.154-2.128-1.355-2.5.335-.334 3.31-3.299 3.31-3.299s-2.975-2.967-3.31-3.301c.201-.372 1.212-2.237 1.355-2.5.32-.039 3.558-.447 3.846-.483.226.205 3.587 3.25 3.587 3.25l4.998-4.117z" fill="#28ae66" fill-rule="nonzero"/><path d="m369.834 484.41v-5.376h-.007l-3.243 2.685z" fill="#fff" fill-rule="nonzero"/><path d="m364.859 485.696c-.4.362-3.374 3.056-3.374 3.056l-4.535-.57-1.785-3.291s2.75-2.742 3.181-3.172c-.431-.43-3.181-3.171-3.181-3.171l1.785-3.291 4.535-.57s2.974 2.694 3.374 3.055l5.409-4.458v6.313l-2.563 2.122 2.563 2.123v5.584l-.439.368c-1.657-1.366-3.313-2.732-4.97-4.098z" fill="#383739" fill-rule="nonzero"/><path d="m369.834 484.41-3.25-2.691 3.25-2.69v-4.461l-4.998 4.119s-3.361-3.046-3.587-3.251c-.288.036-3.526.444-3.846.483-.143.263-1.154 2.128-1.355 2.5.335.335 3.31 3.3 3.31 3.3s-2.975 2.966-3.31 3.3c.201.372 1.212 2.237 1.355 2.5.32.04 3.558.447 3.846.483.226-.205 3.587-3.25 3.587-3.25l4.998 4.118z" fill="#28ae66" fill-rule="nonzero"/><path d="m260.162 443.612v5.376h.007l3.242-2.685z" fill="#fff" fill-rule="nonzero"/><path d="m265.137 442.325c.4-.361 3.374-3.055 3.374-3.055l4.535.57 1.785 3.291s-2.75 2.742-3.182 3.172c.432.429 3.182 3.171 3.182 3.171l-1.785 3.291-4.535.57s-2.974-2.694-3.374-3.056l-5.335 4.398v-6.313l2.489-2.061-2.489-2.062v-5.723l.355-.298c1.66 1.369 3.319 2.737 4.98 4.105z" fill="#383739" fill-rule="nonzero"/><path d="m260.162 443.612 3.249 2.691-3.249 2.69v4.461l4.998-4.119s3.361 3.045 3.587 3.25c.287-.036 3.526-.443 3.846-.483.143-.263 1.153-2.127 1.355-2.5-.335-.334-3.31-3.299-3.31-3.299s2.975-2.966 3.31-3.3c-.202-.373-1.212-2.238-1.355-2.5-.32-.04-3.559-.448-3.846-.484-.226.205-3.587 3.251-3.587 3.251l-4.998-4.118z" fill="#28ae66" fill-rule="nonzero"/><path d="m260.162 461.321v5.376h.007l3.242-2.685z" fill="#fff" fill-rule="nonzero"/><path d="m265.137 460.034c.4-.361 3.374-3.055 3.374-3.055l4.535.57 1.785 3.291s-2.75 2.742-3.182 3.172c.432.429 3.182 3.17 3.182 3.17l-1.785 3.292-4.535.569s-2.974-2.693-3.374-3.055l-5.348 4.408v-6.313l2.502-2.071-2.502-2.073v-6.314c1.783 1.47 3.565 2.94 5.348 4.409z" fill="#383739" fill-rule="nonzero"/><path d="m260.162 461.321 3.249 2.691-3.249 2.689v4.462l4.998-4.119s3.361 3.045 3.587 3.25c.287-.036 3.526-.444 3.846-.483.143-.263 1.153-2.128 1.355-2.5-.335-.334-3.31-3.299-3.31-3.299s2.975-2.967 3.31-3.301c-.202-.372-1.212-2.237-1.355-2.5-.32-.039-3.559-.447-3.846-.483-.226.205-3.587 3.25-3.587 3.25l-4.998-4.117z" fill="#28ae66" fill-rule="nonzero"/><path d="m260.162 484.41v-5.376h.007l3.242 2.685z" fill="#fff" fill-rule="nonzero"/><path d="m265.137 485.696c.4.362 3.374 3.056 3.374 3.056l4.535-.57 1.785-3.291s-2.75-2.742-3.182-3.172c.432-.43 3.182-3.171 3.182-3.171l-1.785-3.291-4.535-.57s-2.974 2.694-3.374 3.055l-5.348-4.408v6.313l2.502 2.072-2.502 2.072v5.671l.387.325c1.653-1.365 3.306-2.728 4.961-4.091z" fill="#383739" fill-rule="nonzero"/><path d="m260.162 484.41 3.249-2.691-3.249-2.69v-4.461l4.998 4.119s3.361-3.046 3.587-3.251c.287.036 3.526.444 3.846.483.143.263 1.153 2.128 1.355 2.5-.335.335-3.31 3.3-3.31 3.3s2.975 2.966 3.31 3.3c-.202.372-1.212 2.237-1.355 2.5-.32.04-3.559.447-3.846.483-.226-.205-3.587-3.25-3.587-3.25l-4.998 4.118z" fill="#28ae66" fill-rule="nonzero"/><path d="m333.168 476.244v-6.318h8.831v-11.83h-8.831v-6.319h-6.395v-6.927h-23.553v6.927h-6.395v6.319h-8.832v11.83h8.832v6.318h6.395v6.928h23.553v-6.928z" fill="#383739" fill-rule="nonzero"/><path d="m297.539 458.81v-6.318h6.395v-6.928h10.705v7.141l-10.124 5.755v5.194h-15.807v-4.844z" fill="#faae29" fill-rule="nonzero"/><path d="m332.454 469.211v6.319h-6.395v6.928h-10.705v-7.141l10.123-5.756v-5.193h15.808v4.843z" fill="#faae29" fill-rule="nonzero"/><path d="m332.454 452.492v6.318h8.831v4.844h-15.808v-5.194l-10.123-5.755v-7.141h10.705v6.928z" fill="#fff" fill-rule="nonzero"/><path d="m303.934 475.53h-6.395v-6.319h-8.831v-4.843h15.807v5.193l10.124 5.756v7.141h-10.705z" fill="#fff" fill-rule="nonzero"/><path d="m305.23 464.368v4.814l9.409 5.35v-10.164z" fill="#ca3745"/><path d="m314.639 453.49-9.409 5.349v4.814h9.409z" fill="#28ae66"/><path d="m324.763 463.653v-4.814l-9.409-5.349v10.163z" fill="#ca3745"/><path d="m315.354 474.532 9.409-5.35v-4.814h-9.409z" fill="#28ae66"/></g><g fill-rule="nonzero"><path d="m229.412 589.551v19.528h-18.609v17.712h-18.861v50.431h18.861v17.712h18.609v19.528h67.663l11.899 7.15-5.718 3.435h-24.127l-2.081-2.347h21.865l-6.16-6.203h-31.277l14.171 14.753h29.33l10.019-6.02 10.019 6.02h29.332l14.17-14.753h-31.276l-6.161 6.203h21.866l-2.082 2.347h-24.128l-5.718-3.435 11.9-7.15h67.663v-19.528h18.609v-17.712h18.86v-50.431h-18.86v-17.712h-18.609v-19.528h-67.663l-11.9-7.149 5.718-3.436h24.128l2.082 2.347h-21.866l6.161 6.203h31.276l-14.17-14.753h-29.332l-10.019 6.02-10.019-6.02h-29.33l-14.171 14.753h31.277l6.16-6.203h-21.865l2.081-2.347h24.127l5.718 3.436-11.899 7.149z" fill="#383739"/><path d="m418.475 627.505h18.861v49.003h-18.861v17.712h-18.608v19.528h-67.148l-13.087 7.864 6.906 4.149h24.647l3.348-3.775h-21.737l4.742-4.775h29.302l-12.797 13.325h-28.83l-10.217-6.139-10.217 6.139h-28.828l-12.798-13.325h29.303l4.741 4.775h-21.738l3.349 3.775h24.647l6.906-4.149-13.088-7.864h-67.147v-19.528h-18.609v-17.712h-18.86v-49.003h18.86v-17.712h18.609v-19.528h67.147l13.088-7.863-6.906-4.15h-24.647l-3.349 3.776h21.738l-4.741 4.774h-29.303l12.798-13.324h28.828l10.217 6.139 10.217-6.139h28.83l12.797 13.324h-29.302l-4.742-4.774h21.737l-3.348-3.776h-24.647l-6.906 4.15 13.087 7.863h67.148v19.528h18.608z" fill="#ca3745"/><path d="m314.996 718.826 20.131-12.096h57.722v-19.527h18.61v-17.713h18.86v-34.967h-18.86v-17.713h-18.61v-19.527h-57.722l-20.131-12.096-20.13 12.096h-57.723v19.527h-18.609v17.713h-18.86v34.967h18.86v17.713h18.609v19.527h57.723z" fill="#383739"/><path d="m392.135 686.489v19.527h-57.206l-19.933 11.977-19.932-11.977h-57.207v-19.527h-18.609v-17.713h-18.86v-33.539h18.86v-17.713h18.609v-19.527h57.108.099l19.932-11.976 19.933 11.976h57.206v19.527h18.609v17.713h18.86v33.539h-18.86v17.713z" fill="#faae29"/><path d="m314.996 713.112 18.773-11.279h54.182v-19.528h18.609v-17.713h18.861v-25.171h-18.861v-17.713h-18.609v-19.527h-54.182l-18.773-11.28-18.772 11.28h-54.183v19.527h-18.609v17.713h-18.86v25.171h18.86v17.713h18.609v19.528h54.183z" fill="#383739"/><path d="m387.237 681.591v19.528h-53.667l-18.574 11.16-18.574-11.16h-53.666v-19.528h-18.61v-17.713h-18.86v-23.743h18.86v-17.713h18.61v-19.527h53.567.099l18.574-11.16 18.574 11.16h53.667v19.527h18.609v17.713h18.86v23.743h-18.86v17.713z" fill="#28ae66"/><path d="m249.782 674.749v18.9h29.5l-29.5-19.566z" fill="#383739"/><path d="m250.496 675.414 26.416 17.521h-26.416z" fill="#ca3745"/><path d="m334.082 673.313v-9.651h-3.292l-15.794-9.875-.189.118-15.604 9.757h-3.292v9.651h-9.364v10.366h9.364v9.651h3.292l15.793 9.876 15.794-9.876h3.292v-9.651h9.364v-10.366z" fill="#383739"/><path d="m314.996 654.629 14.446 9.033h-28.891zm14.445 38.701-14.445 9.033-14.444-9.033z" fill="#faae29"/><g fill="#ca3745"><path d="m333.368 683.679v8.937h-18.015v-8.937z"/><path d="m314.64 683.679v8.937h-18.015v-8.937z"/><path d="m342.732 674.027v8.938h-18.015v-8.938z"/><path d="m324.004 674.027v8.938h-18.015v-8.938z"/><path d="m305.275 674.027v8.938h-18.014v-8.938z"/><path d="m333.368 664.376v8.938h-18.015v-8.938z"/><path d="m314.64 664.376v8.938h-18.015v-8.938z"/></g><path d="m287.409 646.824v-9.652h-3.292l-15.794-9.875-.189.119-15.604 9.756h-3.292v9.652h-7.425v10.366h7.425v9.651h3.292l15.793 9.875 15.794-9.875h3.292v-9.651h11.303v-10.366z" fill="#383739"/><path d="m268.323 628.14 14.447 9.032h-28.892zm14.445 38.701-14.445 9.032-14.444-9.032z" fill="#ca3745"/><path d="m286.695 657.189v8.938h-18.015v-8.938z" fill="#faae29"/><path d="m267.967 657.189v8.938h-18.015v-8.938z" fill="#faae29"/><path d="m297.998 647.538v8.938h-18.015v-8.938z" fill="#faae29"/><path d="m279.27 647.538v8.938h-18.015v-8.938z" fill="#ca3745"/><path d="m260.542 647.538v8.938h-18.015v-8.938z" fill="#faae29"/><path d="m286.695 637.887v8.937h-18.015v-8.937z" fill="#faae29"/><path d="m267.967 637.887v8.937h-18.015v-8.937z" fill="#faae29"/><path d="m342.583 646.824v-9.652h3.292l15.795-9.875.189.119 15.604 9.756h3.292v9.652h7.425v10.366h-7.425v9.651h-3.293l-15.792 9.875-15.795-9.875h-3.292v-9.651h-11.303v-10.366z" fill="#383739"/><path d="m361.67 628.14-14.447 9.032h28.892zm-14.445 38.701 14.445 9.032 14.443-9.032z" fill="#ca3745"/><path d="m343.298 657.189v8.938h18.014v-8.938z" fill="#faae29"/><path d="m362.025 657.189v8.938h18.015v-8.938z" fill="#faae29"/><path d="m331.994 647.538v8.938h18.015v-8.938z" fill="#faae29"/><path d="m350.723 647.538v8.938h18.014v-8.938z" fill="#ca3745"/><path d="m369.451 647.538v8.938h18.014v-8.938z" fill="#faae29"/><path d="m343.298 637.887v8.937h18.014v-8.937z" fill="#faae29"/><path d="m362.025 637.887v8.937h18.015v-8.937z" fill="#faae29"/><path d="m334.082 630.7v9.651h-3.292l-15.794 9.875-.189-.118-15.604-9.757h-3.292v-9.651h-9.364v-10.366h9.364v-9.651h3.292l15.793-9.876 15.794 9.876h3.292v9.651h9.364v10.366z" fill="#383739"/><path d="m314.996 649.384 14.446-9.033h-28.891zm14.445-38.701-14.445-9.033-14.444 9.033z" fill="#faae29"/><path d="m333.368 620.334v-8.937h-18.015v8.937z" fill="#ca3745"/><path d="m314.64 620.334v-8.937h-18.015v8.937z" fill="#ca3745"/><path d="m342.732 629.986v-8.938h-18.015v8.938z" fill="#ca3745"/><path d="m324.004 629.986v-8.938h-18.015v8.938z" fill="#ca3745"/><path d="m305.275 629.986v-8.938h-18.014v8.938z" fill="#ca3745"/><path d="m333.368 639.637v-8.938h-18.015v8.938z" fill="#ca3745"/><path d="m314.64 639.637v-8.938h-18.015v8.938z" fill="#ca3745"/><path d="m249.782 629.264v-18.901h29.5l-29.5 19.566z" fill="#383739"/><path d="m250.496 628.599c1.027-.682 24.616-16.328 26.416-17.521-2.144 0-25.75 0-26.416 0z" fill="#ca3745"/><path d="m380.211 674.749v18.9h-29.5l29.5-19.566z" fill="#383739"/><path d="m379.497 675.414c-1.028.682-24.617 16.327-26.416 17.521h26.416c0-.662 0-16.309 0-17.521z" fill="#ca3745"/><path d="m380.211 629.264v-18.901h-29.5l29.5 19.566z" fill="#383739"/><path d="m379.497 628.598c-1.028-.681-24.617-16.327-26.416-17.521h26.416z" fill="#ca3745"/><path d="m255.581 649.524v4.966h-8.092v-4.966z" fill="#383739"/><path d="m254.819 650.286h-6.568v3.442h6.568z" fill="#fff"/><path d="m263.006 639.872v4.966h-8.092v-4.966z" fill="#383739"/><path d="m262.244 640.634h-6.568v3.442h6.568z" fill="#fff"/><path d="m281.734 639.872v4.966h-8.092v-4.966z" fill="#383739"/><path d="m280.972 640.634h-6.568v3.442h6.568z" fill="#fff"/><path d="m274.309 649.524v4.966h-8.092v-4.966z" fill="#383739"/><path d="m273.547 650.286h-6.568v3.442h6.568z" fill="#fff"/><path d="m293.037 649.524v4.966h-8.092v-4.966z" fill="#383739"/><path d="m292.275 650.286h-6.568v3.442h6.568z" fill="#fff"/><path d="m281.734 659.175v4.966h-8.092v-4.966z" fill="#383739"/><path d="m280.972 659.937h-6.568v3.442h6.568z" fill="#fff"/><path d="m263.006 659.175v4.966h-8.092v-4.966z" fill="#383739"/><path d="m262.244 659.937h-6.568v3.442h6.568z" fill="#fff"/><path d="m309.679 613.382v4.966h-8.092v-4.966z" fill="#383739"/><path d="m308.917 614.144h-6.568v3.442h6.568z" fill="#fff"/><path d="m328.407 613.382v4.966h-8.092v-4.966z" fill="#383739"/><path d="m327.645 614.144h-6.568v3.442h6.568z" fill="#fff"/><path d="m300.314 623.034v4.966h-8.092v-4.966z" fill="#383739"/><path d="m299.552 623.796h-6.568v3.442h6.568z" fill="#fff"/><path d="m319.043 623.034v4.966h-8.092v-4.966z" fill="#383739"/><path d="m318.281 623.796h-6.568v3.442h6.568z" fill="#fff"/><path d="m337.771 623.034v4.966h-8.092v-4.966z" fill="#383739"/><path d="m337.009 623.796h-6.568v3.442h6.568z" fill="#fff"/><path d="m309.679 632.685v4.966h-8.092v-4.966z" fill="#383739"/><path d="m308.917 633.447h-6.568v3.442h6.568z" fill="#fff"/><path d="m328.407 632.685v4.966h-8.092v-4.966z" fill="#383739"/><path d="m327.645 633.447h-6.568v3.442h6.568z" fill="#fff"/><path d="m356.351 639.872v4.966h-8.092v-4.966z" fill="#383739"/><path d="m355.589 640.634h-6.568v3.442h6.568z" fill="#fff"/><path d="m375.079 639.872v4.966h-8.092v-4.966z" fill="#383739"/><path d="m374.317 640.634h-6.568v3.442h6.568z" fill="#fff"/><path d="m345.048 649.524v4.966h-8.092v-4.966z" fill="#383739"/><path d="m344.286 650.286h-6.568v3.442h6.568z" fill="#fff"/><path d="m363.776 649.524v4.966h-8.092v-4.966z" fill="#383739"/><path d="m363.014 650.286h-6.568v3.442h6.568z" fill="#fff"/><path d="m382.504 649.524v4.966h-8.092v-4.966z" fill="#383739"/><path d="m381.742 650.286h-6.568v3.442h6.568z" fill="#fff"/><path d="m356.351 659.175v4.966h-8.092v-4.966z" fill="#383739"/><path d="m355.589 659.937h-6.568v3.442h6.568z" fill="#fff"/><path d="m375.079 659.175v4.966h-8.092v-4.966z" fill="#383739"/><path d="m374.317 659.937h-6.568v3.442h6.568z" fill="#fff"/><path d="m309.679 666.362v4.966h-8.092v-4.966z" fill="#383739"/><path d="m308.917 667.124h-6.568v3.442h6.568z" fill="#fff"/><path d="m328.407 666.362v4.966h-8.092v-4.966z" fill="#383739"/><path d="m327.645 667.124h-6.568v3.442h6.568z" fill="#fff"/><path d="m300.314 676.013v4.966h-8.092v-4.966z" fill="#383739"/><path d="m299.552 676.775h-6.568v3.442h6.568z" fill="#fff"/><path d="m319.043 676.013v4.966h-8.092v-4.966z" fill="#383739"/><path d="m318.281 676.775h-6.568v3.442h6.568z" fill="#fff"/><path d="m337.771 676.013v4.966h-8.092v-4.966z" fill="#383739"/><path d="m337.009 676.775h-6.568v3.442h6.568z" fill="#fff"/><path d="m309.679 685.664v4.966h-8.092v-4.966z" fill="#383739"/><path d="m308.917 686.426h-6.568v3.442h6.568z" fill="#fff"/><path d="m328.407 685.664v4.966h-8.092v-4.966z" fill="#383739"/><path d="m327.645 686.426h-6.568v3.442h6.568z" fill="#fff"/></g><g fill-rule="nonzero"><path d="m417.198 861.074-70.086 37.718h-64.232l-70.086-37.718v-62.15l70.086-37.719h.09 64.142l70.086 37.719z" fill="#383739"/><path d="m346.932 898.078 69.552-37.431v-61.297l-69.552-37.43h-63.872l-69.551 37.43v61.297l69.551 37.431z" fill="#28ae66"/><path d="m411.531 857.657-65.839 35.432h-61.391l-65.84-35.432v-55.316l65.84-35.433h.09 61.301l65.839 35.433z" fill="#383739"/><path d="m410.817 857.23v-26.874h-95.464v62.019h30.159z" fill="#faae29"/><path d="m219.175 829.641h95.464v-62.018h-30.158l-65.306 35.144z" fill="#faae29"/><path d="m284.481 892.375h30.158v-62.019h-95.464v26.874z" fill="#fff"/><path d="m410.817 802.767-65.305-35.144h-30.159v62.018h95.464z" fill="#fff"/><path d="m345.554 855.06-18.766 11.907v12.871l12.306 9.024h-18.237v-18.132l-5.862 3.719-5.863-3.719v18.132h-18.236l12.305-9.024v-12.871l-18.766-11.907h-13.113v-50.121h13.113l18.766-11.907v-12.871l-12.305-9.024h1.091 17.145v18.133l5.863-3.72 5.862 3.72v-18.133h18.237l-12.306 9.024v12.871l18.766 11.907h13.113v50.121z" fill="#383739"/><path d="m345.347 805.653-19.273-12.228v-13.626l10.838-7.947h-15.341v18.717l-6.218-3.946v43.018h42.6v-23.988z" fill="#faae29"/><path d="m284.643 854.346 19.272 12.228v13.626l-10.837 7.948h15.34v-18.717l6.221 3.947v-43.022h-42.603v23.99z" fill="#faae29"/><path d="m321.571 888.148h15.341l-10.838-7.948v-13.626l19.273-12.228h12.606v-23.99h-42.6v43.02l6.218-3.945z" fill="#fff"/><path d="m303.915 793.425-19.273 12.228h-12.606v23.988h42.603v-43.02l-6.221 3.948v-18.717h-15.34l10.837 7.947z" fill="#fff"/><path d="m344.047 810.189h9.404v39.622h-9.404l-29.052 18.432-29.053-18.432h-9.404v-39.622h9.404l29.053-18.433.191.121z" fill="#383739"/><path d="m343.84 810.903-28.845-18.301-28.846 18.301h-8.896v38.194h8.896l28.846 18.301 28.845-18.301h8.897v-38.194h-8.793z" fill="#ca3745"/><path d="m322.626 811.708v2.648h3.331v5.297h-8.6v-13.242h19.541v9.216h9.492v13.508h-9.902v-5.297h4.634v-2.913h-6.16l-14.893 9.075 14.893 9.076h6.159v-2.914h-4.633v-5.297h9.902v13.509h-9.493l.001 9.216h-19.541v-13.242h8.6v5.297h-3.331v2.648h9.003v-5.063l-16.634-10.137-16.634 10.137v5.062h9.002v-2.648h-3.331v-5.297h8.6v13.243h-19.54v-9.217h-9.493v-13.508h9.903v5.297h-4.634v2.914h6.159l14.893-9.076-14.893-9.075h-6.159v2.913h4.634v5.297h-9.903v-13.508h9.493v-9.216h.357 19.183v13.242h-8.6v-5.297h3.331v-2.648h-9.002v5.063l16.634 10.137 16.634-10.137v-5.063z" fill="#383739"/><path d="m288.154 835.448h4.633v-3.869h-8.473v12.08h9.492v9.216h18.112v-11.814h-7.171v3.869h3.331v4.076h-10.432v-6.178l17.349-10.572 17.348 10.573v6.178h-10.432v-4.076h3.332v-3.869h-7.172v11.813h18.112v-9.216h9.493v-12.079h-8.474v3.868h4.633v4.342h-7.073l-16.066-9.79 16.066-9.79h7.074v4.342h-4.634v3.869h8.474v-12.08h-9.492v-9.216h-18.112v11.814h7.171v-3.869h-3.331v-4.076h10.431v6.178l-17.348 10.572-17.349-10.572v-6.178h10.432v4.076h-3.331v3.869h7.171v-11.814h-18.112v9.216h-9.492v12.08h8.473v-3.869h-4.633v-4.342h7.073l16.066 9.79-16.066 9.79h-7.073z" fill="#fff"/><g fill="#383739"><path d="m379.986 833.141v6.923h8.409v-6.923h8.342v19.603h-8.342v-6.923h-8.409v6.923h-8.342v-19.603z"/><path d="m350.135 859.165v6.924h8.409v-6.924h8.342v19.603h-8.342v-6.923h-8.409v6.923h-8.342v-19.603z"/><path d="m379.986 826.856v-6.923h8.409v6.923h8.342v-19.603h-8.342v6.923h-8.409v-6.923h-8.342v19.603z"/><path d="m250.006 833.141v6.923h-8.409v-6.923h-8.342v19.603h8.342v-6.923h8.409v6.923h8.342v-19.603z"/><path d="m250.006 826.856v-6.923h-8.409v6.923h-8.342v-19.603h8.342v6.923h8.409v-6.923h8.342v19.603z"/><path d="m350.135 800.832v-6.923h8.409v6.923h8.342v-19.603h-8.342v6.923h-8.409v-6.923h-8.342v19.603z"/><path d="m279.857 859.165v6.924h-8.409v-6.924h-8.342v19.603h8.342v-6.923h8.409v6.923h8.342v-19.603z"/><path d="m279.857 800.832v-6.923h-8.409v6.923h-8.342v-19.603h8.342v6.923h8.409v-6.923h8.342v19.603z"/></g><path d="m372.358 833.856v18.174h6.913v-6.923h9.838v6.923h6.914v-18.174h-6.914v6.923h-9.838v-6.923z" fill="#ca3745"/><path d="m342.508 859.88v18.174h6.913v-6.923h9.838v6.923h6.913v-18.174h-6.913v6.923h-9.838v-6.923z" fill="#ca3745"/><path d="m372.358 826.142v-18.174h6.913v6.923h9.838v-6.923h6.914v18.174h-6.914v-6.924h-9.838v6.924z" fill="#ca3745"/><path d="m257.634 833.856v18.174h-6.913v-6.923h-9.838v6.923h-6.913v-18.174h6.913v6.923h9.838v-6.923z" fill="#ca3745"/><path d="m257.634 826.142v-18.174h-6.913v6.923h-9.838v-6.923h-6.913v18.174h6.913v-6.924h9.838v6.924z" fill="#ca3745"/><path d="m342.508 800.118v-18.175h6.913v6.924h9.838v-6.924h6.913v18.175h-6.913v-6.924h-9.838v6.924z" fill="#ca3745"/><path d="m287.485 859.88v18.174h-6.914v-6.923h-9.838v6.923h-6.913v-18.174h6.913v6.923h9.838v-6.923z" fill="#ca3745"/><path d="m287.485 800.118v-18.175h-6.914v6.924h-9.838v-6.924h-6.913v18.175h6.913v-6.924h9.838v6.924z" fill="#ca3745"/><path d="m399.526 801.98-27.662-14.887v14.887z" fill="#383739"/><path d="m230.466 858.017 27.662 14.887v-14.887z"/><path d="m230.466 801.98 27.662-14.887v14.887z"/><path d="m399.526 858.017-27.662 14.887v-14.887z" fill="#383739"/><path d="m372.578 801.266v-12.977l24.114 12.977z" fill="#faae29"/><path d="m257.414 858.731v12.978l-24.113-12.978z" fill="#faae29"/><path d="m257.414 801.266v-12.977l-24.113 12.977z" fill="#fff"/><path d="m372.578 858.731v12.978l24.114-12.978z" fill="#fff"/></g><g fill="#faae29" fill-rule="nonzero"><path d="m201.899 884.708c1.332 5.679 5.847 9.965 6.923 15.855 2.154-6.141 4.14-11.289 2.657-18.007-1.061-4.805-5.103-8.232-5.571-13.17-4.407 3.962-5.356 9.582-4.009 15.322zm-1.117 23.794c3.738 5.125 8.934 9.056 14.672 11.677-1.13-4.489.99-7.869 3.343-11.433 2.835-4.29 4.217-8.504 1.906-13.444-1.077 2.568-2.524 4.701-4.222 6.897-2.511 3.426-4.162 6.472-4.549 10.866-2.904-2.152-4.18-5.366-5.733-8.476-2.367-4.455-6.187-8.179-10.575-10.614 1.166 4.997 2.064 10.281 5.158 14.527zm20.964 15.276c-.799 2.846-1.488 5.668-1.334 8.643-2.47-2.661-5.75-4.664-8.676-6.808-3.985-3.223-8.63-5.496-11.888-9.6.486 6.04 3.071 10.964 7.979 14.639 5.188 3.883 11.445 5.971 16.555 10.048-.765-5.493 1.253-9.894 2.974-14.943 1.434-4.825.046-9.724-3.226-13.401.049 4.076-1.237 7.576-2.384 11.422zm11.643 18.555c1.075 4.167 4.061 7.557 6.1 11.274-5.498-1.705-10.349-4.687-15.319-7.493-5.92-3.223-12.348-5.275-17.707-9.531 2.667 9.874 9.277 15.598 18.947 18.517 6.612 1.997 12.184 1.001 20.207 4.243-.92-5.431-2.541-11.293-5.109-16.19-1.993-3.542-4.203-7.035-5.434-10.936-1.783 3.204-2.627 6.464-1.685 10.116zm20.231 15.109c1.893 3.243 4.392 5.972 7.491 8.125-7.805.497-14.086-4.449-21.695-4.664-4.7-.132-9.162 1.327-13.955.889 5.688 3.838 11.643 7.189 18.568 8.085 9.002 1.164 17.304-1.101 27.235-.215-4.641-3.275-6.963-7.659-9.856-12.373-3.767-5.887-7.322-10.083-14.649-11.03 2.941 3.306 4.653 7.401 6.861 11.183zm27.719 12.955c-13.75 2.337-26.926 5.362-40.969 5.501 15.719 5.48 30.53 6.471 46.12.813 8.425-3.058 14.885-4.695 21.248-4.239 9.299.668 20.6 4.337 33.107 17.528l4.916-3.934c-17.927-15.971-41.381-19.587-64.422-15.669z"/><path d="m428.161 884.708c-1.332 5.679-5.846 9.965-6.923 15.855-2.154-6.141-4.139-11.289-2.656-18.007 1.06-4.805 5.102-8.232 5.57-13.17 4.407 3.962 5.356 9.582 4.009 15.322zm1.117 23.794c-3.738 5.125-8.934 9.056-14.671 11.677 1.129-4.489-.991-7.869-3.344-11.433-2.835-4.29-4.217-8.504-1.906-13.444 1.077 2.568 2.525 4.701 4.222 6.897 2.511 3.426 4.163 6.472 4.549 10.866 2.904-2.152 4.181-5.366 5.733-8.476 2.367-4.455 6.187-8.179 10.575-10.614-1.166 4.997-2.063 10.281-5.158 14.527zm-20.964 15.276c.799 2.846 1.489 5.668 1.334 8.643 2.471-2.661 5.75-4.664 8.676-6.808 3.986-3.223 8.63-5.496 11.888-9.6-.486 6.04-3.071 10.964-7.979 14.639-5.188 3.883-11.445 5.971-16.555 10.048.766-5.493-1.253-9.894-2.974-14.943-1.433-4.825-.046-9.724 3.226-13.401-.048 4.076 1.237 7.576 2.384 11.422zm-11.643 18.555c-1.075 4.167-4.061 7.557-6.1 11.274 5.498-1.705 10.349-4.687 15.319-7.493 5.92-3.223 12.348-5.275 17.708-9.531-2.668 9.874-9.278 15.598-18.948 18.517-6.612 1.997-12.184 1.001-20.207 4.243.92-5.431 2.541-11.293 5.109-16.19 1.993-3.542 4.204-7.035 5.434-10.936 1.783 3.204 2.627 6.464 1.685 10.116zm-20.231 15.109c-1.893 3.243-4.392 5.972-7.49 8.125 7.804.497 14.086-4.449 21.694-4.664 4.7-.132 9.162 1.327 13.956.889-5.689 3.838-11.644 7.189-18.569 8.085-9.002 1.164-17.304-1.101-27.235-.215 4.641-3.275 6.963-7.659 9.856-12.373 3.767-5.887 7.322-10.083 14.65-11.03-2.942 3.306-4.654 7.401-6.862 11.183zm-27.719 12.955c13.75 2.337 26.926 5.362 40.969 5.501-15.719 5.48-30.53 6.471-46.12.813-8.425-3.058-14.885-4.695-21.248-4.239-9.299.668-20.6 4.337-33.107 17.528l-4.916-3.934c17.927-15.971 41.381-19.587 64.422-15.669z"/></g><g fill-rule="nonzero"><path d="m200.552 219.304 5.129 4.778-25.683 23.927v-9.772l15.195-14.155-5.129-4.778 10.817-10.076-4.712-4.39v6.289h-9.322v-7.523l20.975-19.54h10.542l1.208 6.91h-6.118l6.635 6.18 16.578-15.139-16.578-15.139-6.635 6.181h6.118l-1.208 6.909h-10.542l-20.975-19.539v-7.524h9.322v6.289l4.712-4.39-10.817-10.076 5.129-4.778-15.195-14.156v-9.771l25.683 23.927-5.129 4.778 10.816 10.076-9.284 8.648 6.142 5.722 11.818-11.011 25.952 23.854-25.952 23.855-11.818-11.012-6.142 5.722 9.284 8.648z" fill="#383739"/><path d="m211.621 173.764 8.462-7.884 17.668 16.135-17.668 16.135-8.462-7.884h7.059l-.961-5.495h-9.583l-20.53 19.125v6.524h7.803v-7.289l6.545 6.097-10.815 10.076 5.128 4.778-16.271 15.157v7.771l24.611-22.928-5.128-4.778 10.815-10.076-9.284-8.648 7.216-6.722 11.822 11.014 24.867-22.857-24.867-22.858-11.822 11.015-7.216-6.722 9.284-8.648-10.815-10.076 5.128-4.778-24.611-22.928v7.771l16.271 15.157-5.128 4.778 10.815 10.076-6.545 6.097v-7.289h-7.803v6.524l20.53 19.125h9.583l.961-5.495z" fill="#faae29"/><path d="m229.269 181.699-5.474 5.098-.893-5.098.893-5.099z" fill="#383739"/><path d="m224.306 178.077-.635 3.622.635 3.622 3.889-3.622z" fill="#faae29"/><path d="m192.351 187.178 5.143-5.155-5.143-5.169h-6.317v-7.235l-6.038-6.038v36.87l6.038-6.038v-7.235z" fill="#383739"/><path d="m192.054 177.569 4.432 4.454-4.432 4.441h-6.734v7.654l-5.324 5.323v-34.849l5.324 5.324v7.653z" fill="#faae29"/></g><g fill-rule="nonzero"><path d="m200.552 407.301 5.129 4.778-25.683 23.927v-9.772l15.195-14.155-5.129-4.778 10.817-10.076-4.712-4.39v6.289h-9.322v-7.523l20.975-19.54h10.542l1.208 6.91h-6.118l6.635 6.18 16.578-15.139-16.578-15.139-6.635 6.181h6.118l-1.208 6.909h-10.542l-20.975-19.539v-7.524h9.322v6.289l4.712-4.39-10.817-10.076 5.129-4.778-15.195-14.156v-9.771l25.683 23.927-5.129 4.778 10.816 10.076-9.284 8.648 6.142 5.722 11.818-11.011 25.952 23.854-25.952 23.855-11.818-11.012-6.142 5.722 9.284 8.648z" fill="#383739"/><path d="m211.621 361.761 8.462-7.884 17.668 16.135-17.668 16.135-8.462-7.884h7.059l-.961-5.495h-9.583l-20.53 19.125v6.524h7.803v-7.289l6.545 6.097-10.815 10.076 5.128 4.778-16.271 15.157v7.771l24.611-22.928-5.128-4.778 10.815-10.076-9.284-8.648 7.216-6.722 11.822 11.014 24.867-22.857-24.867-22.858-11.822 11.015-7.216-6.722 9.284-8.648-10.815-10.076 5.128-4.778-24.611-22.928v7.771l16.271 15.157-5.128 4.778 10.815 10.076-6.545 6.097v-7.289h-7.803v6.524l20.53 19.125h9.583l.961-5.495z" fill="#faae29"/><path d="m229.269 369.696-5.474 5.098-.893-5.098.893-5.099z" fill="#383739"/><path d="m224.306 366.074-.635 3.622.635 3.622 3.889-3.622z" fill="#faae29"/><path d="m192.351 375.175 5.143-5.155-5.143-5.169h-6.317v-7.235l-6.038-6.038v36.87l6.038-6.038v-7.235z" fill="#383739"/><path d="m192.054 365.566 4.432 4.454-4.432 4.441h-6.734v7.654l-5.324 5.323v-34.849l5.324 5.324v7.653z" fill="#faae29"/></g><g fill-rule="nonzero"><path d="m200.552 595.294 5.129 4.778-25.683 23.927v-9.772l15.195-14.155-5.129-4.778 10.817-10.076-4.712-4.39v6.289h-9.322v-7.523l20.975-19.54h10.542l1.208 6.91h-6.118l6.635 6.18 16.578-15.139-16.578-15.139-6.635 6.181h6.118l-1.208 6.909h-10.542l-20.975-19.539v-7.524h9.322v6.289l4.712-4.39-10.817-10.076 5.129-4.778-15.195-14.156v-9.771l25.683 23.927-5.129 4.778 10.816 10.076-9.284 8.648 6.142 5.722 11.818-11.011 25.952 23.854-25.952 23.855-11.818-11.012-6.142 5.722 9.284 8.648z" fill="#383739"/><path d="m211.621 549.754 8.462-7.884 17.668 16.135-17.668 16.135-8.462-7.884h7.059l-.961-5.495h-9.583l-20.53 19.125v6.524h7.803v-7.289l6.545 6.097-10.815 10.076 5.128 4.778-16.271 15.157v7.771l24.611-22.928-5.128-4.778 10.815-10.076-9.284-8.648 7.216-6.722 11.822 11.014 24.867-22.857-24.867-22.858-11.822 11.015-7.216-6.722 9.284-8.648-10.815-10.076 5.128-4.778-24.611-22.928v7.771l16.271 15.157-5.128 4.778 10.815 10.076-6.545 6.097v-7.289h-7.803v6.524l20.53 19.125h9.583l.961-5.495z" fill="#faae29"/><path d="m229.269 557.689-5.474 5.098-.893-5.098.893-5.099z" fill="#383739"/><path d="m224.306 554.067-.635 3.622.635 3.622 3.889-3.622z" fill="#faae29"/><path d="m192.351 563.168 5.143-5.155-5.143-5.169h-6.317v-7.235l-6.038-6.038v36.87l6.038-6.038v-7.235z" fill="#383739"/><path d="m192.054 553.559 4.432 4.454-4.432 4.441h-6.734v7.654l-5.324 5.323v-34.849l5.324 5.324v7.653z" fill="#faae29"/></g><g fill-rule="nonzero"><path d="m200.552 783.29 5.129 4.778-25.683 23.927v-9.772l15.195-14.155-5.129-4.778 10.817-10.076-4.712-4.39v6.289h-9.322v-7.523l20.975-19.54h10.542l1.208 6.91h-6.118l6.635 6.18 16.578-15.139-16.578-15.139-6.635 6.181h6.118l-1.208 6.909h-10.542l-20.975-19.539v-7.524h9.322v6.289l4.712-4.39-10.817-10.076 5.129-4.778-15.195-14.156v-9.771l25.683 23.927-5.129 4.778 10.816 10.076-9.284 8.648 6.142 5.722 11.818-11.011 25.952 23.854-25.952 23.855-11.818-11.012-6.142 5.722 9.284 8.648z" fill="#383739"/><path d="m211.621 737.75 8.462-7.884 17.668 16.135-17.668 16.135-8.462-7.884h7.059l-.961-5.495h-9.583l-20.53 19.125v6.524h7.803v-7.289l6.545 6.097-10.815 10.076 5.128 4.778-16.271 15.157v7.771l24.611-22.928-5.128-4.778 10.815-10.076-9.284-8.648 7.216-6.722 11.822 11.014 24.867-22.857-24.867-22.858-11.822 11.015-7.216-6.722 9.284-8.648-10.815-10.076 5.128-4.778-24.611-22.928v7.771l16.271 15.157-5.128 4.778 10.815 10.076-6.545 6.097v-7.289h-7.803v6.524l20.53 19.125h9.583l.961-5.495z" fill="#faae29"/><path d="m229.269 745.685-5.474 5.098-.893-5.098.893-5.099z" fill="#383739"/><path d="m224.306 742.063-.635 3.622.635 3.622 3.889-3.622z" fill="#faae29"/><path d="m192.351 751.164 5.143-5.155-5.143-5.169h-6.317v-7.235l-6.038-6.038v36.87l6.038-6.038v-7.235z" fill="#383739"/><path d="m192.054 741.555 4.432 4.454-4.432 4.441h-6.734v7.654l-5.324 5.323v-34.849l5.324 5.324v7.653z" fill="#faae29"/></g><g fill-rule="nonzero"><path d="m429.44 219.304-5.129 4.778 25.683 23.927v-9.772l-15.195-14.155 5.129-4.778-10.817-10.076 4.712-4.39v6.289h9.322v-7.523l-20.975-19.54h-10.542l-1.208 6.91h6.118l-6.635 6.18-16.578-15.139 16.578-15.139 6.635 6.181h-6.118l1.208 6.909h10.542l20.975-19.539v-7.524h-9.322v6.289l-4.712-4.39 10.817-10.076-5.129-4.778 15.195-14.156v-9.771l-25.683 23.927 5.129 4.778-10.816 10.076 9.284 8.648-6.142 5.722-11.818-11.011-25.952 23.854 25.952 23.855 11.818-11.012 6.142 5.722-9.284 8.648z" fill="#383739"/><path d="m418.371 173.764-8.462-7.884-17.668 16.135 17.668 16.135 8.462-7.884h-7.059l.961-5.495h9.583l20.53 19.125v6.524h-7.803v-7.289l-6.545 6.097 10.815 10.076-5.128 4.778 16.271 15.157v7.771l-24.611-22.928 5.128-4.778-10.815-10.076 9.284-8.648-7.216-6.722-11.822 11.014-24.867-22.857 24.867-22.858 11.822 11.015 7.216-6.722-9.284-8.648 10.815-10.076-5.128-4.778 24.611-22.928v7.771l-16.271 15.157 5.128 4.778-10.815 10.076 6.545 6.097v-7.289h7.803v6.524l-20.53 19.125h-9.583l-.961-5.495z" fill="#faae29"/><path d="m400.723 181.699 5.474 5.098.893-5.098-.893-5.099z" fill="#383739"/><path d="m405.686 178.077.635 3.622-.635 3.622-3.889-3.622z" fill="#faae29"/><path d="m437.641 187.178-5.143-5.155 5.143-5.169h6.317v-7.235l6.038-6.038v36.87l-6.038-6.038v-7.235z" fill="#383739"/><path d="m437.938 177.569-4.432 4.454 4.432 4.441h6.734v7.654l5.324 5.323v-34.849l-5.324 5.324v7.653z" fill="#faae29"/></g><g fill-rule="nonzero"><path d="m429.44 407.301-5.129 4.778 25.683 23.927v-9.772l-15.195-14.155 5.129-4.778-10.817-10.076 4.712-4.39v6.289h9.322v-7.523l-20.975-19.54h-10.542l-1.208 6.91h6.118l-6.635 6.18-16.578-15.139 16.578-15.139 6.635 6.181h-6.118l1.208 6.909h10.542l20.975-19.539v-7.524h-9.322v6.289l-4.712-4.39 10.817-10.076-5.129-4.778 15.195-14.156v-9.771l-25.683 23.927 5.129 4.778-10.816 10.076 9.284 8.648-6.142 5.722-11.818-11.011-25.952 23.854 25.952 23.855 11.818-11.012 6.142 5.722-9.284 8.648z" fill="#383739"/><path d="m418.371 361.761-8.462-7.884-17.668 16.135 17.668 16.135 8.462-7.884h-7.059l.961-5.495h9.583l20.53 19.125v6.524h-7.803v-7.289l-6.545 6.097 10.815 10.076-5.128 4.778 16.271 15.157v7.771l-24.611-22.928 5.128-4.778-10.815-10.076 9.284-8.648-7.216-6.722-11.822 11.014-24.867-22.857 24.867-22.858 11.822 11.015 7.216-6.722-9.284-8.648 10.815-10.076-5.128-4.778 24.611-22.928v7.771l-16.271 15.157 5.128 4.778-10.815 10.076 6.545 6.097v-7.289h7.803v6.524l-20.53 19.125h-9.583l-.961-5.495z" fill="#faae29"/><path d="m400.723 369.696 5.474 5.098.893-5.098-.893-5.099z" fill="#383739"/><path d="m405.686 366.074.635 3.622-.635 3.622-3.889-3.622z" fill="#faae29"/><path d="m437.641 375.175-5.143-5.155 5.143-5.169h6.317v-7.235l6.038-6.038v36.87l-6.038-6.038v-7.235z" fill="#383739"/><path d="m437.938 365.566-4.432 4.454 4.432 4.441h6.734v7.654l5.324 5.323v-34.849l-5.324 5.324v7.653z" fill="#faae29"/></g><g fill-rule="nonzero"><path d="m429.44 595.294-5.129 4.778 25.683 23.927v-9.772l-15.195-14.155 5.129-4.778-10.817-10.076 4.712-4.39v6.289h9.322v-7.523l-20.975-19.54h-10.542l-1.208 6.91h6.118l-6.635 6.18-16.578-15.139 16.578-15.139 6.635 6.181h-6.118l1.208 6.909h10.542l20.975-19.539v-7.524h-9.322v6.289l-4.712-4.39 10.817-10.076-5.129-4.778 15.195-14.156v-9.771l-25.683 23.927 5.129 4.778-10.816 10.076 9.284 8.648-6.142 5.722-11.818-11.011-25.952 23.854 25.952 23.855 11.818-11.012 6.142 5.722-9.284 8.648z" fill="#383739"/><path d="m418.371 549.754-8.462-7.884-17.668 16.135 17.668 16.135 8.462-7.884h-7.059l.961-5.495h9.583l20.53 19.125v6.524h-7.803v-7.289l-6.545 6.097 10.815 10.076-5.128 4.778 16.271 15.157v7.771l-24.611-22.928 5.128-4.778-10.815-10.076 9.284-8.648-7.216-6.722-11.822 11.014-24.867-22.857 24.867-22.858 11.822 11.015 7.216-6.722-9.284-8.648 10.815-10.076-5.128-4.778 24.611-22.928v7.771l-16.271 15.157 5.128 4.778-10.815 10.076 6.545 6.097v-7.289h7.803v6.524l-20.53 19.125h-9.583l-.961-5.495z" fill="#faae29"/><path d="m400.723 557.689 5.474 5.098.893-5.098-.893-5.099z" fill="#383739"/><path d="m405.686 554.067.635 3.622-.635 3.622-3.889-3.622z" fill="#faae29"/><path d="m437.641 563.168-5.143-5.155 5.143-5.169h6.317v-7.235l6.038-6.038v36.87l-6.038-6.038v-7.235z" fill="#383739"/><path d="m437.938 553.559-4.432 4.454 4.432 4.441h6.734v7.654l5.324 5.323v-34.849l-5.324 5.324v7.653z" fill="#faae29"/></g><g fill-rule="nonzero"><path d="m429.44 783.29-5.129 4.778 25.683 23.927v-9.772l-15.195-14.155 5.129-4.778-10.817-10.076 4.712-4.39v6.289h9.322v-7.523l-20.975-19.54h-10.542l-1.208 6.91h6.118l-6.635 6.18-16.578-15.139 16.578-15.139 6.635 6.181h-6.118l1.208 6.909h10.542l20.975-19.539v-7.524h-9.322v6.289l-4.712-4.39 10.817-10.076-5.129-4.778 15.195-14.156v-9.771l-25.683 23.927 5.129 4.778-10.816 10.076 9.284 8.648-6.142 5.722-11.818-11.011-25.952 23.854 25.952 23.855 11.818-11.012 6.142 5.722-9.284 8.648z" fill="#383739"/><path d="m418.371 737.75-8.462-7.884-17.668 16.135 17.668 16.135 8.462-7.884h-7.059l.961-5.495h9.583l20.53 19.125v6.524h-7.803v-7.289l-6.545 6.097 10.815 10.076-5.128 4.778 16.271 15.157v7.771l-24.611-22.928 5.128-4.778-10.815-10.076 9.284-8.648-7.216-6.722-11.822 11.014-24.867-22.857 24.867-22.858 11.822 11.015 7.216-6.722-9.284-8.648 10.815-10.076-5.128-4.778 24.611-22.928v7.771l-16.271 15.157 5.128 4.778-10.815 10.076 6.545 6.097v-7.289h7.803v6.524l-20.53 19.125h-9.583l-.961-5.495z" fill="#faae29"/><path d="m400.723 745.685 5.474 5.098.893-5.098-.893-5.099z" fill="#383739"/><path d="m405.686 742.063.635 3.622-.635 3.622-3.889-3.622z" fill="#faae29"/><path d="m437.641 751.164-5.143-5.155 5.143-5.169h6.317v-7.235l6.038-6.038v36.87l-6.038-6.038v-7.235z" fill="#383739"/><path d="m437.938 741.555-4.432 4.454 4.432 4.441h6.734v7.654l5.324 5.323v-34.849l-5.324 5.324v7.653z" fill="#faae29"/></g><g fill-rule="nonzero"><path d="m196.169 22.825v6.289h-9.322v-7.523l20.975-19.54h10.542l1.208 6.91h-6.118l6.635 6.18 16.576-15.137h9.329l-25.95 23.853-11.818-11.012-6.142 5.722 9.284 8.648-10.816 10.076 5.129 4.778-25.683 23.927v-9.772l15.195-14.155-5.129-4.778 10.817-10.076z" fill="#383739"/><path d="m196.267 42.069-16.271 15.157v7.771l24.611-22.928-5.128-4.778 10.815-10.076-9.284-8.648 7.216-6.722 11.822 11.014 24.865-22.855h-7.164l-17.666 16.133-8.462-7.884h7.059l-.961-5.495h-9.583l-20.53 19.125v6.524h7.803v-7.289l6.545 6.097-10.815 10.076z" fill="#faae29"/><path d="m228.928.004-5.133 4.78-.837-4.78z" fill="#383739"/><path d="m223.727.004.579 3.304 3.548-3.304z" fill="#faae29"/><path d="m197.488.004h-17.492v18.434l6.038-6.038v-7.235h6.317l5.143-5.155z" fill="#383739"/><path d="m179.996 17.428v-17.424h16.484l.006.006-4.432 4.441h-6.734v7.654z" fill="#faae29"/></g><g fill-rule="nonzero"><path d="m433.823 22.825v6.289h9.322v-7.523l-20.975-19.54h-10.542l-1.208 6.91h6.118l-6.635 6.18-16.576-15.137h-9.329l25.95 23.853 11.818-11.012 6.142 5.722-9.284 8.648 10.816 10.076-5.129 4.778 25.683 23.927v-9.772l-15.195-14.155 5.129-4.778-10.817-10.076z" fill="#383739"/><path d="m433.725 42.069 16.271 15.157v7.771l-24.611-22.928 5.128-4.778-10.815-10.076 9.284-8.648-7.216-6.722-11.822 11.014-24.865-22.855h7.164l17.666 16.133 8.462-7.884h-7.059l.961-5.495h9.583l20.53 19.125v6.524h-7.803v-7.289l-6.545 6.097 10.815 10.076z" fill="#faae29"/><path d="m401.064.004 5.133 4.78.837-4.78z" fill="#383739"/><path d="m406.265.004-.579 3.304-3.548-3.304z" fill="#faae29"/><path d="m432.504.004h17.492v18.434l-6.038-6.038v-7.235h-6.317l-5.143-5.155z" fill="#383739"/><path d="m449.996 17.428v-17.424h-16.484l-.006.006 4.432 4.441h6.734v7.654z" fill="#faae29"/></g></g></svg>