<svg height="600" viewBox="0 0 1200 600" width="1200" xmlns="http://www.w3.org/2000/svg" xmlns:xlink="http://www.w3.org/1999/xlink"><defs><clipPath id="a"><path d="m0 0v150h700v150h-100zm0 300v100h300v-400h300z"/></clipPath><path id="b" d="m0-50.0808 29.4368 90.597-77.0665-55.992h95.2594l-77.0665 55.993z" fill="#ffce00"/><use id="c" transform="matrix(.80901699 .58778525 -.58778525 .80901699 0 0)" xlink:href="#b"/></defs><path d="m0 0h1200v600h-1200z" fill="#00247d"/><path d="m0 0 600 300m-600 0 600-300" stroke="#fff" stroke-width="60"/><path clip-path="url(#a)" d="m0 0 600 300m-600 0 600-300" stroke="#cf142b" stroke-width="40"/><path d="m300 0v400m-300-250h700" stroke="#fff" stroke-width="100"/><path d="m300 0v400m-300-250h700" stroke="#cf142b" stroke-width="60"/><path d="m0 300h600v-300h600v600h-1200z" fill="#5b97b1"/><use x="645.3396" xlink:href="#b" y="540.9936"/><use x="788.0256" xlink:href="#c" y="504.516"/><use x="788.0256" xlink:href="#c" y="382.5324"/><use x="914.0304" xlink:href="#c" y="473.6844"/><use x="914.0304" xlink:href="#c" y="208.2708"/><use x="996.4416" xlink:href="#b" y="390.0456"/><use x="1019.928" xlink:href="#c" y="172.0776"/><use x="1102.836" xlink:href="#b" y="321.5544"/><use x="1102.836" xlink:href="#b" y="87.486"/></svg>