<svg height="600" viewBox="0 0 30 18" width="1000" xmlns="http://www.w3.org/2000/svg" xmlns:xlink="http://www.w3.org/1999/xlink"><path d="m0 0h30v18h-30z" fill="#fff"/><path d="m0 0v1.15625l13.0625 7.84375-13.0625 7.84375v1.15625h1.96875l13.03125-7.84375 13.03125 7.84375h1.96875v-1.15625l-13.0625-7.84375 13.0625-7.84375v-1.15625h-1.96875l-13.03125 7.84375-13.03125-7.84375z" fill="#df112d" fill-rule="evenodd"/><g transform="matrix(.12216588 0 0 .12216588 .363005 -.023108)"><path d="m132.662 22.2327c3.156 12.7782 1.425 28.56-12.829 37.3163-14.255-8.7563-15.986-24.5381-12.829-37.3163 3.36-3.0546 18.632-4.9382 25.658 0z" fill="#e8112d" stroke="#000" stroke-width=".125"/><path d="m119.812 19.6672c5.226 0 10.093 1.3832 12.962 3.1764.563-4.4059 2.561-8.8117 4.918-12.1417-2.459-.0513-3.561 1.2551-3.586 2.6127-.615-1.7418-3.023-1.6394-3.766-.6916 2.69 1.8187.615 5.0462-1.818 4.3803-1.143-.3127-1.747-1.1097-1.961-2.2668.263-.0176.524-.1139.744-.2925.567-.46.654-1.2927.194-1.8598s-1.292-.654-1.86-.194c-.567.46-.654 1.2927-.193 1.8598.15.1863.343.3185.551.3988-.769 1.2552-2.148 1.632-3.136 1.3554-1.281-.3586-1.819-1.5113-1.819-2.5359 0-2.664 2.561-3.0738 3.33-2.6127-.051-1.79307-2.869-3.22758-3.74-1.74189.973-1.74179.922-4.2009-.82-5.84027-1.741 1.63937-1.793 4.09848-.819 5.84027-.871-1.48569-3.689-.05118-3.74 1.74189.768-.4611 3.33-.0513 3.33 2.6127 0 1.0246-.538 2.1773-1.819 2.5359-.988.2766-2.367-.1002-3.137-1.3554.209-.0803.401-.2125.552-.3988.46-.5671.373-1.3998-.194-1.8598s-1.4-.3731-1.86.194-.373 1.3998.194 1.8598c.221.1786.482.2749.745.2925-.214 1.1571-.819 1.9541-1.961 2.2668-2.433.6659-4.508-2.5616-1.819-4.3803-.742-.9478-3.15-1.0502-3.765.6916-.026-1.3576-1.127-2.664-3.586-2.6127 2.356 3.33 4.354 7.7358 4.918 12.1417 2.869-1.7932 7.736-3.1764 12.961-3.1764z" fill="#f9dd16" stroke="#000" stroke-width=".125"/><g id="a"><g fill="#f9dd16" stroke="#000" stroke-width=".125"><path d="m130.653 32.1996c-.315.0751-.315.481-.48.481.819-.0226 1.217-.248 1.465-.6614-.18.1653-.023.481-.083.5561.601-.2104.887-.7214.677-1.0671.135.1953.526.3006.646.3156-.421-.3307-.12-1.0822-.797-1.4729.226-.0151.662.2404.782.5411-.105-.6764-.211-1.1123-.767-1.488.06.0676.376.1277.511 0-.36-.2255-.466-.6012-.435-.8417.042-.3365-.181-.4059-.602-.3006-.379.0947-1.247.1503-1.758.1503-1.052 0-1.969 0-2.841-.6012 1.308.541 2.976-.6012 2.976-1.5481 0-1.0522-1.293-1.9089-3.908-1.3377-2.615.5711-5.801.3306-5.801-.5411 0-.8718 2.284-.992 3.457-.8116 1.172.1803 2.013.3006 4.208-.481-.541.2104-2.285.2705-3.667-.1202-1.383-.3908-4.78-.3908-4.81 1.4429-.03 1.8336 3.617 1.6666 6.764 1.2024 1.833-.2706 2.795-.0902 2.795.511 0 .5711-1.683.8116-2.976.6613-1.292-.1502-2.615-.1202-4.148.3307-1.28.3764-2.164 0-3.577.2405-.685.1164-2.345 0-3.164-1.3528-.504.3608-2.022 1.116-2.277 1.8525-.361.6763-.12 1.349.36 2.0103.606.8323-.3.7064-.946.7365-.886.0412-2.072-.0941-2.691-.7966-.548-.6225-1.278-1.1214-1.861-.66-.3.2375-.012.5501.225.4626.235-.0865.513.0875.764.1974-.401-.1724-.842-.0386-1.014.1151-.237.2125.051.6184.338.475.225-.1125.687-.1875.987.0875-.325-.0625-.663-.0493-.825.125s-.037.4281.313.4125c.562-.025.706.3688 1.269.2879-.346.0451-.542.2254-.632.3607.526-.2405 1.107.4078 1.789.2555-.266.1095-.695.371-.691.5712.405-.466 3.126.3607 3.186-.6613.075.2104.06.526-.15.7966.348-.2105 1.473-.2856 1.818-1.0973.03.2405-.015.5562-.225.6313.361.118.836-.1508 1.322-.8717.193-.286.239-.4761.206-.6911.482.0182.831-.1028 1.207-.4212.391-.3306.812.2706 1.473-.1503.662-.4208 1.233-.0601 1.593-.2705.361-.2104.857.0751 1.248-.1653.391-.2405.997.1177 1.644-.3933 1.018.3729 2.206 1.0639 5.12.5285 1.67-.3069 2.194.2555 2.194 1.0221 0 .526-.308.5718-.541.5862-.929.0571-1.328-.3478-1.695-.218-.246.0876-.396.4876-.04.6251-.294.15-.256.4313-.106.5344s.537.0094.8-.1125c-.338.1531-.688.4281-.488.7156.121.1745.427.3224.713-.0499.287-.3751.812-.6876 1.146-.638z"/><path d="m112.144 24.2636c-.842-.3456-1.126-.3551-.932.3307.083.2931.285.7064.488.8943.008-.2855.113-1.0746.444-1.225z"/><path d="m114.774 24.2636c.842-.3456 1.126-.3551.932.3307-.083.2931-.286.7064-.489.8943-.007-.2855-.112-1.0746-.443-1.225z"/><path d="m113.463 23.8016c1.593 0 1.792.7477 1.784 1.6795-.007 1.007-.548.6613-.856 1.9539-.12.5054-.523.5336-.928.5336-.406 0-.808-.0282-.929-.5336-.307-1.2926-.849-.9469-.856-1.9539-.008-.9318.191-1.6795 1.785-1.6795z"/><path d="m109.356 27.4951c-.406-.2405-.668-.0741-.833-.0289.526.1352.547.8105 1.75 1.1261-.271-.0751-.421.0752-.677-.0601.496.3908 1.052.8433 2.225.8567.654.0075.202.3457-.226.1503.444.4584 1.323.0827 1.879.9169.105-.6463-1.037-1.6684-.511-2.4048-1.622-.0691-1.755-.9681-2.69-1.6834-.761-.5816-.829-1.1728-1.165-2.2797-.153-.5012-.74-.8137-1.065-.695-.284.1038-.388.3501-.144.5344.244.1844.556.2094.623.6766-.317-.3797-.792-.5172-1.02-.2797-.139.1446-.083.482.216.5126.487.05.137.525.691.9897-.491-.5522-.916-.6022-1.179-.3022-.157.1797 0 .5.338.4657.489-.0498 1.056 1.1907 1.788 1.5048z"/><path d="m122.432 32.1394c-.256.0451-.18.466-.526.4961.827 0 1.247-.1955 1.638-.5111-.18.1052-.255.3758-.27.526.436-.3757 1.473-.4057 2.014-.3005s.631-.1503.826-.496c.196-.3457-.075-.5411-.345-.8116-.271-.2706-.331-.6463-.271-1.2776-1.443-1.9238-4.028-.992-4.058-.1503.932 1.0821 1.052.9619 1.834 1.1122.781.1503 1.26.1499.736.5862-.18.1503-.932.0797-1.518.1052-1.311.057-1.911-.9056-2.298-.4056-.319.4112.01.5928.66.5709-.45.0032-1.047-.0211-.945.398.172.7062.847-.1313 1.11.1593-.225-.0531-.575.0844-.588.2969-.012.2126.5.4875 1.063.0406.308-.245.701-.3367.938-.3387z"/></g><g fill="none" stroke="#000" stroke-width=".125"><path d="m123.55 29.2061c-.469-.1716-.899-.2765-1.449-.1629"/><path d="m116.48 28.9831c-.386.8294-.152 1.2388-.095 1.6236"/><path d="m112.37 25.0516c.265.1325.414-.242.803.1556-.107-.116-.24.3083-.538.0267"/><path d="m114.533 25.0516c-.265.1325-.414-.242-.803.1556.107-.116.24.3083.538.0267"/><path d="m113.73 25.2072c-.091.0751-.1-.0599-.031.2948.128.6513.279.956-.248.956-.538 0-.375-.3047-.248-.956.07-.3547.061-.2197-.03-.2948"/></g><path d="m113.459 27.7056c.428 0 .676-.0075.609-.6087-.028-.2413.293-.3374.18-.729.12.4809-.789.435-.789.217 0 .218-.909.2639-.789-.217-.113.3916.207.4877.18.729-.067.6012.181.6087.609.6087z" fill="#ff0016" stroke="#000" stroke-width=".0625"/><g stroke="#000" stroke-width=".0625"><path d="m113.074 26.4894-1.028-.2868"/><path d="m113.074 26.5428-1.148-.0096"/><path d="m113.085 26.6016-.979.2623"/><path d="m113.844 26.4894 1.028-.2868"/><path d="m113.844 26.5428 1.148-.0096"/><path d="m113.833 26.6016.979.2623"/></g><g fill="#0051ba" stroke="#000" stroke-width=".013"><path d="m108.134 23.4136c-.299-.3723-1.048-.0579-1.063.404.253-.2994.666.1319.891.0412.156-.0628.293-.2937.172-.4452z"/><path d="m107.746 24.2949c-.299-.3723-1.047-.0579-1.062.404.252-.2994.665.1319.891.0412.156-.0627.293-.2937.171-.4452z"/><path d="m107.551 25.4788c-.339-.3363-1.047.0603-1.01.5209.218-.3259.676.0563.89-.0593.148-.0799.258-.3247.12-.4616z"/><path d="m107.908 29.1479c-.376-.295-1.033.1803-.944.6337.179-.3487.678-.0219.877-.1612.138-.0965.22-.3523.067-.4725z"/><path d="m107.889 29.9509c-.448-.1652-.928.4894-.703.8933.062-.3868.638-.2294.785-.4234.102-.1342.1-.4026-.082-.4699z"/><path d="m108.464 30.551c-.448-.1653-.928.4893-.704.8933.063-.3869.639-.2295.786-.4235.102-.1342.1-.4026-.082-.4698z"/><path d="m120.202 31.7135c-.448-.1652-.928.4894-.703.8933.063-.3868.638-.2294.785-.4234.102-.1342.1-.4026-.082-.4699z"/><path d="m120.807 32.2581c-.464-.1132-.866.5918-.597.9675.018-.3915.608-.3006.732-.5101.086-.1449.054-.4114-.135-.4574z"/><path d="m120.381 30.9425c-.414-.239-.998.3245-.845.7607.128-.3705.668-.1175.846-.2836.123-.115.167-.3798-.001-.4771z"/><path d="m128.732 31.883c-.464-.1131-.866.5918-.597.9676.019-.3915.609-.3006.732-.5101.086-.1449.054-.4114-.135-.4575z"/><path d="m128.746 31.1458c-.421-.2246-.985.3587-.818.7894.115-.3747.664-.1404.836-.3126.119-.1192.154-.3853-.018-.4768z"/><path d="m129.072 32.5419c-.468-.0928-.839.6291-.554.9927.002-.3919.595-.327.709-.5416.08-.1486.036-.4134-.155-.4511z"/><path d="m113.493 27.3452c.294 0 .413.0858.413.6169 0 1.1252-.013 1.609-.375 1.609-.363 0-.338-.4597-.338-1.2858 0-.431 0-.6465-.087-.6106 0-.2812.125-.3295.387-.3295z"/></g></g><use transform="matrix(.9 0 0 .9 11.6 13.7)" xlink:href="#a"/><use transform="matrix(.67 0 0 .75 39.2 27.5)" xlink:href="#a"/></g></svg>