<svg height="330" width="600" xmlns="http://www.w3.org/2000/svg"><path d="m0 0h600v330h-600z" fill="#0038a8"/><path d="m0 0h600v220h-600z" fill="#fff"/><path d="m0 0h600v110h-600z" fill="#d52b1e"/><path d="m341.81663 164.98906c0 23.10236-18.71611 41.82744-41.81786 41.82744-23.08948 0-41.8154-18.72508-41.8154-41.82744 0-23.09265 18.72592-41.80556 41.8154-41.80556 23.10175 0 41.81786 18.71291 41.81786 41.80556z" fill="#fff" stroke="#000" stroke-miterlimit="10" stroke-width="1.842905"/><path d="m320.23636 158.49868c-1.01583-.04134-1.02221 1.07824-1.02221 1.07824s.03522-.33078.00638.04454c-.0192.37214.16665 1.27868.91649 1.35182.79151.06995 1.05427-.8556 1.06071-1.30408 0-.17809-.05768-1.14825-.96137-1.17052" fill="#009b3a" stroke="#000" stroke-width=".492576"/><g transform="matrix(1.0000826 0 0 1.0085097 97.058443 -.918059)"><path d="m176.69647 181.09894-.35768-.58836c-.03675-.0651-.12984-.17361-.27929-.33517-.07349-.0844-.16904-.12298-.27683-.13503-.11025-.01447-.21559.00241-.32583.0651-.13965.0844-.23029.19773-.24499.33517-.02695.13986.0392.33276.19599.59318l.36258.61248zm3.54006-.20255-4.54941 2.68379-1.38907-2.31486c-.25724-.43404-.41403-.77885-.47528-1.05133-.07104-.2773-.03675-.53772.0784-.79573.11514-.26042.32338-.47744.61491-.65106.24254-.14467.49488-.2146.73987-.22666.25478 0 .48752.0627.71291.18085.13964.07957.30133.20255.47772.38099-.04164-.19291-.06614-.34482-.05634-.46297.0147-.06993.04654-.18568.11024-.3617.06125-.16879.12004-.28695.15679-.3617l.9187-1.45161.9383 1.577-.9383 1.56494c-.11759.19773-.18864.34964-.19844.45574-.0049.14709.02695.27489.098.40027l.07839.1278 1.84231-1.0875z"/><path d="m172.22742 177.223-1.38908-4.1161 1.0706-.35688.8697 2.5801.80356-.26765-.81826-2.39443 1.02895-.33276.80845 2.38237.98485-.31588-.8893-2.65485 1.13674-.3834 1.41113 4.19327z"/><path d="m172.37588 168.84467-.05635-.38581c-.03675-.3207-.11514-.52808-.23518-.63658-.12985-.10851-.27439-.15915-.44833-.13986-.16169.02652-.29399.09404-.39443.20737-.10534.12539-.13964.33276-.09555.63418l.0441.46297zm-2.05789 1.87841-.31603-2.67414c-.0637-.57389.01959-1.03204.26213-1.35516.24989-.3207.63207-.51361 1.14654-.57148.52917-.0651.9677.04823 1.30088.32553.32829.28212.53897.75233.61737 1.39856l.10044.88013 1.94765-.22426.19109 1.61799z"/><path d="m170.13401 160.48997.16904-1.61075 3.14074.33517c.30868.03617.59776.11815.855.23872.27684.12297.49732.30141.68106.5329.1813.23148.30869.45332.36749.69204.08084.31588.10289.70169.05144 1.14537-.02205.24355-.07594.52567-.14699.81985-.06615.29659-.16904.54013-.29643.72821-.12985.19291-.29644.36411-.50958.5112-.21314.14468-.42872.2339-.64431.27248-.34788.06993-.64677.08439-.90646.05546l-3.12603-.32794.16904-1.61316 3.20688.34481c.28909.02894.51937-.02411.69821-.16879.17885-.14227.27929-.34964.31359-.62212.0294-.28694-.0294-.50878-.16904-.67999-.13965-.17602-.35523-.27488-.64677-.30864z"/><path d="m175.3951 156.08161.28174-.77644c.08574-.26283.11024-.46538.05144-.61247-.05144-.13263-.16169-.23631-.32093-.28695-.15679-.05305-.28664-.0434-.41403.03376-.13229.07957-.24499.24836-.33563.5112l-.27929.78126zm-1.96235-.6824.23764-.65829c.08085-.24113.1029-.42439.0441-.54736-.0441-.11816-.14699-.2122-.30624-.25801-.13964-.05305-.27193-.04341-.38707.01687-.11515.06752-.21069.2122-.28909.44369l-.24744.67757zm-2.49642.87048 1.00445-2.87187c.17394-.47744.42138-.79573.75456-.97658.32094-.16397.65902-.19531 1.01915-.07475.28908.11333.50957.28695.66146.54255.09065.16879.147.39063.147.64864.20823-.32794.44832-.53531.71536-.62453.27193-.09645.56837-.09163.8893.01929.25234.08681.46303.22908.62962.41716.15924.19772.26458.41474.31603.6607.0245.15914.01225.37134-.0441.63417-.08329.36893-.13229.60283-.17394.71134l-.93095 2.64279z"/><path d="m173.63169 149.54962.855-1.38409 3.40533 2.0472 1.32538-2.16053 1.10979.67275-2.16079 3.54221z"/><path d="m177.12471 144.39014 1.05099-1.24182 4.03494 3.38306-1.05344 1.24183z"/><path d="m184.45277 141.57156 1.37438-.58354c.17639.36652.27683.71616.29153 1.05857.01225.33758-.05389.65587-.19599.95246-.15679.30142-.41403.59319-.76681.89942-.44832.3617-.8599.59801-1.24943.70169-.38463.09887-.81581.07475-1.29598-.07475-.46303-.15191-.90401-.48226-1.33028-.97658-.55367-.67275-.80846-1.33104-.75211-1.97727.05389-.65829.41157-1.24906 1.06324-1.79401.51692-.42439.9971-.64623 1.46992-.6824.46058-.04341.95055.09404 1.44298.40027l-.90401 1.16225c-.13719-.08921-.25233-.1495-.35033-.16879-.14944-.0434-.29398-.0434-.43852-.00482-.14455.03135-.28419.09886-.40178.19773-.28664.23872-.41158.5329-.36993.88495.0245.26283.19354.56907.48752.93317.37973.4461.70801.69687.9775.74751.28418.05787.54632-.0217.79131-.22425.23764-.20255.36748-.41475.37238-.64623.00735-.24596-.0588-.51361-.21559-.80538"/><path d="m189.8023 138.4207-1.38173-1.41785.34788 1.94593zm.82316.86084-1.65612.83431.16904.88977-1.48707.74992-.62961-5.56771 1.58996-.80538 4.17213 3.77852-1.52137.77162z"/><path d="m197.05637 133.81486.40668 2.83088.39688-.05788c.34053-.04099.57817-.11574.71291-.20978.12984-.10369.21804-.23631.27194-.44368.05879-.1929.05879-.49432-.00245-.91389-.0784-.54736-.22539-.91388-.43118-1.0875-.21069-.17361-.52672-.2363-.9481-.17361zm-1.77861-.94764 2.40088-.34241c.47282-.06269.85745-.05787 1.16614.02894.31848.08921.58062.23389.8109.44609.22294.21219.40178.4702.52918.77162.13474.30141.22538.63658.27438.99104.08575.54978.08575.99346-.0049 1.30934-.08084.32312-.22294.61007-.41648.8512-.20089.23389-.42382.40992-.67126.50878-.33808.15192-.65412.24113-.9481.28695l-2.40578.33517z"/></g><path d="m299.54796 132.0548 4.36358.32343-.08086 1.12594-2.73182-.20427-.06371.83898 2.53338.18725-.09066 1.07244-2.52112-.17996-.0735 1.0311 2.81023.20913-.0882 1.1916-4.44688-.3283z"/><path d="m306.2712 132.67224 1.5705.43774-1.08539 3.84228 2.45254.69307-.35772 1.2451-4.02547-1.14053z"/><path d="m315.19119 138.53806.33811.21886c.25971.17266.48022.24562.63947.22859.1715-.01945.2989-.09484.38956-.24318.0882-.13375.12005-.28452.10045-.44746-.03185-.15563-.1764-.3137-.43121-.4815l-.38956-.26263zm-.12985-2.78445 2.27122 1.49801c.49246.32343.78157.68821.86977 1.08216.09556.39882 0 .8171-.29156 1.24996-.28421.44016-.65172.69794-1.08784.77333-.441.07052-.92367-.06567-1.47494-.42801l-.74727-.49609-1.07313 1.63662-1.36959-.90708z"/><path d="m320.7972 143.81488.92123-1.76307-1.74936.94598zm-.55861 1.05056-1.32549-1.30347-.79873.43773-1.18829-1.16728 2.44244-1.12823 2.69047-1.24279 1.26424 1.24995-2.29817 5.16764-1.21524-1.20619z"/><path d="m325.14926 147.15865.37241.5885c.04411.05836.12495.17266.29157.32829.08329.07296.1666.11917.2842.12403.11515.01459.21316-.01459.31361-.07782.13966-.08998.21805-.20184.24256-.34532.0196-.13618-.05391-.34045-.21806-.5885l-.37731-.6031zm-3.53545.3137 4.45668-2.84523 1.46269 2.29321c.27196.42314.44347.77089.52677 1.04082.06125.26994.04165.54229-.0686.8025-.1078.26751-.30626.4888-.58557.67118-.25236.16051-.49491.25049-.74482.25049-.23766.01459-.48021-.04621-.71787-.14591-.13965-.08268-.30137-.20428-.48267-.37694.04655.19455.07595.35262.07105.46205-.0098.07539-.0441.19941-.0931.36477-.0588.1751-.1127.29912-.15926.3745l-.86242 1.49315-.99963-1.5588.89672-1.60014c.12006-.21401.17886-.36721.17886-.47422.0049-.14347-.01714-.27966-.1127-.40124l-.07106-.1216-1.81305 1.15512z"/><path d="m327.86248 154.59202 1.5852-1.19646-1.98212.10944zm-.96288.70766-.63458-1.74848-.90162.06322-.57577-1.56853 5.64987.06567.61007 1.66822-4.29008 3.67693-.58801-1.61473z"/><path d="m329.42979 160.92328 1.08783-.14348.31606 2.51938-2.23692.26993c-.37731-.43773-.66642-.82925-.82077-1.18673-.17151-.35505-.28176-.78549-.34546-1.28887-.08086-.62255-.0392-1.14296.13475-1.56124.1568-.41827.43612-.76602.82812-1.04082.39446-.2602.85998-.43286 1.40145-.49852.57086-.07539 1.08783-.01703 1.53864.17022.45082.17996.81343.48394 1.09518.91195.21806.33802.36261.8025.43122 1.40559.08086.57634.08086 1.0165.0049 1.31562-.06126.30397-.19601.56175-.39936.78061-.19111.21401-.44837.39882-.77668.53015l-.47531-1.52477c.18866-.09484.32831-.21642.41161-.38908.08575-.16537.10781-.37451.08575-.6031-.0588-.35991-.2058-.62741-.47532-.80736-.27685-.17996-.68356-.23589-1.21768-.17024-.56841.07053-.95307.23346-1.17603.46935-.21071.24804-.28911.56661-.24991.94598.0196.17995.0735.34775.14211.50339.07594.16537.1862.33316.33811.5423l.49736-.0681z"/><path d="m332.77708 168.85055-.1862 1.6196-3.1263-.35262c-.31116-.03648-.59781-.11672-.86242-.24561s-.49246-.30398-.67622-.53744c-.17886-.22858-.30136-.45961-.36017-.69306-.07594-.33803-.09555-.7174-.04409-1.16242.03429-.25291.08329-.53257.14455-.83169.07106-.29911.1764-.5423.30871-.73198.12741-.18968.29891-.35747.50472-.50825.2303-.14348.441-.23345.65171-.26993.34301-.06566.64927-.08755.90653-.04863l3.13119.35747-.1862 1.61474-3.20225-.36721c-.29156-.03162-.52186.01945-.70317.16293-.17641.14592-.28176.35019-.31116.62985-.03185.28695.02205.51311.16415.68577.13722.17509.35281.27967.63948.32343z"/><path d="m327.9105 174.86836 1.99191.07052-1.60725-1.17214zm-1.18094-.06079.60272-1.75336-.73747-.5277.54882-1.57826 4.34643 3.61126-.59782 1.69012-5.63272.13862.55372-1.61959z"/><path d="m329.6476 179.67486-.91877 1.56367-2.08256.0073.99718 1.82873-.91389 1.54421-1.60724-3.32917-1.90616-1.12351.83792-1.41289 1.90371 1.1308z"/><g stroke="#000"><path d="m335.01669 164.98906c0 19.34519-15.67557 35.02319-35.01155 35.02319-19.34088 0-35.01645-15.678-35.01645-35.02319 0-19.3306 15.67557-35.00617 35.01645-35.00617 19.33598 0 35.01155 15.67557 35.01155 35.00617z" fill="none" stroke-miterlimit="10" stroke-width=".737162"/><path d="m326.05849 164.87013c0 14.39643-11.66236 26.05704-26.05409 26.05704-14.39172 0-26.05898-11.66061-26.05898-26.05704 0-14.38183 11.66726-26.04488 26.05898-26.04488 14.39173 0 26.05409 11.66305 26.05409 26.04488z" fill="none" stroke-miterlimit="10" stroke-width=".737162"/><path d="m300.00735 155.49446 2.18791 6.26439 6.62255.14834-5.27746 4.01252 1.91841 6.34951-5.45141-3.7742-5.45387 3.7742 1.90861-6.34951-5.28481-4.01252 6.6348-.14834z" fill="#fedf00" stroke-width=".301286"/><path d="m312.0377 182.85253c-.22051.18482-1.10988.28452-1.34509.32343-.23766.03161-1.17114.04135-1.5656.05593-.21806.01459-.63701.07538-.85507.07538-1.91409-.21831 3.10919-.18768 3.76576-.45474m-5.01531-1.48099c.12496-.22373.75218-1.61959.97759-2.01598.2303-.38909.74972-1.42748 1.06088-1.86035.15926-.23346.78403-.91193.93348-.60796-1.08796.9404-1.94562 2.58096-2.40232 3.68509-.05881.11916-.41652.73337-.54882.89387-.12741.15807-.07538.4558-.27628.48011-.21071.02676-.06303.0648-.06303.0648s.1813-.40369.3185-.63958zm7.21547 1.06758s-.86487-.12889-1.40144-.31857c-.53411-.17996-1.43084-.31858-2.19527-.29911-.75707.00972-1.45044.23831-2.06786.4742-.61497.22859-1.41123.24804-1.41123.24804s-.45082.07053-.24011-.03404c.2009-.09971.89917-.64443.89917-.64443l.45082-.61769c.1299-.03608 2.41801-3.0388 2.16928-3.84437.35036-.59337.761-1.65156.60665-1.83638-.0735-.07538-1.7812.5423-2.15606.88275-.43367.37451-.73993 1.15513-.86978 1.60501-.1274.44746-.78403.8171-.78403.8171-.53411.38422-.92122 1.60014-1.10253 2.59475-.18375.98246-2.60365 1.52645-2.60365 1.52645s-.67132.25049-.07595.44017c.10289.02918.36845.47829.58161.48558.29645.03405 1.79909-.60886 2.03184-.5578.27441.05593.93837.2286 1.51414.41341.57332.19455 1.04619.29425 1.448.14591.40671-.14591.98738-.08997 1.42349-.00487.42876.09241.90898.05351 1.18584-.03161.29646-.08997 1.07557-.52284 1.07557-.52284s.84283-.36477 1.33039-.59337c.48758-.22859.19111-.32829.19111-.32829" fill="#009b3a" stroke-width=".376608"/><path d="m307.66138 185.36024s-3.3321-1.74362-3.51096-1.78496c-.10535-.0146-1.5117-.79035-2.15606-.98976-.46552-.15077-1.10743-.18969-1.33774-.17509-.54882.03891-1.4442.28079-1.4442.28079l.82813.33802s.77667.38179 1.15643.58607c.54392.28696.56842.63714.56842.63714l3.01714 1.32665.61252.44016s.55617-.76846 2.26632-.65902" fill="#009b3a" stroke-width=".301286"/><path d="m311.01318 178.43927c1.0479-.93442 1.56051-2.26381 2.42279-2.99953.13948.09998.13948.26664-.03099.56146-.16272.28968-.37969.38966-.47527.54093-.17563.23586-.70045.67212-.84252.93362-.12657.24867-.28961.59499-.74679.85906-.4546.27174-.31172.70436-.35046.88639-.03616.19996-.73706.70174-1.07542 1.32216-.06425.64676-.09367.37577-.48567.60539.71372-1.07643 1.08933-1.76934 1.58433-2.70948m-2.35562 2.9585c-.06717.141-2.1344 1.31487-1.48867 1.14054.64316-.1692 2.55282-.85853 3.09524-1.09952.66382-.2897 1.06159-.89729 1.5601-1.39208.50883-.50506 2.08243-2.00808 2.35364-2.58749.26603-.59733.50824-1.42727-.5585-3.29108 0 0-.16532.35636-.56309.70503-.3926.35635-.97892.75116-.97892.75116l-.68449.64605s-2.41504 4.43776-2.73531 5.12739" fill="#009b3a" stroke-width=".39703"/><path d="m317.05496 179.83634s-1.32304-.11916-1.43819-.11916c-.12496 0-.85018-.09971-1.9037-.09971-1.04374 0-1.43575.36235-1.71015.65416-.29647.32587-1.1197 1.07974-1.1197 1.07974l.44347-.03892c1.05844-.82438 1.88175-.52215 2.21007-.54646.34301-.01216.7561.02162 1.81454-.35288 1.07558-.37693 1.01275-.02474.89514.01173-.1176.0462-.80684.28809-1.59576.32214-.79873.04376-1.49907.19888-1.81268.19888-.31606 0-2.64515.6368-2.64515.6368s2.52058.14807 2.79254.23805c.26951.10943.69337.05836 1.04373-.10943.96533-.44503 1.40145-.53015 1.79835-.62011.39936-.07783.87468-.34776.87468-.34776s.25482-.1605.49001-.5885c.24256-.43773-.1372-.31857-.1372-.31857" fill="#009b3a" stroke-width=".376608"/><path d="m318.29152 172.93068c.15925-.39396.55616-1.32048.97757-1.68526.25726-.22373.70072-.32829.93592-.428.10046-.03405.8235-.06858-.08057.17946-.37487.09972-.88094.32198-1.10635.69892-.31592.87764-.59225 1.64152-1.17904 2.20225-.4312.45233-.70397 1.04132-.70397 1.04132l-.4626.16058c.84728-.51926 1.21545-1.48103 1.61904-2.16927zm4.09651-.49367c-.48267.16051-.65172.29426-.65172.29426-1.08048.32343-1.52227 1.00163-1.99514 1.55366-.2401.28938-.57831.50511-1.71759.99391-1.04129.44745-1.84637 1.13849-1.86597 1.13849 0 0-.33076.0681-.26706.2286.02451.07539.30626.01458.30626.01458s2.14435-.30554 3.03863-.85027c.57087-.35748.89363-.61796 1.43509-1.45451.24256-.36964.51451-1.06514.52677-.61769.04165 1.18673-1.8008 2.33699-2.60443 2.69204-.42877.18238-1.00208.25777-1.7518.3818-.73993.13618-1.19074.09484-1.13684-.0681.07596-.23588.16171-.28452.35771-.51798.35281-.4207 1.20544-.56904 1.83266-.86329.74237-.33316 1.44554-.82196 1.79835-1.24024.36016-.42314.48512-.57877.58312-.93625.27441-.93383.28911-1.4518.54636-1.78496.90653-1.11621 1.03884-1.47612 1.08293-1.97465.0098-.11429-.47041.26508-.72032.40369-.48756.28939-.66886.28939-1.66849.54959-1.01434.25291-.99229.90708-1.14909 1.21591-.04655.12403-.45816.63714-.65416.73199-.19601.0997-.67868.79763-.85753 1.20618-.1323.29912-.36751.51312-.55617.4888-.19846-.03648.37976-2.19838.50716-2.55585.13721-.35505.16416-1.04812.16416-1.28158 0-.22373.00762-.81255-.38438-.87822-.38956-.06565-.40713-.60423-.40713-.60423-.93838.81223-.41392 2.24361-.31347 3.09233.10045.84141-.19356 2.39778-.19356 2.39778.90653.38666.19356 1.48828-.0882 1.84332-.29646.36235-.85753.428-1.10988.74657-.26706.3283-2.16533 2.97179-2.16533 2.97179l2.36134-.66885s.22049.03891-.13231-.22859c-.35771-.25534.11515-1.24752.41896-1.4907.58067-.45476 1.36469-.12403 1.36469-.12403s1.09518.1678 2.43782-.36478c1.12214-.44258 1.60481-1.15998 2.13647-1.69984.2891-.29425.81832-1.26941 1.15154-1.8482.2009-.33315.56106-.96786.34055-.89248" fill="#009b3a" stroke-width=".376608"/><path d="m315.69152 178.78565c.18026-.07319.20756-.10572.538-.46623.325-.36052.03824-.9677-.46425-.9433-.2458.01626-.50797-.04066-.99135.60989-.467.65056.22393.88909.48611.9162.11198.00542.25944-.04337.43149-.11656" fill="#009b3a" stroke-width=".419786"/><path d="m314.47065 174.66944c-.31253.52349-.47995 1.12451-.23439 1.31007.05583.03047.27349.22157.45765.22157.18137 0 .69483-.24648.98784-.69797.29299-.43761.53299-.91953-.06697-1.21867-.54416-.26866-.91808-.01662-1.14413.385" fill="#009b3a" stroke-width=".428937"/><path d="m316.2577 168.27753s.049-.08025-.1568-.29425c-.32586-.33316-.73381-.92765-.73381-.92765-.64926.35504-.86487 1.07242-.86487 1.35696 0 .29668.11025.94111.0098 1.59771-.0343.22372-.07105.47906-.39201 1.29129-.32831.8025.04655 1.53935.12005 1.79956.05636.25777.32342 1.06027.32342 1.06027s.2548-.16293.34056-.18239c.10044-.02674.44591-.01215.44591-.01215s.39079-.70653.40549-1.10049c.00735-.28939-.03921-.78062-.17641-1.53449-.1911-1.09675-.17885-1.41046-.049-2.02328.12985-.62254.72767-1.03109.72767-1.03109" fill="#009b3a" stroke-width=".376608"/><path d="m317.22544 169.37327s.36882-.08818.55458-.4222c.23422-.40348.1723-.83102.1723-.83102-.57074-1.10627-1.33801-.21378-1.33801-.21378-.68651 1.40555.61113 1.467.61113 1.467" fill="#009b3a" stroke-width=".413822"/><path d="m319.16938 167.34482c-.85142.04449-1.27077 1.57582-1.27077 1.57582s-.1376.37805-.59212.67033c-.48336.29866-.19846.72756-.19846 1.49004 0 .76249-.53138 2.10955-.53138 2.10955l-.19842.45747s.0192.34312.32967-.27954c.52816-1.04842 1.10752-.79427 1.32517-1.92211.13763-.83876 1.52682-1.10563 1.52682-1.10563l-.39051-.07308c-1.44359-.6767.08324-2.36369.32971-2.6623.26246-.29867.51212-.29867-.32971-.26055" fill="#009b3a" stroke-width=".492013"/><path d="m318.92639 169.16115c-.38988.83617.71976.87676.97603.73063.10361-.05953.33807-.33825.33807-.33825.44987-.64675.03818-1.08514-.19629-1.14738-.22629-.07577-.70886-.1326-1.11781.755" fill="#009b3a" stroke-width=".419079"/><path d="m316.81803 165.91509c.29156.5423 1.10498 2.05246 1.29609 1.95762.12006-.05836.0245-.3672.0245-.3672s-.0245-.40855-.1568-.90221c-.12985-.49853-.09838-1.13573-.35809-1.54427-.25236-.40855-.85668-.89242-1.09434-1.53686-.23521-.64687-.05094-1.87005-.03134-2.02082.02451-.14104.09555-.04863-.0294-.19454-.1274-.15808-1.15604-.70537-1.15604-.70537s.05988.39893.03538 1.12118c-.0098.17509-.0588.37937-.08575.68334-.02451.28939.14945.65416.57086 1.48585.49002.963.72522 1.55394.98493 2.02328" fill="#009b3a" stroke-width=".376608"/><path d="m322.98634 158.73367s-.29645.49366-.40181.60308c-.11025.10944-1.7861 1.54909-1.88166 1.60988-.08085.06322-.95552.34289-1.7518 2.49505-.79873 2.14488-.45326 4.15114-.45326 4.15114l.38711-.04864.06615-.20914s.12986-.71252.23031-1.25239c.11025-.53257.70731-1.27699 1.10421-1.82658.37733-.53743.68269-1.31047.68269-1.31047.44879-.90452.66473-1.71346 1.10909-2.34429.01821.75146-2.83779 5.37087-3.14321 6.94287l.84504-.12889c.67621-.61768 1.5607-1.91385 2.15852-2.7504.60271-.83898.85752-2.14974.96777-2.73094.10536-.57391.08085-3.20028.08085-3.20028" fill="#009b3a" stroke-width=".376608"/><path d="m317.29188 159.20859c-.43121-.39881-.76687-.51798-.76687-.51798s.1029.78305.1029 1.25969c0 .47907.04165 1.28157.01715 1.70958-.01715.428-.2303 1.13566.07351 1.82873.31115.68334.66152 1.0311.90897 1.46153.22541.42071.63842 2.60817.63842 2.60817s-.15085-2.95836-.021-3.7949c.12005-.82196.15925-2.10353-.0245-2.74554-.19111-.64443-.50716-1.40073-.92858-1.80928" fill="#009b3a" stroke-width=".376608"/><path d="m319.26346 156.32081c.12985-.25292.43366-.77576.56106-1.57097.04656-.33802.07841-.88518.06616-1.26455-.0098-.2529-.11026-.69307 0-.72224.098-.02433.01583.13701.07218.51151.02695.13376-.06535.50392-.0825.97814-.02204.37936-.03707.69603-.20614 1.20914-.147.45232-.01385.95381-.10451 1.09486-.098.14347-.35771.68577-.35771.68577s-.15925.43773-.1323.83655c.0147.40855.0392.8487.0392.8487s.18866-.35018.61007-.40854c0 0 .09555-.68334.09555-.89735 0-.214.27441-1.61473.41407-2.04273.1911-.62742.32585-1.7193.02205-2.98629-.08331-.34288-.14455-1.41532-.14455-1.41532s-.40427.32344-.64438 1.54664c-.0735.37207.0833 1.36912.02205 2.43183-.0245.58607-.5865 2.96119-.66245 3.10954" fill="#009b3a" stroke-width=".376608"/><path d="m319.26346 156.32081c-.01961.03647-.02696.05107-.02696.05107s.01715-.0146.02696-.05107" fill="#009b3a" stroke-width=".376608"/><path d="m317.67066 150.15514c.21561 0 .21561.23346.17151.41827-.0343.18969-.0294.54231-.0294.61526 0 .08268.09065.58607.1617.8487.07841.26994.21316.35505.15435.89735-.03919.34046-.38956.7417-.26705 1.32049.06615.30397.2842.62254.39201.88518.09065.18238.04117.62788.06568.99266.0098.35504.20627.59532.20627.59532s-.24255.45232-.3234-.11429c-.08821-.6493-.1176-.93869-.24256-1.23294-.20336-.48151-.38959-1.3477-.07353-2.01645.0539-.12889.09605-.36917.09605-.65369 0-.2894-.17862-.78399-.21292-1.09039-.02941-.24318-.00981-.75641-.00981-.94123m-1.13263 2.71982c.05145.3672.16905.57635.58312 1.37398.12741.26264.41651.93383.46061 1.14782.05145.21401.09555.47178.09555.53744 0 .07052.04656.57391.04656.57391v.20913s-1.14664-.66875-1.6489-1.02622c-.49982-.35991-1.06824-.85358-1.43085-1.15269-.41161-.33802-1.39163-1.50044-1.40388-2.43183l-.45082-.40855s-.34301 2.06949 1.27893 3.40943c.46797.38422.97758.80736 2.06786 1.30103 1.09274.50339.94937.95439 1.40508 1.92226.44837.97273.72899 1.53211.78534 1.80691.0392.29425-.12404 4.42899-.12404 4.42899l.0392.3745s.99867-3.82951 1.47888-4.25751c0 0-.95307-.14591-.87712-1.64392l-.16661-.98732s-.1911-1.18673.16661-1.92357c0 0 .42386-1.34967.27931-2.51695-.09066-.69793-.12251-.90707-.20826-1.57583-.12986-1.04082-.54636-2.5291-.59291-2.70904-.14211-.52286-.19111-.6031-.35771-1.01651-.04901-.14591-.14212-.62742-.29647-.63471-.0882-.00486-.22296.62012-.22296.62012s-.20089.68091-.24255.86573c-.12986.54959-.43366 1.01164-.57331 2.24701-.02451.22373-.04901.82682-.07596.90706-.0147.0681-.0441.42314-.0147.55933" fill="#009b3a" stroke-width=".376608"/><path d="m317.47858 158.62447s-.16661-.36964-.33566-.55932c-.34056-.40125-.79873-.7417-2.10216-1.37884-1.29854-.64687-1.64156-1.70958-2.30307-2.14731-.30381-.20913-.89183-.30883-.89183-.30883s.57822.7952.71542 1.06999c.17641.35019.21806.58851.93348 1.25483.71052.66875 1.57785.9022 2.13647 1.06757.78892.24561 1.84735 1.00191 1.84735 1.00191" fill="#009b3a" stroke-width=".376608"/><path d="m313.38624 152.47927c.0343.10457.36922 1.24785 1.0724 2.13547 1.07558 1.35939 3.14586 2.33026 3.14586 2.33026-.19356-.84627-.53117-1.82454-.79823-2.25742-.94083-1.51988-3.42738-2.26424-3.42738-2.26424s-.0441-.05836.00735.05593" fill="#009b3a" stroke-width=".376608"/><path d="m316.354 153.11954c.55697-1.21929-1.10648-2.38453-1.5754-3.23433.17395-.13862.37976.22373.57086.46448.27196.36234 1.03884 1.41046 1.03884 1.41046l.23766-1.1162-1.98064-1.80221c-.0245.26263-.63578.47768-.63578.47768-.29645 1.66823 2.34446 3.80012 2.34446 3.80012" fill="#009b3a" stroke-width=".376608"/><path d="m312.90529 150.29312c-.47776.21401-.64682.21401-.64682.21401l.26679.70683.15436.19212s.62231.89978.98492 1.01164c.15192.05593.71788.15564 1.2863.39882.71542.30398 1.8826 1.32521 1.8826 1.32521s-1.94194-2.19024-2.68673-3.83207l-.25089-.94655-.70388.04723s.19356.6639-.28665.88276" fill="#009b3a" stroke-width=".376608"/><path d="m305.63737 148.89229c.22296.19942.58802.50339 1.05598.78305.42876.25778 1.6636.98489 2.58728 1.15999.21561.03404 1.3764.18006 1.3764.18006.04656-.50826.59782-.55203.59782-.55203l-1.64346-.18006c-1.32529-.09869-2.33404-.65222-3.11895-1.53935 1.05341.63836 2.56685 1.64411 3.79389 1.59064 5.03763-.49585-1.51776-.62034-2.08618-.98511-.60272-.37207-1.11724-.98976-1.11724-.98976l-1.47739-.06565s-.72522-.04621.03185.59822" fill="#009b3a" stroke-width=".376608"/><path d="m311.56875 151.76112c.32586-.02431.55372-.08512.62722-.44259.06615-.39882-.08576-.68821-.56596-.79277-.26707-.06567-.73503-.08026-.92613.39395-.20826.48637.54881.79764.54881.79764s.14456.06323.31606.04377" fill="#009b3a" stroke-width=".376608"/><path d="m312.13325 148.87332c-.42632 0-.57087.34776-.48021 1.02623.1127.68335 1.15887.38424 1.15887.38424l.19356-.09971s.14211-.10943.0637-.65416c-.0735-.55689-.50716-.6566-.93592-.6566" fill="#009b3a" stroke-width=".376608"/><path d="m313.84634 149.35312h-.01715c-.00735.00486.01715 0 .01715 0" fill="#009b3a" stroke-width=".376608"/><path d="m313.82969 149.35312c.01225-.00486.04165-.01945.1519-.05107.21806-.08268.43857-.60552.43857-.60552.11024-.70766-.39692-.88276-.39692-.88276-.85263-.17022-.87467.57878-.87467.57878-.23521.97517.55617.96543.68112.96057" fill="#009b3a" stroke-width=".376608"/><path d="m310.03256 146.0045c.04656.32343.50717.79278.57822.87302.08331.07296.67132.68578.86977.96058.19846.27479.85801 1.52136.85801 1.52136s.11515-.01946.16415-.1143c.11516-.19455-.44149-1.70374-.49783-1.80832-.20383-.45855-.53717-.80028-.87224-1.15754-.07839-.05107-.35281-.40369-.65416-.78305.59606.76305 2.12504 2.93279 2.57549 3.89725 0 0-.05437-1.0277-.11072-1.57973-.1911-1.60986-.61007-2.10839-.74482-2.34185-.23766-.43529-.84038-.85843-1.27159-1.00677-.43121-.15563-.94083-.36964-1.4872-.54473-.56351-.17265-.12985.33559.07841.77332.2597.51798.46796.98246.51451 1.31076" fill="#009b3a" stroke-width=".376608"/><path d="m307.92942 148.65252c.55617.47177.80608.80007 1.96006.9703 1.16379.18239 1.26179.10457 1.26179.10457s.60319-.29146.29693-.54681c-1.70992-.75179-3.32897-1.6474-4.1509-2.65347 0 0 .14211-.13862.73502.45474.34302.34776.57332.52285.78402.68578.62232.43529.89184.55932 1.5117.89734.33076.17996 1.15643.3745 1.15643.3745s.11761-.25047.22296-.27966c.10046-.02431-.06396-.41676-.78183-.99797-.63213-.51068-1.04864-1.13809-1.04864-1.13809s-.84991-.18633-1.77114-.33954c-.68601-.10943-1.97721-1.11134-1.95516-.83897.0245.27965.19356 1.14782.54148 1.69985.35036.55445.68356 1.12107 1.23728 1.60743" fill="#009b3a" stroke-width=".376608"/><path d="m298.31725 183.44504c-.50471.14834-4.28612 1.56841-4.28612 1.56841l-1.05599.42314c1.4578-.3283 2.57504.40612 2.57504.40612l4.21261-1.95022s-.01225-.06322-.1176-.1386c-.11025-.07539-.81833-.46205-1.32794-.30885" fill="#009b3a" stroke-width=".301286"/><path d="m292.81541 185.56466c-.028.02432-.05599.12403.01679.15564.20989.11673.15392.16293 1.10828.27723.96275.10457 1.58965-.07782 1.75478-.26021.19312-.21156-2.38449-.60552-2.87985-.17266" fill="#009b3a" stroke-width=".322009"/><path d="m286.76438 171.95947-.17523-1.18144s-.22039-3.19611-.58273-3.83702c-.06987-.14207-.0388-.4737-.26925-.47923-.44051-.03347-.44051 1.0059-.49398 1.94774-.71741 4.75055 3.07092 8.37719 3.07092 8.37719z" fill="#009b3a" stroke-width=".418017"/><path d="m305.51152 186.03405s-.39736-.0889-.14548-.39861c.241-.29539.95753-.4531 1.10084-.4531.14114-.00574.54283.02866.84246.11183.30182.07456.71872.34127.59714.53341-.12812.18353-.53633.41293-1.09436.41293-.47769 0-.72303-.01146-.93365-.07168-.20411-.07743-.36695-.13478-.36695-.13478" fill="#009b3a" stroke-width=".385001"/><path d="m301.40462 183.77395s-1.30099-.59823-2.53338-1.20132c-1.62439-.79277-3.5771-1.8944-4.9369-3.91524-1.7028-2.50235-3.18264-3.84229-3.54035-4.11223-.36751-.26993-.42141-.36964-.55616-.17995-.1225.16537-.03676.30884.06615.48394.35036.56904 1.21033 1.63905 1.51905 2.21296.53166 1.02623 1.63174 2.1473 1.62194 2.81119 0 .09241-.32096-.06565-.32096-.06565s-2.57503-.88276-3.61876-4.0028c-.75952-2.2616-.43611-2.92548-.61252-4.05629-.30135-2.00869-.36261-2.17162-1.35734-4.42349-.02695-.05593-.60762-.99705-.68601-.78792-.10781.26994.09799 1.27671.09799 1.27671l.10536 1.15999s-.0833 2.5753-.0833 2.73094-.64927 1.76307 2.10706 4.46484c0 0 .04165.45962-.32831.05593-.26216-.28939-2.23446-1.80442-2.83473-4.29704-.61742-2.49263-.70808-4.98768-.24011-6.02364.42386-.93625 1.27403-3.2246.91142-5.22357-.04165-.20914-.10044-.82196-.23276-.66145-.05634.07781-.3038 1.08945-.45325 1.43964-.20826.47907-.53167.95084-.63213 1.28157-.19355.56175-1.14418 1.42991-.95797 3.02763.2107 1.83603.33075 2.12298.55126 2.77715.07596.23831.25971.84627.13965.90706-.11025.05838-.49981-.72711-.49981-.72711s-1.74445-3.42887-.66886-6.21089c1.08783-2.76985 3.81721-5.39622 3.81721-5.39622s2.21731-1.83846 2.66812-2.26647c.17642-.16536.13476-.28939.07596-.26993-.55127.13862-4.81685 1.02136-6.31629 6.10389 0 0-.0784.214-.18866.16049-.1372-.06079 0-.29911 0-.29911s.93838-3.60397 3.57222-5.23816c2.87392-1.79225 2.53582-1.52962 3.48644-2.0938.59782-.37206 1.13929-.87059 1.80816-1.97708.0686-.12401.34056-.76845.30381-.87789-.0294-.10943-.15925.04134-.22051.22373 0 0-.81343 1.25726-2.03111 1.68039-1.22259.42314-2.21486-.17995-3.44235 1.17701-1.22993 1.36425-2.20751 3.25379-2.20751 3.25379s-.32097.48879-.39202.4742c-.13476-.04134.06615-.52041.06615-.52041s1.64155-3.48238 2.95969-4.19004c1.32059-.71252 2.49663-1.39587 3.24635-1.97464.91143-.71496 2.48193-2.46588 3.04789-3.06896.12005-.12889.96288-.98246 1.14909-1.25969.1127-.15078.37976-.36964.33566-.40855-.12006-.08998-.91878.29425-.91878.29425s-4.34768 1.19804-7.05256 5.2835c-.12496.18969-.42253.57556-.58178.73849-.28911.29912-.43329.79836-.43329.79836-.17641-.14591 1.52838-2.2777 1.52838-2.2777l.29891-1.37884s.50472-2.07192 1.56559-3.53345c.10536-.13376.73257-.76603.83793-.89735.21071-.22859-.39936.19941-.29156.10457 0 0-4.05487 2.91091-4.05487 6.5781 0 .65902-.40916 1.25969-.97513 2.07921-.66152.95085-.88202 1.53448-1.16868 2.94981-.20336 1.01164-.37241 1.78253-.37241 1.78253s.0392.52285-.12985.48394c-.17641-.03892-.11516-.47178-.11516-.47178s.41406-2.73338.70807-3.57479c.28666-.81709.47531-1.37398.47531-1.37398s-.16905-2.0549.28667-3.18083c.38711-.98246 1.36713-2.2762 1.51904-2.59963.06615-.14105.51942-1.0627.64682-2.11326.01715-.14104-.0931-.02431-.27686.38667-.44591 1.00434-.81832 1.26698-1.55089 2.21296 0 0-1.87921 1.36182-2.56034 5.41324 0 0-.02205 1.51018-.25235 3.87634-.16661 1.73389-.0245 3.35836.17151 4.33595.12495.59823.36261.6031.2156.67605-.09065.0462.05847.00782-.15468-.44449-.25971-.5423-.45872-1.37695-.45872-2.52963 0-2.11326.18376-3.81068.18376-3.81068s.13808-3.41429-1.27806-4.95363c-.0686-.08025.24745.69063.38956 1.45909.17396.95328-.14211 2.27619-.2352 2.79174-.09066.51798-1.03394 2.77472-.70073 4.89284 0 0 .79872 3.59181 1.82776 5.333 0 0 .63993.74953.07396.04674-.56107-.7028-1.71307-3.49751-1.81351-3.73583-.08821-.22859-.91388-1.96734-1.69055-2.67501-.40182-.3745-1.5068-1.03838-1.5068-1.03838s-.60027-.45719-.14455.15077c.36016.47907.84282 1.33994 1.07313 1.71444.57822.93138 1.01433 1.82387 1.27403 2.41237.36996.81223 1.22995 3.20272 1.22995 3.20272l.5506 1.51625s.92189.51189 1.42415 1.07121c.41161.45232 1.26424 1.49072 1.97231 3.3389.31851.8171.95386 1.56611.95386 1.56611s-.13458.25934-.70054-.72068c-.55862-.99219-1.10547-2.85416-2.45056-4.30353-1.02168-1.11135-3.77114-2.23237-3.77114-2.23237s1.7665 3.07868 2.20507 3.62828c.74237.88032 1.8155 2.11569 2.09236 2.44155.28666.33316 1.9478 2.38563 2.19281 2.71392.38712.51312.64193.73928.84528.94842.43856.46691 1.73663 1.31807 1.83708 1.45218.0196.13618.04553.02352-.06473-.05673-.57576-.34289-1.2634-.88561-1.97392-1.34766-.70806-.46934-3.44229-1.63592-5.28414-4.17461-.43611-.75143-.64437-1.05054-.79137-.97272-.22541.11916 1.23973 4.96822 4.25332 6.51 0 0 3.32475 1.47855 4.06222 1.92358.40427.24318 1.22014.60309 1.59745.90707.2156.17752-.196.1678-.22295.16294-1.76651-.13862-4.30234-.37208-5.85813-1.27429 0 0-.66887-.46934-.12006.18968.43612.51069 1.26425 1.76794 2.86169 2.4756 1.5999.7028 3.92502 1.11135 4.77519 1.15513.83548.0462 3.81477.06079 4.38564.24561.55861.18968 1.50906.79861 2.05298.9737.49492.1605 1.98701.73199 1.98701.73199s.44837.24561.68847.33316c.26951.10699 1.38733.09749 1.46574-.11164.07596-.18725-.31893-.47298-.31893-.47298" fill="#009b3a" stroke-width=".301286"/><path d="m320.72321 158.52515c.33811.12402.48756 1.12594.48756 1.12594s-.02939-.57392-.02939-.85601c0-.28453-.13966-1.3521-.13966-1.3521l-.29891.214c-.35771.28453-.55616.78792-.55616.78792s.2058-.03405.53656.08025" fill="#009b3a" stroke-width=".376608"/></g></svg>