<svg height="450" width="675" xmlns="http://www.w3.org/2000/svg"><path d="m0 0 298.57143 225.24106h376.42857v-225.24106z" fill="#dc171d"/><path d="m0 0 299.00515 225.74613-299.00515 224.25387z" fill="#fff" stroke="#fff"/><path d="m0 450 298.57143-224.75894h376.42857v224.75894z" fill="#012a87"/><g transform="matrix(1.0075359 0 0 1.0073522 -229.18917 -679.02099)"><path d="m377.17462 843.10761.0913-3.45822s-1.85664-2.95784.29828-6.13605c0 0-4.57768-2.42215-3.5124-6.21518 0 0-4.13939-1.05859-3.83503-5.61254 0 0-4.46811-.30984-4.93075-4.11443 0 0-4.46811.73596-6.43433-2.97124 0 0-4.35854.85223-5.58818-2.20362 0 0-4.2368 1.46766-6.75087-2.12448 0 0-4.4742 1.80794-6.3491-1.58271-1.85056 3.37908-6.32476 1.58271-6.32476 1.58271-2.48364 3.57936-6.75087 2.09404-6.75087 2.09404-1.18703 3.06803-5.5334 2.19754-5.5334 2.19754-1.96012 3.7078-6.42214 2.97062-6.42214 2.97062-.43829 3.79303-4.90032 4.10288-4.90032 4.10288.35307 4.56551-3.78024 5.60096-3.78024 5.60096 1.08963 3.79242-3.48197 6.20849-3.48197 6.20849 2.20971 3.19647.37133 6.13057.37133 6.13057l-.10348 3.18916 73.9491.3415" fill="#ff0"/><path d="m377.17462 843.10761.0913-3.45822s-1.85664-2.95784.29828-6.13605c0 0-4.57768-2.42215-3.5124-6.21518 0 0-4.13939-1.05859-3.83503-5.61254 0 0-4.46811-.30984-4.93075-4.11443 0 0-4.46811.73596-6.43433-2.97124 0 0-4.35854.85223-5.58818-2.20362 0 0-4.2368 1.46766-6.75087-2.12448 0 0-4.4742 1.80794-6.3491-1.58271-1.85056 3.37908-6.32476 1.58271-6.32476 1.58271-2.48364 3.57936-6.75087 2.09404-6.75087 2.09404-1.18703 3.06803-5.5334 2.19754-5.5334 2.19754-1.96012 3.7078-6.42214 2.97062-6.42214 2.97062-.43829 3.79303-4.90032 4.10288-4.90032 4.10288.35307 4.56551-3.78024 5.60096-3.78024 5.60096 1.08963 3.79242-3.48197 6.20849-3.48197 6.20849 2.20971 3.19647.37133 6.13057.37133 6.13057l-.10348 3.18916 73.9491.3415h-.0122z" fill="#f9d90f" stroke="#000" stroke-width=".271244"/><path d="m375.44582 838.79107c-11.61466-1.16268-24.98857-3.92025-35.31271 1.89378-6.92132-4.07914-16.55759-3.82955-24.76333-3.0315-4.45594.79744-9.69714.79744-14.35396 1.55836l-.73049.10287c-8.44924.56065-16.11321-1.93577-23.45455-5.21685 2.33146 13.23389 4.91858 26.79711 6.19083 40.65192 2.76975 20.51984-9.70932 37.74764-4.58986 58.01851 3.05585 9.72697 13.75132 15.38212 23.53978 16.5028 9.478.55943 19.28471 2.11231 28.05658 4.01704 1.66794.34698 3.64632 1.12068 4.79683 1.61923 2.41668 1.0105 4.1881 2.49643 5.74037 4.08522 5.29599-5.51574 13.05736-7.04975 20.71525-7.85937 13.80001-1.61315 30.81415-.73596 39.26339-13.23937v-.70675c4.58986-6.91522 3.98113-17.46399 1.99056-25.29901-.13392-2.73322-.8644-5.14381-1.26008-7.74859-8.43097-22.26813-1.21138-47.31148 2.41668-69.75553-4.43159 2.42277-9.37452 3.56719-14.30527 4.77918-3.93242.52351-8.31532.2861-12.29644.0724l-1.64967-.44438" fill="#dc171d"/><path d="m392.79476 902.69666c-.0548 1.46644.73657 2.61756 1.02267 3.97443 1.61315 9.73367 3.17151 22.62728-6.84827 28.66593-11.08506 7.04854-25.62164 4.02982-38.44769 7.76076-2.56277.71222-6.09343 3.06863-7.89529 4.73596-1.15659-.76092-2.31928-1.92969-3.81068-2.61695-10.55546-5.61254-24.27633-3.73216-36.18927-6.76366-5.98387-1.89255-12.2234-6.55546-13.73915-12.67994-3.8959-16.06999 5.436-29.76653 4.33419-45.70929-.71222-12.1747-2.75757-23.8624-5.56992-35.27618 9.31364 4.33967 20.09434 5.06406 30.56457 2.9828 7.75528-1.08416 16.78282-1.1079 24.05111 2.17318 4.00548-1.72333 8.69273-2.49642 13.00866-2.97123 8.20575.79805 17.02632 2.28275 25.47556 2.22249 5.64297-.2928 10.76851-1.92421 15.67492-4.0974-2.90976 18.8647-8.49794 38.62484-1.6375 57.5991" fill="#62afe1"/><path d="m376.04238 906.45803-.0913-17.73853h2.18535l-27.11305-17.5133-.0487-9.10059h2.61756l-13.55653-9.70871-13.48956 9.70324h2.61147l.0487 9.09389-26.96695 17.48955 2.15492.0116.0913 17.72697 71.55069.0487" fill="#fff"/><path d="m376.04238 906.45803-.0913-17.73853h2.18535l-27.11305-17.5133-.0487-9.10059h2.61756l-13.55653-9.70871-13.48956 9.70324h2.61147l.0487 9.09389-26.96695 17.48955 2.15492.0116.0913 17.72697 71.55069.0487.006-.0128z" fill="none" stroke="#000" stroke-width="1.164224"/><path d="m384.37595 929.76101.006 5.55105-87.34735-.0974-.0365-5.52731 87.38387.0737" fill="#fff"/><path d="m384.37595 929.76101.006 5.55105-87.34735-.0974-.0365-5.52731 87.38387.0737h-.006z" fill="none" stroke="#000" stroke-width="1.164224"/><path d="m302.83593 929.4262-.0731-18.78555 3.53653-.007-.19457 19.00474.21297-18.85195-5.09502-.14605v-4.03043l78.06414.0858.0365 3.9933h-4.8151l.0913 19.02296-.17044-19.02296h3.58545l.0791 18.80929" fill="#fff"/><path d="m302.83593 929.4262-.0731-18.78555 3.53653-.007-.19457 19.00474.21297-18.85195-5.09502-.14605v-4.03043l78.06414.0858.0365 3.9933h-4.8151l.0913 19.02296-.17044-19.02296h3.58545l.0791 18.80929" fill="none" stroke="#000" stroke-width="1.164224"/><path d="m319.61875 924.79982-.0548-13.09997h-10.48241l.0609 13.08719 10.47632.0128" fill="none" stroke="#000" stroke-width="1.164224"/><path d="m311.93652 914.43246.0304 7.60918h4.79683l-.0243-7.60918h-4.80292" fill="none" stroke="#000" stroke-width="1.164224"/><path d="m370.86204 924.83574-.0609-13.08719-10.44589-.0122.0487 13.09937h10.45806" fill="none" stroke="#000" stroke-width="1.164224"/><path d="m363.17981 914.48116.0548 7.58483h4.79074l-.0426-7.58483h-4.80292" fill="none" stroke="#000" stroke-width="1.164224"/><path d="m370.78291 903.50628-.0609-13.10058h-10.45806l.0365 13.10058h10.4885-.006z" fill="none" stroke="#000" stroke-width="1.164224"/><path d="m363.10067 893.16326.0304 7.59701h4.79074l-.006-7.59701h-4.8151" fill="none" stroke="#000" stroke-width="1.164224"/><path d="m319.53353 903.45758-.073-13.07563-10.46415-.0128.0487 13.08171h10.4885v.007z" fill="none" stroke="#000" stroke-width="1.164224"/><path d="m311.8513 893.11457.0243 7.58544 4.80292.0116-.0365-7.59701h-4.79074" fill="none" stroke="#000" stroke-width="1.164224"/><path d="m338.5017 903.48132-.0487-13.07562-10.47024-.0116.0426 13.08719h10.47633" fill="none" stroke="#000" stroke-width="1.164224"/><path d="m330.82555 893.12674.0243 7.58484 4.79683.0244-.0304-7.60919h-4.79075" fill="none" stroke="#000" stroke-width="1.164224"/><path d="m353.12351 903.50628-.0731-13.10058-10.46415-.0116.0487 13.08719 10.4885.025" fill="none" stroke="#000" stroke-width="1.164224"/><path d="m345.43519 893.13952.0365 7.60919h4.79683l-.0243-7.60919h-4.809" fill="none" stroke="#000" stroke-width="1.164224"/><path d="m355.71672 899.48802.11566 30.19933-30.33326-.0487-.10957-30.17437 30.32108.0237" fill="#fff"/><path d="m355.71672 899.48802.11566 30.19933-30.33326-.0487-.10957-30.17437 30.32108.0237h.006z" fill="none" stroke="#000" stroke-width="1.164224"/><path d="m325.20693 908.1077 30.54023.0244" fill="none" stroke="#000" stroke-width="1.164224"/><path d="m329.01761 929.67518-.10348-21.34224" fill="none" stroke="#000" stroke-width="1.164224"/><path d="m352.14345 929.68735-.10349-21.32946" fill="none" stroke="#000" stroke-width="1.164224"/><path d="m366.78961 886.62606-17.0811-12.47358-19.19341-.0243-16.94717 12.44923 53.22168.0487" fill="none" stroke="#000" stroke-width="1.164224"/><path d="m331.99433 863.79851.0304 7.60918 16.14365.0122-.0304-7.60919-16.14364-.0122" fill="none" stroke="#000" stroke-width="1.164224"/><path d="m336.37113 865.68558.0244 3.79181h7.41439l-.0243-3.79181h-7.41439" fill="none" stroke="#000" stroke-width="1.164224"/><path d="m340.03571 855.1423 8.97884 6.34849-17.89072-.0237 8.91188-6.32475" fill="none" stroke="#000" stroke-width="1.164224"/><path d="m376.34066 850.83793c2.55059-.0609 3.20803 10.50677 3.21412 15.74189 2.19144.61482 7.04914 3.67128 9.19798 6.43432l-24.64159-.0365c2.1184-2.72652 6.93958-5.79516 9.11276-6.40937 0-5.24182.53569-15.80276 3.11673-15.74188" fill="#fff"/><path d="m376.34066 850.83793c2.55059-.0609 3.20803 10.50677 3.21412 15.74189 2.19144.61482 7.04914 3.67128 9.19798 6.43432l-24.64159-.0365c2.1184-2.72652 6.93958-5.79516 9.11276-6.40937 0-5.24182.53569-15.80276 3.11673-15.74188" fill="none" stroke="#000" stroke-width="1.164224"/><path d="m326.8079 900.33477h2.20971l-.64526 1.18642s1.06529 1.37027.0183 2.94019l.57829 1.09025h-2.13057l.5783-1.03546s-1.08964-1.81951.0487-2.99498l-.65744-1.18642" fill="none" stroke="#000" stroke-width="1.164224"/><path d="m331.31254 900.33477h2.20971l-.63917 1.18642s1.06528 1.33374.006 2.94019l.57221 1.09025h-2.12449l.57221-1.03546s-1.06528-1.81951.0548-2.99498l-.65135-1.18642" fill="none" stroke="#000" stroke-width="1.164224"/><path d="m336.22503 900.33477h2.20362l-.65743 1.18642s1.07746 1.37027.0183 2.94019l.5783 1.11399-2.11231-.0237.56612-1.03546s-1.07746-1.80794.0426-2.99498l-.64526-1.18642h.006z" fill="none" stroke="#000" stroke-width="1.164224"/><path d="m341.77061 900.34633h2.22188l-.65135 1.19921s1.06529 1.34592.006 2.92193l.59656 1.1079h-2.14275l.57221-1.03485s-1.06528-1.83229.0731-2.99498l-.66961-1.19921h-.006z" fill="none" stroke="#000" stroke-width="1.164224"/><path d="m346.70136 900.34633h2.20362l-.65135 1.19921s1.07137 1.34592.0122 2.91584l.58438 1.11399h-2.12448l.55395-1.03485s-1.07138-1.82012.0852-2.99498z" fill="none" stroke="#000" stroke-width="1.164224"/><path d="m351.60167 900.35851 2.20362-.0122-.65134 1.19921s1.08963 1.34592.0304 2.92193l.55395 1.1079h-2.13057l.57221-1.03485s-1.06528-1.82012.073-2.99498l-.65135-1.18703" fill="none" stroke="#000" stroke-width="1.164224"/><path d="m340.69923 968.3968c11.35899.0365 25.32946-2.28276 31.87336-5.66671l14.37223-1.27287.2861 17.53826c-12.1747 6.71374-40.28607 8.15644-46.47081 8.10774-6.19084.0487-34.64918-1.41774-46.87867-8.15644l.15827-17.55043 14.40267 1.2966c6.5439 3.36692 20.94047 5.70385 32.28729 5.70385h-.0304" fill="#f9d90f"/><path d="m340.69923 968.3968c11.35899.0365 25.32946-2.28276 31.87336-5.66671l14.37223-1.27287.2861 17.53826c-12.1747 6.71374-40.28607 8.15644-46.47081 8.10774-6.19084.0487-34.64918-1.41774-46.87867-8.15644l.15827-17.55043 14.40267 1.2966c6.5439 3.36692 20.94047 5.70385 32.28729 5.70385h-.0304" fill="none" stroke="#000" stroke-width=".271244"/><path d="m256.88254 893.58938 12.66169 4.02982-3.82895 20.5028-11.98599 1.86212s-2.021-10.78069 3.15325-26.40692" fill="#f9d90f"/><path d="m256.88254 893.58938 12.66169 4.02982-3.82895 20.5028-11.98599 1.86212s-2.021-10.78069 3.15325-26.40692v.0122z" fill="none" stroke="#000" stroke-width=".271244"/><path d="m265.7092 917.89616-11.97991 2.08796 7.57875-10.78069z" fill="#7e7e7e"/><path d="m265.7092 917.89616-11.97991 2.08796 7.57875-10.78069z" fill="#f9b60f" stroke="#000" stroke-width=".271244"/><path d="m249.30988 908.35789 12.20513.88206c.27394 10.34301 1.52793 49.81338 48.65618 51.95612l-1.46705 14.36006c-57.36718.59595-61.72572-48.41268-59.39426-67.19824" fill="#f9d90f"/><path d="m249.30988 908.35789 12.20513.88206c.27394 10.34301 1.52793 49.81338 48.65618 51.95612l-1.46705 14.36006c-57.36718.59595-61.72572-48.41268-59.39426-67.19824z" fill="none" stroke="#000" stroke-width=".271244"/><path d="m294.10668 978.49571 14.3844-3.14107" fill="none" stroke="#000" stroke-width=".271244"/><path d="m423.5176 893.73547-12.61298 3.99331 3.99938 20.47236 12.01034 1.92908s1.92969-10.774-3.39674-26.40631" fill="#ff0"/><path d="m423.5176 893.73547-12.61298 3.99331 3.99938 20.47236 12.01034 1.92908s1.92969-10.774-3.39674-26.40631v.0116z" fill="#f9d90f" stroke="#000" stroke-width=".271244"/><path d="m414.904 917.98747 12.01034 2.15492-7.68223-10.78617z" fill="#7e7e7e"/><path d="m414.904 917.98747 12.01034 2.15492-7.68223-10.78617z" fill="#f9b60f" stroke="#000" stroke-width=".271244"/><path d="m431.23027 908.52164-12.22339.83458c-.17654 10.32962-1.07746 49.81825-48.20571 51.91229l1.60097 14.34849c57.35499.66291 61.2996-48.32198 58.82813-67.10084" fill="#f9d90f"/><path d="m431.23027 908.52164-12.22339.83458c-.17654 10.32962-1.07746 49.81825-48.20571 51.91229l1.60097 14.34849c57.35499.66291 61.2996-48.32198 58.82813-67.10084v.005z" fill="none" stroke="#000" stroke-width=".271244"/><path d="m387.03613 978.57484-14.42093-3.15872" fill="none" stroke="#000" stroke-width=".271244"/><g fill="#012a87"><path d="m333.07179 977.04083c-.32263.20697-.76092.26237-1.26617.23741l-2.27667-.11566.19479-2.84218 2.25841.12113c.44438.0304.79744.11627 1.01659.24959.45655.2374.65743.6763.61482 1.28443-.0304.52351-.21306.86501-.54786 1.06528m-3.82286 4.47481.22524-3.46431 2.65408.18323c.85832.067 1.49749-.15827 1.92969-.59717.45046-.42611.68178-.98554.71222-1.61862.0548-.73718-.13392-1.33983-.57221-1.78421-.42003-.42611-1.01659-.65134-1.76533-.72378l-3.79242-.23741-.52351 8.15644 1.12616.0737"/><path d="m337.49729 974.69112 2.77583.0304c.40176.0365.71831.0852.94962.1948.42612.20088.627.60265.627 1.18703 0 .54847-.15827.91371-.46872 1.13286-.29828.20027-.73049.29158-1.24791.29158l-2.66626-.0304.0243-2.80626m-.0426 7.22568.0243-3.48197 2.60538.0371c.46264 0 .80353.0359 1.04094.15157.3835.17654.57221.54847.59047 1.0592l.067 1.36965c.0183.32872.0244.53021.0426.66353.0365.0974.0548.20088.10349.27453h1.40009l-.0243-.17714c-.15827-.0852-.28611-.24897-.34089-.49916-.0487-.15827-.0731-.39568-.0852-.69396l-.0243-1.08963c-.0183-.49308-.10349-.83336-.2922-1.02268-.16435-.21914-.38959-.40785-.73657-.52351.3896-.20636.68179-.44377.89484-.73657.20089-.32263.30437-.73048.30437-1.22903 0-.93746-.3835-1.57724-1.16268-1.92361-.42003-.1887-.95571-.28671-1.5888-.29828l-3.91416-.0371-.0304 8.1814h1.12616"/><path d="m346.13523 980.20625c-.49916-.60812-.767-1.36904-.82787-2.26997-.0548-1.13285.16435-1.99665.68178-2.58164.52351-.63309 1.19921-.93685 2.08187-.98554.88875-.0487 1.61924.2374 2.16101.79683.55395.54847.87049 1.30939.92528 2.25901.0304.9125-.12784 1.72211-.54786 2.43433-.41394.72501-1.10181 1.13286-2.1184 1.1566-1.0592.0554-1.85056-.19419-2.35581-.80962m-1.33921-5.14989c-.52351.80961-.73657 1.74707-.68179 2.87992.0791 1.22295.45656 2.23406 1.16878 2.99498.79135.76091 1.83837 1.14381 3.12889 1.07076 1.38183-.0609 2.42277-.58438 3.1289-1.54558.57221-.87049.84614-1.8816.78527-3.1295-.0791-1.11399-.40177-2.021-1.00442-2.6967-.76091-.90701-1.8749-1.30817-3.38456-1.2473-1.42444.0907-2.47146.61422-3.14716 1.67342"/><path d="m383.23762 963.28951c.78527-.13392 1.46705-.0968 2.08796.11566.9131.28611 1.52793.96241 1.91143 1.99665l-1.12616.15827c-.2435-.55942-.59047-.94293-1.0592-1.15659-.45655-.20028-1.02876-.24958-1.6862-.15158-.767.11566-1.38182.49856-1.81402 1.11399-.42612.65682-.55395 1.53401-.36525 2.65347.15828.92589.49917 1.71055 1.0592 2.23406.51743.53569 1.27835.72439 2.27058.58438.74266-.12174 1.33922-.41941 1.75925-.93136.43829-.48638.56612-1.22356.42002-2.17318l-2.62364.40237-.13392-.90093 3.6524-.56064.71222 4.3281-.72439.10958-.45046-.99833c-.30437.45107-.60874.79805-.87658.99833-.45047.35367-1.0592.5789-1.82012.68847-.98615.15158-1.88708-.025-2.70278-.54847-.89484-.66352-1.47314-1.64967-1.69228-3.01871-.23741-1.34531-.0244-2.49642.59656-3.40344.59047-.87597 1.44878-1.3873 2.60538-1.55227"/><path d="m391.49815 962.65643 2.61756-.94963c.35915-.13331.66961-.17653.93745-.14548.4809.0359.83397.32202 1.03485.89423.18871.48698.18871.9131-.0243 1.21199-.22523.30984-.5783.53568-1.08963.72378l-2.45929.88267-1.01659-2.61756m2.61756 6.76365-1.27834-3.28108 2.43494-.87719c.45655-.14609.77309-.22523 1.0105-.20027.4322.0542.76092.31654.98006.8151l.55395 1.24851c.12175.30985.21914.49855.29828.58439.0365.10957.11566.17653.17653.24897l1.32096-.48638-.0731-.17653c-.1948 0-.3835-.10958-.52351-.32324-.10349-.15158-.20089-.37072-.34089-.62639l-.43221-1.02328c-.19479-.44438-.39567-.7177-.62699-.88267-.23132-.12783-.52352-.21306-.87049-.2368.26784-.31106.46263-.62151.53568-.98676.0791-.37071.0426-.78465-.13392-1.24729-.3348-.87049-.94963-1.34531-1.81403-1.40618-.45655-.0365-.98006.0609-1.58271.27332l-3.67676 1.30939 2.97063 7.6938 1.07746-.39568"/><path d="m403.69111 965.36591-4.669-6.81235 5.12555-3.26891.56612.8224-4.20027 2.68391 1.43662 2.08188 3.87764-2.49582.5296.79745-3.87764 2.49642 1.58271 2.29493 4.27332-2.73383.56612.80414-5.21686 3.32978"/><path d="m407.77572 953.32452 1.33922-1.47313c.62091-.65744 1.27834-.95572 1.99665-.87049.7183.0609 1.44879.43828 2.22797 1.12007.21305.16436.40176.37741.59656.61482.34089.44438.54177.83458.6696 1.22356.10958.48759.0852.93197-.0852 1.35808-.10348.21245-.2861.46203-.56003.76092l-1.34531 1.46097-4.83944-4.20636m7.0735 3.20742c.94963-1.04641 1.15659-2.17257.60265-3.44483-.32263-.68848-.81571-1.35809-1.49749-1.94247-.85832-.76092-1.75316-1.15051-2.6967-1.22295-1.04702-.0797-1.93577.29828-2.70887 1.14381l-2.28275 2.44712 6.29432 5.49139 2.28275-2.45928"/><path d="m419.72518 950.17128-7.24394-4.25506.59047-.93684 7.25612 4.23071-.59656.97336"/><path d="m422.56798 945.22896-7.82225-3.12951 2.30711-5.50296.94962.36524-1.88099 4.53508 2.35581.92588 1.75924-4.17653.90093.37194-1.74098 4.16983 2.63582 1.07077 1.92969-4.58925.94962.35854-2.34971 5.60097"/><path d="m426.15951 935.62313-8.23009-1.82012.27393-1.27226 7.6031-2.56886-6.67783-1.47314.2435-.99832 8.23009 1.77081-.26175 1.23573-7.61528 2.62426 6.67783 1.4427-.23741 1.0592"/><path d="m425.50817 925.17054.10348-1.03485c.47481.0128.87658-.0609 1.18095-.22462.59656-.32324.94353-.93745 1.03484-1.84508.0365-.4255.0183-.79744-.0791-1.15051-.17653-.68117-.56004-1.05919-1.17486-1.12007-.45655-.0487-.78527.0609-1.02267.31107-.21306.2861-.43829.69943-.60874 1.28443l-.37741 1.07746c-.2435.70552-.46873 1.19251-.71222 1.46644-.38959.51194-.93746.68848-1.6375.63978-.74874-.0791-1.35748-.37742-1.78968-.94963-.44438-.52351-.627-1.27225-.51743-2.19814.073-.84553.35307-1.55775.85223-2.12996.46264-.52351 1.18095-.7737 2.10014-.67631l-.0852 1.03485c-.45047 0-.80962.0791-1.07138.26176-.47481.26175-.73657.8157-.8157 1.62532-.067.67022.0243 1.12007.28002 1.46157.25566.28611.57829.46812.95571.49856.40176.0365.71831-.0913.93745-.40116.15827-.21367.34698-.6763.60265-1.42505l.37133-1.13224c.18262-.52352.40176-.92528.65743-1.21139.45655-.47481 1.05311-.67569 1.80186-.6203.9131.0968 1.56444.47482 1.89925 1.16877.32871.70005.45655 1.47314.37741 2.34972-.10348.99163-.42611 1.77142-1.02267 2.29493-.59656.53508-1.33922.7177-2.24014.64465"/><path d="m254.89807 924.67199.1887 1.02206c-.45655.0913-.82179.27454-1.08963.51195-.48091.44985-.64526 1.12616-.48091 2.04535.073.38898.21306.77248.38959 1.07746.36525.62091.84006.86988 1.44271.77248.44438-.0791.73657-.24897.87658-.56551.13392-.31107.23132-.78588.26176-1.39401l.0548-1.15111c.0365-.71222.11566-1.27165.27393-1.58271.24958-.56004.71831-.90702 1.41835-1.02207.74875-.13453 1.40618.0359 1.9723.46203.57222.39568.94963 1.08355 1.08964 1.99665.17653.83458.0974 1.58332-.23132 2.25841-.31654.65804-.92528 1.0592-1.85664 1.22964l-.18262-1.03424c.4322-.15827.75483-.31106.96789-.52351.36524-.40846.47481-.99833.3348-1.80794-.10957-.65805-.3348-1.08416-.67569-1.29661-.33481-.25019-.66961-.34759-1.03485-.2861-.40786.0609-.6757.2861-.80353.65134-.0791.24289-.14001.74814-.1948 1.52184l-.0548 1.19251c-.0304.56004-.11566 1.02328-.30437 1.33983-.29828.58377-.80353.94293-1.5401 1.05859-.93137.15827-1.64968-.0548-2.16101-.65135-.52352-.58439-.84614-1.28443-1.0105-2.15492-.18262-1.03485-.0487-1.83838.36524-2.48303.42002-.66352 1.08355-1.04702 1.98448-1.17486"/><path d="m254.38064 935.46485 8.04748-2.42276 1.8749 5.66671-.98006.31046-1.53401-4.65682-2.44712.73717 1.41835 4.30315-.93745.29828-1.40618-4.31532-2.72713.81509 1.55836 4.76031-.9618.27454z"/><path d="m257.94783 945.28923 7.40221-3.92574.79136 1.38122-5.08902 5.38122 7.43265-1.27226.767 1.37027-7.38395 3.90199-.52351-.90763 4.35854-2.29432c.15827-.0919.40176-.22584.75483-.41394.34698-.15827.73657-.37194 1.12616-.57282l-7.40221 1.26008-.54178-.9618 5.0525-5.36295-.24349.12235c-.15827.0907-.43221.22524-.80353.43768-.36524.22584-.63918.36524-.81571.43829l-4.34636 2.33146-.53569-.92467"/><path d="m271.74176 956.19167c-.37133-.0846-.73657-.29828-1.09572-.66961l-1.56445-1.61315 2.10622-1.92969 1.57662 1.60767c.30437.29828.49917.58986.60265.84005.1461.48029 0 .91919-.44438 1.33252-.40176.37133-.80353.52352-1.18094.43221m-5.94734.74874 2.58104-2.36798 1.83229 1.85664c.59047.60265 1.19312.87658 1.8262.86501.64526-.0371 1.19921-.27454 1.6862-.73717.54786-.48699.80961-1.0592.80961-1.67342-.006-.59716-.28001-1.15659-.78526-1.6801l-2.62974-2.68513-6.12387 5.62471.79136.79744"/><path d="m273.17837 963.51475 4.43768-6.95784 5.24729 3.18977-.54786.82848-4.30984-2.58103-1.33313 2.10622 3.96286 2.4039-.51133.79805-3.96895-2.39233-1.50967 2.35519 4.36463 2.62426-.52351.82179z"/><path d="m286.31487 962.16944 2.66626.84675c.37741.11505.65134.26115.83397.42612.34089.32263.4322.78465.23131 1.34469-.16435.48699-.41394.80353-.80353.93806-.34697.0603-.78526.0603-1.2966-.098l-2.51408-.80292.88267-2.65469m-2.30102 6.83609 1.1079-3.3176 2.48364.80962c.44437.11626.767.27453.92527.43828.30437.27394.39568.68179.2435 1.18765l-.37133 1.32034c-.0852.32263-.12783.53569-.16436.63309 0 .10409 0 .21366.0183.2861l1.30878.42612.0791-.18871c-.14001-.10957-.21914-.30985-.21306-.55943.0304-.15279.073-.39568.15827-.6763l.31655-1.0592c.12783-.46264.17653-.80962.0609-1.05859-.0974-.26237-.26176-.49977-.53569-.7244.41394-.0737.7731-.20149 1.07746-.42672.28611-.24958.5296-.59656.6757-1.08294.29828-.88327.13392-1.61984-.52351-2.17988-.32872-.29158-.79745-.54177-1.41227-.77309l-3.72546-1.1499-2.60538 7.76076 1.08964.3348"/></g><path d="m295.31806 827.76141c.9618-2.31989 9.87368-8.64465 39.11729-5.8749 0 0 4.94293 3.01932 7.84659 2.63034 1.65576-.21367-.97397.10288-3.13498-1.69289-2.20362-1.79516-2.67235-5.47801 2.36189-5.38061 5.00989.12784 23.76501 1.18703 24.11807 2.87262.32872 1.70446-9.91629 2.41668-13.72697 2.31928-3.82894-.10288-3.38456 1.8329.42612 1.6868 11.90685-.42611 24.90334-4.6209 38.63031 5.08903 1.63749 1.18033-4.1394 1.36904-8.60751-.53021 0 0-12.10774.6276-17.34286-.23071 0 0-4.02373 3.27438-9.26494 2.95236.68178 1.69776-1.93578 8.0353-18.41423 3.2683-2.72104.83458-12.63733 2.49581-11.55378-.44986-2.61148 0-7.18916.84006-7.87094-.64586-.65743-1.46036 8.05964-3.67067 9.58757-5.25278 0 0-18.43858.17654-21.93271-1.09633 0 0-10.87809 2.44103-10.23892.32324" fill="#bc715f"/><path d="m301.22887 853.58333c.39568-.53508.55395-1.49749 1.39401-1.47253 1.8262.48638 3.06802 3.82833 5.31425 1.66124.79744-.17654 1.10181.90762 1.75924 1.03545.42003 1.85664 1.91143-.37741 3.02542-.25019 2.38015-1.0592 5.32643-1.30878 8.14486-.78526.0852 1.82011-1.33921 3.82894-3.12889 4.86379.0365 1.8329 1.69837 3.00775 1.66793 4.85161-.2861.68848-.0487 1.77142-1.08963 1.99665-1.32096-.2374-2.62365-.37741-3.71937-1.11398-.13392-.13392-.24349-.39568-.52351-.31046-.13392.61483.82788 1.22417 1.20529 1.85056-.66352 1.13224-1.76533.0974-2.69061.10957-.27393.65135-.0122 1.47314-.68178 1.89316-1.16877-.0365-1.40618-1.30817-2.12448-1.94186-.73657.79744.51742 1.27226.69395 1.90534-.45046 2.39842-.38959 4.74204-2.788 6.31258l-1.60706.79805c-.43829-1.20529-.16436-3.03211-.45655-4.29219-.94963 1.54619-1.69228 2.89819-3.08629 4.20636-1.63141-.53569-2.58103-2.45929-2.94019-4.05417-.68178-1.85664-.29219-4.07853 1.17486-5.42383-.49916-.97398-2.20971-.74874-2.4532-2.13605-2.56277-1.66854-3.98113 2.92193-5.63688.53508-.53569-2.22736.10348-4.99772 1.71663-6.65956-.35916-.9125-1.55228-.67509-2.25841-1.1986-1.61314-1.37026-3.93851-2.81844-3.82285-5.29051 4.41332-1.66733 9.69106-.44377 12.89909 2.90975" fill="#008830"/><path d="m303.51772 853.33435c-.10349 2.0204 1.36356.54726 2.4532 1.77081-.85223-.3348-1.47314 1.47314-2.30711.43829l-.52351.49977c.30437.69335.89484.78466.28002 1.54558-.9131.34698-1.09572-.79683-1.52184-1.2479-.0731-.20028.14001-.5783-.19479-.71222-.51743.43829-1.0592.59656-1.77142.52412-.1948-.3902-.57221-.90093-.18871-1.19921.70004-.94415 1.78359.34028 2.31319-.32263.0852-.58439-.42611-1.29661.23741-1.69898.45655.0791 1.04094-.16984 1.22964.40237" fill="#f9d90f"/><path d="m308.97807 854.9895c.0548.3902-.20089.93746.31045 1.212.66352-.35977 1.36965-.0858 1.75316.57221-.006.35245.10348.81509-.35916.98554l-1.03484-.19419c.073-.20149-.25567-.32871-.38351-.52351-.45655-.14001-.72439.23071-1.06528.45594.25566.38959.84614.60265.70613 1.10242-.60874.60813-.90702-.52351-1.57662-.23801-.45656-.17593.16435-1.12555-.55395-1.41166-.85223 0-.28611 1.39948-1.37574.85223-.38959-.4389-.7731-1.02876-.35307-1.52184.45655-.30497 1.22964-.22584 1.61923.16984.66353-.73596.73049-3.57875 2.31928-1.46097" fill="#f9d90f"/><path d="m302.1785 857.92361c.44438.63978-.0974 1.50966.46872 2.22188.88876-1.66124 1.74707.35915 2.80627.20088.32263.39568.10957.94415.17045 1.394-1.30878.34698-2.8854.76092-4.042-.2861l-.32263.37133c.68787.63978 1.33922 1.36356.79135 2.43494-.98006.21305-2.49581.2374-2.98888-.7731-.25567-.83336.59656-1.436-.30437-2.10622-.65135.80962-.62091 1.89377-1.97839 1.1566-.84005-.46264-1.08963-1.41775-.66961-2.22189.87658-1.38182 2.41059.0432 3.36022-.63308.13392-1.18703-.30437-2.22188.78527-2.87871.93136-.16496 1.36356.53508 1.92969 1.11947" fill="#f9d90f"/><path d="m305.89178 858.648c-.43829 2.021-1.96012-.10348-2.67234-.18871.94962-1.68558 1.54618.54847 2.67234.18871" fill="#fff"/><path d="m310.63383 860.84614c-1.0592.29767-.89484-1.02328-1.41836-1.54071l.40786-.37132c.3835.46263.67569 1.29721 1.0105 1.91203" fill="#fff"/><path d="m309.19721 860.44377c.30437.70004-.68787 1.26069.15827 1.77142.26785-.22463.59656-.53569.73657-.66352.7244.21366 1.56445.3415 2.0697 1.05919.54177 1.48593-.9618 1.44879-1.81403 1.86273l-.84614-.0365c.20088-.41394-.36524-.59047-.50525-.87597-.38959-.0974-.71222.0237-.93137.35246.18871.94414 1.33922 1.68011.15219 2.52016-1.00441-.0663-2.56278.32263-2.47146-1.06529-.37742-.78526 1.02267-1.99665-.47482-2.04474-.49307 1.0592-1.03485 2.08127-2.31928 1.07746l.15827-1.50966c1.22965.0359 2.68452.24897 3.23847-1.12616.35307-.99832-.61482-1.91751.24958-2.70887 1.254-.2861 1.96013.55395 2.5993 1.38731" fill="#f9d90f"/><path d="m308.29628 862.71435c.31655.74935-.53568.79805-.93745 1.16877-.54177.0432-.91919-.17045-1.2479-.53569-.2435-.90701.4322-.99832.94962-1.35687.60265-.25019.85223.44986 1.23573.72379"/><path d="m307.55971 863.20134c-.13392.17653-.32262.12235-.52351.17044l-.1887-.9064c.40176.0359.92527.16375.71221.73596" fill="#fff"/></g></svg>